<svg width="973" height="726" viewBox="0 0 973 726" fill="none" xmlns="http://www.w3.org/2000/svg">
<line x1="425.752" y1="365.566" x2="702.752" y2="207.566" stroke="black" stroke-dasharray="8 8"/>
<line x1="426.25" y1="364.567" x2="701.25" y2="523.567" stroke="black" stroke-dasharray="8 8"/>
<line x1="151.251" y1="205.568" x2="426.251" y2="365.568" stroke="black" stroke-dasharray="8 8"/>
<line x1="426.5" y1="47.0001" x2="426.462" y2="366" stroke="black" stroke-dasharray="8 8"/>
<line x1="426.5" y1="366" x2="426.5" y2="681" stroke="black" stroke-dasharray="8 8"/>
<line x1="426.249" y1="366.434" x2="151.249" y2="524.434" stroke="black" stroke-dasharray="8 8"/>
<path d="M149.372 206.289L426 46.5774L702.628 206.289V525.711L426 685.423L149.372 525.711V206.289Z" fill="#E9E9E9" fill-opacity="0.5" stroke="#B9B9B9"/>
<path d="M73.9894 190.545V208H70.2991V194.048H70.1968L66.1997 196.554V193.281L70.5207 190.545H73.9894ZM82.5079 208.222C81.9454 208.222 81.4624 208.023 81.059 207.625C80.6613 207.222 80.4624 206.739 80.4624 206.176C80.4624 205.619 80.6613 205.142 81.059 204.744C81.4624 204.347 81.9454 204.148 82.5079 204.148C83.0533 204.148 83.5306 204.347 83.9397 204.744C84.3488 205.142 84.5533 205.619 84.5533 206.176C84.5533 206.551 84.4568 206.895 84.2636 207.207C84.0761 207.514 83.8289 207.761 83.5221 207.949C83.2153 208.131 82.8772 208.222 82.5079 208.222ZM104.152 188.56V190.816H115.216V188.56H104.152ZM103.768 195.472V197.728H115.648V195.472H103.768ZM103.768 198.904V201.16H115.552V198.904H103.768ZM104.92 206.92V209.2H114.472V206.92H104.92ZM101.872 191.992V194.32H117.328V191.992H101.872ZM103.384 202.36V210.136H106.144V204.592H113.08V210.064H115.984V202.36H103.384ZM100.096 187.672C98.8 191.104 96.568 194.512 94.288 196.672C94.768 197.368 95.536 198.952 95.776 199.624C98.512 196.912 101.152 192.616 102.784 188.536L100.096 187.672ZM97.792 194.32V210.088H100.528V191.608L100.504 191.584L97.792 194.32ZM130.984 187.648C130.072 188.776 128.392 190.192 126.784 191.2C127.144 191.68 127.648 192.568 127.816 193.096C129.784 192.088 132.04 190.648 133.696 189.208L130.984 187.648ZM126.496 190.36V204.592H129.16V191.08L126.496 190.36ZM124.792 204.232L125.872 206.872C127.792 206.272 130.192 205.576 132.4 204.856L131.968 202.288C129.352 203.032 126.664 203.776 124.792 204.232ZM132.496 190.216V210.16H135.208V192.736H139.48V190.216H132.496ZM137.968 190.216V203.152C137.968 203.44 137.872 203.512 137.632 203.512C137.368 203.512 136.6 203.536 135.832 203.488C136.192 204.232 136.504 205.456 136.552 206.248C138.016 206.248 139.024 206.2 139.768 205.744C140.536 205.264 140.728 204.472 140.728 203.2V190.216H137.968ZM123.76 187.672C122.512 191.104 120.376 194.512 118.192 196.672C118.648 197.368 119.416 198.904 119.68 199.576C122.296 196.84 124.816 192.568 126.376 188.512L123.76 187.672ZM121.456 194.32V210.088H124.192V191.608L124.168 191.584L121.456 194.32Z" fill="black"/>
<path d="M717.866 542.239C716.594 542.239 715.46 542.02 714.466 541.582C713.477 541.139 712.696 540.531 712.122 539.759C711.554 538.98 711.261 538.082 711.244 537.065H714.96C714.983 537.491 715.122 537.866 715.378 538.19C715.639 538.509 715.986 538.756 716.418 538.932C716.849 539.108 717.335 539.196 717.875 539.196C718.438 539.196 718.935 539.097 719.366 538.898C719.798 538.699 720.136 538.423 720.381 538.071C720.625 537.719 720.747 537.312 720.747 536.852C720.747 536.386 720.616 535.974 720.355 535.616C720.099 535.253 719.73 534.969 719.247 534.764C718.77 534.56 718.202 534.457 717.543 534.457H715.915V531.747H717.543C718.099 531.747 718.591 531.651 719.017 531.457C719.449 531.264 719.784 530.997 720.023 530.656C720.261 530.31 720.381 529.906 720.381 529.446C720.381 529.009 720.276 528.625 720.065 528.295C719.861 527.96 719.571 527.699 719.196 527.511C718.827 527.324 718.395 527.23 717.901 527.23C717.401 527.23 716.943 527.321 716.528 527.503C716.114 527.679 715.781 527.932 715.531 528.261C715.281 528.591 715.148 528.977 715.131 529.42H711.594C711.611 528.415 711.898 527.528 712.455 526.761C713.011 525.994 713.761 525.395 714.705 524.963C715.653 524.526 716.724 524.307 717.918 524.307C719.122 524.307 720.176 524.526 721.08 524.963C721.983 525.401 722.685 525.991 723.185 526.736C723.69 527.474 723.94 528.304 723.935 529.224C723.94 530.202 723.636 531.017 723.023 531.67C722.415 532.324 721.622 532.739 720.645 532.915V533.051C721.929 533.216 722.906 533.662 723.577 534.389C724.253 535.111 724.588 536.014 724.582 537.099C724.588 538.094 724.301 538.977 723.722 539.75C723.148 540.523 722.355 541.131 721.344 541.574C720.332 542.017 719.173 542.239 717.866 542.239ZM728.899 542.222C728.337 542.222 727.854 542.023 727.45 541.625C727.053 541.222 726.854 540.739 726.854 540.176C726.854 539.619 727.053 539.142 727.45 538.744C727.854 538.347 728.337 538.148 728.899 538.148C729.445 538.148 729.922 538.347 730.331 538.744C730.74 539.142 730.945 539.619 730.945 540.176C730.945 540.551 730.848 540.895 730.655 541.207C730.467 541.514 730.22 541.761 729.913 541.949C729.607 542.131 729.268 542.222 728.899 542.222ZM742.917 521.624V541.424C742.917 541.832 742.773 541.976 742.317 542C741.909 542 740.493 542.024 739.341 541.976C739.701 542.552 740.157 543.56 740.301 544.232C742.341 544.232 743.637 544.184 744.573 543.824C745.485 543.416 745.845 542.84 745.845 541.424V521.624H742.917ZM733.917 523.184V525.464H755.037V523.184H733.917ZM739.125 528.248H749.733V529.4H739.125V528.248ZM736.389 526.424V531.224H752.685V526.424H736.389ZM735.789 532.28V534.248H750.165V541.664H753.093V532.28H735.789ZM733.365 535.256V537.44H755.589V535.256H733.365ZM735.597 538.568V540.656H751.725V538.568H735.597ZM766.965 521.648V525.488H769.917V521.648H766.965ZM758.181 523.736V528.896H761.037V526.256H775.773V528.896H778.749V523.736H758.181ZM760.317 528.152V530.48H776.805V528.152H760.317ZM757.989 535.76V538.256H779.085V535.76H757.989ZM760.701 531.92V534.248H776.325V531.92H760.701ZM769.893 536.264L767.301 536.792C769.149 541.064 772.221 543.344 777.717 544.232C778.077 543.464 778.821 542.312 779.421 541.712C774.429 541.184 771.309 539.432 769.893 536.264ZM766.893 526.784V533.432C766.893 536.648 765.837 539.936 757.533 541.832C758.157 542.432 758.997 543.536 759.309 544.16C768.045 541.808 769.797 537.68 769.797 533.456V526.784H766.893ZM796.389 532.88C796.389 538.016 798.525 541.856 801.117 544.424L803.397 543.392C800.973 540.824 799.101 537.488 799.101 532.88C799.101 528.296 800.973 524.96 803.397 522.392L801.117 521.36C798.525 523.928 796.389 527.768 796.389 532.88ZM816.861 521.624C816.141 525.176 814.797 528.608 812.877 530.72C813.477 531.08 814.605 531.896 815.061 532.328C817.005 529.928 818.589 526.112 819.453 522.128L816.861 521.624ZM824.925 525.368V525.992C824.541 536.192 824.085 539.912 823.413 540.752C823.125 541.088 822.909 541.208 822.549 541.208C822.093 541.208 821.277 541.184 820.389 541.088C820.821 541.88 821.109 543.104 821.181 543.92C822.237 543.968 823.245 543.968 823.917 543.824C824.709 543.68 825.237 543.392 825.789 542.576C826.701 541.376 827.133 537.44 827.589 526.664C827.613 526.304 827.637 525.368 827.637 525.368H824.925ZM817.581 525.368L816.261 528.032H826.149V525.368H817.581ZM819.261 526.232C818.349 530.264 816.237 534.776 813.453 536.96C814.197 537.368 815.109 538.04 815.661 538.592C818.277 536.144 820.389 531.392 821.349 527.264L819.261 526.232ZM822.597 526.496C821.493 532.664 819.021 538.928 814.821 541.928C815.613 542.312 816.621 543.032 817.173 543.608C821.133 540.296 823.677 533.768 824.829 527.528L822.597 526.496ZM805.101 534.704L805.797 537.464C808.341 536.72 811.629 535.736 814.653 534.8L814.269 532.256C810.957 533.192 807.453 534.176 805.101 534.704ZM809.421 521.624V544.16H812.061V521.624H809.421ZM806.253 522.992C806.037 525.848 805.629 528.848 804.861 530.768C805.437 531.056 806.469 531.728 806.901 532.064C807.765 529.928 808.341 526.568 808.653 523.4L806.253 522.992ZM806.901 526.256L806.373 529.016H814.053V526.256H806.901ZM840.789 529.352H848.061V531.416H840.789V529.352ZM840.789 525.08H848.061V527.096H840.789V525.08ZM838.197 522.632V533.84H850.797V522.632H838.197ZM838.029 535.904V538.496H851.061V535.904H838.029ZM836.349 540.8V543.392H851.853V540.8H836.349ZM829.317 522.992V525.68H837.285V522.992H829.317ZM829.557 529.904V532.568H836.877V529.904H829.557ZM829.053 539.024L829.701 541.952C832.005 541.208 834.885 540.272 837.573 539.36L837.069 536.6C834.189 537.536 831.117 538.496 829.053 539.024ZM831.981 524.048V539.24L834.717 538.808V524.048H831.981ZM843.261 523.664V532.712H842.997V542.024H845.949V532.712H845.685V523.664H843.261ZM864.477 529.832C862.773 529.832 861.405 531.2 861.405 532.88C861.405 534.584 862.773 535.952 864.477 535.952C866.157 535.952 867.525 534.584 867.525 532.88C867.525 531.2 866.157 529.832 864.477 529.832ZM880.893 523.856V544.136H883.701V523.856H880.893ZM877.245 528.368V531.056H886.869V528.368H877.245ZM881.061 529.448C880.293 532.112 878.613 535.592 876.933 537.512C877.389 538.232 878.013 539.432 878.277 540.272C880.125 537.896 881.829 533.624 882.741 530.192L881.061 529.448ZM885.189 521.84C883.197 522.656 880.173 523.4 877.437 523.808C877.725 524.432 878.085 525.392 878.205 526.04C881.013 525.704 884.301 525.104 886.797 524.192L885.189 521.84ZM883.629 531.176L882.381 532.328C883.101 533.36 884.589 535.784 885.141 537.008L886.821 534.752C886.341 534.152 884.229 531.752 883.629 531.176ZM894.189 521.6V544.136H897.021V521.6H894.189ZM886.461 537.08L886.893 539.84L899.853 537.56L899.421 534.848L886.461 537.08ZM888.021 524.696C889.341 525.752 890.925 527.288 891.597 528.32L893.613 526.52C892.869 525.488 891.213 524.048 889.893 523.064L888.021 524.696ZM887.133 531.008C888.525 532.064 890.205 533.648 890.973 534.704L892.941 532.856C892.125 531.8 890.349 530.336 888.957 529.352L887.133 531.008ZM906.069 529.832V532.304H917.133V529.832H906.069ZM901.773 535.208V537.872H923.253V535.208H901.773ZM911.013 533.672V540.992C911.013 541.328 910.869 541.448 910.389 541.448C909.909 541.448 908.109 541.448 906.573 541.4C907.029 542.144 907.557 543.368 907.749 544.184C909.789 544.184 911.325 544.136 912.453 543.752C913.605 543.32 913.965 542.576 913.965 541.088V533.672H911.013ZM916.197 529.832V530.36C915.309 531.536 913.269 533.24 911.421 534.2C911.853 534.584 912.621 535.376 912.957 535.856C915.309 534.728 917.685 532.856 919.341 531.08L917.517 529.688L916.917 529.832H916.197ZM902.061 525.44V531.32H904.773V527.984H920.133V531.32H922.989V525.44H902.061ZM918.693 521.792C918.117 523.136 917.037 524.936 916.125 526.112L918.477 526.976C919.461 525.92 920.709 524.288 921.813 522.704L918.693 521.792ZM903.669 522.968C904.485 523.976 905.373 525.344 905.709 526.232L908.325 525.032C907.941 524.096 906.981 522.8 906.117 521.864L903.669 522.968ZM909.717 522.44C910.437 523.544 911.181 525.056 911.421 526.016L914.157 524.96C913.845 524 913.029 522.536 912.261 521.48L909.717 522.44ZM927.909 525.512V528.032H932.661V539.144H927.909V541.688H935.277V525.512H927.909ZM926.229 525.512V543.464H928.845V525.512H926.229ZM927.789 531.92V534.416H933.933V531.92H927.789ZM929.637 521.6C929.517 522.92 929.181 524.768 928.845 526.016L931.149 526.52C931.629 525.392 932.229 523.688 932.781 522.056L929.637 521.6ZM938.445 525.344V527.96H945.453V525.344H938.445ZM944.469 525.344V525.896C944.205 535.904 943.893 540.032 943.125 540.848C942.813 541.184 942.549 541.28 942.069 541.28C941.469 541.28 940.029 541.256 938.469 541.136C938.997 541.904 939.381 543.128 939.429 543.92C940.821 543.992 942.285 544.016 943.197 543.872C944.181 543.728 944.853 543.464 945.525 542.528C946.509 541.256 946.797 537.44 947.109 526.64C947.133 526.28 947.133 525.344 947.133 525.344H944.469ZM938.517 521.624C937.749 524.816 936.381 528.08 934.773 530.096C935.445 530.48 936.621 531.296 937.149 531.776C938.781 529.472 940.341 525.824 941.277 522.272L938.517 521.624ZM937.341 532.256C938.493 534.032 940.005 536.384 940.653 537.848L943.101 536.36C942.357 534.944 940.773 532.64 939.597 530.984L937.341 532.256ZM956.541 532.88C956.541 527.768 954.405 523.928 951.813 521.36L949.533 522.392C951.957 524.96 953.829 528.296 953.829 532.88C953.829 537.488 951.957 540.824 949.533 543.392L951.813 544.424C954.405 541.856 956.541 538.016 956.541 532.88Z" fill="black"/>
<path d="M378.151 716.932V714.026L385.438 702.545H387.943V706.568H386.46L381.866 713.838V713.974H392.222V716.932H378.151ZM386.528 720V716.045L386.597 714.759V702.545H390.057V720H386.528ZM396.509 720.222C395.946 720.222 395.463 720.023 395.06 719.625C394.662 719.222 394.463 718.739 394.463 718.176C394.463 717.619 394.662 717.142 395.06 716.744C395.463 716.347 395.946 716.148 396.509 716.148C397.054 716.148 397.531 716.347 397.94 716.744C398.349 717.142 398.554 717.619 398.554 718.176C398.554 718.551 398.457 718.895 398.264 719.207C398.077 719.514 397.83 719.761 397.523 719.949C397.216 720.131 396.878 720.222 396.509 720.222ZM401.43 706.08V709.056H422.79V706.08H401.43ZM413.742 707.28L410.838 707.952C412.662 714.552 415.662 719.52 421.158 722.088C421.638 721.248 422.598 720 423.318 719.352C418.23 717.336 415.182 712.776 413.742 707.28ZM410.43 699.624C410.358 706.128 410.79 715.248 400.95 719.64C401.79 720.264 402.678 721.296 403.134 722.088C413.43 717.12 413.478 706.944 413.598 699.624H410.43ZM429.846 705.576C431.31 706.344 433.182 707.544 434.046 708.384L436.086 706.608C435.15 705.768 433.23 704.664 431.79 703.968L429.846 705.576ZM440.67 701.424V701.832C438.294 706.32 431.814 709.2 425.334 710.232C425.838 710.856 426.414 711.984 426.654 712.704C433.638 711.288 440.43 708.168 443.55 702.384L441.678 701.304L441.222 701.424H440.67ZM433.086 701.424V703.776H441.318V701.424H433.086ZM434.406 699.552C432.774 701.52 429.798 703.536 425.526 704.928C426.15 705.384 427.038 706.368 427.446 707.04C431.934 705.264 435.102 703.008 437.55 700.224L434.406 699.552ZM433.11 714.672C434.598 715.536 436.47 716.88 437.31 717.792L439.542 716.016C438.582 715.08 436.662 713.856 435.198 713.064L433.11 714.672ZM443.694 710.184V710.592C441.462 716.256 434.958 718.776 427.35 719.568C427.83 720.216 428.358 721.392 428.574 722.184C436.83 721.032 443.766 718.2 446.694 711.048L444.774 710.064L444.27 710.184H443.694ZM436.638 710.184V712.584H444.462V710.184H436.638ZM438.318 707.856C436.47 710.136 433.038 712.44 428.022 713.952C428.622 714.456 429.438 715.512 429.774 716.184C435.078 714.264 438.774 711.72 441.462 708.576L438.318 707.856ZM448.782 712.152V714.456H460.926V712.152H448.782ZM449.07 703.68V705.936H460.854V703.68H449.07ZM453.102 710.424C452.07 712.704 450.486 715.704 449.358 717.552L451.878 718.32C453.03 716.4 454.59 713.472 455.766 711L453.102 710.424ZM456.51 713.76C455.742 717.696 453.654 719.208 448.878 719.808C449.358 720.384 449.886 721.392 450.054 722.184C455.766 721.032 458.286 719.016 459.15 713.976L456.51 713.76ZM458.214 699.912C457.83 700.824 457.158 702.12 456.606 702.96L458.454 703.8C459.078 703.056 459.846 701.952 460.638 700.872L458.214 699.912ZM453.63 699.6V710.76H456.27V699.6H453.63ZM449.646 700.872C450.246 701.856 450.798 703.128 450.966 703.968L453.174 703.008C452.958 702.144 452.358 700.92 451.71 700.008L449.646 700.872ZM453.702 704.808C452.67 706.44 450.51 708.144 448.566 708.936C449.094 709.464 449.718 710.424 450.054 711.048C452.07 709.92 454.374 707.832 455.574 705.936L453.702 704.808ZM456.03 705.504L454.686 706.632C455.742 707.376 457.878 709.08 458.766 709.968L460.302 707.976C459.63 707.52 456.894 705.912 456.03 705.504ZM462.51 703.968V706.632H471.318V703.968H462.51ZM462.774 699.6C462.198 703.896 461.022 708.024 459.006 710.472C459.654 710.952 460.83 711.984 461.286 712.512C463.494 709.584 464.934 704.976 465.678 700.008L462.774 699.6ZM467.118 705.6C466.398 712.704 464.31 717.216 458.838 719.616C459.366 720.24 460.206 721.56 460.494 722.256C466.566 719.208 469.038 714.072 470.07 705.864L467.118 705.6ZM464.142 706.104L461.526 706.512C462.702 713.688 464.79 719.256 469.614 722.136C470.046 721.344 470.958 720.192 471.63 719.616C467.214 717.36 465.102 712.176 464.142 706.104ZM451.47 717.576C454.158 718.68 456.942 720.36 458.478 721.704L460.47 719.664C458.838 718.368 455.838 716.688 453.006 715.608L451.47 717.576Z" fill="black"/>
<path d="M7.78977 542.239C6.58523 542.239 5.51136 542.017 4.56818 541.574C3.63068 541.131 2.88636 540.52 2.33523 539.741C1.78409 538.963 1.49716 538.071 1.47443 537.065H5.05398C5.09375 537.741 5.37784 538.29 5.90625 538.71C6.43466 539.131 7.0625 539.341 7.78977 539.341C8.36932 539.341 8.88068 539.213 9.32386 538.957C9.77273 538.696 10.1222 538.335 10.3722 537.875C10.6278 537.409 10.7557 536.875 10.7557 536.273C10.7557 535.659 10.625 535.119 10.3636 534.653C10.108 534.187 9.75284 533.824 9.2983 533.562C8.84375 533.301 8.32386 533.168 7.73864 533.162C7.22727 533.162 6.73011 533.267 6.24716 533.477C5.76989 533.687 5.39773 533.974 5.13068 534.338L1.84943 533.75L2.67614 524.545H13.3466V527.562H5.71875L5.26705 531.935H5.36932C5.67614 531.503 6.1392 531.145 6.75852 530.861C7.37784 530.577 8.07102 530.435 8.83807 530.435C9.8892 530.435 10.8267 530.682 11.6506 531.176C12.4744 531.67 13.125 532.349 13.6023 533.213C14.0795 534.071 14.3153 535.06 14.3097 536.179C14.3153 537.355 14.0426 538.401 13.4915 539.315C12.946 540.224 12.1818 540.94 11.1989 541.463C10.2216 541.98 9.08523 542.239 7.78977 542.239ZM18.4773 542.222C17.9148 542.222 17.4318 542.023 17.0284 541.625C16.6307 541.222 16.4318 540.739 16.4318 540.176C16.4318 539.619 16.6307 539.142 17.0284 538.744C17.4318 538.347 17.9148 538.148 18.4773 538.148C19.0227 538.148 19.5 538.347 19.9091 538.744C20.3182 539.142 20.5227 539.619 20.5227 540.176C20.5227 540.551 20.4261 540.895 20.233 541.207C20.0455 541.514 19.7983 541.761 19.4915 541.949C19.1847 542.131 18.8466 542.222 18.4773 542.222ZM29.4707 531.248V533.984H45.0467V531.248H29.4707ZM30.6707 525.08V527.816H43.8947V525.08H30.6707ZM35.6627 521.624V533.24H38.6627V521.624H35.6627ZM29.4707 540.296L29.8547 543.2C33.2387 542.96 37.9907 542.6 42.4787 542.216V539.624C37.7507 539.888 32.6867 540.176 29.4707 540.296ZM38.6627 536.984C40.4147 539.192 42.2387 542.216 42.8867 544.184L45.6227 542.672C44.8787 540.632 42.9347 537.8 41.1587 535.664L38.6627 536.984ZM33.8147 533.168C33.1907 535.64 31.9907 538.928 30.9107 541.04L33.4787 541.856C34.5827 539.864 35.9507 536.792 37.0067 534.008L33.8147 533.168ZM24.0947 523.832C25.6787 524.504 27.6707 525.656 28.6067 526.52L30.2867 524.168C29.2787 523.328 27.2387 522.296 25.6787 521.72L24.0947 523.832ZM22.7267 530.384C24.3107 530.984 26.3267 532.064 27.2867 532.856L28.8947 530.456C27.8387 529.664 25.7747 528.728 24.2147 528.2L22.7267 530.384ZM23.3987 541.976L25.8947 543.848C27.2387 541.52 28.6547 538.784 29.8307 536.24L27.6467 534.416C26.3267 537.176 24.5987 540.176 23.3987 541.976ZM55.1747 523.928V526.256H65.1347V531.176H55.0787V533.504H67.8707V523.928H55.1747ZM59.8307 521.6V544.136H62.5907V521.6H59.8307ZM54.2147 527.48V529.928H69.3347V527.48H54.2147ZM53.7827 538.352V540.824H69.0707V538.352H53.7827ZM54.7427 534.704V537.056H68.1107V534.704H54.7427ZM52.1507 526.952C50.7827 529.28 48.5027 531.632 46.5107 533.144C46.9187 533.864 47.6387 535.424 47.8307 536.048C50.1827 534.056 52.8947 530.864 54.5987 527.984L52.1507 526.952ZM51.5987 521.672C50.6147 523.256 48.5747 525.224 46.7267 526.376C47.1827 526.952 47.8787 528.128 48.1667 528.8C50.3747 527.336 52.7747 524.96 54.3347 522.752L51.5987 521.672ZM49.8947 532.304V544.16H52.5827V529.808L52.4627 529.736L49.8947 532.304ZM82.0547 529.832C80.3507 529.832 78.9827 531.2 78.9827 532.88C78.9827 534.584 80.3507 535.952 82.0547 535.952C83.7347 535.952 85.1027 534.584 85.1027 532.88C85.1027 531.2 83.7347 529.832 82.0547 529.832ZM95.3747 525.32V527.84H104.183V525.32H95.3747ZM94.9667 530.888V533.48H104.567V530.888H94.9667ZM98.4707 521.864V530.528C98.4707 534.176 98.2307 539.168 94.6547 541.784C95.3027 542.288 96.2147 543.272 96.5987 543.872C100.631 540.56 101.183 535.016 101.183 530.528V521.864H98.4707ZM100.799 533.888L99.0227 535.232C100.055 536.432 102.071 539.072 102.959 540.536L104.903 538.448C104.303 537.728 101.615 534.632 100.799 533.888ZM107.975 528.704H113.231V530.096H107.975V528.704ZM107.975 532.376H113.231V533.792H107.975V532.376ZM107.975 525.008H113.231V526.4H107.975V525.008ZM105.311 522.464V536.336H115.991V522.464H105.311ZM110.759 535.448V540.512C110.759 542.864 111.215 543.68 113.351 543.68C113.759 543.68 114.551 543.68 114.959 543.68C116.663 543.68 117.311 542.816 117.551 539.384C116.855 539.192 115.703 538.76 115.199 538.328C115.127 540.872 115.055 541.208 114.671 541.208C114.503 541.208 113.975 541.208 113.831 541.208C113.471 541.208 113.447 541.136 113.447 540.464V535.448H110.759ZM106.871 535.928C106.583 538.688 105.959 540.8 102.239 542.024C102.791 542.528 103.511 543.536 103.799 544.184C108.215 542.528 109.199 539.672 109.583 535.928H106.871ZM131.807 524.552V538.136H134.591V524.552H131.807ZM137.471 522.104V540.656C137.471 541.112 137.279 541.256 136.823 541.256C136.319 541.28 134.759 541.28 133.175 541.208C133.607 542.024 134.063 543.368 134.183 544.184C136.391 544.184 137.999 544.088 139.007 543.632C139.967 543.152 140.327 542.36 140.327 540.68V522.104H137.471ZM121.679 538.352C121.031 539.888 119.855 541.472 118.583 542.504C119.279 542.888 120.455 543.728 121.007 544.232C122.279 543.008 123.695 541.04 124.511 539.12L121.679 538.352ZM125.615 539.408C126.647 540.728 127.727 542.576 128.183 543.776L130.823 542.528C130.295 541.328 129.191 539.624 128.111 538.376L125.615 539.408ZM122.855 529.328H127.103V531.32H122.855V529.328ZM122.855 533.6H127.103V535.592H122.855V533.6ZM122.855 525.104H127.103V527.072H122.855V525.104ZM120.143 522.56V538.136H129.959V522.56H120.143Z" fill="black"/>
<path d="M711.415 208V205.341L717.628 199.588C718.156 199.077 718.599 198.616 718.957 198.207C719.321 197.798 719.597 197.398 719.784 197.006C719.972 196.608 720.065 196.179 720.065 195.719C720.065 195.207 719.949 194.767 719.716 194.398C719.483 194.023 719.165 193.736 718.761 193.537C718.358 193.332 717.901 193.23 717.389 193.23C716.855 193.23 716.389 193.338 715.991 193.554C715.594 193.77 715.287 194.08 715.071 194.483C714.855 194.886 714.747 195.366 714.747 195.923H711.244C711.244 194.781 711.503 193.79 712.02 192.949C712.537 192.108 713.261 191.457 714.193 190.997C715.125 190.537 716.199 190.307 717.415 190.307C718.665 190.307 719.753 190.528 720.679 190.972C721.611 191.409 722.335 192.017 722.852 192.795C723.369 193.574 723.628 194.466 723.628 195.472C723.628 196.131 723.497 196.781 723.236 197.423C722.98 198.065 722.523 198.778 721.864 199.562C721.205 200.341 720.276 201.276 719.077 202.366L716.528 204.864V204.983H723.858V208H711.415ZM728.688 208.222C728.126 208.222 727.643 208.023 727.239 207.625C726.842 207.222 726.643 206.739 726.643 206.176C726.643 205.619 726.842 205.142 727.239 204.744C727.643 204.347 728.126 204.148 728.688 204.148C729.234 204.148 729.711 204.347 730.12 204.744C730.529 205.142 730.734 205.619 730.734 206.176C730.734 206.551 730.637 206.895 730.444 207.207C730.256 207.514 730.009 207.761 729.702 207.949C729.396 208.131 729.058 208.222 728.688 208.222ZM733.658 192.28V195.208H754.898V192.28H733.658ZM738.602 203.176V206.104H749.738V203.176H738.602ZM742.706 187.624V210.16H745.778V187.624H742.706ZM741.842 193.336C740.138 197.752 736.658 202.072 732.722 204.232C733.37 204.808 734.33 205.912 734.81 206.632C739.01 203.992 742.418 199.408 744.482 194.176L741.842 193.336ZM746.642 193.408L744.026 194.272C746.114 199.384 749.474 203.968 753.698 206.56C754.178 205.744 755.21 204.544 755.93 203.944C751.898 201.856 748.394 197.68 746.642 193.408ZM760.61 187.504C760.106 189.424 759.122 191.968 758.258 193.6L760.754 194.248C761.666 192.712 762.746 190.36 763.61 188.152L760.61 187.504ZM756.986 192.424L757.202 195.16C759.938 194.992 763.634 194.776 767.162 194.512L767.186 192.016C763.466 192.184 759.578 192.352 756.986 192.424ZM758.402 196.288V210.136H761.066V198.664H766.034V196.288H758.402ZM764.666 196.288V207.184C764.666 207.496 764.57 207.568 764.282 207.568C763.97 207.592 763.01 207.592 762.17 207.544C762.53 208.24 762.938 209.344 763.082 210.112C764.546 210.112 765.626 210.064 766.466 209.632C767.282 209.2 767.522 208.48 767.522 207.256V196.288H764.666ZM759.626 199.912V202.048H766.274V199.912H759.626ZM759.626 203.44V205.576H766.274V203.44H759.626ZM769.394 187.72V194.968C769.394 197.632 770.09 198.448 772.922 198.448C773.474 198.448 775.634 198.448 776.234 198.448C778.466 198.448 779.234 197.584 779.546 194.464C778.754 194.296 777.578 193.864 776.978 193.408C776.882 195.52 776.738 195.88 775.946 195.88C775.442 195.88 773.714 195.88 773.33 195.88C772.418 195.88 772.274 195.76 772.274 194.92V187.72H769.394ZM776.594 189.136C775.01 190.048 772.538 191.128 770.306 191.824C770.618 192.376 771.002 193.24 771.122 193.816C773.498 193.168 776.282 192.256 778.418 191.224L776.594 189.136ZM769.394 198.928V206.512C769.394 209.176 770.114 209.992 772.946 209.992C773.522 209.992 775.754 209.992 776.354 209.992C778.658 209.992 779.426 209.032 779.738 205.648C778.946 205.48 777.794 205.024 777.194 204.592C777.074 207.04 776.93 207.472 776.09 207.472C775.562 207.472 773.762 207.472 773.354 207.472C772.418 207.472 772.25 207.376 772.25 206.488V198.928H769.394ZM776.786 199.936C775.154 200.992 772.586 202.168 770.258 202.912C770.546 203.464 770.954 204.376 771.098 204.928C773.57 204.232 776.474 203.224 778.658 202.048L776.786 199.936ZM763.874 190.144C765.026 191.944 766.178 194.344 766.586 195.88L769.202 194.824C768.746 193.24 767.498 190.96 766.322 189.232L763.874 190.144Z" fill="black"/>
<path d="M426.259 374.384C424.793 374.378 423.531 374.017 422.474 373.301C421.423 372.585 420.614 371.548 420.045 370.19C419.483 368.832 419.205 367.199 419.21 365.29C419.21 363.386 419.491 361.764 420.054 360.423C420.622 359.082 421.432 358.062 422.483 357.364C423.54 356.659 424.798 356.307 426.259 356.307C427.719 356.307 428.974 356.659 430.026 357.364C431.082 358.068 431.895 359.091 432.463 360.432C433.031 361.767 433.313 363.386 433.307 365.29C433.307 367.205 433.023 368.841 432.455 370.199C431.892 371.557 431.085 372.594 430.034 373.31C428.983 374.026 427.724 374.384 426.259 374.384ZM426.259 371.324C427.259 371.324 428.057 370.821 428.653 369.815C429.25 368.81 429.545 367.301 429.54 365.29C429.54 363.966 429.403 362.864 429.131 361.983C428.864 361.102 428.483 360.44 427.989 359.997C427.5 359.554 426.923 359.332 426.259 359.332C425.264 359.332 424.469 359.83 423.872 360.824C423.276 361.818 422.974 363.307 422.969 365.29C422.969 366.631 423.102 367.75 423.369 368.648C423.642 369.54 424.026 370.21 424.52 370.659C425.014 371.102 425.594 371.324 426.259 371.324Z" fill="black"/>
<circle cx="689" cy="506" r="5" fill="#313131"/>
<path d="M671.825 512V510.449L675.45 507.093C675.758 506.795 676.016 506.526 676.225 506.288C676.437 506.049 676.598 505.815 676.707 505.587C676.817 505.355 676.871 505.104 676.871 504.836C676.871 504.538 676.804 504.281 676.668 504.065C676.532 503.847 676.346 503.679 676.111 503.563C675.875 503.444 675.609 503.384 675.31 503.384C674.999 503.384 674.727 503.447 674.495 503.573C674.263 503.699 674.084 503.88 673.958 504.115C673.832 504.35 673.769 504.63 673.769 504.955H671.726C671.726 504.289 671.877 503.711 672.178 503.22C672.48 502.73 672.902 502.35 673.446 502.082C673.99 501.813 674.616 501.679 675.325 501.679C676.054 501.679 676.689 501.808 677.229 502.067C677.773 502.322 678.196 502.677 678.497 503.131C678.799 503.585 678.95 504.105 678.95 504.692C678.95 505.076 678.873 505.456 678.721 505.83C678.572 506.205 678.305 506.621 677.92 507.078C677.536 507.532 676.994 508.077 676.295 508.714L674.808 510.17V510.24H679.084V512H671.825Z" fill="black"/>
<circle cx="684" cy="523" r="5" fill="#313131"/>
<path d="M670.589 529.139C669.846 529.139 669.185 529.012 668.605 528.756C668.028 528.498 667.573 528.143 667.238 527.692C666.906 527.238 666.736 526.715 666.726 526.121H668.893C668.907 526.37 668.988 526.589 669.137 526.778C669.29 526.963 669.492 527.107 669.744 527.21C669.996 527.313 670.279 527.364 670.594 527.364C670.922 527.364 671.212 527.306 671.464 527.19C671.716 527.074 671.913 526.914 672.055 526.708C672.198 526.503 672.269 526.266 672.269 525.997C672.269 525.725 672.193 525.485 672.04 525.276C671.891 525.064 671.676 524.898 671.394 524.779C671.116 524.66 670.784 524.6 670.4 524.6H669.45V523.019H670.4C670.725 523.019 671.011 522.963 671.26 522.85C671.512 522.737 671.707 522.582 671.847 522.383C671.986 522.181 672.055 521.945 672.055 521.677C672.055 521.422 671.994 521.198 671.871 521.006C671.752 520.81 671.583 520.658 671.364 520.548C671.149 520.439 670.897 520.384 670.609 520.384C670.317 520.384 670.05 520.437 669.808 520.543C669.566 520.646 669.372 520.794 669.227 520.986C669.081 521.178 669.003 521.403 668.993 521.662H666.93C666.94 521.075 667.107 520.558 667.432 520.111C667.757 519.663 668.194 519.314 668.744 519.062C669.298 518.807 669.923 518.679 670.619 518.679C671.321 518.679 671.936 518.807 672.463 519.062C672.99 519.317 673.399 519.662 673.691 520.096C673.986 520.527 674.132 521.011 674.129 521.548C674.132 522.118 673.955 522.593 673.597 522.974C673.242 523.356 672.78 523.598 672.21 523.7V523.78C672.959 523.876 673.529 524.136 673.92 524.56C674.314 524.981 674.51 525.508 674.506 526.141C674.51 526.721 674.342 527.237 674.004 527.688C673.67 528.138 673.207 528.493 672.617 528.751C672.027 529.01 671.351 529.139 670.589 529.139Z" fill="black"/>
<circle cx="421" cy="672" r="5" fill="#313131"/>
<path d="M403.671 676.21V674.515L407.922 667.818H409.384V670.165H408.518L405.839 674.406V674.485H411.879V676.21H403.671ZM408.558 678V675.693L408.598 674.942V667.818H410.616V678H408.558Z" fill="black"/>
<ellipse cx="560.217" cy="589" rx="4.78261" ry="5" fill="#313131"/>
<path d="M548.255 584.818V595H546.102V586.862H546.043L543.711 588.323V586.414L546.232 584.818H548.255Z" fill="black"/>
<path d="M362.114 23.2386C361.216 23.233 360.349 23.0824 359.514 22.7869C358.685 22.4915 357.94 22.0114 357.281 21.3466C356.622 20.6818 356.099 19.8011 355.713 18.7045C355.332 17.608 355.142 16.2614 355.142 14.6648C355.148 13.1989 355.315 11.8892 355.645 10.7358C355.98 9.5767 356.457 8.59375 357.077 7.78693C357.702 6.98011 358.449 6.36648 359.318 5.94602C360.188 5.51989 361.162 5.30682 362.241 5.30682C363.406 5.30682 364.435 5.53409 365.327 5.98864C366.219 6.4375 366.935 7.0483 367.474 7.82102C368.02 8.59375 368.349 9.46023 368.463 10.4205H364.824C364.682 9.8125 364.384 9.33523 363.929 8.98864C363.474 8.64205 362.912 8.46875 362.241 8.46875C361.105 8.46875 360.241 8.96307 359.651 9.9517C359.065 10.9403 358.767 12.2841 358.756 13.983H358.875C359.136 13.4659 359.489 13.0256 359.932 12.6619C360.381 12.2926 360.889 12.0114 361.457 11.8182C362.031 11.6193 362.636 11.5199 363.273 11.5199C364.307 11.5199 365.227 11.7642 366.034 12.2528C366.841 12.7358 367.477 13.4006 367.943 14.2472C368.409 15.0937 368.642 16.0625 368.642 17.1534C368.642 18.3352 368.366 19.3864 367.815 20.3068C367.27 21.2273 366.506 21.9489 365.523 22.4716C364.545 22.9886 363.409 23.2443 362.114 23.2386ZM362.097 20.3409C362.665 20.3409 363.173 20.2045 363.622 19.9318C364.071 19.6591 364.423 19.2898 364.679 18.8239C364.935 18.358 365.062 17.8352 365.062 17.2557C365.062 16.6761 364.935 16.1562 364.679 15.696C364.429 15.2358 364.082 14.8693 363.639 14.5966C363.196 14.3239 362.69 14.1875 362.122 14.1875C361.696 14.1875 361.301 14.267 360.938 14.4261C360.58 14.5852 360.264 14.8068 359.991 15.0909C359.724 15.375 359.514 15.7045 359.361 16.0795C359.207 16.4489 359.131 16.8437 359.131 17.2642C359.131 17.8267 359.259 18.3409 359.514 18.8068C359.776 19.2727 360.128 19.6449 360.571 19.9233C361.02 20.2017 361.528 20.3409 362.097 20.3409ZM372.688 23.2216C372.126 23.2216 371.643 23.0227 371.239 22.625C370.842 22.2216 370.643 21.7386 370.643 21.1761C370.643 20.6193 370.842 20.142 371.239 19.7443C371.643 19.3466 372.126 19.1477 372.688 19.1477C373.234 19.1477 373.711 19.3466 374.12 19.7443C374.529 20.142 374.734 20.6193 374.734 21.1761C374.734 21.5511 374.637 21.8949 374.444 22.2074C374.256 22.5142 374.009 22.7614 373.702 22.9489C373.396 23.1307 373.058 23.2216 372.688 23.2216ZM392.85 7.976C390.354 15.8 385.194 20.24 376.89 22.424C377.466 23.12 378.378 24.512 378.714 25.232C387.306 22.544 392.898 17.504 395.922 8.864L392.85 7.976ZM383.586 8.168L380.706 9.032C383.706 17.336 388.65 22.832 397.65 25.184C398.106 24.344 399.042 22.976 399.738 22.304C391.194 20.384 386.01 15.272 383.586 8.168ZM377.322 6.416V9.248H399.306V6.416H377.322ZM386.754 2.624V8.144H389.73V2.624H386.754ZM411.714 3.248V20.504C411.714 23.912 412.602 24.872 415.626 24.872C416.274 24.872 419.058 24.872 419.754 24.872C422.586 24.872 423.354 23.336 423.714 19.184C422.898 19.016 421.722 18.488 421.026 17.984C420.858 21.368 420.666 22.208 419.49 22.208C418.914 22.208 416.514 22.208 415.986 22.208C414.81 22.208 414.642 21.968 414.642 20.528V3.248H411.714ZM420.714 7.256C418.578 9.08 415.386 11.24 412.41 12.656C412.818 13.28 413.37 14.288 413.562 14.96C416.682 13.496 420.114 11.696 422.826 9.776L420.714 7.256ZM407.082 2.936C405.594 6.56 403.074 10.112 400.482 12.344C401.01 13.064 401.85 14.648 402.138 15.392C405.162 12.608 408.114 8.168 409.914 3.896L407.082 2.936ZM404.538 9.704V25.112H407.418V6.92L407.37 6.872L404.538 9.704ZM436.266 10.832C434.562 10.832 433.194 12.2 433.194 13.88C433.194 15.584 434.562 16.952 436.266 16.952C437.946 16.952 439.314 15.584 439.314 13.88C439.314 12.2 437.946 10.832 436.266 10.832ZM452.346 15.056V25.208H455.202V17.24H465.498V25.208H468.498V15.056H452.346ZM453.786 18.608V20.768H466.266V18.608H453.786ZM453.93 22.184V24.344H466.386V22.184H453.93ZM458.73 12.872C458.514 13.784 458.034 15.056 457.602 15.992L459.954 16.496C460.506 15.728 461.202 14.528 461.826 13.304L458.73 12.872ZM449.73 3.704V5.912H457.482V3.704H449.73ZM456.834 3.704V11.648C456.834 11.888 456.738 11.984 456.45 11.984C456.186 11.984 455.274 11.984 454.434 11.96C454.722 12.536 455.058 13.376 455.154 14C456.618 14 457.674 14 458.442 13.664C459.186 13.328 459.426 12.776 459.426 11.648V3.704H456.834ZM460.698 3.704V5.912H468.978V3.704H460.698ZM467.634 3.704V11.552C467.634 11.84 467.538 11.888 467.226 11.912C466.938 11.936 465.858 11.936 464.97 11.888C465.282 12.488 465.594 13.4 465.714 14.048C467.298 14.072 468.45 14.048 469.266 13.712C470.082 13.328 470.322 12.752 470.322 11.576V3.704H467.634ZM460.002 10.76L460.962 12.896C462.762 12.272 464.994 11.432 467.058 10.64L466.626 8.576C464.202 9.44 461.706 10.256 460.002 10.76ZM461.13 7.328C462.21 7.928 463.626 8.84 464.274 9.512L465.714 7.64C465.018 6.992 463.578 6.152 462.498 5.648L461.13 7.328ZM449.082 11.168L450.114 13.52C451.794 12.848 453.834 11.984 455.778 11.144L455.37 9.08C453.042 9.896 450.69 10.712 449.082 11.168ZM450.354 7.352C451.434 7.952 452.778 8.888 453.402 9.536L454.842 7.712C454.194 7.064 452.802 6.224 451.746 5.696L450.354 7.352ZM484.338 15.92H490.986V16.856H484.338V15.92ZM484.338 18.584H490.986V19.52H484.338V18.584ZM484.338 13.28H490.986V14.216H484.338V13.28ZM481.65 11.456V21.344H493.818V11.456H481.65ZM488.706 22.376C490.338 23.24 492.234 24.44 493.29 25.184L495.546 23.576C494.322 22.832 492.258 21.704 490.458 20.816L488.706 22.376ZM484.698 5.24H491.034L490.818 8.864H484.362L484.698 5.24ZM482.394 3.392L481.722 10.712H493.266L493.746 3.392H482.394ZM486.594 4.352C486.522 6.056 486.378 8.144 486.162 9.536H488.538C488.706 8.192 488.922 6.104 489.042 4.352H486.594ZM484.314 21.056C483.21 21.944 481.218 22.76 479.346 23.24C479.922 23.72 480.858 24.752 481.29 25.28C483.258 24.536 485.514 23.312 486.882 21.944L484.314 21.056ZM480.018 5.792V8.24H483.57V7.88H491.826V8.24H495.546V5.792H491.826V6.152H483.57V5.792H480.018ZM475.674 2.624V25.16H478.266V2.624H475.674ZM473.754 7.376C473.73 9.512 473.442 12.152 472.722 13.664L474.426 14.408C475.218 12.656 475.53 9.848 475.482 7.616L473.754 7.376ZM477.978 7.208C478.53 8.816 478.962 10.928 479.01 12.2L480.738 11.624C480.666 10.352 480.186 8.336 479.586 6.728L477.978 7.208Z" fill="black"/>
</svg>
