<svg width="973" height="720" viewBox="0 0 973 720" fill="none" xmlns="http://www.w3.org/2000/svg">
<line x1="425.752" y1="359.566" x2="702.752" y2="201.566" stroke="black" stroke-dasharray="8 8"/>
<line x1="426.25" y1="358.567" x2="701.25" y2="517.567" stroke="black" stroke-dasharray="8 8"/>
<line x1="151.251" y1="199.568" x2="426.251" y2="359.568" stroke="black" stroke-dasharray="8 8"/>
<line x1="426.5" y1="41.0001" x2="426.462" y2="360" stroke="black" stroke-dasharray="8 8"/>
<line x1="426.5" y1="360" x2="426.5" y2="675" stroke="black" stroke-dasharray="8 8"/>
<line x1="426.249" y1="360.434" x2="151.249" y2="518.434" stroke="black" stroke-dasharray="8 8"/>
<path d="M149.372 200.289L426 40.5774L702.628 200.289V519.711L426 679.423L149.372 519.711V200.289Z" fill="#E9E9E9" fill-opacity="0.5" stroke="#B9B9B9"/>
<path d="M73.9894 184.545V202H70.2991V188.048H70.1968L66.1997 190.554V187.281L70.5207 184.545H73.9894ZM82.5079 202.222C81.9454 202.222 81.4624 202.023 81.059 201.625C80.6613 201.222 80.4624 200.739 80.4624 200.176C80.4624 199.619 80.6613 199.142 81.059 198.744C81.4624 198.347 81.9454 198.148 82.5079 198.148C83.0533 198.148 83.5306 198.347 83.9397 198.744C84.3488 199.142 84.5533 199.619 84.5533 200.176C84.5533 200.551 84.4568 200.895 84.2636 201.207C84.0761 201.514 83.8289 201.761 83.5221 201.949C83.2153 202.131 82.8772 202.222 82.5079 202.222ZM104.152 182.56V184.816H115.216V182.56H104.152ZM103.768 189.472V191.728H115.648V189.472H103.768ZM103.768 192.904V195.16H115.552V192.904H103.768ZM104.92 200.92V203.2H114.472V200.92H104.92ZM101.872 185.992V188.32H117.328V185.992H101.872ZM103.384 196.36V204.136H106.144V198.592H113.08V204.064H115.984V196.36H103.384ZM100.096 181.672C98.8 185.104 96.568 188.512 94.288 190.672C94.768 191.368 95.536 192.952 95.776 193.624C98.512 190.912 101.152 186.616 102.784 182.536L100.096 181.672ZM97.792 188.32V204.088H100.528V185.608L100.504 185.584L97.792 188.32ZM130.984 181.648C130.072 182.776 128.392 184.192 126.784 185.2C127.144 185.68 127.648 186.568 127.816 187.096C129.784 186.088 132.04 184.648 133.696 183.208L130.984 181.648ZM126.496 184.36V198.592H129.16V185.08L126.496 184.36ZM124.792 198.232L125.872 200.872C127.792 200.272 130.192 199.576 132.4 198.856L131.968 196.288C129.352 197.032 126.664 197.776 124.792 198.232ZM132.496 184.216V204.16H135.208V186.736H139.48V184.216H132.496ZM137.968 184.216V197.152C137.968 197.44 137.872 197.512 137.632 197.512C137.368 197.512 136.6 197.536 135.832 197.488C136.192 198.232 136.504 199.456 136.552 200.248C138.016 200.248 139.024 200.2 139.768 199.744C140.536 199.264 140.728 198.472 140.728 197.2V184.216H137.968ZM123.76 181.672C122.512 185.104 120.376 188.512 118.192 190.672C118.648 191.368 119.416 192.904 119.68 193.576C122.296 190.84 124.816 186.568 126.376 182.512L123.76 181.672ZM121.456 188.32V204.088H124.192V185.608L124.168 185.584L121.456 188.32Z" fill="black"/>
<path d="M717.866 536.239C716.594 536.239 715.46 536.02 714.466 535.582C713.477 535.139 712.696 534.531 712.122 533.759C711.554 532.98 711.261 532.082 711.244 531.065H714.96C714.983 531.491 715.122 531.866 715.378 532.19C715.639 532.509 715.986 532.756 716.418 532.932C716.849 533.108 717.335 533.196 717.875 533.196C718.438 533.196 718.935 533.097 719.366 532.898C719.798 532.699 720.136 532.423 720.381 532.071C720.625 531.719 720.747 531.312 720.747 530.852C720.747 530.386 720.616 529.974 720.355 529.616C720.099 529.253 719.73 528.969 719.247 528.764C718.77 528.56 718.202 528.457 717.543 528.457H715.915V525.747H717.543C718.099 525.747 718.591 525.651 719.017 525.457C719.449 525.264 719.784 524.997 720.023 524.656C720.261 524.31 720.381 523.906 720.381 523.446C720.381 523.009 720.276 522.625 720.065 522.295C719.861 521.96 719.571 521.699 719.196 521.511C718.827 521.324 718.395 521.23 717.901 521.23C717.401 521.23 716.943 521.321 716.528 521.503C716.114 521.679 715.781 521.932 715.531 522.261C715.281 522.591 715.148 522.977 715.131 523.42H711.594C711.611 522.415 711.898 521.528 712.455 520.761C713.011 519.994 713.761 519.395 714.705 518.963C715.653 518.526 716.724 518.307 717.918 518.307C719.122 518.307 720.176 518.526 721.08 518.963C721.983 519.401 722.685 519.991 723.185 520.736C723.69 521.474 723.94 522.304 723.935 523.224C723.94 524.202 723.636 525.017 723.023 525.67C722.415 526.324 721.622 526.739 720.645 526.915V527.051C721.929 527.216 722.906 527.662 723.577 528.389C724.253 529.111 724.588 530.014 724.582 531.099C724.588 532.094 724.301 532.977 723.722 533.75C723.148 534.523 722.355 535.131 721.344 535.574C720.332 536.017 719.173 536.239 717.866 536.239ZM728.899 536.222C728.337 536.222 727.854 536.023 727.45 535.625C727.053 535.222 726.854 534.739 726.854 534.176C726.854 533.619 727.053 533.142 727.45 532.744C727.854 532.347 728.337 532.148 728.899 532.148C729.445 532.148 729.922 532.347 730.331 532.744C730.74 533.142 730.945 533.619 730.945 534.176C730.945 534.551 730.848 534.895 730.655 535.207C730.467 535.514 730.22 535.761 729.913 535.949C729.607 536.131 729.268 536.222 728.899 536.222ZM742.917 515.624V535.424C742.917 535.832 742.773 535.976 742.317 536C741.909 536 740.493 536.024 739.341 535.976C739.701 536.552 740.157 537.56 740.301 538.232C742.341 538.232 743.637 538.184 744.573 537.824C745.485 537.416 745.845 536.84 745.845 535.424V515.624H742.917ZM733.917 517.184V519.464H755.037V517.184H733.917ZM739.125 522.248H749.733V523.4H739.125V522.248ZM736.389 520.424V525.224H752.685V520.424H736.389ZM735.789 526.28V528.248H750.165V535.664H753.093V526.28H735.789ZM733.365 529.256V531.44H755.589V529.256H733.365ZM735.597 532.568V534.656H751.725V532.568H735.597ZM766.965 515.648V519.488H769.917V515.648H766.965ZM758.181 517.736V522.896H761.037V520.256H775.773V522.896H778.749V517.736H758.181ZM760.317 522.152V524.48H776.805V522.152H760.317ZM757.989 529.76V532.256H779.085V529.76H757.989ZM760.701 525.92V528.248H776.325V525.92H760.701ZM769.893 530.264L767.301 530.792C769.149 535.064 772.221 537.344 777.717 538.232C778.077 537.464 778.821 536.312 779.421 535.712C774.429 535.184 771.309 533.432 769.893 530.264ZM766.893 520.784V527.432C766.893 530.648 765.837 533.936 757.533 535.832C758.157 536.432 758.997 537.536 759.309 538.16C768.045 535.808 769.797 531.68 769.797 527.456V520.784H766.893ZM796.389 526.88C796.389 532.016 798.525 535.856 801.117 538.424L803.397 537.392C800.973 534.824 799.101 531.488 799.101 526.88C799.101 522.296 800.973 518.96 803.397 516.392L801.117 515.36C798.525 517.928 796.389 521.768 796.389 526.88ZM816.861 515.624C816.141 519.176 814.797 522.608 812.877 524.72C813.477 525.08 814.605 525.896 815.061 526.328C817.005 523.928 818.589 520.112 819.453 516.128L816.861 515.624ZM824.925 519.368V519.992C824.541 530.192 824.085 533.912 823.413 534.752C823.125 535.088 822.909 535.208 822.549 535.208C822.093 535.208 821.277 535.184 820.389 535.088C820.821 535.88 821.109 537.104 821.181 537.92C822.237 537.968 823.245 537.968 823.917 537.824C824.709 537.68 825.237 537.392 825.789 536.576C826.701 535.376 827.133 531.44 827.589 520.664C827.613 520.304 827.637 519.368 827.637 519.368H824.925ZM817.581 519.368L816.261 522.032H826.149V519.368H817.581ZM819.261 520.232C818.349 524.264 816.237 528.776 813.453 530.96C814.197 531.368 815.109 532.04 815.661 532.592C818.277 530.144 820.389 525.392 821.349 521.264L819.261 520.232ZM822.597 520.496C821.493 526.664 819.021 532.928 814.821 535.928C815.613 536.312 816.621 537.032 817.173 537.608C821.133 534.296 823.677 527.768 824.829 521.528L822.597 520.496ZM805.101 528.704L805.797 531.464C808.341 530.72 811.629 529.736 814.653 528.8L814.269 526.256C810.957 527.192 807.453 528.176 805.101 528.704ZM809.421 515.624V538.16H812.061V515.624H809.421ZM806.253 516.992C806.037 519.848 805.629 522.848 804.861 524.768C805.437 525.056 806.469 525.728 806.901 526.064C807.765 523.928 808.341 520.568 808.653 517.4L806.253 516.992ZM806.901 520.256L806.373 523.016H814.053V520.256H806.901ZM840.789 523.352H848.061V525.416H840.789V523.352ZM840.789 519.08H848.061V521.096H840.789V519.08ZM838.197 516.632V527.84H850.797V516.632H838.197ZM838.029 529.904V532.496H851.061V529.904H838.029ZM836.349 534.8V537.392H851.853V534.8H836.349ZM829.317 516.992V519.68H837.285V516.992H829.317ZM829.557 523.904V526.568H836.877V523.904H829.557ZM829.053 533.024L829.701 535.952C832.005 535.208 834.885 534.272 837.573 533.36L837.069 530.6C834.189 531.536 831.117 532.496 829.053 533.024ZM831.981 518.048V533.24L834.717 532.808V518.048H831.981ZM843.261 517.664V526.712H842.997V536.024H845.949V526.712H845.685V517.664H843.261ZM864.477 523.832C862.773 523.832 861.405 525.2 861.405 526.88C861.405 528.584 862.773 529.952 864.477 529.952C866.157 529.952 867.525 528.584 867.525 526.88C867.525 525.2 866.157 523.832 864.477 523.832ZM880.893 517.856V538.136H883.701V517.856H880.893ZM877.245 522.368V525.056H886.869V522.368H877.245ZM881.061 523.448C880.293 526.112 878.613 529.592 876.933 531.512C877.389 532.232 878.013 533.432 878.277 534.272C880.125 531.896 881.829 527.624 882.741 524.192L881.061 523.448ZM885.189 515.84C883.197 516.656 880.173 517.4 877.437 517.808C877.725 518.432 878.085 519.392 878.205 520.04C881.013 519.704 884.301 519.104 886.797 518.192L885.189 515.84ZM883.629 525.176L882.381 526.328C883.101 527.36 884.589 529.784 885.141 531.008L886.821 528.752C886.341 528.152 884.229 525.752 883.629 525.176ZM894.189 515.6V538.136H897.021V515.6H894.189ZM886.461 531.08L886.893 533.84L899.853 531.56L899.421 528.848L886.461 531.08ZM888.021 518.696C889.341 519.752 890.925 521.288 891.597 522.32L893.613 520.52C892.869 519.488 891.213 518.048 889.893 517.064L888.021 518.696ZM887.133 525.008C888.525 526.064 890.205 527.648 890.973 528.704L892.941 526.856C892.125 525.8 890.349 524.336 888.957 523.352L887.133 525.008ZM906.069 523.832V526.304H917.133V523.832H906.069ZM901.773 529.208V531.872H923.253V529.208H901.773ZM911.013 527.672V534.992C911.013 535.328 910.869 535.448 910.389 535.448C909.909 535.448 908.109 535.448 906.573 535.4C907.029 536.144 907.557 537.368 907.749 538.184C909.789 538.184 911.325 538.136 912.453 537.752C913.605 537.32 913.965 536.576 913.965 535.088V527.672H911.013ZM916.197 523.832V524.36C915.309 525.536 913.269 527.24 911.421 528.2C911.853 528.584 912.621 529.376 912.957 529.856C915.309 528.728 917.685 526.856 919.341 525.08L917.517 523.688L916.917 523.832H916.197ZM902.061 519.44V525.32H904.773V521.984H920.133V525.32H922.989V519.44H902.061ZM918.693 515.792C918.117 517.136 917.037 518.936 916.125 520.112L918.477 520.976C919.461 519.92 920.709 518.288 921.813 516.704L918.693 515.792ZM903.669 516.968C904.485 517.976 905.373 519.344 905.709 520.232L908.325 519.032C907.941 518.096 906.981 516.8 906.117 515.864L903.669 516.968ZM909.717 516.44C910.437 517.544 911.181 519.056 911.421 520.016L914.157 518.96C913.845 518 913.029 516.536 912.261 515.48L909.717 516.44ZM927.909 519.512V522.032H932.661V533.144H927.909V535.688H935.277V519.512H927.909ZM926.229 519.512V537.464H928.845V519.512H926.229ZM927.789 525.92V528.416H933.933V525.92H927.789ZM929.637 515.6C929.517 516.92 929.181 518.768 928.845 520.016L931.149 520.52C931.629 519.392 932.229 517.688 932.781 516.056L929.637 515.6ZM938.445 519.344V521.96H945.453V519.344H938.445ZM944.469 519.344V519.896C944.205 529.904 943.893 534.032 943.125 534.848C942.813 535.184 942.549 535.28 942.069 535.28C941.469 535.28 940.029 535.256 938.469 535.136C938.997 535.904 939.381 537.128 939.429 537.92C940.821 537.992 942.285 538.016 943.197 537.872C944.181 537.728 944.853 537.464 945.525 536.528C946.509 535.256 946.797 531.44 947.109 520.64C947.133 520.28 947.133 519.344 947.133 519.344H944.469ZM938.517 515.624C937.749 518.816 936.381 522.08 934.773 524.096C935.445 524.48 936.621 525.296 937.149 525.776C938.781 523.472 940.341 519.824 941.277 516.272L938.517 515.624ZM937.341 526.256C938.493 528.032 940.005 530.384 940.653 531.848L943.101 530.36C942.357 528.944 940.773 526.64 939.597 524.984L937.341 526.256ZM956.541 526.88C956.541 521.768 954.405 517.928 951.813 515.36L949.533 516.392C951.957 518.96 953.829 522.296 953.829 526.88C953.829 531.488 951.957 534.824 949.533 537.392L951.813 538.424C954.405 535.856 956.541 532.016 956.541 526.88Z" fill="black"/>
<path d="M378.151 710.932V708.026L385.438 696.545H387.943V700.568H386.46L381.866 707.838V707.974H392.222V710.932H378.151ZM386.528 714V710.045L386.597 708.759V696.545H390.057V714H386.528ZM396.509 714.222C395.946 714.222 395.463 714.023 395.06 713.625C394.662 713.222 394.463 712.739 394.463 712.176C394.463 711.619 394.662 711.142 395.06 710.744C395.463 710.347 395.946 710.148 396.509 710.148C397.054 710.148 397.531 710.347 397.94 710.744C398.349 711.142 398.554 711.619 398.554 712.176C398.554 712.551 398.457 712.895 398.264 713.207C398.077 713.514 397.83 713.761 397.523 713.949C397.216 714.131 396.878 714.222 396.509 714.222ZM401.43 700.08V703.056H422.79V700.08H401.43ZM413.742 701.28L410.838 701.952C412.662 708.552 415.662 713.52 421.158 716.088C421.638 715.248 422.598 714 423.318 713.352C418.23 711.336 415.182 706.776 413.742 701.28ZM410.43 693.624C410.358 700.128 410.79 709.248 400.95 713.64C401.79 714.264 402.678 715.296 403.134 716.088C413.43 711.12 413.478 700.944 413.598 693.624H410.43ZM429.846 699.576C431.31 700.344 433.182 701.544 434.046 702.384L436.086 700.608C435.15 699.768 433.23 698.664 431.79 697.968L429.846 699.576ZM440.67 695.424V695.832C438.294 700.32 431.814 703.2 425.334 704.232C425.838 704.856 426.414 705.984 426.654 706.704C433.638 705.288 440.43 702.168 443.55 696.384L441.678 695.304L441.222 695.424H440.67ZM433.086 695.424V697.776H441.318V695.424H433.086ZM434.406 693.552C432.774 695.52 429.798 697.536 425.526 698.928C426.15 699.384 427.038 700.368 427.446 701.04C431.934 699.264 435.102 697.008 437.55 694.224L434.406 693.552ZM433.11 708.672C434.598 709.536 436.47 710.88 437.31 711.792L439.542 710.016C438.582 709.08 436.662 707.856 435.198 707.064L433.11 708.672ZM443.694 704.184V704.592C441.462 710.256 434.958 712.776 427.35 713.568C427.83 714.216 428.358 715.392 428.574 716.184C436.83 715.032 443.766 712.2 446.694 705.048L444.774 704.064L444.27 704.184H443.694ZM436.638 704.184V706.584H444.462V704.184H436.638ZM438.318 701.856C436.47 704.136 433.038 706.44 428.022 707.952C428.622 708.456 429.438 709.512 429.774 710.184C435.078 708.264 438.774 705.72 441.462 702.576L438.318 701.856ZM448.782 706.152V708.456H460.926V706.152H448.782ZM449.07 697.68V699.936H460.854V697.68H449.07ZM453.102 704.424C452.07 706.704 450.486 709.704 449.358 711.552L451.878 712.32C453.03 710.4 454.59 707.472 455.766 705L453.102 704.424ZM456.51 707.76C455.742 711.696 453.654 713.208 448.878 713.808C449.358 714.384 449.886 715.392 450.054 716.184C455.766 715.032 458.286 713.016 459.15 707.976L456.51 707.76ZM458.214 693.912C457.83 694.824 457.158 696.12 456.606 696.96L458.454 697.8C459.078 697.056 459.846 695.952 460.638 694.872L458.214 693.912ZM453.63 693.6V704.76H456.27V693.6H453.63ZM449.646 694.872C450.246 695.856 450.798 697.128 450.966 697.968L453.174 697.008C452.958 696.144 452.358 694.92 451.71 694.008L449.646 694.872ZM453.702 698.808C452.67 700.44 450.51 702.144 448.566 702.936C449.094 703.464 449.718 704.424 450.054 705.048C452.07 703.92 454.374 701.832 455.574 699.936L453.702 698.808ZM456.03 699.504L454.686 700.632C455.742 701.376 457.878 703.08 458.766 703.968L460.302 701.976C459.63 701.52 456.894 699.912 456.03 699.504ZM462.51 697.968V700.632H471.318V697.968H462.51ZM462.774 693.6C462.198 697.896 461.022 702.024 459.006 704.472C459.654 704.952 460.83 705.984 461.286 706.512C463.494 703.584 464.934 698.976 465.678 694.008L462.774 693.6ZM467.118 699.6C466.398 706.704 464.31 711.216 458.838 713.616C459.366 714.24 460.206 715.56 460.494 716.256C466.566 713.208 469.038 708.072 470.07 699.864L467.118 699.6ZM464.142 700.104L461.526 700.512C462.702 707.688 464.79 713.256 469.614 716.136C470.046 715.344 470.958 714.192 471.63 713.616C467.214 711.36 465.102 706.176 464.142 700.104ZM451.47 711.576C454.158 712.68 456.942 714.36 458.478 715.704L460.47 713.664C458.838 712.368 455.838 710.688 453.006 709.608L451.47 711.576Z" fill="black"/>
<path d="M7.78977 536.239C6.58523 536.239 5.51136 536.017 4.56818 535.574C3.63068 535.131 2.88636 534.52 2.33523 533.741C1.78409 532.963 1.49716 532.071 1.47443 531.065H5.05398C5.09375 531.741 5.37784 532.29 5.90625 532.71C6.43466 533.131 7.0625 533.341 7.78977 533.341C8.36932 533.341 8.88068 533.213 9.32386 532.957C9.77273 532.696 10.1222 532.335 10.3722 531.875C10.6278 531.409 10.7557 530.875 10.7557 530.273C10.7557 529.659 10.625 529.119 10.3636 528.653C10.108 528.187 9.75284 527.824 9.2983 527.562C8.84375 527.301 8.32386 527.168 7.73864 527.162C7.22727 527.162 6.73011 527.267 6.24716 527.477C5.76989 527.687 5.39773 527.974 5.13068 528.338L1.84943 527.75L2.67614 518.545H13.3466V521.562H5.71875L5.26705 525.935H5.36932C5.67614 525.503 6.1392 525.145 6.75852 524.861C7.37784 524.577 8.07102 524.435 8.83807 524.435C9.8892 524.435 10.8267 524.682 11.6506 525.176C12.4744 525.67 13.125 526.349 13.6023 527.213C14.0795 528.071 14.3153 529.06 14.3097 530.179C14.3153 531.355 14.0426 532.401 13.4915 533.315C12.946 534.224 12.1818 534.94 11.1989 535.463C10.2216 535.98 9.08523 536.239 7.78977 536.239ZM18.4773 536.222C17.9148 536.222 17.4318 536.023 17.0284 535.625C16.6307 535.222 16.4318 534.739 16.4318 534.176C16.4318 533.619 16.6307 533.142 17.0284 532.744C17.4318 532.347 17.9148 532.148 18.4773 532.148C19.0227 532.148 19.5 532.347 19.9091 532.744C20.3182 533.142 20.5227 533.619 20.5227 534.176C20.5227 534.551 20.4261 534.895 20.233 535.207C20.0455 535.514 19.7983 535.761 19.4915 535.949C19.1847 536.131 18.8466 536.222 18.4773 536.222ZM29.4707 525.248V527.984H45.0467V525.248H29.4707ZM30.6707 519.08V521.816H43.8947V519.08H30.6707ZM35.6627 515.624V527.24H38.6627V515.624H35.6627ZM29.4707 534.296L29.8547 537.2C33.2387 536.96 37.9907 536.6 42.4787 536.216V533.624C37.7507 533.888 32.6867 534.176 29.4707 534.296ZM38.6627 530.984C40.4147 533.192 42.2387 536.216 42.8867 538.184L45.6227 536.672C44.8787 534.632 42.9347 531.8 41.1587 529.664L38.6627 530.984ZM33.8147 527.168C33.1907 529.64 31.9907 532.928 30.9107 535.04L33.4787 535.856C34.5827 533.864 35.9507 530.792 37.0067 528.008L33.8147 527.168ZM24.0947 517.832C25.6787 518.504 27.6707 519.656 28.6067 520.52L30.2867 518.168C29.2787 517.328 27.2387 516.296 25.6787 515.72L24.0947 517.832ZM22.7267 524.384C24.3107 524.984 26.3267 526.064 27.2867 526.856L28.8947 524.456C27.8387 523.664 25.7747 522.728 24.2147 522.2L22.7267 524.384ZM23.3987 535.976L25.8947 537.848C27.2387 535.52 28.6547 532.784 29.8307 530.24L27.6467 528.416C26.3267 531.176 24.5987 534.176 23.3987 535.976ZM55.1747 517.928V520.256H65.1347V525.176H55.0787V527.504H67.8707V517.928H55.1747ZM59.8307 515.6V538.136H62.5907V515.6H59.8307ZM54.2147 521.48V523.928H69.3347V521.48H54.2147ZM53.7827 532.352V534.824H69.0707V532.352H53.7827ZM54.7427 528.704V531.056H68.1107V528.704H54.7427ZM52.1507 520.952C50.7827 523.28 48.5027 525.632 46.5107 527.144C46.9187 527.864 47.6387 529.424 47.8307 530.048C50.1827 528.056 52.8947 524.864 54.5987 521.984L52.1507 520.952ZM51.5987 515.672C50.6147 517.256 48.5747 519.224 46.7267 520.376C47.1827 520.952 47.8787 522.128 48.1667 522.8C50.3747 521.336 52.7747 518.96 54.3347 516.752L51.5987 515.672ZM49.8947 526.304V538.16H52.5827V523.808L52.4627 523.736L49.8947 526.304ZM82.0547 523.832C80.3507 523.832 78.9827 525.2 78.9827 526.88C78.9827 528.584 80.3507 529.952 82.0547 529.952C83.7347 529.952 85.1027 528.584 85.1027 526.88C85.1027 525.2 83.7347 523.832 82.0547 523.832ZM95.3747 519.32V521.84H104.183V519.32H95.3747ZM94.9667 524.888V527.48H104.567V524.888H94.9667ZM98.4707 515.864V524.528C98.4707 528.176 98.2307 533.168 94.6547 535.784C95.3027 536.288 96.2147 537.272 96.5987 537.872C100.631 534.56 101.183 529.016 101.183 524.528V515.864H98.4707ZM100.799 527.888L99.0227 529.232C100.055 530.432 102.071 533.072 102.959 534.536L104.903 532.448C104.303 531.728 101.615 528.632 100.799 527.888ZM107.975 522.704H113.231V524.096H107.975V522.704ZM107.975 526.376H113.231V527.792H107.975V526.376ZM107.975 519.008H113.231V520.4H107.975V519.008ZM105.311 516.464V530.336H115.991V516.464H105.311ZM110.759 529.448V534.512C110.759 536.864 111.215 537.68 113.351 537.68C113.759 537.68 114.551 537.68 114.959 537.68C116.663 537.68 117.311 536.816 117.551 533.384C116.855 533.192 115.703 532.76 115.199 532.328C115.127 534.872 115.055 535.208 114.671 535.208C114.503 535.208 113.975 535.208 113.831 535.208C113.471 535.208 113.447 535.136 113.447 534.464V529.448H110.759ZM106.871 529.928C106.583 532.688 105.959 534.8 102.239 536.024C102.791 536.528 103.511 537.536 103.799 538.184C108.215 536.528 109.199 533.672 109.583 529.928H106.871ZM131.807 518.552V532.136H134.591V518.552H131.807ZM137.471 516.104V534.656C137.471 535.112 137.279 535.256 136.823 535.256C136.319 535.28 134.759 535.28 133.175 535.208C133.607 536.024 134.063 537.368 134.183 538.184C136.391 538.184 137.999 538.088 139.007 537.632C139.967 537.152 140.327 536.36 140.327 534.68V516.104H137.471ZM121.679 532.352C121.031 533.888 119.855 535.472 118.583 536.504C119.279 536.888 120.455 537.728 121.007 538.232C122.279 537.008 123.695 535.04 124.511 533.12L121.679 532.352ZM125.615 533.408C126.647 534.728 127.727 536.576 128.183 537.776L130.823 536.528C130.295 535.328 129.191 533.624 128.111 532.376L125.615 533.408ZM122.855 523.328H127.103V525.32H122.855V523.328ZM122.855 527.6H127.103V529.592H122.855V527.6ZM122.855 519.104H127.103V521.072H122.855V519.104ZM120.143 516.56V532.136H129.959V516.56H120.143Z" fill="black"/>
<path d="M362.114 23.2386C361.216 23.233 360.349 23.0824 359.514 22.7869C358.685 22.4915 357.94 22.0114 357.281 21.3466C356.622 20.6818 356.099 19.8011 355.713 18.7045C355.332 17.608 355.142 16.2614 355.142 14.6648C355.148 13.1989 355.315 11.8892 355.645 10.7358C355.98 9.5767 356.457 8.59375 357.077 7.78693C357.702 6.98011 358.449 6.36648 359.318 5.94602C360.188 5.51989 361.162 5.30682 362.241 5.30682C363.406 5.30682 364.435 5.53409 365.327 5.98864C366.219 6.4375 366.935 7.0483 367.474 7.82102C368.02 8.59375 368.349 9.46023 368.463 10.4205H364.824C364.682 9.8125 364.384 9.33523 363.929 8.98864C363.474 8.64205 362.912 8.46875 362.241 8.46875C361.105 8.46875 360.241 8.96307 359.651 9.9517C359.065 10.9403 358.767 12.2841 358.756 13.983H358.875C359.136 13.4659 359.489 13.0256 359.932 12.6619C360.381 12.2926 360.889 12.0114 361.457 11.8182C362.031 11.6193 362.636 11.5199 363.273 11.5199C364.307 11.5199 365.227 11.7642 366.034 12.2528C366.841 12.7358 367.477 13.4006 367.943 14.2472C368.409 15.0937 368.642 16.0625 368.642 17.1534C368.642 18.3352 368.366 19.3864 367.815 20.3068C367.27 21.2273 366.506 21.9489 365.523 22.4716C364.545 22.9886 363.409 23.2443 362.114 23.2386ZM362.097 20.3409C362.665 20.3409 363.173 20.2045 363.622 19.9318C364.071 19.6591 364.423 19.2898 364.679 18.8239C364.935 18.358 365.062 17.8352 365.062 17.2557C365.062 16.6761 364.935 16.1562 364.679 15.696C364.429 15.2358 364.082 14.8693 363.639 14.5966C363.196 14.3239 362.69 14.1875 362.122 14.1875C361.696 14.1875 361.301 14.267 360.938 14.4261C360.58 14.5852 360.264 14.8068 359.991 15.0909C359.724 15.375 359.514 15.7045 359.361 16.0795C359.207 16.4489 359.131 16.8437 359.131 17.2642C359.131 17.8267 359.259 18.3409 359.514 18.8068C359.776 19.2727 360.128 19.6449 360.571 19.9233C361.02 20.2017 361.528 20.3409 362.097 20.3409ZM372.688 23.2216C372.126 23.2216 371.643 23.0227 371.239 22.625C370.842 22.2216 370.643 21.7386 370.643 21.1761C370.643 20.6193 370.842 20.142 371.239 19.7443C371.643 19.3466 372.126 19.1477 372.688 19.1477C373.234 19.1477 373.711 19.3466 374.12 19.7443C374.529 20.142 374.734 20.6193 374.734 21.1761C374.734 21.5511 374.637 21.8949 374.444 22.2074C374.256 22.5142 374.009 22.7614 373.702 22.9489C373.396 23.1307 373.058 23.2216 372.688 23.2216ZM392.85 7.976C390.354 15.8 385.194 20.24 376.89 22.424C377.466 23.12 378.378 24.512 378.714 25.232C387.306 22.544 392.898 17.504 395.922 8.864L392.85 7.976ZM383.586 8.168L380.706 9.032C383.706 17.336 388.65 22.832 397.65 25.184C398.106 24.344 399.042 22.976 399.738 22.304C391.194 20.384 386.01 15.272 383.586 8.168ZM377.322 6.416V9.248H399.306V6.416H377.322ZM386.754 2.624V8.144H389.73V2.624H386.754ZM411.714 3.248V20.504C411.714 23.912 412.602 24.872 415.626 24.872C416.274 24.872 419.058 24.872 419.754 24.872C422.586 24.872 423.354 23.336 423.714 19.184C422.898 19.016 421.722 18.488 421.026 17.984C420.858 21.368 420.666 22.208 419.49 22.208C418.914 22.208 416.514 22.208 415.986 22.208C414.81 22.208 414.642 21.968 414.642 20.528V3.248H411.714ZM420.714 7.256C418.578 9.08 415.386 11.24 412.41 12.656C412.818 13.28 413.37 14.288 413.562 14.96C416.682 13.496 420.114 11.696 422.826 9.776L420.714 7.256ZM407.082 2.936C405.594 6.56 403.074 10.112 400.482 12.344C401.01 13.064 401.85 14.648 402.138 15.392C405.162 12.608 408.114 8.168 409.914 3.896L407.082 2.936ZM404.538 9.704V25.112H407.418V6.92L407.37 6.872L404.538 9.704ZM436.266 10.832C434.562 10.832 433.194 12.2 433.194 13.88C433.194 15.584 434.562 16.952 436.266 16.952C437.946 16.952 439.314 15.584 439.314 13.88C439.314 12.2 437.946 10.832 436.266 10.832ZM452.346 15.056V25.208H455.202V17.24H465.498V25.208H468.498V15.056H452.346ZM453.786 18.608V20.768H466.266V18.608H453.786ZM453.93 22.184V24.344H466.386V22.184H453.93ZM458.73 12.872C458.514 13.784 458.034 15.056 457.602 15.992L459.954 16.496C460.506 15.728 461.202 14.528 461.826 13.304L458.73 12.872ZM449.73 3.704V5.912H457.482V3.704H449.73ZM456.834 3.704V11.648C456.834 11.888 456.738 11.984 456.45 11.984C456.186 11.984 455.274 11.984 454.434 11.96C454.722 12.536 455.058 13.376 455.154 14C456.618 14 457.674 14 458.442 13.664C459.186 13.328 459.426 12.776 459.426 11.648V3.704H456.834ZM460.698 3.704V5.912H468.978V3.704H460.698ZM467.634 3.704V11.552C467.634 11.84 467.538 11.888 467.226 11.912C466.938 11.936 465.858 11.936 464.97 11.888C465.282 12.488 465.594 13.4 465.714 14.048C467.298 14.072 468.45 14.048 469.266 13.712C470.082 13.328 470.322 12.752 470.322 11.576V3.704H467.634ZM460.002 10.76L460.962 12.896C462.762 12.272 464.994 11.432 467.058 10.64L466.626 8.576C464.202 9.44 461.706 10.256 460.002 10.76ZM461.13 7.328C462.21 7.928 463.626 8.84 464.274 9.512L465.714 7.64C465.018 6.992 463.578 6.152 462.498 5.648L461.13 7.328ZM449.082 11.168L450.114 13.52C451.794 12.848 453.834 11.984 455.778 11.144L455.37 9.08C453.042 9.896 450.69 10.712 449.082 11.168ZM450.354 7.352C451.434 7.952 452.778 8.888 453.402 9.536L454.842 7.712C454.194 7.064 452.802 6.224 451.746 5.696L450.354 7.352ZM484.338 15.92H490.986V16.856H484.338V15.92ZM484.338 18.584H490.986V19.52H484.338V18.584ZM484.338 13.28H490.986V14.216H484.338V13.28ZM481.65 11.456V21.344H493.818V11.456H481.65ZM488.706 22.376C490.338 23.24 492.234 24.44 493.29 25.184L495.546 23.576C494.322 22.832 492.258 21.704 490.458 20.816L488.706 22.376ZM484.698 5.24H491.034L490.818 8.864H484.362L484.698 5.24ZM482.394 3.392L481.722 10.712H493.266L493.746 3.392H482.394ZM486.594 4.352C486.522 6.056 486.378 8.144 486.162 9.536H488.538C488.706 8.192 488.922 6.104 489.042 4.352H486.594ZM484.314 21.056C483.21 21.944 481.218 22.76 479.346 23.24C479.922 23.72 480.858 24.752 481.29 25.28C483.258 24.536 485.514 23.312 486.882 21.944L484.314 21.056ZM480.018 5.792V8.24H483.57V7.88H491.826V8.24H495.546V5.792H491.826V6.152H483.57V5.792H480.018ZM475.674 2.624V25.16H478.266V2.624H475.674ZM473.754 7.376C473.73 9.512 473.442 12.152 472.722 13.664L474.426 14.408C475.218 12.656 475.53 9.848 475.482 7.616L473.754 7.376ZM477.978 7.208C478.53 8.816 478.962 10.928 479.01 12.2L480.738 11.624C480.666 10.352 480.186 8.336 479.586 6.728L477.978 7.208Z" fill="black"/>
<path d="M711.415 202V199.341L717.628 193.588C718.156 193.077 718.599 192.616 718.957 192.207C719.321 191.798 719.597 191.398 719.784 191.006C719.972 190.608 720.065 190.179 720.065 189.719C720.065 189.207 719.949 188.767 719.716 188.398C719.483 188.023 719.165 187.736 718.761 187.537C718.358 187.332 717.901 187.23 717.389 187.23C716.855 187.23 716.389 187.338 715.991 187.554C715.594 187.77 715.287 188.08 715.071 188.483C714.855 188.886 714.747 189.366 714.747 189.923H711.244C711.244 188.781 711.503 187.79 712.02 186.949C712.537 186.108 713.261 185.457 714.193 184.997C715.125 184.537 716.199 184.307 717.415 184.307C718.665 184.307 719.753 184.528 720.679 184.972C721.611 185.409 722.335 186.017 722.852 186.795C723.369 187.574 723.628 188.466 723.628 189.472C723.628 190.131 723.497 190.781 723.236 191.423C722.98 192.065 722.523 192.778 721.864 193.562C721.205 194.341 720.276 195.276 719.077 196.366L716.528 198.864V198.983H723.858V202H711.415ZM728.688 202.222C728.126 202.222 727.643 202.023 727.239 201.625C726.842 201.222 726.643 200.739 726.643 200.176C726.643 199.619 726.842 199.142 727.239 198.744C727.643 198.347 728.126 198.148 728.688 198.148C729.234 198.148 729.711 198.347 730.12 198.744C730.529 199.142 730.734 199.619 730.734 200.176C730.734 200.551 730.637 200.895 730.444 201.207C730.256 201.514 730.009 201.761 729.702 201.949C729.396 202.131 729.058 202.222 728.688 202.222ZM733.658 186.28V189.208H754.898V186.28H733.658ZM738.602 197.176V200.104H749.738V197.176H738.602ZM742.706 181.624V204.16H745.778V181.624H742.706ZM741.842 187.336C740.138 191.752 736.658 196.072 732.722 198.232C733.37 198.808 734.33 199.912 734.81 200.632C739.01 197.992 742.418 193.408 744.482 188.176L741.842 187.336ZM746.642 187.408L744.026 188.272C746.114 193.384 749.474 197.968 753.698 200.56C754.178 199.744 755.21 198.544 755.93 197.944C751.898 195.856 748.394 191.68 746.642 187.408ZM760.61 181.504C760.106 183.424 759.122 185.968 758.258 187.6L760.754 188.248C761.666 186.712 762.746 184.36 763.61 182.152L760.61 181.504ZM756.986 186.424L757.202 189.16C759.938 188.992 763.634 188.776 767.162 188.512L767.186 186.016C763.466 186.184 759.578 186.352 756.986 186.424ZM758.402 190.288V204.136H761.066V192.664H766.034V190.288H758.402ZM764.666 190.288V201.184C764.666 201.496 764.57 201.568 764.282 201.568C763.97 201.592 763.01 201.592 762.17 201.544C762.53 202.24 762.938 203.344 763.082 204.112C764.546 204.112 765.626 204.064 766.466 203.632C767.282 203.2 767.522 202.48 767.522 201.256V190.288H764.666ZM759.626 193.912V196.048H766.274V193.912H759.626ZM759.626 197.44V199.576H766.274V197.44H759.626ZM769.394 181.72V188.968C769.394 191.632 770.09 192.448 772.922 192.448C773.474 192.448 775.634 192.448 776.234 192.448C778.466 192.448 779.234 191.584 779.546 188.464C778.754 188.296 777.578 187.864 776.978 187.408C776.882 189.52 776.738 189.88 775.946 189.88C775.442 189.88 773.714 189.88 773.33 189.88C772.418 189.88 772.274 189.76 772.274 188.92V181.72H769.394ZM776.594 183.136C775.01 184.048 772.538 185.128 770.306 185.824C770.618 186.376 771.002 187.24 771.122 187.816C773.498 187.168 776.282 186.256 778.418 185.224L776.594 183.136ZM769.394 192.928V200.512C769.394 203.176 770.114 203.992 772.946 203.992C773.522 203.992 775.754 203.992 776.354 203.992C778.658 203.992 779.426 203.032 779.738 199.648C778.946 199.48 777.794 199.024 777.194 198.592C777.074 201.04 776.93 201.472 776.09 201.472C775.562 201.472 773.762 201.472 773.354 201.472C772.418 201.472 772.25 201.376 772.25 200.488V192.928H769.394ZM776.786 193.936C775.154 194.992 772.586 196.168 770.258 196.912C770.546 197.464 770.954 198.376 771.098 198.928C773.57 198.232 776.474 197.224 778.658 196.048L776.786 193.936ZM763.874 184.144C765.026 185.944 766.178 188.344 766.586 189.88L769.202 188.824C768.746 187.24 767.498 184.96 766.322 183.232L763.874 184.144Z" fill="black"/>
<path d="M426.259 368.384C424.793 368.378 423.531 368.017 422.474 367.301C421.423 366.585 420.614 365.548 420.045 364.19C419.483 362.832 419.205 361.199 419.21 359.29C419.21 357.386 419.491 355.764 420.054 354.423C420.622 353.082 421.432 352.062 422.483 351.364C423.54 350.659 424.798 350.307 426.259 350.307C427.719 350.307 428.974 350.659 430.026 351.364C431.082 352.068 431.895 353.091 432.463 354.432C433.031 355.767 433.313 357.386 433.307 359.29C433.307 361.205 433.023 362.841 432.455 364.199C431.892 365.557 431.085 366.594 430.034 367.31C428.983 368.026 427.724 368.384 426.259 368.384ZM426.259 365.324C427.259 365.324 428.057 364.821 428.653 363.815C429.25 362.81 429.545 361.301 429.54 359.29C429.54 357.966 429.403 356.864 429.131 355.983C428.864 355.102 428.483 354.44 427.989 353.997C427.5 353.554 426.923 353.332 426.259 353.332C425.264 353.332 424.469 353.83 423.872 354.824C423.276 355.818 422.974 357.307 422.969 359.29C422.969 360.631 423.102 361.75 423.369 362.648C423.642 363.54 424.026 364.21 424.52 364.659C425.014 365.102 425.594 365.324 426.259 365.324Z" fill="black"/>
<circle cx="662" cy="208" r="5" fill="#313131"/>
<path d="M644.825 214V212.449L648.45 209.093C648.758 208.795 649.016 208.526 649.225 208.288C649.437 208.049 649.598 207.815 649.707 207.587C649.817 207.355 649.871 207.104 649.871 206.836C649.871 206.538 649.804 206.281 649.668 206.065C649.532 205.847 649.346 205.679 649.111 205.563C648.875 205.444 648.609 205.384 648.31 205.384C647.999 205.384 647.727 205.447 647.495 205.573C647.263 205.699 647.084 205.88 646.958 206.115C646.832 206.35 646.769 206.63 646.769 206.955H644.726C644.726 206.289 644.877 205.711 645.178 205.22C645.48 204.73 645.902 204.35 646.446 204.082C646.99 203.813 647.616 203.679 648.325 203.679C649.054 203.679 649.689 203.808 650.229 204.067C650.773 204.322 651.196 204.677 651.497 205.131C651.799 205.585 651.95 206.105 651.95 206.692C651.95 207.076 651.873 207.456 651.721 207.83C651.572 208.205 651.305 208.621 650.92 209.078C650.536 209.532 649.994 210.077 649.295 210.714L647.808 212.17V212.24H652.084V214H644.825Z" fill="black"/>
<circle cx="232" cy="481" r="5" fill="#313131"/>
<path d="M218.589 487.139C217.846 487.139 217.185 487.012 216.605 486.756C216.028 486.498 215.573 486.143 215.238 485.692C214.906 485.238 214.736 484.715 214.726 484.121H216.893C216.907 484.37 216.988 484.589 217.137 484.778C217.29 484.963 217.492 485.107 217.744 485.21C217.996 485.313 218.279 485.364 218.594 485.364C218.922 485.364 219.212 485.306 219.464 485.19C219.716 485.074 219.913 484.914 220.055 484.708C220.198 484.503 220.269 484.266 220.269 483.997C220.269 483.725 220.193 483.485 220.04 483.276C219.891 483.064 219.676 482.898 219.394 482.779C219.116 482.66 218.784 482.6 218.4 482.6H217.45V481.019H218.4C218.725 481.019 219.011 480.963 219.26 480.85C219.512 480.737 219.707 480.582 219.847 480.383C219.986 480.181 220.055 479.945 220.055 479.677C220.055 479.422 219.994 479.198 219.871 479.006C219.752 478.81 219.583 478.658 219.364 478.548C219.149 478.439 218.897 478.384 218.609 478.384C218.317 478.384 218.05 478.437 217.808 478.543C217.566 478.646 217.372 478.794 217.227 478.986C217.081 479.178 217.003 479.403 216.993 479.662H214.93C214.94 479.075 215.107 478.558 215.432 478.111C215.757 477.663 216.194 477.314 216.744 477.062C217.298 476.807 217.923 476.679 218.619 476.679C219.321 476.679 219.936 476.807 220.463 477.062C220.99 477.317 221.399 477.662 221.691 478.096C221.986 478.527 222.132 479.011 222.129 479.548C222.132 480.118 221.955 480.593 221.597 480.974C221.242 481.356 220.78 481.598 220.21 481.7V481.78C220.959 481.876 221.529 482.136 221.92 482.56C222.314 482.981 222.51 483.508 222.506 484.141C222.51 484.721 222.342 485.237 222.004 485.688C221.67 486.138 221.207 486.493 220.617 486.751C220.027 487.01 219.351 487.139 218.589 487.139Z" fill="black"/>
<circle cx="413" cy="624" r="5" fill="#313131"/>
<path d="M395.671 628.21V626.515L399.922 619.818H401.384V622.165H400.518L397.839 626.406V626.485H403.879V628.21H395.671ZM400.558 630V627.693L400.598 626.942V619.818H402.616V630H400.558Z" fill="black"/>
<circle cx="668" cy="501" r="5" fill="#313131"/>
<path d="M654.544 507.139C653.841 507.139 653.215 507.01 652.665 506.751C652.118 506.493 651.684 506.137 651.362 505.683C651.041 505.228 650.873 504.708 650.86 504.121H652.948C652.971 504.516 653.137 504.836 653.445 505.081C653.754 505.326 654.12 505.449 654.544 505.449C654.882 505.449 655.18 505.374 655.439 505.225C655.701 505.073 655.905 504.862 656.05 504.594C656.2 504.322 656.274 504.01 656.274 503.659C656.274 503.301 656.198 502.986 656.045 502.714C655.896 502.443 655.689 502.231 655.424 502.078C655.159 501.926 654.856 501.848 654.514 501.844C654.216 501.844 653.926 501.906 653.644 502.028C653.366 502.151 653.149 502.318 652.993 502.531L651.079 502.188L651.561 496.818H657.786V498.578H653.336L653.072 501.129H653.132C653.311 500.877 653.581 500.668 653.942 500.502C654.304 500.336 654.708 500.254 655.156 500.254C655.769 500.254 656.316 500.398 656.796 500.686C657.277 500.974 657.656 501.371 657.935 501.874C658.213 502.375 658.351 502.951 658.347 503.604C658.351 504.29 658.192 504.9 657.87 505.434C657.552 505.964 657.106 506.382 656.533 506.687C655.963 506.988 655.3 507.139 654.544 507.139Z" fill="black"/>
<circle cx="458" cy="633" r="5" fill="#313131"/>
<path d="M444.624 639.139C443.858 639.139 443.177 639.015 442.58 638.766C441.987 638.514 441.521 638.171 441.183 637.737C440.845 637.303 440.676 636.811 440.676 636.261C440.676 635.836 440.772 635.447 440.964 635.092C441.16 634.734 441.425 634.438 441.76 634.202C442.095 633.964 442.469 633.811 442.884 633.745V633.675C442.34 633.566 441.899 633.303 441.561 632.885C441.223 632.464 441.054 631.975 441.054 631.418C441.054 630.891 441.208 630.422 441.516 630.011C441.825 629.597 442.247 629.272 442.784 629.037C443.324 628.798 443.938 628.679 444.624 628.679C445.31 628.679 445.921 628.798 446.458 629.037C446.998 629.276 447.423 629.602 447.731 630.016C448.039 630.427 448.195 630.895 448.198 631.418C448.195 631.978 448.022 632.467 447.681 632.885C447.34 633.303 446.902 633.566 446.369 633.675V633.745C446.776 633.811 447.146 633.964 447.477 634.202C447.812 634.438 448.077 634.734 448.273 635.092C448.472 635.447 448.573 635.836 448.576 636.261C448.573 636.811 448.402 637.303 448.064 637.737C447.726 638.171 447.259 638.514 446.662 638.766C446.069 639.015 445.389 639.139 444.624 639.139ZM444.624 637.558C444.965 637.558 445.263 637.497 445.518 637.374C445.774 637.248 445.973 637.076 446.115 636.857C446.261 636.635 446.334 636.38 446.334 636.092C446.334 635.797 446.259 635.536 446.11 635.311C445.961 635.082 445.759 634.903 445.504 634.774C445.248 634.642 444.955 634.575 444.624 634.575C444.295 634.575 444.002 634.642 443.744 634.774C443.485 634.903 443.281 635.082 443.132 635.311C442.986 635.536 442.913 635.797 442.913 636.092C442.913 636.38 442.985 636.635 443.127 636.857C443.27 637.076 443.47 637.248 443.729 637.374C443.987 637.497 444.286 637.558 444.624 637.558ZM444.624 633.009C444.909 633.009 445.162 632.951 445.384 632.835C445.606 632.719 445.78 632.558 445.906 632.353C446.032 632.147 446.095 631.911 446.095 631.642C446.095 631.377 446.032 631.145 445.906 630.946C445.78 630.744 445.608 630.586 445.389 630.474C445.17 630.358 444.915 630.3 444.624 630.3C444.335 630.3 444.08 630.358 443.858 630.474C443.636 630.586 443.462 630.744 443.336 630.946C443.213 631.145 443.152 631.377 443.152 631.642C443.152 631.911 443.215 632.147 443.341 632.353C443.467 632.558 443.641 632.719 443.863 632.835C444.085 632.951 444.339 633.009 444.624 633.009Z" fill="black"/>
<circle cx="639" cy="236" r="5" fill="#313131"/>
<path d="M625.509 231.679C626.033 231.679 626.537 231.767 627.021 231.942C627.508 232.118 627.942 232.398 628.323 232.783C628.708 233.167 629.011 233.678 629.233 234.314C629.458 234.947 629.573 235.724 629.576 236.646C629.576 237.511 629.478 238.283 629.283 238.962C629.09 239.638 628.814 240.214 628.452 240.688C628.091 241.161 627.655 241.523 627.145 241.771C626.634 242.017 626.064 242.139 625.435 242.139C624.755 242.139 624.155 242.008 623.635 241.746C623.115 241.481 622.695 241.122 622.377 240.668C622.062 240.21 621.872 239.696 621.805 239.126H623.928C624.011 239.498 624.185 239.786 624.45 239.991C624.715 240.194 625.044 240.295 625.435 240.295C626.098 240.295 626.601 240.006 626.946 239.43C627.291 238.85 627.465 238.056 627.468 237.048H627.398C627.246 237.347 627.04 237.603 626.782 237.819C626.523 238.031 626.227 238.195 625.892 238.311C625.561 238.427 625.208 238.485 624.833 238.485C624.233 238.485 623.698 238.344 623.227 238.062C622.757 237.781 622.385 237.393 622.114 236.899C621.842 236.405 621.706 235.842 621.706 235.209C621.703 234.526 621.86 233.918 622.178 233.384C622.496 232.851 622.941 232.433 623.511 232.131C624.084 231.826 624.75 231.676 625.509 231.679ZM625.524 233.369C625.189 233.369 624.891 233.449 624.629 233.608C624.371 233.767 624.165 233.981 624.013 234.249C623.864 234.518 623.791 234.818 623.794 235.149C623.794 235.484 623.867 235.786 624.013 236.054C624.162 236.319 624.364 236.531 624.619 236.69C624.878 236.846 625.173 236.924 625.504 236.924C625.753 236.924 625.983 236.878 626.195 236.785C626.407 236.692 626.591 236.564 626.747 236.402C626.906 236.236 627.031 236.046 627.12 235.83C627.21 235.615 627.254 235.386 627.254 235.144C627.251 234.823 627.175 234.528 627.026 234.259C626.876 233.991 626.671 233.775 626.409 233.613C626.147 233.451 625.852 233.369 625.524 233.369Z" fill="black"/>
<circle cx="466" cy="89" r="5" fill="#313131"/>
<path d="M448.255 84.8182V95H446.102V86.8615H446.043L443.711 88.3232V86.4141L446.232 84.8182H448.255ZM454.667 95.2237C453.812 95.2204 453.076 95.0099 452.46 94.5923C451.847 94.1747 451.374 93.5698 451.043 92.7777C450.715 91.9856 450.552 91.0327 450.556 89.919C450.556 88.8087 450.72 87.8625 451.048 87.0803C451.379 86.2981 451.852 85.7031 452.465 85.2955C453.081 84.8845 453.815 84.679 454.667 84.679C455.519 84.679 456.251 84.8845 456.865 85.2955C457.481 85.7064 457.955 86.303 458.286 87.0852C458.618 87.8641 458.782 88.8087 458.779 89.919C458.779 91.036 458.613 91.9905 458.281 92.7827C457.953 93.5748 457.483 94.1797 456.869 94.5973C456.256 95.0149 455.522 95.2237 454.667 95.2237ZM454.667 93.4389C455.25 93.4389 455.716 93.1456 456.064 92.5589C456.412 91.9723 456.584 91.0923 456.581 89.919C456.581 89.1468 456.502 88.5038 456.343 87.9901C456.187 87.4763 455.965 87.0902 455.676 86.8317C455.391 86.5732 455.055 86.4439 454.667 86.4439C454.087 86.4439 453.623 86.7339 453.275 87.3139C452.927 87.8939 452.751 88.7623 452.748 89.919C452.748 90.7012 452.826 91.3542 452.982 91.8778C453.141 92.3982 453.365 92.7893 453.653 93.0511C453.941 93.3097 454.279 93.4389 454.667 93.4389Z" fill="black"/>
<circle cx="409" cy="75" r="5" fill="#313131"/>
<path d="M391.255 70.8182V81H389.102V72.8615H389.043L386.711 74.3232V72.4141L389.232 70.8182H391.255ZM393.675 81V79.4489L397.299 76.093C397.607 75.7947 397.866 75.5263 398.075 75.2876C398.287 75.049 398.448 74.8153 398.557 74.5866C398.666 74.3546 398.721 74.1044 398.721 73.8359C398.721 73.5376 398.653 73.2808 398.517 73.0653C398.381 72.8466 398.196 72.6792 397.96 72.5632C397.725 72.4439 397.458 72.3842 397.16 72.3842C396.848 72.3842 396.577 72.4472 396.345 72.5732C396.113 72.6991 395.934 72.8797 395.808 73.1151C395.682 73.3504 395.619 73.6304 395.619 73.9553H393.575C393.575 73.2891 393.726 72.7107 394.028 72.2202C394.329 71.7296 394.752 71.3501 395.296 71.0817C395.839 70.8132 396.466 70.679 397.175 70.679C397.904 70.679 398.539 70.8082 399.079 71.0668C399.623 71.322 400.045 71.6766 400.347 72.1307C400.648 72.5848 400.799 73.1051 400.799 73.6918C400.799 74.0762 400.723 74.4557 400.57 74.8303C400.421 75.2048 400.155 75.6207 399.77 76.0781C399.386 76.5322 398.844 77.0774 398.144 77.7138L396.658 79.1705V79.2401H400.933V81H393.675Z" fill="black"/>
<circle cx="686" cy="239" r="5" fill="#313131"/>
<path d="M668.255 234.818V245H666.102V236.862H666.043L663.711 238.323V236.414L666.232 234.818H668.255ZM674.438 245.139C673.696 245.139 673.035 245.012 672.455 244.756C671.878 244.498 671.422 244.143 671.088 243.692C670.756 243.238 670.585 242.715 670.575 242.121H672.743C672.756 242.37 672.838 242.589 672.987 242.778C673.139 242.963 673.341 243.107 673.593 243.21C673.845 243.313 674.128 243.364 674.443 243.364C674.771 243.364 675.061 243.306 675.313 243.19C675.565 243.074 675.762 242.914 675.905 242.708C676.048 242.503 676.119 242.266 676.119 241.997C676.119 241.725 676.043 241.485 675.89 241.276C675.741 241.064 675.526 240.898 675.244 240.779C674.965 240.66 674.634 240.6 674.249 240.6H673.3V239.019H674.249C674.574 239.019 674.861 238.963 675.11 238.85C675.361 238.737 675.557 238.582 675.696 238.383C675.835 238.181 675.905 237.945 675.905 237.677C675.905 237.422 675.844 237.198 675.721 237.006C675.602 236.81 675.433 236.658 675.214 236.548C674.999 236.439 674.747 236.384 674.458 236.384C674.167 236.384 673.9 236.437 673.658 236.543C673.416 236.646 673.222 236.794 673.076 236.986C672.93 237.178 672.852 237.403 672.843 237.662H670.779C670.789 237.075 670.957 236.558 671.281 236.111C671.606 235.663 672.044 235.314 672.594 235.062C673.147 234.807 673.772 234.679 674.468 234.679C675.171 234.679 675.786 234.807 676.313 235.062C676.84 235.317 677.249 235.662 677.541 236.096C677.836 236.527 677.981 237.011 677.978 237.548C677.981 238.118 677.804 238.593 677.446 238.974C677.092 239.356 676.629 239.598 676.059 239.7V239.78C676.808 239.876 677.378 240.136 677.769 240.56C678.164 240.981 678.359 241.508 678.356 242.141C678.359 242.721 678.192 243.237 677.854 243.688C677.519 244.138 677.057 244.493 676.467 244.751C675.877 245.01 675.201 245.139 674.438 245.139Z" fill="black"/>
<circle cx="413" cy="595" r="5" fill="#313131"/>
<path d="M395.255 590.818V601H393.102V592.862H393.043L390.711 594.323V592.414L393.232 590.818H395.255ZM402.105 590.818V601H399.952V592.862H399.892L397.561 594.323V592.414L400.081 590.818H402.105Z" fill="black"/>
<circle cx="639" cy="521" r="5" fill="#313131"/>
<path d="M622.228 527L626.449 518.648V518.578H621.532V516.818H628.676V518.603L624.45 527H622.228Z" fill="black"/>
<circle cx="209" cy="504" r="5" fill="#313131"/>
<path d="M195.733 510.139C195.209 510.136 194.704 510.048 194.217 509.876C193.733 509.703 193.299 509.423 192.914 509.036C192.53 508.648 192.225 508.134 191.999 507.494C191.777 506.855 191.666 506.069 191.666 505.138C191.67 504.283 191.767 503.519 191.96 502.846C192.155 502.17 192.433 501.596 192.795 501.126C193.159 500.655 193.595 500.297 194.102 500.052C194.609 499.803 195.178 499.679 195.808 499.679C196.487 499.679 197.087 499.812 197.607 500.077C198.128 500.339 198.545 500.695 198.86 501.146C199.178 501.596 199.371 502.102 199.437 502.662H197.314C197.231 502.307 197.057 502.029 196.792 501.827C196.527 501.625 196.199 501.523 195.808 501.523C195.145 501.523 194.641 501.812 194.296 502.388C193.955 502.965 193.781 503.749 193.774 504.74H193.844C193.996 504.438 194.202 504.182 194.46 503.969C194.722 503.754 195.019 503.59 195.35 503.477C195.685 503.361 196.038 503.303 196.409 503.303C197.012 503.303 197.549 503.446 198.02 503.731C198.491 504.013 198.862 504.4 199.134 504.894C199.405 505.388 199.541 505.953 199.541 506.589C199.541 507.279 199.38 507.892 199.059 508.429C198.741 508.966 198.295 509.387 197.722 509.692C197.152 509.993 196.489 510.143 195.733 510.139ZM195.723 508.449C196.054 508.449 196.351 508.369 196.613 508.21C196.875 508.051 197.08 507.836 197.229 507.564C197.379 507.292 197.453 506.987 197.453 506.649C197.453 506.311 197.379 506.008 197.229 505.739C197.084 505.471 196.881 505.257 196.623 505.098C196.364 504.939 196.069 504.859 195.738 504.859C195.489 504.859 195.259 504.906 195.047 504.999C194.838 505.091 194.654 505.221 194.495 505.386C194.339 505.552 194.217 505.744 194.127 505.963C194.038 506.179 193.993 506.409 193.993 506.654C193.993 506.982 194.067 507.282 194.217 507.554C194.369 507.826 194.575 508.043 194.833 508.205C195.095 508.368 195.392 508.449 195.723 508.449Z" fill="black"/>
<ellipse cx="654.391" cy="462.765" rx="2.6087" ry="2.35294" fill="#313131"/>
<path d="M650.255 462.818V473H648.102V464.862H648.043L645.711 466.323V464.414L648.232 462.818H650.255Z" fill="black"/>
<circle cx="191" cy="471" r="5" fill="#313131"/>
<path d="M173.255 466.818V477H171.102V468.862H171.043L168.711 470.323V468.414L171.232 466.818H173.255ZM175.521 475.21V473.515L179.771 466.818H181.233V469.165H180.368L177.688 473.406V473.485H183.729V475.21H175.521ZM180.408 477V474.693L180.448 473.942V466.818H182.466V477H180.408Z" fill="black"/>
<circle cx="455" cy="600" r="5" fill="#313131"/>
<path d="M437.255 595.818V606H435.102V597.862H435.043L432.711 599.323V597.414L435.232 595.818H437.255ZM443.394 606.139C442.691 606.139 442.065 606.01 441.514 605.751C440.968 605.493 440.533 605.137 440.212 604.683C439.89 604.228 439.723 603.708 439.71 603.121H441.798C441.821 603.516 441.987 603.836 442.295 604.081C442.603 604.326 442.969 604.449 443.394 604.449C443.732 604.449 444.03 604.374 444.289 604.225C444.55 604.073 444.754 603.862 444.9 603.594C445.049 603.322 445.124 603.01 445.124 602.659C445.124 602.301 445.048 601.986 444.895 601.714C444.746 601.443 444.539 601.231 444.274 601.078C444.008 600.926 443.705 600.848 443.364 600.844C443.066 600.844 442.776 600.906 442.494 601.028C442.215 601.151 441.998 601.318 441.843 601.531L439.928 601.188L440.411 595.818H446.635V597.578H442.186L441.922 600.129H441.982C442.161 599.877 442.431 599.668 442.792 599.502C443.153 599.336 443.558 599.254 444.005 599.254C444.618 599.254 445.165 599.398 445.646 599.686C446.126 599.974 446.506 600.371 446.784 600.874C447.063 601.375 447.2 601.951 447.197 602.604C447.2 603.29 447.041 603.9 446.72 604.434C446.401 604.964 445.956 605.382 445.382 605.687C444.812 605.988 444.149 606.139 443.394 606.139Z" fill="black"/>
</svg>
