<svg width="973" height="713" viewBox="0 0 973 713" fill="none" xmlns="http://www.w3.org/2000/svg">
<line x1="425.752" y1="352.566" x2="702.752" y2="194.566" stroke="black" stroke-dasharray="8 8"/>
<line x1="426.25" y1="351.567" x2="701.25" y2="510.567" stroke="black" stroke-dasharray="8 8"/>
<line x1="151.251" y1="192.568" x2="426.251" y2="352.568" stroke="black" stroke-dasharray="8 8"/>
<line x1="426.5" y1="34.0001" x2="426.462" y2="353" stroke="black" stroke-dasharray="8 8"/>
<line x1="426.5" y1="353" x2="426.5" y2="668" stroke="black" stroke-dasharray="8 8"/>
<line x1="426.249" y1="353.434" x2="151.249" y2="511.434" stroke="black" stroke-dasharray="8 8"/>
<path d="M149.372 193.289L426 33.5774L702.628 193.289V512.711L426 672.423L149.372 512.711V193.289Z" fill="#E9E9E9" fill-opacity="0.5" stroke="#B9B9B9"/>
<path d="M73.9894 177.545V195H70.2991V181.048H70.1968L66.1997 183.554V180.281L70.5207 177.545H73.9894ZM82.5079 195.222C81.9454 195.222 81.4624 195.023 81.059 194.625C80.6613 194.222 80.4624 193.739 80.4624 193.176C80.4624 192.619 80.6613 192.142 81.059 191.744C81.4624 191.347 81.9454 191.148 82.5079 191.148C83.0533 191.148 83.5306 191.347 83.9397 191.744C84.3488 192.142 84.5533 192.619 84.5533 193.176C84.5533 193.551 84.4568 193.895 84.2636 194.207C84.0761 194.514 83.8289 194.761 83.5221 194.949C83.2153 195.131 82.8772 195.222 82.5079 195.222ZM104.152 175.56V177.816H115.216V175.56H104.152ZM103.768 182.472V184.728H115.648V182.472H103.768ZM103.768 185.904V188.16H115.552V185.904H103.768ZM104.92 193.92V196.2H114.472V193.92H104.92ZM101.872 178.992V181.32H117.328V178.992H101.872ZM103.384 189.36V197.136H106.144V191.592H113.08V197.064H115.984V189.36H103.384ZM100.096 174.672C98.8 178.104 96.568 181.512 94.288 183.672C94.768 184.368 95.536 185.952 95.776 186.624C98.512 183.912 101.152 179.616 102.784 175.536L100.096 174.672ZM97.792 181.32V197.088H100.528V178.608L100.504 178.584L97.792 181.32ZM130.984 174.648C130.072 175.776 128.392 177.192 126.784 178.2C127.144 178.68 127.648 179.568 127.816 180.096C129.784 179.088 132.04 177.648 133.696 176.208L130.984 174.648ZM126.496 177.36V191.592H129.16V178.08L126.496 177.36ZM124.792 191.232L125.872 193.872C127.792 193.272 130.192 192.576 132.4 191.856L131.968 189.288C129.352 190.032 126.664 190.776 124.792 191.232ZM132.496 177.216V197.16H135.208V179.736H139.48V177.216H132.496ZM137.968 177.216V190.152C137.968 190.44 137.872 190.512 137.632 190.512C137.368 190.512 136.6 190.536 135.832 190.488C136.192 191.232 136.504 192.456 136.552 193.248C138.016 193.248 139.024 193.2 139.768 192.744C140.536 192.264 140.728 191.472 140.728 190.2V177.216H137.968ZM123.76 174.672C122.512 178.104 120.376 181.512 118.192 183.672C118.648 184.368 119.416 185.904 119.68 186.576C122.296 183.84 124.816 179.568 126.376 175.512L123.76 174.672ZM121.456 181.32V197.088H124.192V178.608L124.168 178.584L121.456 181.32Z" fill="black"/>
<path d="M717.866 529.239C716.594 529.239 715.46 529.02 714.466 528.582C713.477 528.139 712.696 527.531 712.122 526.759C711.554 525.98 711.261 525.082 711.244 524.065H714.96C714.983 524.491 715.122 524.866 715.378 525.19C715.639 525.509 715.986 525.756 716.418 525.932C716.849 526.108 717.335 526.196 717.875 526.196C718.438 526.196 718.935 526.097 719.366 525.898C719.798 525.699 720.136 525.423 720.381 525.071C720.625 524.719 720.747 524.312 720.747 523.852C720.747 523.386 720.616 522.974 720.355 522.616C720.099 522.253 719.73 521.969 719.247 521.764C718.77 521.56 718.202 521.457 717.543 521.457H715.915V518.747H717.543C718.099 518.747 718.591 518.651 719.017 518.457C719.449 518.264 719.784 517.997 720.023 517.656C720.261 517.31 720.381 516.906 720.381 516.446C720.381 516.009 720.276 515.625 720.065 515.295C719.861 514.96 719.571 514.699 719.196 514.511C718.827 514.324 718.395 514.23 717.901 514.23C717.401 514.23 716.943 514.321 716.528 514.503C716.114 514.679 715.781 514.932 715.531 515.261C715.281 515.591 715.148 515.977 715.131 516.42H711.594C711.611 515.415 711.898 514.528 712.455 513.761C713.011 512.994 713.761 512.395 714.705 511.963C715.653 511.526 716.724 511.307 717.918 511.307C719.122 511.307 720.176 511.526 721.08 511.963C721.983 512.401 722.685 512.991 723.185 513.736C723.69 514.474 723.94 515.304 723.935 516.224C723.94 517.202 723.636 518.017 723.023 518.67C722.415 519.324 721.622 519.739 720.645 519.915V520.051C721.929 520.216 722.906 520.662 723.577 521.389C724.253 522.111 724.588 523.014 724.582 524.099C724.588 525.094 724.301 525.977 723.722 526.75C723.148 527.523 722.355 528.131 721.344 528.574C720.332 529.017 719.173 529.239 717.866 529.239ZM728.899 529.222C728.337 529.222 727.854 529.023 727.45 528.625C727.053 528.222 726.854 527.739 726.854 527.176C726.854 526.619 727.053 526.142 727.45 525.744C727.854 525.347 728.337 525.148 728.899 525.148C729.445 525.148 729.922 525.347 730.331 525.744C730.74 526.142 730.945 526.619 730.945 527.176C730.945 527.551 730.848 527.895 730.655 528.207C730.467 528.514 730.22 528.761 729.913 528.949C729.607 529.131 729.268 529.222 728.899 529.222ZM742.917 508.624V528.424C742.917 528.832 742.773 528.976 742.317 529C741.909 529 740.493 529.024 739.341 528.976C739.701 529.552 740.157 530.56 740.301 531.232C742.341 531.232 743.637 531.184 744.573 530.824C745.485 530.416 745.845 529.84 745.845 528.424V508.624H742.917ZM733.917 510.184V512.464H755.037V510.184H733.917ZM739.125 515.248H749.733V516.4H739.125V515.248ZM736.389 513.424V518.224H752.685V513.424H736.389ZM735.789 519.28V521.248H750.165V528.664H753.093V519.28H735.789ZM733.365 522.256V524.44H755.589V522.256H733.365ZM735.597 525.568V527.656H751.725V525.568H735.597ZM766.965 508.648V512.488H769.917V508.648H766.965ZM758.181 510.736V515.896H761.037V513.256H775.773V515.896H778.749V510.736H758.181ZM760.317 515.152V517.48H776.805V515.152H760.317ZM757.989 522.76V525.256H779.085V522.76H757.989ZM760.701 518.92V521.248H776.325V518.92H760.701ZM769.893 523.264L767.301 523.792C769.149 528.064 772.221 530.344 777.717 531.232C778.077 530.464 778.821 529.312 779.421 528.712C774.429 528.184 771.309 526.432 769.893 523.264ZM766.893 513.784V520.432C766.893 523.648 765.837 526.936 757.533 528.832C758.157 529.432 758.997 530.536 759.309 531.16C768.045 528.808 769.797 524.68 769.797 520.456V513.784H766.893ZM796.389 519.88C796.389 525.016 798.525 528.856 801.117 531.424L803.397 530.392C800.973 527.824 799.101 524.488 799.101 519.88C799.101 515.296 800.973 511.96 803.397 509.392L801.117 508.36C798.525 510.928 796.389 514.768 796.389 519.88ZM816.861 508.624C816.141 512.176 814.797 515.608 812.877 517.72C813.477 518.08 814.605 518.896 815.061 519.328C817.005 516.928 818.589 513.112 819.453 509.128L816.861 508.624ZM824.925 512.368V512.992C824.541 523.192 824.085 526.912 823.413 527.752C823.125 528.088 822.909 528.208 822.549 528.208C822.093 528.208 821.277 528.184 820.389 528.088C820.821 528.88 821.109 530.104 821.181 530.92C822.237 530.968 823.245 530.968 823.917 530.824C824.709 530.68 825.237 530.392 825.789 529.576C826.701 528.376 827.133 524.44 827.589 513.664C827.613 513.304 827.637 512.368 827.637 512.368H824.925ZM817.581 512.368L816.261 515.032H826.149V512.368H817.581ZM819.261 513.232C818.349 517.264 816.237 521.776 813.453 523.96C814.197 524.368 815.109 525.04 815.661 525.592C818.277 523.144 820.389 518.392 821.349 514.264L819.261 513.232ZM822.597 513.496C821.493 519.664 819.021 525.928 814.821 528.928C815.613 529.312 816.621 530.032 817.173 530.608C821.133 527.296 823.677 520.768 824.829 514.528L822.597 513.496ZM805.101 521.704L805.797 524.464C808.341 523.72 811.629 522.736 814.653 521.8L814.269 519.256C810.957 520.192 807.453 521.176 805.101 521.704ZM809.421 508.624V531.16H812.061V508.624H809.421ZM806.253 509.992C806.037 512.848 805.629 515.848 804.861 517.768C805.437 518.056 806.469 518.728 806.901 519.064C807.765 516.928 808.341 513.568 808.653 510.4L806.253 509.992ZM806.901 513.256L806.373 516.016H814.053V513.256H806.901ZM840.789 516.352H848.061V518.416H840.789V516.352ZM840.789 512.08H848.061V514.096H840.789V512.08ZM838.197 509.632V520.84H850.797V509.632H838.197ZM838.029 522.904V525.496H851.061V522.904H838.029ZM836.349 527.8V530.392H851.853V527.8H836.349ZM829.317 509.992V512.68H837.285V509.992H829.317ZM829.557 516.904V519.568H836.877V516.904H829.557ZM829.053 526.024L829.701 528.952C832.005 528.208 834.885 527.272 837.573 526.36L837.069 523.6C834.189 524.536 831.117 525.496 829.053 526.024ZM831.981 511.048V526.24L834.717 525.808V511.048H831.981ZM843.261 510.664V519.712H842.997V529.024H845.949V519.712H845.685V510.664H843.261ZM864.477 516.832C862.773 516.832 861.405 518.2 861.405 519.88C861.405 521.584 862.773 522.952 864.477 522.952C866.157 522.952 867.525 521.584 867.525 519.88C867.525 518.2 866.157 516.832 864.477 516.832ZM880.893 510.856V531.136H883.701V510.856H880.893ZM877.245 515.368V518.056H886.869V515.368H877.245ZM881.061 516.448C880.293 519.112 878.613 522.592 876.933 524.512C877.389 525.232 878.013 526.432 878.277 527.272C880.125 524.896 881.829 520.624 882.741 517.192L881.061 516.448ZM885.189 508.84C883.197 509.656 880.173 510.4 877.437 510.808C877.725 511.432 878.085 512.392 878.205 513.04C881.013 512.704 884.301 512.104 886.797 511.192L885.189 508.84ZM883.629 518.176L882.381 519.328C883.101 520.36 884.589 522.784 885.141 524.008L886.821 521.752C886.341 521.152 884.229 518.752 883.629 518.176ZM894.189 508.6V531.136H897.021V508.6H894.189ZM886.461 524.08L886.893 526.84L899.853 524.56L899.421 521.848L886.461 524.08ZM888.021 511.696C889.341 512.752 890.925 514.288 891.597 515.32L893.613 513.52C892.869 512.488 891.213 511.048 889.893 510.064L888.021 511.696ZM887.133 518.008C888.525 519.064 890.205 520.648 890.973 521.704L892.941 519.856C892.125 518.8 890.349 517.336 888.957 516.352L887.133 518.008ZM906.069 516.832V519.304H917.133V516.832H906.069ZM901.773 522.208V524.872H923.253V522.208H901.773ZM911.013 520.672V527.992C911.013 528.328 910.869 528.448 910.389 528.448C909.909 528.448 908.109 528.448 906.573 528.4C907.029 529.144 907.557 530.368 907.749 531.184C909.789 531.184 911.325 531.136 912.453 530.752C913.605 530.32 913.965 529.576 913.965 528.088V520.672H911.013ZM916.197 516.832V517.36C915.309 518.536 913.269 520.24 911.421 521.2C911.853 521.584 912.621 522.376 912.957 522.856C915.309 521.728 917.685 519.856 919.341 518.08L917.517 516.688L916.917 516.832H916.197ZM902.061 512.44V518.32H904.773V514.984H920.133V518.32H922.989V512.44H902.061ZM918.693 508.792C918.117 510.136 917.037 511.936 916.125 513.112L918.477 513.976C919.461 512.92 920.709 511.288 921.813 509.704L918.693 508.792ZM903.669 509.968C904.485 510.976 905.373 512.344 905.709 513.232L908.325 512.032C907.941 511.096 906.981 509.8 906.117 508.864L903.669 509.968ZM909.717 509.44C910.437 510.544 911.181 512.056 911.421 513.016L914.157 511.96C913.845 511 913.029 509.536 912.261 508.48L909.717 509.44ZM927.909 512.512V515.032H932.661V526.144H927.909V528.688H935.277V512.512H927.909ZM926.229 512.512V530.464H928.845V512.512H926.229ZM927.789 518.92V521.416H933.933V518.92H927.789ZM929.637 508.6C929.517 509.92 929.181 511.768 928.845 513.016L931.149 513.52C931.629 512.392 932.229 510.688 932.781 509.056L929.637 508.6ZM938.445 512.344V514.96H945.453V512.344H938.445ZM944.469 512.344V512.896C944.205 522.904 943.893 527.032 943.125 527.848C942.813 528.184 942.549 528.28 942.069 528.28C941.469 528.28 940.029 528.256 938.469 528.136C938.997 528.904 939.381 530.128 939.429 530.92C940.821 530.992 942.285 531.016 943.197 530.872C944.181 530.728 944.853 530.464 945.525 529.528C946.509 528.256 946.797 524.44 947.109 513.64C947.133 513.28 947.133 512.344 947.133 512.344H944.469ZM938.517 508.624C937.749 511.816 936.381 515.08 934.773 517.096C935.445 517.48 936.621 518.296 937.149 518.776C938.781 516.472 940.341 512.824 941.277 509.272L938.517 508.624ZM937.341 519.256C938.493 521.032 940.005 523.384 940.653 524.848L943.101 523.36C942.357 521.944 940.773 519.64 939.597 517.984L937.341 519.256ZM956.541 519.88C956.541 514.768 954.405 510.928 951.813 508.36L949.533 509.392C951.957 511.96 953.829 515.296 953.829 519.88C953.829 524.488 951.957 527.824 949.533 530.392L951.813 531.424C954.405 528.856 956.541 525.016 956.541 519.88Z" fill="black"/>
<path d="M378.151 703.932V701.026L385.438 689.545H387.943V693.568H386.46L381.866 700.838V700.974H392.222V703.932H378.151ZM386.528 707V703.045L386.597 701.759V689.545H390.057V707H386.528ZM396.509 707.222C395.946 707.222 395.463 707.023 395.06 706.625C394.662 706.222 394.463 705.739 394.463 705.176C394.463 704.619 394.662 704.142 395.06 703.744C395.463 703.347 395.946 703.148 396.509 703.148C397.054 703.148 397.531 703.347 397.94 703.744C398.349 704.142 398.554 704.619 398.554 705.176C398.554 705.551 398.457 705.895 398.264 706.207C398.077 706.514 397.83 706.761 397.523 706.949C397.216 707.131 396.878 707.222 396.509 707.222ZM401.43 693.08V696.056H422.79V693.08H401.43ZM413.742 694.28L410.838 694.952C412.662 701.552 415.662 706.52 421.158 709.088C421.638 708.248 422.598 707 423.318 706.352C418.23 704.336 415.182 699.776 413.742 694.28ZM410.43 686.624C410.358 693.128 410.79 702.248 400.95 706.64C401.79 707.264 402.678 708.296 403.134 709.088C413.43 704.12 413.478 693.944 413.598 686.624H410.43ZM429.846 692.576C431.31 693.344 433.182 694.544 434.046 695.384L436.086 693.608C435.15 692.768 433.23 691.664 431.79 690.968L429.846 692.576ZM440.67 688.424V688.832C438.294 693.32 431.814 696.2 425.334 697.232C425.838 697.856 426.414 698.984 426.654 699.704C433.638 698.288 440.43 695.168 443.55 689.384L441.678 688.304L441.222 688.424H440.67ZM433.086 688.424V690.776H441.318V688.424H433.086ZM434.406 686.552C432.774 688.52 429.798 690.536 425.526 691.928C426.15 692.384 427.038 693.368 427.446 694.04C431.934 692.264 435.102 690.008 437.55 687.224L434.406 686.552ZM433.11 701.672C434.598 702.536 436.47 703.88 437.31 704.792L439.542 703.016C438.582 702.08 436.662 700.856 435.198 700.064L433.11 701.672ZM443.694 697.184V697.592C441.462 703.256 434.958 705.776 427.35 706.568C427.83 707.216 428.358 708.392 428.574 709.184C436.83 708.032 443.766 705.2 446.694 698.048L444.774 697.064L444.27 697.184H443.694ZM436.638 697.184V699.584H444.462V697.184H436.638ZM438.318 694.856C436.47 697.136 433.038 699.44 428.022 700.952C428.622 701.456 429.438 702.512 429.774 703.184C435.078 701.264 438.774 698.72 441.462 695.576L438.318 694.856ZM448.782 699.152V701.456H460.926V699.152H448.782ZM449.07 690.68V692.936H460.854V690.68H449.07ZM453.102 697.424C452.07 699.704 450.486 702.704 449.358 704.552L451.878 705.32C453.03 703.4 454.59 700.472 455.766 698L453.102 697.424ZM456.51 700.76C455.742 704.696 453.654 706.208 448.878 706.808C449.358 707.384 449.886 708.392 450.054 709.184C455.766 708.032 458.286 706.016 459.15 700.976L456.51 700.76ZM458.214 686.912C457.83 687.824 457.158 689.12 456.606 689.96L458.454 690.8C459.078 690.056 459.846 688.952 460.638 687.872L458.214 686.912ZM453.63 686.6V697.76H456.27V686.6H453.63ZM449.646 687.872C450.246 688.856 450.798 690.128 450.966 690.968L453.174 690.008C452.958 689.144 452.358 687.92 451.71 687.008L449.646 687.872ZM453.702 691.808C452.67 693.44 450.51 695.144 448.566 695.936C449.094 696.464 449.718 697.424 450.054 698.048C452.07 696.92 454.374 694.832 455.574 692.936L453.702 691.808ZM456.03 692.504L454.686 693.632C455.742 694.376 457.878 696.08 458.766 696.968L460.302 694.976C459.63 694.52 456.894 692.912 456.03 692.504ZM462.51 690.968V693.632H471.318V690.968H462.51ZM462.774 686.6C462.198 690.896 461.022 695.024 459.006 697.472C459.654 697.952 460.83 698.984 461.286 699.512C463.494 696.584 464.934 691.976 465.678 687.008L462.774 686.6ZM467.118 692.6C466.398 699.704 464.31 704.216 458.838 706.616C459.366 707.24 460.206 708.56 460.494 709.256C466.566 706.208 469.038 701.072 470.07 692.864L467.118 692.6ZM464.142 693.104L461.526 693.512C462.702 700.688 464.79 706.256 469.614 709.136C470.046 708.344 470.958 707.192 471.63 706.616C467.214 704.36 465.102 699.176 464.142 693.104ZM451.47 704.576C454.158 705.68 456.942 707.36 458.478 708.704L460.47 706.664C458.838 705.368 455.838 703.688 453.006 702.608L451.47 704.576Z" fill="black"/>
<path d="M7.78977 529.239C6.58523 529.239 5.51136 529.017 4.56818 528.574C3.63068 528.131 2.88636 527.52 2.33523 526.741C1.78409 525.963 1.49716 525.071 1.47443 524.065H5.05398C5.09375 524.741 5.37784 525.29 5.90625 525.71C6.43466 526.131 7.0625 526.341 7.78977 526.341C8.36932 526.341 8.88068 526.213 9.32386 525.957C9.77273 525.696 10.1222 525.335 10.3722 524.875C10.6278 524.409 10.7557 523.875 10.7557 523.273C10.7557 522.659 10.625 522.119 10.3636 521.653C10.108 521.187 9.75284 520.824 9.2983 520.562C8.84375 520.301 8.32386 520.168 7.73864 520.162C7.22727 520.162 6.73011 520.267 6.24716 520.477C5.76989 520.687 5.39773 520.974 5.13068 521.338L1.84943 520.75L2.67614 511.545H13.3466V514.562H5.71875L5.26705 518.935H5.36932C5.67614 518.503 6.1392 518.145 6.75852 517.861C7.37784 517.577 8.07102 517.435 8.83807 517.435C9.8892 517.435 10.8267 517.682 11.6506 518.176C12.4744 518.67 13.125 519.349 13.6023 520.213C14.0795 521.071 14.3153 522.06 14.3097 523.179C14.3153 524.355 14.0426 525.401 13.4915 526.315C12.946 527.224 12.1818 527.94 11.1989 528.463C10.2216 528.98 9.08523 529.239 7.78977 529.239ZM18.4773 529.222C17.9148 529.222 17.4318 529.023 17.0284 528.625C16.6307 528.222 16.4318 527.739 16.4318 527.176C16.4318 526.619 16.6307 526.142 17.0284 525.744C17.4318 525.347 17.9148 525.148 18.4773 525.148C19.0227 525.148 19.5 525.347 19.9091 525.744C20.3182 526.142 20.5227 526.619 20.5227 527.176C20.5227 527.551 20.4261 527.895 20.233 528.207C20.0455 528.514 19.7983 528.761 19.4915 528.949C19.1847 529.131 18.8466 529.222 18.4773 529.222ZM29.4707 518.248V520.984H45.0467V518.248H29.4707ZM30.6707 512.08V514.816H43.8947V512.08H30.6707ZM35.6627 508.624V520.24H38.6627V508.624H35.6627ZM29.4707 527.296L29.8547 530.2C33.2387 529.96 37.9907 529.6 42.4787 529.216V526.624C37.7507 526.888 32.6867 527.176 29.4707 527.296ZM38.6627 523.984C40.4147 526.192 42.2387 529.216 42.8867 531.184L45.6227 529.672C44.8787 527.632 42.9347 524.8 41.1587 522.664L38.6627 523.984ZM33.8147 520.168C33.1907 522.64 31.9907 525.928 30.9107 528.04L33.4787 528.856C34.5827 526.864 35.9507 523.792 37.0067 521.008L33.8147 520.168ZM24.0947 510.832C25.6787 511.504 27.6707 512.656 28.6067 513.52L30.2867 511.168C29.2787 510.328 27.2387 509.296 25.6787 508.72L24.0947 510.832ZM22.7267 517.384C24.3107 517.984 26.3267 519.064 27.2867 519.856L28.8947 517.456C27.8387 516.664 25.7747 515.728 24.2147 515.2L22.7267 517.384ZM23.3987 528.976L25.8947 530.848C27.2387 528.52 28.6547 525.784 29.8307 523.24L27.6467 521.416C26.3267 524.176 24.5987 527.176 23.3987 528.976ZM55.1747 510.928V513.256H65.1347V518.176H55.0787V520.504H67.8707V510.928H55.1747ZM59.8307 508.6V531.136H62.5907V508.6H59.8307ZM54.2147 514.48V516.928H69.3347V514.48H54.2147ZM53.7827 525.352V527.824H69.0707V525.352H53.7827ZM54.7427 521.704V524.056H68.1107V521.704H54.7427ZM52.1507 513.952C50.7827 516.28 48.5027 518.632 46.5107 520.144C46.9187 520.864 47.6387 522.424 47.8307 523.048C50.1827 521.056 52.8947 517.864 54.5987 514.984L52.1507 513.952ZM51.5987 508.672C50.6147 510.256 48.5747 512.224 46.7267 513.376C47.1827 513.952 47.8787 515.128 48.1667 515.8C50.3747 514.336 52.7747 511.96 54.3347 509.752L51.5987 508.672ZM49.8947 519.304V531.16H52.5827V516.808L52.4627 516.736L49.8947 519.304ZM82.0547 516.832C80.3507 516.832 78.9827 518.2 78.9827 519.88C78.9827 521.584 80.3507 522.952 82.0547 522.952C83.7347 522.952 85.1027 521.584 85.1027 519.88C85.1027 518.2 83.7347 516.832 82.0547 516.832ZM95.3747 512.32V514.84H104.183V512.32H95.3747ZM94.9667 517.888V520.48H104.567V517.888H94.9667ZM98.4707 508.864V517.528C98.4707 521.176 98.2307 526.168 94.6547 528.784C95.3027 529.288 96.2147 530.272 96.5987 530.872C100.631 527.56 101.183 522.016 101.183 517.528V508.864H98.4707ZM100.799 520.888L99.0227 522.232C100.055 523.432 102.071 526.072 102.959 527.536L104.903 525.448C104.303 524.728 101.615 521.632 100.799 520.888ZM107.975 515.704H113.231V517.096H107.975V515.704ZM107.975 519.376H113.231V520.792H107.975V519.376ZM107.975 512.008H113.231V513.4H107.975V512.008ZM105.311 509.464V523.336H115.991V509.464H105.311ZM110.759 522.448V527.512C110.759 529.864 111.215 530.68 113.351 530.68C113.759 530.68 114.551 530.68 114.959 530.68C116.663 530.68 117.311 529.816 117.551 526.384C116.855 526.192 115.703 525.76 115.199 525.328C115.127 527.872 115.055 528.208 114.671 528.208C114.503 528.208 113.975 528.208 113.831 528.208C113.471 528.208 113.447 528.136 113.447 527.464V522.448H110.759ZM106.871 522.928C106.583 525.688 105.959 527.8 102.239 529.024C102.791 529.528 103.511 530.536 103.799 531.184C108.215 529.528 109.199 526.672 109.583 522.928H106.871ZM131.807 511.552V525.136H134.591V511.552H131.807ZM137.471 509.104V527.656C137.471 528.112 137.279 528.256 136.823 528.256C136.319 528.28 134.759 528.28 133.175 528.208C133.607 529.024 134.063 530.368 134.183 531.184C136.391 531.184 137.999 531.088 139.007 530.632C139.967 530.152 140.327 529.36 140.327 527.68V509.104H137.471ZM121.679 525.352C121.031 526.888 119.855 528.472 118.583 529.504C119.279 529.888 120.455 530.728 121.007 531.232C122.279 530.008 123.695 528.04 124.511 526.12L121.679 525.352ZM125.615 526.408C126.647 527.728 127.727 529.576 128.183 530.776L130.823 529.528C130.295 528.328 129.191 526.624 128.111 525.376L125.615 526.408ZM122.855 516.328H127.103V518.32H122.855V516.328ZM122.855 520.6H127.103V522.592H122.855V520.6ZM122.855 512.104H127.103V514.072H122.855V512.104ZM120.143 509.56V525.136H129.959V509.56H120.143Z" fill="black"/>
<path d="M711.415 195V192.341L717.628 186.588C718.156 186.077 718.599 185.616 718.957 185.207C719.321 184.798 719.597 184.398 719.784 184.006C719.972 183.608 720.065 183.179 720.065 182.719C720.065 182.207 719.949 181.767 719.716 181.398C719.483 181.023 719.165 180.736 718.761 180.537C718.358 180.332 717.901 180.23 717.389 180.23C716.855 180.23 716.389 180.338 715.991 180.554C715.594 180.77 715.287 181.08 715.071 181.483C714.855 181.886 714.747 182.366 714.747 182.923H711.244C711.244 181.781 711.503 180.79 712.02 179.949C712.537 179.108 713.261 178.457 714.193 177.997C715.125 177.537 716.199 177.307 717.415 177.307C718.665 177.307 719.753 177.528 720.679 177.972C721.611 178.409 722.335 179.017 722.852 179.795C723.369 180.574 723.628 181.466 723.628 182.472C723.628 183.131 723.497 183.781 723.236 184.423C722.98 185.065 722.523 185.778 721.864 186.562C721.205 187.341 720.276 188.276 719.077 189.366L716.528 191.864V191.983H723.858V195H711.415ZM728.688 195.222C728.126 195.222 727.643 195.023 727.239 194.625C726.842 194.222 726.643 193.739 726.643 193.176C726.643 192.619 726.842 192.142 727.239 191.744C727.643 191.347 728.126 191.148 728.688 191.148C729.234 191.148 729.711 191.347 730.12 191.744C730.529 192.142 730.734 192.619 730.734 193.176C730.734 193.551 730.637 193.895 730.444 194.207C730.256 194.514 730.009 194.761 729.702 194.949C729.396 195.131 729.058 195.222 728.688 195.222ZM733.658 179.28V182.208H754.898V179.28H733.658ZM738.602 190.176V193.104H749.738V190.176H738.602ZM742.706 174.624V197.16H745.778V174.624H742.706ZM741.842 180.336C740.138 184.752 736.658 189.072 732.722 191.232C733.37 191.808 734.33 192.912 734.81 193.632C739.01 190.992 742.418 186.408 744.482 181.176L741.842 180.336ZM746.642 180.408L744.026 181.272C746.114 186.384 749.474 190.968 753.698 193.56C754.178 192.744 755.21 191.544 755.93 190.944C751.898 188.856 748.394 184.68 746.642 180.408ZM760.61 174.504C760.106 176.424 759.122 178.968 758.258 180.6L760.754 181.248C761.666 179.712 762.746 177.36 763.61 175.152L760.61 174.504ZM756.986 179.424L757.202 182.16C759.938 181.992 763.634 181.776 767.162 181.512L767.186 179.016C763.466 179.184 759.578 179.352 756.986 179.424ZM758.402 183.288V197.136H761.066V185.664H766.034V183.288H758.402ZM764.666 183.288V194.184C764.666 194.496 764.57 194.568 764.282 194.568C763.97 194.592 763.01 194.592 762.17 194.544C762.53 195.24 762.938 196.344 763.082 197.112C764.546 197.112 765.626 197.064 766.466 196.632C767.282 196.2 767.522 195.48 767.522 194.256V183.288H764.666ZM759.626 186.912V189.048H766.274V186.912H759.626ZM759.626 190.44V192.576H766.274V190.44H759.626ZM769.394 174.72V181.968C769.394 184.632 770.09 185.448 772.922 185.448C773.474 185.448 775.634 185.448 776.234 185.448C778.466 185.448 779.234 184.584 779.546 181.464C778.754 181.296 777.578 180.864 776.978 180.408C776.882 182.52 776.738 182.88 775.946 182.88C775.442 182.88 773.714 182.88 773.33 182.88C772.418 182.88 772.274 182.76 772.274 181.92V174.72H769.394ZM776.594 176.136C775.01 177.048 772.538 178.128 770.306 178.824C770.618 179.376 771.002 180.24 771.122 180.816C773.498 180.168 776.282 179.256 778.418 178.224L776.594 176.136ZM769.394 185.928V193.512C769.394 196.176 770.114 196.992 772.946 196.992C773.522 196.992 775.754 196.992 776.354 196.992C778.658 196.992 779.426 196.032 779.738 192.648C778.946 192.48 777.794 192.024 777.194 191.592C777.074 194.04 776.93 194.472 776.09 194.472C775.562 194.472 773.762 194.472 773.354 194.472C772.418 194.472 772.25 194.376 772.25 193.488V185.928H769.394ZM776.786 186.936C775.154 187.992 772.586 189.168 770.258 189.912C770.546 190.464 770.954 191.376 771.098 191.928C773.57 191.232 776.474 190.224 778.658 189.048L776.786 186.936ZM763.874 177.144C765.026 178.944 766.178 181.344 766.586 182.88L769.202 181.824C768.746 180.24 767.498 177.96 766.322 176.232L763.874 177.144Z" fill="black"/>
<path d="M426.259 361.384C424.793 361.378 423.531 361.017 422.474 360.301C421.423 359.585 420.614 358.548 420.045 357.19C419.483 355.832 419.205 354.199 419.21 352.29C419.21 350.386 419.491 348.764 420.054 347.423C420.622 346.082 421.432 345.062 422.483 344.364C423.54 343.659 424.798 343.307 426.259 343.307C427.719 343.307 428.974 343.659 430.026 344.364C431.082 345.068 431.895 346.091 432.463 347.432C433.031 348.767 433.313 350.386 433.307 352.29C433.307 354.205 433.023 355.841 432.455 357.199C431.892 358.557 431.085 359.594 430.034 360.31C428.983 361.026 427.724 361.384 426.259 361.384ZM426.259 358.324C427.259 358.324 428.057 357.821 428.653 356.815C429.25 355.81 429.545 354.301 429.54 352.29C429.54 350.966 429.403 349.864 429.131 348.983C428.864 348.102 428.483 347.44 427.989 346.997C427.5 346.554 426.923 346.332 426.259 346.332C425.264 346.332 424.469 346.83 423.872 347.824C423.276 348.818 422.974 350.307 422.969 352.29C422.969 353.631 423.102 354.75 423.369 355.648C423.642 356.54 424.026 357.21 424.52 357.659C425.014 358.102 425.594 358.324 426.259 358.324Z" fill="black"/>
<circle cx="166" cy="484" r="5" fill="#313131"/>
<path d="M148.825 490V488.449L152.45 485.093C152.758 484.795 153.016 484.526 153.225 484.288C153.437 484.049 153.598 483.815 153.707 483.587C153.817 483.355 153.871 483.104 153.871 482.836C153.871 482.538 153.804 482.281 153.668 482.065C153.532 481.847 153.346 481.679 153.111 481.563C152.875 481.444 152.609 481.384 152.31 481.384C151.999 481.384 151.727 481.447 151.495 481.573C151.263 481.699 151.084 481.88 150.958 482.115C150.832 482.35 150.769 482.63 150.769 482.955H148.726C148.726 482.289 148.877 481.711 149.178 481.22C149.48 480.73 149.902 480.35 150.446 480.082C150.99 479.813 151.616 479.679 152.325 479.679C153.054 479.679 153.689 479.808 154.229 480.067C154.773 480.322 155.196 480.677 155.497 481.131C155.799 481.585 155.95 482.105 155.95 482.692C155.95 483.076 155.873 483.456 155.721 483.83C155.572 484.205 155.305 484.621 154.92 485.078C154.536 485.532 153.994 486.077 153.295 486.714L151.808 488.17V488.24H156.084V490H148.825Z" fill="black"/>
<circle cx="417" cy="640" r="5" fill="#313131"/>
<path d="M403.589 646.139C402.846 646.139 402.185 646.012 401.605 645.756C401.028 645.498 400.573 645.143 400.238 644.692C399.906 644.238 399.736 643.715 399.726 643.121H401.893C401.907 643.37 401.988 643.589 402.137 643.778C402.29 643.963 402.492 644.107 402.744 644.21C402.996 644.313 403.279 644.364 403.594 644.364C403.922 644.364 404.212 644.306 404.464 644.19C404.716 644.074 404.913 643.914 405.055 643.708C405.198 643.503 405.269 643.266 405.269 642.997C405.269 642.725 405.193 642.485 405.04 642.276C404.891 642.064 404.676 641.898 404.394 641.779C404.116 641.66 403.784 641.6 403.4 641.6H402.45V640.019H403.4C403.725 640.019 404.011 639.963 404.26 639.85C404.512 639.737 404.707 639.582 404.847 639.383C404.986 639.181 405.055 638.945 405.055 638.677C405.055 638.422 404.994 638.198 404.871 638.006C404.752 637.81 404.583 637.658 404.364 637.548C404.149 637.439 403.897 637.384 403.609 637.384C403.317 637.384 403.05 637.437 402.808 637.543C402.566 637.646 402.372 637.794 402.227 637.986C402.081 638.178 402.003 638.403 401.993 638.662H399.93C399.94 638.075 400.107 637.558 400.432 637.111C400.757 636.663 401.194 636.314 401.744 636.062C402.298 635.807 402.923 635.679 403.619 635.679C404.321 635.679 404.936 635.807 405.463 636.062C405.99 636.317 406.399 636.662 406.691 637.096C406.986 637.527 407.132 638.011 407.129 638.548C407.132 639.118 406.955 639.593 406.597 639.974C406.242 640.356 405.78 640.598 405.21 640.7V640.78C405.959 640.876 406.529 641.136 406.92 641.56C407.314 641.981 407.51 642.508 407.506 643.141C407.51 643.721 407.342 644.237 407.004 644.688C406.67 645.138 406.207 645.493 405.617 645.751C405.027 646.01 404.351 646.139 403.589 646.139Z" fill="black"/>
<circle cx="424" cy="53" r="5" fill="#313131"/>
<path d="M406.671 57.2102V55.5149L410.922 48.8182H412.384V51.1648H411.518L408.839 55.4055V55.4851H414.879V57.2102H406.671ZM411.558 59V56.6932L411.598 55.9425V48.8182H413.616V59H411.558Z" fill="black"/>
<circle cx="194" cy="522" r="5" fill="#313131"/>
<path d="M180.544 528.139C179.841 528.139 179.215 528.01 178.665 527.751C178.118 527.493 177.684 527.137 177.362 526.683C177.041 526.228 176.873 525.708 176.86 525.121H178.948C178.971 525.516 179.137 525.836 179.445 526.081C179.754 526.326 180.12 526.449 180.544 526.449C180.882 526.449 181.18 526.374 181.439 526.225C181.701 526.073 181.905 525.862 182.05 525.594C182.2 525.322 182.274 525.01 182.274 524.659C182.274 524.301 182.198 523.986 182.045 523.714C181.896 523.443 181.689 523.231 181.424 523.078C181.159 522.926 180.856 522.848 180.514 522.844C180.216 522.844 179.926 522.906 179.644 523.028C179.366 523.151 179.149 523.318 178.993 523.531L177.079 523.188L177.561 517.818H183.786V519.578H179.336L179.072 522.129H179.132C179.311 521.877 179.581 521.668 179.942 521.502C180.304 521.336 180.708 521.254 181.156 521.254C181.769 521.254 182.316 521.398 182.796 521.686C183.277 521.974 183.656 522.371 183.935 522.874C184.213 523.375 184.351 523.951 184.347 524.604C184.351 525.29 184.192 525.9 183.87 526.434C183.552 526.964 183.106 527.382 182.533 527.687C181.963 527.988 181.3 528.139 180.544 528.139Z" fill="black"/>
<circle cx="185" cy="472" r="5" fill="#313131"/>
<path d="M171.624 478.139C170.858 478.139 170.177 478.015 169.58 477.766C168.987 477.514 168.521 477.171 168.183 476.737C167.845 476.303 167.676 475.811 167.676 475.261C167.676 474.836 167.772 474.447 167.964 474.092C168.16 473.734 168.425 473.438 168.76 473.202C169.095 472.964 169.469 472.811 169.884 472.745V472.675C169.34 472.566 168.899 472.303 168.561 471.885C168.223 471.464 168.054 470.975 168.054 470.418C168.054 469.891 168.208 469.422 168.516 469.011C168.825 468.597 169.247 468.272 169.784 468.037C170.324 467.798 170.938 467.679 171.624 467.679C172.31 467.679 172.921 467.798 173.458 468.037C173.998 468.276 174.423 468.602 174.731 469.016C175.039 469.427 175.195 469.895 175.198 470.418C175.195 470.978 175.022 471.467 174.681 471.885C174.34 472.303 173.902 472.566 173.369 472.675V472.745C173.776 472.811 174.146 472.964 174.477 473.202C174.812 473.438 175.077 473.734 175.273 474.092C175.472 474.447 175.573 474.836 175.576 475.261C175.573 475.811 175.402 476.303 175.064 476.737C174.726 477.171 174.259 477.514 173.662 477.766C173.069 478.015 172.389 478.139 171.624 478.139ZM171.624 476.558C171.965 476.558 172.263 476.497 172.518 476.374C172.774 476.248 172.973 476.076 173.115 475.857C173.261 475.635 173.334 475.38 173.334 475.092C173.334 474.797 173.259 474.536 173.11 474.311C172.961 474.082 172.759 473.903 172.504 473.774C172.248 473.642 171.955 473.575 171.624 473.575C171.295 473.575 171.002 473.642 170.744 473.774C170.485 473.903 170.281 474.082 170.132 474.311C169.986 474.536 169.913 474.797 169.913 475.092C169.913 475.38 169.985 475.635 170.127 475.857C170.27 476.076 170.47 476.248 170.729 476.374C170.987 476.497 171.286 476.558 171.624 476.558ZM171.624 472.009C171.909 472.009 172.162 471.951 172.384 471.835C172.606 471.719 172.78 471.558 172.906 471.353C173.032 471.147 173.095 470.911 173.095 470.642C173.095 470.377 173.032 470.145 172.906 469.946C172.78 469.744 172.608 469.586 172.389 469.474C172.17 469.358 171.915 469.3 171.624 469.3C171.335 469.3 171.08 469.358 170.858 469.474C170.636 469.586 170.462 469.744 170.336 469.946C170.213 470.145 170.152 470.377 170.152 470.642C170.152 470.911 170.215 471.147 170.341 471.353C170.467 471.558 170.641 471.719 170.863 471.835C171.085 471.951 171.339 472.009 171.624 472.009Z" fill="black"/>
<circle cx="203" cy="491" r="5" fill="#313131"/>
<path d="M186.228 497L190.449 488.648V488.578H185.532V486.818H192.676V488.603L188.45 497H186.228Z" fill="black"/>
<circle cx="212" cy="508" r="5" fill="#313131"/>
<path d="M198.733 514.139C198.209 514.136 197.704 514.048 197.217 513.876C196.733 513.703 196.299 513.423 195.914 513.036C195.53 512.648 195.225 512.134 194.999 511.494C194.777 510.855 194.666 510.069 194.666 509.138C194.67 508.283 194.767 507.519 194.96 506.846C195.155 506.17 195.433 505.596 195.795 505.126C196.159 504.655 196.595 504.297 197.102 504.052C197.609 503.803 198.178 503.679 198.808 503.679C199.487 503.679 200.087 503.812 200.607 504.077C201.128 504.339 201.545 504.695 201.86 505.146C202.178 505.596 202.371 506.102 202.437 506.662H200.314C200.231 506.307 200.057 506.029 199.792 505.827C199.527 505.625 199.199 505.523 198.808 505.523C198.145 505.523 197.641 505.812 197.296 506.388C196.955 506.965 196.781 507.749 196.774 508.74H196.844C196.996 508.438 197.202 508.182 197.46 507.969C197.722 507.754 198.019 507.59 198.35 507.477C198.685 507.361 199.038 507.303 199.409 507.303C200.012 507.303 200.549 507.446 201.02 507.731C201.491 508.013 201.862 508.4 202.134 508.894C202.405 509.388 202.541 509.953 202.541 510.589C202.541 511.279 202.38 511.892 202.059 512.429C201.741 512.966 201.295 513.387 200.722 513.692C200.152 513.993 199.489 514.143 198.733 514.139ZM198.723 512.449C199.054 512.449 199.351 512.369 199.613 512.21C199.875 512.051 200.08 511.836 200.229 511.564C200.379 511.292 200.453 510.987 200.453 510.649C200.453 510.311 200.379 510.008 200.229 509.739C200.084 509.471 199.881 509.257 199.623 509.098C199.364 508.939 199.069 508.859 198.738 508.859C198.489 508.859 198.259 508.906 198.047 508.999C197.838 509.091 197.654 509.221 197.495 509.386C197.339 509.552 197.217 509.744 197.127 509.963C197.038 510.179 196.993 510.409 196.993 510.654C196.993 510.982 197.067 511.282 197.217 511.554C197.369 511.826 197.575 512.043 197.833 512.205C198.095 512.368 198.392 512.449 198.723 512.449Z" fill="black"/>
<ellipse cx="174.217" cy="505" rx="4.78261" ry="5" fill="#313131"/>
<path d="M162.255 500.818V511H160.102V502.862H160.043L157.711 504.323V502.414L160.232 500.818H162.255Z" fill="black"/>
<path d="M354.114 23.2386C353.216 23.233 352.349 23.0824 351.514 22.7869C350.685 22.4915 349.94 22.0114 349.281 21.3466C348.622 20.6818 348.099 19.8011 347.713 18.7045C347.332 17.608 347.142 16.2614 347.142 14.6648C347.148 13.1989 347.315 11.8892 347.645 10.7358C347.98 9.5767 348.457 8.59375 349.077 7.78693C349.702 6.98011 350.449 6.36648 351.318 5.94602C352.188 5.51989 353.162 5.30682 354.241 5.30682C355.406 5.30682 356.435 5.53409 357.327 5.98864C358.219 6.4375 358.935 7.0483 359.474 7.82102C360.02 8.59375 360.349 9.46023 360.463 10.4205H356.824C356.682 9.8125 356.384 9.33523 355.929 8.98864C355.474 8.64205 354.912 8.46875 354.241 8.46875C353.105 8.46875 352.241 8.96307 351.651 9.9517C351.065 10.9403 350.767 12.2841 350.756 13.983H350.875C351.136 13.4659 351.489 13.0256 351.932 12.6619C352.381 12.2926 352.889 12.0114 353.457 11.8182C354.031 11.6193 354.636 11.5199 355.273 11.5199C356.307 11.5199 357.227 11.7642 358.034 12.2528C358.841 12.7358 359.477 13.4006 359.943 14.2472C360.409 15.0937 360.642 16.0625 360.642 17.1534C360.642 18.3352 360.366 19.3864 359.815 20.3068C359.27 21.2273 358.506 21.9489 357.523 22.4716C356.545 22.9886 355.409 23.2443 354.114 23.2386ZM354.097 20.3409C354.665 20.3409 355.173 20.2045 355.622 19.9318C356.071 19.6591 356.423 19.2898 356.679 18.8239C356.935 18.358 357.062 17.8352 357.062 17.2557C357.062 16.6761 356.935 16.1562 356.679 15.696C356.429 15.2358 356.082 14.8693 355.639 14.5966C355.196 14.3239 354.69 14.1875 354.122 14.1875C353.696 14.1875 353.301 14.267 352.938 14.4261C352.58 14.5852 352.264 14.8068 351.991 15.0909C351.724 15.375 351.514 15.7045 351.361 16.0795C351.207 16.4489 351.131 16.8437 351.131 17.2642C351.131 17.8267 351.259 18.3409 351.514 18.8068C351.776 19.2727 352.128 19.6449 352.571 19.9233C353.02 20.2017 353.528 20.3409 354.097 20.3409ZM364.688 23.2216C364.126 23.2216 363.643 23.0227 363.239 22.625C362.842 22.2216 362.643 21.7386 362.643 21.1761C362.643 20.6193 362.842 20.142 363.239 19.7443C363.643 19.3466 364.126 19.1477 364.688 19.1477C365.234 19.1477 365.711 19.3466 366.12 19.7443C366.529 20.142 366.734 20.6193 366.734 21.1761C366.734 21.5511 366.637 21.8949 366.444 22.2074C366.256 22.5142 366.009 22.7614 365.702 22.9489C365.396 23.1307 365.058 23.2216 364.688 23.2216ZM384.85 7.976C382.354 15.8 377.194 20.24 368.89 22.424C369.466 23.12 370.378 24.512 370.714 25.232C379.306 22.544 384.898 17.504 387.922 8.864L384.85 7.976ZM375.586 8.168L372.706 9.032C375.706 17.336 380.65 22.832 389.65 25.184C390.106 24.344 391.042 22.976 391.738 22.304C383.194 20.384 378.01 15.272 375.586 8.168ZM369.322 6.416V9.248H391.306V6.416H369.322ZM378.754 2.624V8.144H381.73V2.624H378.754ZM403.714 3.248V20.504C403.714 23.912 404.602 24.872 407.626 24.872C408.274 24.872 411.058 24.872 411.754 24.872C414.586 24.872 415.354 23.336 415.714 19.184C414.898 19.016 413.722 18.488 413.026 17.984C412.858 21.368 412.666 22.208 411.49 22.208C410.914 22.208 408.514 22.208 407.986 22.208C406.81 22.208 406.642 21.968 406.642 20.528V3.248H403.714ZM412.714 7.256C410.578 9.08 407.386 11.24 404.41 12.656C404.818 13.28 405.37 14.288 405.562 14.96C408.682 13.496 412.114 11.696 414.826 9.776L412.714 7.256ZM399.082 2.936C397.594 6.56 395.074 10.112 392.482 12.344C393.01 13.064 393.85 14.648 394.138 15.392C397.162 12.608 400.114 8.168 401.914 3.896L399.082 2.936ZM396.538 9.704V25.112H399.418V6.92L399.37 6.872L396.538 9.704ZM428.266 10.832C426.562 10.832 425.194 12.2 425.194 13.88C425.194 15.584 426.562 16.952 428.266 16.952C429.946 16.952 431.314 15.584 431.314 13.88C431.314 12.2 429.946 10.832 428.266 10.832ZM444.346 15.056V25.208H447.202V17.24H457.498V25.208H460.498V15.056H444.346ZM445.786 18.608V20.768H458.266V18.608H445.786ZM445.93 22.184V24.344H458.386V22.184H445.93ZM450.73 12.872C450.514 13.784 450.034 15.056 449.602 15.992L451.954 16.496C452.506 15.728 453.202 14.528 453.826 13.304L450.73 12.872ZM441.73 3.704V5.912H449.482V3.704H441.73ZM448.834 3.704V11.648C448.834 11.888 448.738 11.984 448.45 11.984C448.186 11.984 447.274 11.984 446.434 11.96C446.722 12.536 447.058 13.376 447.154 14C448.618 14 449.674 14 450.442 13.664C451.186 13.328 451.426 12.776 451.426 11.648V3.704H448.834ZM452.698 3.704V5.912H460.978V3.704H452.698ZM459.634 3.704V11.552C459.634 11.84 459.538 11.888 459.226 11.912C458.938 11.936 457.858 11.936 456.97 11.888C457.282 12.488 457.594 13.4 457.714 14.048C459.298 14.072 460.45 14.048 461.266 13.712C462.082 13.328 462.322 12.752 462.322 11.576V3.704H459.634ZM452.002 10.76L452.962 12.896C454.762 12.272 456.994 11.432 459.058 10.64L458.626 8.576C456.202 9.44 453.706 10.256 452.002 10.76ZM453.13 7.328C454.21 7.928 455.626 8.84 456.274 9.512L457.714 7.64C457.018 6.992 455.578 6.152 454.498 5.648L453.13 7.328ZM441.082 11.168L442.114 13.52C443.794 12.848 445.834 11.984 447.778 11.144L447.37 9.08C445.042 9.896 442.69 10.712 441.082 11.168ZM442.354 7.352C443.434 7.952 444.778 8.888 445.402 9.536L446.842 7.712C446.194 7.064 444.802 6.224 443.746 5.696L442.354 7.352ZM476.338 15.92H482.986V16.856H476.338V15.92ZM476.338 18.584H482.986V19.52H476.338V18.584ZM476.338 13.28H482.986V14.216H476.338V13.28ZM473.65 11.456V21.344H485.818V11.456H473.65ZM480.706 22.376C482.338 23.24 484.234 24.44 485.29 25.184L487.546 23.576C486.322 22.832 484.258 21.704 482.458 20.816L480.706 22.376ZM476.698 5.24H483.034L482.818 8.864H476.362L476.698 5.24ZM474.394 3.392L473.722 10.712H485.266L485.746 3.392H474.394ZM478.594 4.352C478.522 6.056 478.378 8.144 478.162 9.536H480.538C480.706 8.192 480.922 6.104 481.042 4.352H478.594ZM476.314 21.056C475.21 21.944 473.218 22.76 471.346 23.24C471.922 23.72 472.858 24.752 473.29 25.28C475.258 24.536 477.514 23.312 478.882 21.944L476.314 21.056ZM472.018 5.792V8.24H475.57V7.88H483.826V8.24H487.546V5.792H483.826V6.152H475.57V5.792H472.018ZM467.674 2.624V25.16H470.266V2.624H467.674ZM465.754 7.376C465.73 9.512 465.442 12.152 464.722 13.664L466.426 14.408C467.218 12.656 467.53 9.848 467.482 7.616L465.754 7.376ZM469.978 7.208C470.53 8.816 470.962 10.928 471.01 12.2L472.738 11.624C472.666 10.352 472.186 8.336 471.586 6.728L469.978 7.208Z" fill="black"/>
</svg>
