<svg width="321" height="527" viewBox="0 0 321 527" fill="none" xmlns="http://www.w3.org/2000/svg">
<line x1="191" y1="57" x2="191" y2="440" stroke="#C82285" stroke-width="2" stroke-dasharray="3 4"/>
<mask id="mask0_968_2628" style="mask-type:luminance" maskUnits="userSpaceOnUse" x="16" y="0" width="193" height="503">
<path d="M208.886 0.437988H16.7861V503H208.886V0.437988Z" fill="white"/>
</mask>
<g mask="url(#mask0_968_2628)">
<path d="M51.7563 114.788L53.4875 502.043" stroke="#090909" stroke-width="3" stroke-miterlimit="8"/>
<path d="M146.066 112.292L147.123 500.483" stroke="#090909" stroke-width="3" stroke-miterlimit="8"/>
<path d="M205.879 56.397L207.611 443.652" stroke="#090909" stroke-width="3" stroke-miterlimit="8"/>
<path d="M18.21 59.3911L19.9411 446.646" stroke="#090909" stroke-width="3" stroke-miterlimit="8"/>
<path fill-rule="evenodd" clip-rule="evenodd" d="M78.201 259.727L172.033 258.189L205.579 313.366L145.29 370.081L51.4589 371.618L17.9126 316.441L78.201 259.727Z" fill="#8FAADC" fill-opacity="0.2" stroke="#090909" stroke-miterlimit="8" stroke-dasharray="4.58 4.58"/>
<path fill-rule="evenodd" clip-rule="evenodd" d="M78.2884 145.475L172.12 143.938L205.666 199.115L145.378 255.829L51.5463 257.366L34.7732 229.778L18 202.189L78.2884 145.475Z" fill="#8FAADC" fill-opacity="0.2" stroke="#090909" stroke-miterlimit="8" stroke-dasharray="4.58 4.58"/>
<path fill-rule="evenodd" clip-rule="evenodd" d="M77.2884 18.5371L171.12 17L204.666 72.177L144.378 128.891L50.5463 130.428L33.7732 102.84L17 75.2512L77.2884 18.5371Z" fill="#8FAADC" fill-opacity="0.2" stroke="#090909" stroke-miterlimit="8" stroke-dasharray="4.58 4.58"/>
<path fill-rule="evenodd" clip-rule="evenodd" d="M77.2884 38.5371L171.12 37L204.666 92.177L144.378 148.891L50.5463 150.428L33.7732 122.84L17 95.2512L77.2884 38.5371Z" fill="#8FAADC" fill-opacity="0.2" stroke="#090909" stroke-miterlimit="8" stroke-dasharray="4.58 4.58"/>
<path fill-rule="evenodd" clip-rule="evenodd" d="M81.8185 390.229L175.65 388.69L209.196 443.867L148.911 500.583L55.0795 502.12L21.5332 446.943L81.8185 390.229Z" stroke="#090909" stroke-miterlimit="8" stroke-dasharray="4.58 4.58"/>
<path d="M147.17 500.317L53.3385 501.856" stroke="#090909" stroke-width="3" stroke-miterlimit="8"/>
<path d="M207.617 443.673L147.331 500.388" stroke="#090909" stroke-width="3" stroke-miterlimit="8"/>
<path d="M53.3388 501.845L19.7925 446.667" stroke="#090909" stroke-width="3" stroke-miterlimit="8"/>
<path d="M145.629 370.311L52.7055 371.849" stroke="#090909" stroke-width="3" stroke-miterlimit="8"/>
<path d="M52.8549 373.491L18.5269 317.409" stroke="#090909" stroke-width="3" stroke-miterlimit="8"/>
<path d="M53.328 260.083L19 204" stroke="#090909" stroke-width="3" stroke-miterlimit="8"/>
<path d="M50.328 147.083L16 91" stroke="#090909" stroke-width="3" stroke-miterlimit="8"/>
<path d="M51.4684 114.668L17.8936 58.8926" stroke="#090909" stroke-width="3" stroke-miterlimit="8"/>
<path d="M207.617 312.418L147.331 369.133" stroke="#090909" stroke-width="3" stroke-miterlimit="8"/>
<path d="M207.286 197.938L147 254.653" stroke="#090909" stroke-width="3" stroke-miterlimit="8"/>
<path d="M208.286 91L148 147.715" stroke="#090909" stroke-width="3" stroke-miterlimit="8"/>
<path d="M205.718 56.397L145.432 113.112" stroke="#090909" stroke-width="3" stroke-miterlimit="8"/>
<path d="M172.172 1.25L78.34 2.78823" stroke="#090909" stroke-width="3" stroke-miterlimit="8"/>
<path d="M205.879 56.4267L172.333 1.25" stroke="#090909" stroke-width="3" stroke-miterlimit="8"/>
<path d="M78.4951 2.74658L48.3522 31.104L18.2092 59.4615" stroke="#090909" stroke-width="3" stroke-miterlimit="8"/>
<path d="M79 389.938L80 2.93799" stroke="#090909" stroke-miterlimit="8" stroke-dasharray="4.58 4.58"/>
<path d="M172.115 388.255L170.384 1" stroke="#090909" stroke-miterlimit="8" stroke-dasharray="4.58 4.58"/>
<path d="M145.588 113.042L51.756 114.58" stroke="#090909" stroke-width="3" stroke-miterlimit="8"/>
</g>
<rect width="4" height="4" transform="matrix(1 0 0 -1 113 61)" fill="#0F0F0F"/>
<rect width="4" height="4" transform="matrix(1 0 0 -1 111 200)" fill="#0F0F0F"/>
<rect width="4" height="4" transform="matrix(1 0 0 -1 113 317)" fill="#0F0F0F"/>
<rect width="4" height="4" transform="matrix(1 0 0 -1 113 449)" fill="#0F0F0F"/>
<circle cx="2" cy="2" r="2" transform="matrix(1 0 0 -1 119 416)" fill="#2AD9F1"/>
<circle cx="2" cy="2" r="2" transform="matrix(1 0 0 -1 157 400)" fill="#2AD9F1"/>
<circle cx="2" cy="2" r="2" transform="matrix(1 0 0 -1 154 477)" fill="#8F00FF"/>
<circle cx="2" cy="2" r="2" transform="matrix(1 0 0 -1 46 134)" fill="#8F00FF"/>
<circle cx="2" cy="2" r="2" transform="matrix(1 0 0 -1 189 445)" fill="#C82285"/>
<circle cx="2" cy="2" r="2" transform="matrix(1 0 0 -1 166 460)" fill="#C82285"/>
<circle cx="2" cy="2" r="2" transform="matrix(1 0 0 -1 135 140)" fill="#25872F"/>
<circle cx="2" cy="2" r="2" transform="matrix(1 0 0 -1 56 125)" fill="#25872F"/>
<circle cx="2" cy="2" r="2" transform="matrix(1 0 0 -1 163 29)" fill="#000AFF"/>
<path d="M0.2 439.34L3.66 437.4H5.66V451H3.3V440.04L1.26 441.16L0.2 439.34Z" fill="black"/>
<path d="M188.04 388H179.8V386.1C179.8 385.14 179.927 384.34 180.18 383.7C180.433 383.047 180.773 382.513 181.2 382.1C181.627 381.673 182.093 381.333 182.6 381.08L183.96 380.4C184.48 380.133 184.9 379.853 185.22 379.56C185.553 379.253 185.72 378.86 185.72 378.38V378.02C185.72 377.527 185.547 377.14 185.2 376.86C184.867 376.567 184.327 376.42 183.58 376.42C183.127 376.42 182.667 376.487 182.2 376.62C181.747 376.753 181.193 376.94 180.54 377.18L179.8 375.12C180.547 374.787 181.227 374.553 181.84 374.42C182.467 374.273 183.073 374.2 183.66 374.2C184.74 374.2 185.6 374.373 186.24 374.72C186.893 375.067 187.36 375.533 187.64 376.12C187.933 376.693 188.08 377.327 188.08 378.02V378.38C188.08 379.1 187.933 379.713 187.64 380.22C187.36 380.727 186.987 381.153 186.52 381.5C186.053 381.847 185.547 382.153 185 382.42L183.64 383.1C183.147 383.34 182.78 383.673 182.54 384.1C182.313 384.527 182.187 385.073 182.16 385.74H188.04V388Z" fill="black"/>
<path d="M226.92 444.3C226.92 445.007 226.773 445.66 226.48 446.26C226.187 446.847 225.713 447.32 225.06 447.68C224.42 448.027 223.56 448.2 222.48 448.2C221.867 448.2 221.227 448.127 220.56 447.98C219.907 447.833 219.187 447.587 218.4 447.24L219.14 445.18C219.847 445.433 220.44 445.633 220.92 445.78C221.413 445.913 221.907 445.98 222.4 445.98C223.107 445.98 223.64 445.84 224 445.56C224.373 445.267 224.56 444.813 224.56 444.2V443.92C224.56 443.413 224.4 443.007 224.08 442.7C223.773 442.38 223.293 442.22 222.64 442.22H220.52V440.06H222.64C223.267 440.06 223.727 439.913 224.02 439.62C224.313 439.313 224.46 438.92 224.46 438.44V438.16C224.46 437.547 224.287 437.107 223.94 436.84C223.607 436.56 223.113 436.42 222.46 436.42C221.993 436.42 221.52 436.487 221.04 436.62C220.573 436.74 220.007 436.927 219.34 437.18L218.6 435.12C219.347 434.773 220.04 434.533 220.68 434.4C221.32 434.267 221.94 434.2 222.54 434.2C223.567 434.2 224.393 434.373 225.02 434.72C225.647 435.067 226.1 435.533 226.38 436.12C226.673 436.707 226.82 437.353 226.82 438.06V438.34C226.82 438.967 226.66 439.52 226.34 440C226.033 440.467 225.627 440.84 225.12 441.12C225.667 441.413 226.1 441.807 226.42 442.3C226.753 442.78 226.92 443.353 226.92 444.02V444.3Z" fill="black"/>
<path d="M153.1 519.92H151.68V523H149.36V519.92H143.52V517.98C144.12 517.047 144.713 516.1 145.3 515.14C145.9 514.167 146.46 513.2 146.98 512.24C147.5 511.267 147.927 510.32 148.26 509.4H150.88C150.387 510.76 149.72 512.16 148.88 513.6C148.04 515.027 147.173 516.42 146.28 517.78H149.36V515.72H151.68V517.78H153.1V519.92Z" fill="black"/>
<path d="M39.34 514.98L39.74 508.4H46.7V510.66H41.86L41.68 513.66C42.1467 513.54 42.6467 513.48 43.18 513.48C44.5 513.48 45.5333 513.827 46.28 514.52C47.0267 515.2 47.4 516.207 47.4 517.54V518.08C47.4 518.827 47.2467 519.513 46.94 520.14C46.6333 520.767 46.14 521.267 45.46 521.64C44.7933 522.013 43.9067 522.2 42.8 522.2C42.1867 522.2 41.5467 522.127 40.88 521.98C40.2267 521.833 39.5067 521.587 38.72 521.24L39.46 519.18C40.1667 519.46 40.76 519.667 41.24 519.8C41.7333 519.92 42.2267 519.98 42.72 519.98C43.4667 519.98 44.0267 519.827 44.4 519.52C44.7867 519.213 44.98 518.733 44.98 518.08V517.54C44.98 516.953 44.8067 516.487 44.46 516.14C44.1267 515.793 43.5867 515.62 42.84 515.62C42.5067 515.62 42.16 515.667 41.8 515.76C41.44 515.84 41.0533 515.96 40.64 516.12L39.34 514.98Z" fill="black"/>
<path d="M72.46 387.92C72.46 388.733 72.28 389.467 71.92 390.12C71.56 390.76 71.0467 391.267 70.38 391.64C69.7267 392.013 68.9333 392.2 68 392.2C66.52 392.2 65.3667 391.7 64.54 390.7C63.7133 389.7 63.3 388.327 63.3 386.58V383.76C63.3 381.893 63.74 380.5 64.62 379.58C65.5 378.66 66.74 378.2 68.34 378.2C68.9 378.2 69.48 378.267 70.08 378.4C70.6933 378.533 71.3667 378.773 72.1 379.12L71.24 381.18C70.64 380.9 70.1133 380.707 69.66 380.6C69.2067 380.48 68.7867 380.42 68.4 380.42C67.56 380.42 66.88 380.673 66.36 381.18C65.8533 381.673 65.6 382.533 65.6 383.76V384.48C66.0667 384.067 66.5467 383.76 67.04 383.56C67.5467 383.36 68.0467 383.26 68.54 383.26C69.34 383.26 70.0333 383.44 70.62 383.8C71.2067 384.16 71.66 384.66 71.98 385.3C72.3 385.94 72.46 386.68 72.46 387.52V387.92ZM65.6 386.58C65.6 387.727 65.8133 388.58 66.24 389.14C66.6667 389.7 67.2667 389.98 68.04 389.98C68.7067 389.98 69.22 389.793 69.58 389.42C69.94 389.033 70.12 388.533 70.12 387.92V387.52C70.12 386.893 69.9533 386.387 69.62 386C69.2867 385.613 68.8067 385.42 68.18 385.42C67.2333 385.42 66.3733 385.78 65.6 386.5V386.58Z" fill="black"/>
<circle cx="2" cy="2" r="2" transform="matrix(1 0 0 -1 83 399)" fill="#F24E1E"/>
<circle cx="2" cy="2" r="2" transform="matrix(1 0 0 -1 73 160)" fill="#F24E1E"/>
<line x1="50.9842" y1="258.5" x2="144.984" y2="257.511" stroke="black" stroke-width="3"/>
<path d="M256.664 437.024V438.018H261.676V443.198H262.74V437.024H256.664ZM257.56 441.392V442.386H262.152V441.392H257.56ZM257.07 441.392V447.412C257.07 448.728 257.504 449.064 258.946 449.064C259.24 449.064 261.424 449.064 261.76 449.064C263.118 449.064 263.44 448.462 263.58 446.32C263.286 446.236 262.838 446.068 262.586 445.886C262.516 447.734 262.404 448.07 261.704 448.07C261.228 448.07 259.394 448.07 259.03 448.07C258.26 448.07 258.12 447.958 258.12 447.412V441.392H257.07ZM253.136 442.848V449.12H254.13V442.848H253.136ZM252.968 436.254C252.534 437.192 251.75 438.55 251.12 439.362L251.862 439.726C252.506 438.942 253.318 437.696 253.934 436.66L252.968 436.254ZM254.774 437.822C253.892 439.32 252.366 441.42 251.162 442.666L251.834 443.058C253.052 441.84 254.592 439.852 255.698 438.27L254.774 437.822ZM250.532 439.348C251.316 439.964 252.226 440.86 252.646 441.476L253.178 440.664C252.758 440.09 251.834 439.236 251.036 438.648L250.532 439.348ZM254.326 441.056C254.984 441.98 255.684 443.226 255.964 444.01L256.818 443.59C256.524 442.792 255.796 441.588 255.124 440.678L254.326 441.056ZM250.448 442.442L250.56 443.38C251.96 443.324 253.906 443.212 255.796 443.086L255.81 442.204C253.822 442.302 251.806 442.386 250.448 442.442ZM254.704 444.472C255.152 445.34 255.628 446.488 255.796 447.23L256.692 446.894C256.496 446.152 256.02 445.032 255.544 444.178L254.704 444.472ZM251.4 444.262C251.204 445.48 250.882 446.74 250.35 447.594C250.602 447.678 251.05 447.902 251.232 448.028C251.722 447.132 252.128 445.774 252.352 444.43L251.4 444.262ZM272.148 441.896V447.3C272.148 448.518 272.484 448.882 273.758 448.882C274.024 448.882 275.494 448.882 275.774 448.882C277.006 448.882 277.286 448.224 277.398 445.816C277.118 445.732 276.656 445.55 276.418 445.354C276.362 447.51 276.278 447.874 275.704 447.874C275.354 447.874 274.136 447.874 273.884 447.874C273.338 447.874 273.226 447.79 273.226 447.3V441.896H272.148ZM264.826 441.266V442.288H277.188V441.266H264.826ZM266.044 437.332V438.354H275.998V437.332H266.044ZM268.41 442.05C268.2 444.78 267.752 447.104 264.658 448.266C264.896 448.462 265.204 448.84 265.316 449.092C268.662 447.762 269.278 445.186 269.516 442.05H268.41ZM278.742 438.452V439.432H291.258V438.452H278.742ZM280.184 442.96V443.786H284.104V442.96H280.184ZM280.184 445.2V446.026H284.104V445.2H280.184ZM286.442 440.804V446.558H287.436V440.804H286.442ZM283.726 440.678V447.902C283.726 448.084 283.67 448.14 283.474 448.154C283.278 448.168 282.634 448.168 281.934 448.14C282.074 448.406 282.228 448.798 282.284 449.064C283.236 449.064 283.852 449.064 284.23 448.896C284.622 448.728 284.748 448.448 284.748 447.916V440.678H283.726ZM289.284 440.384V447.818C289.284 448.014 289.214 448.07 288.99 448.084C288.752 448.098 287.996 448.098 287.142 448.07C287.296 448.35 287.464 448.798 287.52 449.078C288.612 449.078 289.312 449.05 289.746 448.896C290.18 448.728 290.32 448.434 290.32 447.818V440.384H289.284ZM280.912 436.59C281.444 437.192 282.018 438.046 282.242 438.578L283.278 438.2C283.012 437.654 282.424 436.828 281.878 436.226L280.912 436.59ZM288.108 436.184C287.758 436.94 287.128 438.018 286.624 438.69L287.548 439.04C288.066 438.382 288.696 437.416 289.228 436.548L288.108 436.184ZM279.624 440.678V449.05H280.618V441.588H284.062V440.678H279.624Z" fill="black"/>
<path d="M248.266 196.796L250.534 195.48H251.64V205H250.45V196.768L248.798 197.72L248.266 196.796ZM260.645 199.19V201.276C260.645 202.545 260.36 203.507 259.791 204.16C259.222 204.813 258.428 205.14 257.411 205.14C256.394 205.14 255.6 204.813 255.031 204.16C254.471 203.507 254.191 202.545 254.191 201.276V199.19C254.191 197.93 254.476 196.973 255.045 196.32C255.614 195.667 256.403 195.34 257.411 195.34C258.428 195.34 259.222 195.667 259.791 196.32C260.36 196.973 260.645 197.93 260.645 199.19ZM259.413 199.19C259.413 198.219 259.236 197.519 258.881 197.09C258.536 196.661 258.046 196.446 257.411 196.446C256.786 196.446 256.296 196.661 255.941 197.09C255.596 197.519 255.423 198.219 255.423 199.19V201.276C255.423 202.237 255.596 202.942 255.941 203.39C256.296 203.829 256.786 204.048 257.411 204.048C258.046 204.048 258.536 203.829 258.881 203.39C259.236 202.942 259.413 202.237 259.413 201.276V199.19ZM269.231 199.19V201.276C269.231 202.545 268.946 203.507 268.377 204.16C267.808 204.813 267.014 205.14 265.997 205.14C264.98 205.14 264.186 204.813 263.617 204.16C263.057 203.507 262.777 202.545 262.777 201.276V199.19C262.777 197.93 263.062 196.973 263.631 196.32C264.2 195.667 264.989 195.34 265.997 195.34C267.014 195.34 267.808 195.667 268.377 196.32C268.946 196.973 269.231 197.93 269.231 199.19ZM267.999 199.19C267.999 198.219 267.822 197.519 267.467 197.09C267.122 196.661 266.632 196.446 265.997 196.446C265.372 196.446 264.882 196.661 264.527 197.09C264.182 197.519 264.009 198.219 264.009 199.19V201.276C264.009 202.237 264.182 202.942 264.527 203.39C264.882 203.829 265.372 204.048 265.997 204.048C266.632 204.048 267.122 203.829 267.467 203.39C267.822 202.942 267.999 202.237 267.999 201.276V199.19ZM277.817 199.19V201.276C277.817 202.545 277.532 203.507 276.963 204.16C276.393 204.813 275.6 205.14 274.583 205.14C273.565 205.14 272.772 204.813 272.203 204.16C271.643 203.507 271.363 202.545 271.363 201.276V199.19C271.363 197.93 271.647 196.973 272.217 196.32C272.786 195.667 273.575 195.34 274.583 195.34C275.6 195.34 276.393 195.667 276.963 196.32C277.532 196.973 277.817 197.93 277.817 199.19ZM276.585 199.19C276.585 198.219 276.407 197.519 276.053 197.09C275.707 196.661 275.217 196.446 274.583 196.446C273.957 196.446 273.467 196.661 273.113 197.09C272.767 197.519 272.595 198.219 272.595 199.19V201.276C272.595 202.237 272.767 202.942 273.113 203.39C273.467 203.829 273.957 204.048 274.583 204.048C275.217 204.048 275.707 203.829 276.053 203.39C276.407 202.942 276.585 202.237 276.585 201.276V199.19ZM282.763 193.198C282.077 195.088 280.915 196.908 279.585 198.07C279.851 198.21 280.285 198.56 280.495 198.742C281.797 197.482 283.043 195.536 283.813 193.464L282.763 193.198ZM282.539 194.934L282.035 195.956H291.569V194.934H282.539ZM281.853 198.112V202.41H282.903V199.092H291.261V198.112H281.853ZM279.543 201.878V202.9H292.227V201.878H279.543ZM286.053 195.466V206.134H287.131V195.466H286.053Z" fill="black"/>
<path d="M254.09 52H248.658V51.076C248.658 50.376 248.742 49.788 248.91 49.312C249.087 48.836 249.321 48.444 249.61 48.136C249.909 47.8187 250.24 47.5667 250.604 47.38L251.514 46.918C251.943 46.694 252.284 46.4607 252.536 46.218C252.797 45.9753 252.928 45.6253 252.928 45.168V44.93C252.928 44.4073 252.779 44.0293 252.48 43.796C252.191 43.5627 251.761 43.446 251.192 43.446C250.875 43.446 250.539 43.488 250.184 43.572C249.829 43.6467 249.437 43.7773 249.008 43.964L248.616 42.942C249.083 42.7273 249.531 42.5733 249.96 42.48C250.399 42.3867 250.819 42.34 251.22 42.34C252.256 42.34 252.998 42.5827 253.446 43.068C253.894 43.544 254.118 44.1647 254.118 44.93V45.168C254.118 45.672 254.02 46.092 253.824 46.428C253.637 46.764 253.385 47.0487 253.068 47.282C252.76 47.506 252.429 47.7067 252.074 47.884L251.164 48.36C250.725 48.5933 250.399 48.9153 250.184 49.326C249.979 49.7367 249.867 50.2593 249.848 50.894H254.09V52ZM262.422 46.19V48.276C262.422 49.5453 262.138 50.5067 261.568 51.16C260.999 51.8133 260.206 52.14 259.188 52.14C258.171 52.14 257.378 51.8133 256.808 51.16C256.248 50.5067 255.968 49.5453 255.968 48.276V46.19C255.968 44.93 256.253 43.9733 256.822 43.32C257.392 42.6667 258.18 42.34 259.188 42.34C260.206 42.34 260.999 42.6667 261.568 43.32C262.138 43.9733 262.422 44.93 262.422 46.19ZM261.19 46.19C261.19 45.2193 261.013 44.5193 260.658 44.09C260.313 43.6607 259.823 43.446 259.188 43.446C258.563 43.446 258.073 43.6607 257.718 44.09C257.373 44.5193 257.2 45.2193 257.2 46.19V48.276C257.2 49.2373 257.373 49.942 257.718 50.39C258.073 50.8287 258.563 51.048 259.188 51.048C259.823 51.048 260.313 50.8287 260.658 50.39C261.013 49.942 261.19 49.2373 261.19 48.276V46.19ZM269.58 52H264.148V51.076C264.148 50.376 264.232 49.788 264.4 49.312C264.578 48.836 264.811 48.444 265.1 48.136C265.399 47.8187 265.73 47.5667 266.094 47.38L267.004 46.918C267.434 46.694 267.774 46.4607 268.026 46.218C268.288 45.9753 268.418 45.6253 268.418 45.168V44.93C268.418 44.4073 268.269 44.0293 267.97 43.796C267.681 43.5627 267.252 43.446 266.682 43.446C266.365 43.446 266.029 43.488 265.674 43.572C265.32 43.6467 264.928 43.7773 264.498 43.964L264.106 42.942C264.573 42.7273 265.021 42.5733 265.45 42.48C265.889 42.3867 266.309 42.34 266.71 42.34C267.746 42.34 268.488 42.5827 268.936 43.068C269.384 43.544 269.608 44.1647 269.608 44.93V45.168C269.608 45.672 269.51 46.092 269.314 46.428C269.128 46.764 268.876 47.0487 268.558 47.282C268.25 47.506 267.919 47.7067 267.564 47.884L266.654 48.36C266.216 48.5933 265.889 48.9153 265.674 49.326C265.469 49.7367 265.357 50.2593 265.338 50.894H269.58V52ZM276.443 49.522C276.443 50.2873 276.205 50.9173 275.729 51.412C275.253 51.8973 274.487 52.14 273.433 52.14C273.013 52.14 272.574 52.0933 272.117 52C271.669 51.8973 271.202 51.7387 270.717 51.524L271.081 50.516C271.547 50.7027 271.963 50.838 272.327 50.922C272.7 51.006 273.059 51.048 273.405 51.048C273.983 51.048 274.431 50.9267 274.749 50.684C275.075 50.4413 275.239 50.0447 275.239 49.494V49.27C275.239 48.8033 275.103 48.43 274.833 48.15C274.562 47.87 274.147 47.73 273.587 47.73H272.187V46.666H273.587C274.119 46.666 274.511 46.5353 274.763 46.274C275.015 46.0033 275.141 45.6393 275.141 45.182V44.986C275.141 44.4353 274.991 44.0433 274.693 43.81C274.394 43.5673 273.979 43.446 273.447 43.446C273.12 43.446 272.784 43.488 272.439 43.572C272.093 43.6467 271.701 43.7773 271.263 43.964L270.871 42.942C271.337 42.7273 271.785 42.5733 272.215 42.48C272.653 42.3867 273.073 42.34 273.475 42.34C274.483 42.34 275.215 42.5827 275.673 43.068C276.13 43.5533 276.359 44.1833 276.359 44.958V45.154C276.359 45.6207 276.247 46.0313 276.023 46.386C275.799 46.7313 275.495 47.002 275.113 47.198C275.523 47.3847 275.845 47.66 276.079 48.024C276.321 48.3787 276.443 48.8033 276.443 49.298V49.522ZM281.245 40.198C280.559 42.088 279.397 43.908 278.067 45.07C278.333 45.21 278.767 45.56 278.977 45.742C280.279 44.482 281.525 42.536 282.295 40.464L281.245 40.198ZM281.021 41.934L280.517 42.956H290.051V41.934H281.021ZM280.335 45.112V49.41H281.385V46.092H289.743V45.112H280.335ZM278.025 48.878V49.9H290.709V48.878H278.025ZM284.535 42.466V53.134H285.613V42.466H284.535Z" fill="black"/>
<line x1="50.984" y1="148.5" x2="144.984" y2="147.5" stroke="black" stroke-width="3"/>
<path d="M249.266 64.796L251.534 63.48H252.64V73H251.45V64.768L249.798 65.72L249.266 64.796ZM260.931 69.304C260.931 70.6013 260.637 71.5673 260.049 72.202C259.461 72.8273 258.649 73.14 257.613 73.14C257.249 73.14 256.857 73.098 256.437 73.014C256.026 72.93 255.588 72.7807 255.121 72.566L255.541 71.544C255.952 71.7213 256.325 71.852 256.661 71.936C257.006 72.0107 257.314 72.048 257.585 72.048C258.248 72.048 258.78 71.8427 259.181 71.432C259.582 71.0213 259.783 70.312 259.783 69.304V68.478C259.447 68.7673 259.088 69.0007 258.705 69.178C258.322 69.3553 257.916 69.444 257.487 69.444C256.666 69.444 256.022 69.1873 255.555 68.674C255.088 68.1513 254.855 67.4653 254.855 66.616V66.196C254.855 65.6453 254.972 65.1553 255.205 64.726C255.448 64.2967 255.788 63.9607 256.227 63.718C256.675 63.466 257.207 63.34 257.823 63.34C258.822 63.34 259.587 63.6807 260.119 64.362C260.66 65.0433 260.931 66 260.931 67.232V69.304ZM256.017 66.616C256.017 67.148 256.157 67.5727 256.437 67.89C256.726 68.2073 257.128 68.366 257.641 68.366C258.033 68.366 258.406 68.282 258.761 68.114C259.125 67.9367 259.466 67.6987 259.783 67.4V67.232C259.783 66.2893 259.61 65.5893 259.265 65.132C258.929 64.6747 258.444 64.446 257.809 64.446C257.249 64.446 256.81 64.6093 256.493 64.936C256.176 65.2627 256.017 65.6827 256.017 66.196V66.616ZM262.981 68.044L263.261 63.48H267.993V64.6H264.339L264.171 67.33C264.582 67.19 265.025 67.12 265.501 67.12C266.379 67.12 267.079 67.3533 267.601 67.82C268.124 68.2867 268.385 68.9773 268.385 69.892V70.312C268.385 71.1427 268.143 71.824 267.657 72.356C267.172 72.8787 266.393 73.14 265.319 73.14C264.899 73.14 264.461 73.0933 264.003 73C263.555 72.8973 263.089 72.7387 262.603 72.524L262.981 71.516C263.439 71.712 263.854 71.852 264.227 71.936C264.601 72.0107 264.96 72.048 265.305 72.048C265.884 72.048 266.337 71.9173 266.663 71.656C266.99 71.3853 267.153 70.9373 267.153 70.312V69.892C267.153 69.3787 267.004 68.968 266.705 68.66C266.416 68.352 265.973 68.198 265.375 68.198C265.095 68.198 264.82 68.2353 264.549 68.31C264.279 68.3753 263.994 68.4733 263.695 68.604L262.981 68.044ZM276.643 67.19V69.276C276.643 70.5453 276.358 71.5067 275.789 72.16C275.22 72.8133 274.426 73.14 273.409 73.14C272.392 73.14 271.598 72.8133 271.029 72.16C270.469 71.5067 270.189 70.5453 270.189 69.276V67.19C270.189 65.93 270.474 64.9733 271.043 64.32C271.612 63.6667 272.401 63.34 273.409 63.34C274.426 63.34 275.22 63.6667 275.789 64.32C276.358 64.9733 276.643 65.93 276.643 67.19ZM275.411 67.19C275.411 66.2193 275.234 65.5193 274.879 65.09C274.534 64.6607 274.044 64.446 273.409 64.446C272.784 64.446 272.294 64.6607 271.939 65.09C271.594 65.5193 271.421 66.2193 271.421 67.19V69.276C271.421 70.2373 271.594 70.942 271.939 71.39C272.294 71.8287 272.784 72.048 273.409 72.048C274.044 72.048 274.534 71.8287 274.879 71.39C275.234 70.942 275.411 70.2373 275.411 69.276V67.19ZM281.589 61.198C280.903 63.088 279.741 64.908 278.411 66.07C278.677 66.21 279.111 66.56 279.321 66.742C280.623 65.482 281.869 63.536 282.639 61.464L281.589 61.198ZM281.365 62.934L280.861 63.956H290.395V62.934H281.365ZM280.679 66.112V70.41H281.729V67.092H290.087V66.112H280.679ZM278.369 69.878V70.9H291.053V69.878H278.369ZM284.879 63.466V74.134H285.957V63.466H284.879Z" fill="black"/>
<path d="M248.266 87.796L250.534 86.48H251.64V96H250.45V87.768L248.798 88.72L248.266 87.796ZM259.931 92.304C259.931 93.6013 259.637 94.5673 259.049 95.202C258.461 95.8273 257.649 96.14 256.613 96.14C256.249 96.14 255.857 96.098 255.437 96.014C255.026 95.93 254.588 95.7807 254.121 95.566L254.541 94.544C254.952 94.7213 255.325 94.852 255.661 94.936C256.006 95.0107 256.314 95.048 256.585 95.048C257.248 95.048 257.78 94.8427 258.181 94.432C258.582 94.0213 258.783 93.312 258.783 92.304V91.478C258.447 91.7673 258.088 92.0007 257.705 92.178C257.322 92.3553 256.916 92.444 256.487 92.444C255.666 92.444 255.022 92.1873 254.555 91.674C254.088 91.1513 253.855 90.4653 253.855 89.616V89.196C253.855 88.6453 253.972 88.1553 254.205 87.726C254.448 87.2967 254.788 86.9607 255.227 86.718C255.675 86.466 256.207 86.34 256.823 86.34C257.822 86.34 258.587 86.6807 259.119 87.362C259.66 88.0433 259.931 89 259.931 90.232V92.304ZM255.017 89.616C255.017 90.148 255.157 90.5727 255.437 90.89C255.726 91.2073 256.128 91.366 256.641 91.366C257.033 91.366 257.406 91.282 257.761 91.114C258.125 90.9367 258.466 90.6987 258.783 90.4V90.232C258.783 89.2893 258.61 88.5893 258.265 88.132C257.929 87.6747 257.444 87.446 256.809 87.446C256.249 87.446 255.81 87.6093 255.493 87.936C255.176 88.2627 255.017 88.6827 255.017 89.196V89.616ZM268.547 90.19V92.276C268.547 93.5453 268.263 94.5067 267.693 95.16C267.124 95.8133 266.331 96.14 265.313 96.14C264.296 96.14 263.503 95.8133 262.933 95.16C262.373 94.5067 262.093 93.5453 262.093 92.276V90.19C262.093 88.93 262.378 87.9733 262.947 87.32C263.517 86.6667 264.305 86.34 265.313 86.34C266.331 86.34 267.124 86.6667 267.693 87.32C268.263 87.9733 268.547 88.93 268.547 90.19ZM267.315 90.19C267.315 89.2193 267.138 88.5193 266.783 88.09C266.438 87.6607 265.948 87.446 265.313 87.446C264.688 87.446 264.198 87.6607 263.843 88.09C263.498 88.5193 263.325 89.2193 263.325 90.19V92.276C263.325 93.2373 263.498 93.942 263.843 94.39C264.198 94.8287 264.688 95.048 265.313 95.048C265.948 95.048 266.438 94.8287 266.783 94.39C267.138 93.942 267.315 93.2373 267.315 92.276V90.19ZM277.133 90.19V92.276C277.133 93.5453 276.849 94.5067 276.279 95.16C275.71 95.8133 274.917 96.14 273.899 96.14C272.882 96.14 272.089 95.8133 271.519 95.16C270.959 94.5067 270.679 93.5453 270.679 92.276V90.19C270.679 88.93 270.964 87.9733 271.533 87.32C272.103 86.6667 272.891 86.34 273.899 86.34C274.917 86.34 275.71 86.6667 276.279 87.32C276.849 87.9733 277.133 88.93 277.133 90.19ZM275.901 90.19C275.901 89.2193 275.724 88.5193 275.369 88.09C275.024 87.6607 274.534 87.446 273.899 87.446C273.274 87.446 272.784 87.6607 272.429 88.09C272.084 88.5193 271.911 89.2193 271.911 90.19V92.276C271.911 93.2373 272.084 93.942 272.429 94.39C272.784 94.8287 273.274 95.048 273.899 95.048C274.534 95.048 275.024 94.8287 275.369 94.39C275.724 93.942 275.901 93.2373 275.901 92.276V90.19ZM282.079 84.198C281.393 86.088 280.231 87.908 278.901 89.07C279.167 89.21 279.601 89.56 279.811 89.742C281.113 88.482 282.359 86.536 283.129 84.464L282.079 84.198ZM281.855 85.934L281.351 86.956H290.885V85.934H281.855ZM281.169 89.112V93.41H282.219V90.092H290.577V89.112H281.169ZM278.859 92.878V93.9H291.543V92.878H278.859ZM285.369 86.466V97.134H286.447V86.466H285.369ZM292.943 86.452V87.432H305.459V86.452H292.943ZM294.385 90.96V91.786H298.305V90.96H294.385ZM294.385 93.2V94.026H298.305V93.2H294.385ZM300.643 88.804V94.558H301.637V88.804H300.643ZM297.927 88.678V95.902C297.927 96.084 297.871 96.14 297.675 96.154C297.479 96.168 296.835 96.168 296.135 96.14C296.275 96.406 296.429 96.798 296.485 97.064C297.437 97.064 298.053 97.064 298.431 96.896C298.823 96.728 298.949 96.448 298.949 95.916V88.678H297.927ZM303.485 88.384V95.818C303.485 96.014 303.415 96.07 303.191 96.084C302.953 96.098 302.197 96.098 301.343 96.07C301.497 96.35 301.665 96.798 301.721 97.078C302.813 97.078 303.513 97.05 303.947 96.896C304.381 96.728 304.521 96.434 304.521 95.818V88.384H303.485ZM295.113 84.59C295.645 85.192 296.219 86.046 296.443 86.578L297.479 86.2C297.213 85.654 296.625 84.828 296.079 84.226L295.113 84.59ZM302.309 84.184C301.959 84.94 301.329 86.018 300.825 86.69L301.749 87.04C302.267 86.382 302.897 85.416 303.429 84.548L302.309 84.184ZM293.825 88.678V97.05H294.819V89.588H298.263V88.678H293.825ZM314.055 89.952C313.243 91.394 311.773 92.682 310.261 93.494C310.485 93.676 310.835 94.082 310.975 94.278C312.515 93.34 314.069 91.898 315.007 90.246L314.055 89.952ZM314.139 84.24C313.635 85.01 312.739 86.06 312.053 86.718L312.795 87.152C313.495 86.522 314.363 85.57 315.063 84.716L314.139 84.24ZM316.841 85.318C315.693 86.76 313.719 88.678 312.193 89.854L312.907 90.316C314.447 89.168 316.393 87.348 317.793 85.836L316.841 85.318ZM310.891 86.508C311.983 87.222 313.257 88.286 313.859 88.986L314.531 88.23C313.915 87.516 312.599 86.522 311.535 85.836L310.891 86.508ZM316.673 88.174C317.555 89.126 318.521 90.442 318.927 91.282L319.823 90.764C319.375 89.924 318.381 88.636 317.485 87.726L316.673 88.174ZM310.429 89.56L310.513 90.512C312.599 90.456 315.679 90.358 318.619 90.26L318.661 89.392C315.623 89.476 312.431 89.532 310.429 89.56ZM313.145 92.122L312.291 92.416C313.649 94.796 316.155 96.448 319.179 97.148C319.319 96.868 319.599 96.476 319.823 96.252C316.855 95.678 314.349 94.166 313.145 92.122ZM313.467 91.52L312.739 92.36H317.639V91.52H313.467ZM317.303 91.52V91.688C316.197 94.152 313.215 95.692 310.219 96.266C310.415 96.476 310.653 96.896 310.751 97.162C313.943 96.434 317.051 94.796 318.353 91.8L317.681 91.478L317.499 91.52H317.303ZM309.939 87.096C309.113 88.58 307.783 90.05 306.481 91.002C306.677 91.226 306.985 91.716 307.083 91.94C308.455 90.82 309.925 89.126 310.891 87.446L309.939 87.096ZM309.617 84.254C309.001 85.248 307.741 86.438 306.649 87.18C306.831 87.376 307.097 87.74 307.237 87.95C308.427 87.11 309.743 85.794 310.555 84.618L309.617 84.254ZM308.679 89.7V97.176H309.673V88.916L309.533 88.846L308.679 89.7Z" fill="black"/>
<line x1="165" y1="10" x2="165" y2="28" stroke="#000AFF" stroke-opacity="0.5" stroke-width="2" stroke-dasharray="4 4"/>
<circle cx="247.5" cy="236.5" r="1.5" fill="#D9D9D9"/>
<circle cx="191" cy="190" r="2" transform="rotate(180 191 190)" fill="#8F8F8F"/>
<circle cx="154" cy="345" r="2" transform="rotate(180 154 345)" fill="#8F8F8F"/>
<circle cx="85" cy="268" r="2" transform="rotate(180 85 268)" fill="#8F8F8F"/>
<circle cx="191" cy="80" r="2" transform="rotate(180 191 80)" fill="#8F8F8F"/>
<circle cx="191" cy="97" r="2" transform="rotate(180 191 97)" fill="#8F8F8F"/>
<circle cx="191" cy="304" r="2" transform="rotate(180 191 304)" fill="#8F8F8F"/>
<line x1="120" y1="30.9974" x2="120.997" y2="414.997" stroke="#2AD9F1" stroke-opacity="0.8" stroke-width="2" stroke-dasharray="3 3"/>
<line x1="156" y1="15.9921" x2="159" y2="397.992" stroke="#2AD9F1" stroke-opacity="0.8" stroke-width="2" stroke-dasharray="3 3"/>
<line x1="48" y1="93" x2="48" y2="132" stroke="#8F00FF" stroke-opacity="0.3" stroke-width="2" stroke-dasharray="3 3"/>
<line x1="75" y1="16.9999" x2="75.0139" y2="158" stroke="#F24E1E" stroke-opacity="0.5" stroke-width="2" stroke-dasharray="3 3"/>
<line x1="85" y1="12.9999" x2="85.0239" y2="397" stroke="#F24E1E" stroke-opacity="0.5" stroke-width="2" stroke-dasharray="3 3"/>
<line x1="137" y1="104" x2="137" y2="138" stroke="#25872F" stroke-opacity="0.5" stroke-width="2" stroke-dasharray="3 3"/>
<line x1="58" y1="100" x2="58" y2="123" stroke="#25872F" stroke-opacity="0.5" stroke-width="2" stroke-dasharray="3 3"/>
<circle cx="156" cy="48" r="2" transform="rotate(180 156 48)" fill="#8F8F8F"/>
<circle cx="156" cy="29" r="2" transform="rotate(180 156 29)" fill="#8F8F8F"/>
<circle cx="157" cy="156" r="2" transform="rotate(180 157 156)" fill="#8F8F8F"/>
<circle cx="85" cy="158" r="2" transform="rotate(180 85 158)" fill="#8F8F8F"/>
<circle cx="121" cy="289" r="2" transform="rotate(180 121 289)" fill="#8F8F8F"/>
<circle cx="120" cy="172" r="2" transform="rotate(180 120 172)" fill="#8F8F8F"/>
<circle cx="75" cy="50" r="2" transform="rotate(180 75 50)" fill="#8F8F8F"/>
<circle cx="85" cy="46" r="2" transform="rotate(180 85 46)" fill="#8F8F8F"/>
<line x1="151" y1="92.9871" x2="155.922" y2="474.988" stroke="#8F00FF" stroke-opacity="0.5" stroke-width="2" stroke-dasharray="3 3"/>
<circle cx="166" cy="325" r="2" transform="rotate(180 166 325)" fill="#8F8F8F"/>
<circle cx="158" cy="270" r="2" transform="rotate(180 158 270)" fill="#8F8F8F"/>
<line x1="163" y1="73.9871" x2="167.948" y2="457.988" stroke="#C82285" stroke-opacity="0.5" stroke-width="2" stroke-dasharray="3 3"/>
<circle cx="75" cy="30" r="2" transform="rotate(180 75 30)" fill="#8F8F8F"/>
<circle cx="85" cy="26" r="2" transform="rotate(180 85 26)" fill="#8F8F8F"/>
<circle cx="120" cy="68" r="2" transform="rotate(180 120 68)" fill="#8F8F8F"/>
<circle cx="120" cy="48" r="2" transform="rotate(180 120 48)" fill="#8F8F8F"/>
<circle cx="163" cy="94" r="2" transform="rotate(180 163 94)" fill="#8F8F8F"/>
<circle cx="163" cy="117" r="2" transform="rotate(180 163 117)" fill="#8F8F8F"/>
<circle cx="165" cy="201" r="2" transform="rotate(180 165 201)" fill="#8F8F8F"/>
<circle cx="153" cy="206" r="2" transform="rotate(180 153 206)" fill="#8F8F8F"/>
<path d="M252.712 312.592V313.444H257.008V317.884H257.92V312.592H252.712ZM253.48 316.336V317.188H257.416V316.336H253.48ZM253.06 316.336V321.496C253.06 322.624 253.432 322.912 254.668 322.912C254.92 322.912 256.792 322.912 257.08 322.912C258.244 322.912 258.52 322.396 258.64 320.56C258.388 320.488 258.004 320.344 257.788 320.188C257.728 321.772 257.632 322.06 257.032 322.06C256.624 322.06 255.052 322.06 254.74 322.06C254.08 322.06 253.96 321.964 253.96 321.496V316.336H253.06ZM249.688 317.584V322.96H250.54V317.584H249.688ZM249.544 311.932C249.172 312.736 248.5 313.9 247.96 314.596L248.596 314.908C249.148 314.236 249.844 313.168 250.372 312.28L249.544 311.932ZM251.092 313.276C250.336 314.56 249.028 316.36 247.996 317.428L248.572 317.764C249.616 316.72 250.936 315.016 251.884 313.66L251.092 313.276ZM247.456 314.584C248.128 315.112 248.908 315.88 249.268 316.408L249.724 315.712C249.364 315.22 248.572 314.488 247.888 313.984L247.456 314.584ZM250.708 316.048C251.272 316.84 251.872 317.908 252.112 318.58L252.844 318.22C252.592 317.536 251.968 316.504 251.392 315.724L250.708 316.048ZM247.384 317.236L247.48 318.04C248.68 317.992 250.348 317.896 251.968 317.788L251.98 317.032C250.276 317.116 248.548 317.188 247.384 317.236ZM251.032 318.976C251.416 319.72 251.824 320.704 251.968 321.34L252.736 321.052C252.568 320.416 252.16 319.456 251.752 318.724L251.032 318.976ZM248.2 318.796C248.032 319.84 247.756 320.92 247.3 321.652C247.516 321.724 247.9 321.916 248.056 322.024C248.476 321.256 248.824 320.092 249.016 318.94L248.2 318.796ZM265.984 316.768V321.4C265.984 322.444 266.272 322.756 267.364 322.756C267.592 322.756 268.852 322.756 269.092 322.756C270.148 322.756 270.388 322.192 270.484 320.128C270.244 320.056 269.848 319.9 269.644 319.732C269.596 321.58 269.524 321.892 269.032 321.892C268.732 321.892 267.688 321.892 267.472 321.892C267.004 321.892 266.908 321.82 266.908 321.4V316.768H265.984ZM259.708 316.228V317.104H270.304V316.228H259.708ZM260.752 312.856V313.732H269.284V312.856H260.752ZM262.78 316.9C262.6 319.24 262.216 321.232 259.564 322.228C259.768 322.396 260.032 322.72 260.128 322.936C262.996 321.796 263.524 319.588 263.728 316.9H262.78ZM277 322.156C278.92 322.156 280.252 320.584 280.252 317.56C280.252 314.56 278.92 313.06 277 313.06C275.068 313.06 273.736 314.56 273.736 317.56C273.736 320.584 275.068 322.156 277 322.156ZM277 321.268C275.728 321.268 274.816 320.176 274.816 317.56C274.816 314.956 275.728 313.948 277 313.948C278.26 313.948 279.172 314.956 279.172 317.56C279.172 320.176 278.26 321.268 277 321.268ZM286.324 311.884C285.736 313.504 284.74 315.064 283.6 316.06C283.828 316.18 284.2 316.48 284.38 316.636C285.496 315.556 286.564 313.888 287.224 312.112L286.324 311.884ZM286.132 313.372L285.7 314.248H293.872V313.372H286.132ZM285.544 316.096V319.78H286.444V316.936H293.608V316.096H285.544ZM283.564 319.324V320.2H294.436V319.324H283.564ZM289.144 313.828V322.972H290.068V313.828H289.144Z" fill="black"/>
<path d="M162.75 72.56V69.8C162.75 69.6933 162.75 69.59 162.75 69.49C162.757 69.39 162.763 69.2933 162.77 69.2C162.777 69.1 162.783 69.0033 162.79 68.91C162.763 68.9367 162.737 68.9633 162.71 68.99C162.683 69.01 162.653 69.0367 162.62 69.07C162.6 69.09 162.553 69.1267 162.48 69.18C162.413 69.2333 162.323 69.3033 162.21 69.39C162.097 69.47 161.96 69.57 161.8 69.69L161.46 69.2L162.73 68.28H163.45V72.56H162.75ZM163 74.55C162.433 74.55 161.9 74.4433 161.4 74.23C160.9 74.0167 160.46 73.7233 160.08 73.35C159.707 72.97 159.413 72.53 159.2 72.03C158.987 71.53 158.88 70.9967 158.88 70.43C158.88 69.8567 158.987 69.3233 159.2 68.83C159.413 68.33 159.707 67.8933 160.08 67.52C160.46 67.14 160.9 66.8433 161.4 66.63C161.9 66.4167 162.433 66.31 163 66.31C163.573 66.31 164.107 66.4167 164.6 66.63C165.1 66.8433 165.537 67.14 165.91 67.52C166.29 67.8933 166.587 68.33 166.8 68.83C167.013 69.3233 167.12 69.8567 167.12 70.43C167.12 70.9967 167.013 71.53 166.8 72.03C166.587 72.53 166.29 72.97 165.91 73.35C165.537 73.7233 165.1 74.0167 164.6 74.23C164.107 74.4433 163.573 74.55 163 74.55ZM163 73.99C163.493 73.99 163.953 73.9 164.38 73.72C164.813 73.5333 165.193 73.2767 165.52 72.95C165.847 72.6233 166.1 72.2467 166.28 71.82C166.467 71.3867 166.56 70.9233 166.56 70.43C166.56 69.9367 166.467 69.4767 166.28 69.05C166.1 68.6167 165.847 68.2367 165.52 67.91C165.193 67.5833 164.813 67.33 164.38 67.15C163.953 66.9633 163.493 66.87 163 66.87C162.507 66.87 162.043 66.9633 161.61 67.15C161.183 67.33 160.807 67.5833 160.48 67.91C160.153 68.2367 159.897 68.6167 159.71 69.05C159.53 69.4767 159.44 69.9367 159.44 70.43C159.44 70.9233 159.53 71.3867 159.71 71.82C159.897 72.2467 160.153 72.6233 160.48 72.95C160.807 73.2767 161.183 73.5333 161.61 73.72C162.043 73.9 162.507 73.99 163 73.99Z" fill="#C82285"/>
<path d="M160.75 8.56V5.8C160.75 5.69333 160.75 5.59 160.75 5.49C160.757 5.39 160.763 5.29333 160.77 5.2C160.777 5.1 160.783 5.00333 160.79 4.91C160.763 4.93667 160.737 4.96333 160.71 4.99C160.683 5.01 160.653 5.03667 160.62 5.07C160.6 5.09 160.553 5.12667 160.48 5.18C160.413 5.23333 160.323 5.30333 160.21 5.39C160.097 5.47 159.96 5.57 159.8 5.69L159.46 5.2L160.73 4.28H161.45V8.56H160.75ZM161 10.55C160.433 10.55 159.9 10.4433 159.4 10.23C158.9 10.0167 158.46 9.72333 158.08 9.35C157.707 8.97 157.413 8.53 157.2 8.03C156.987 7.53 156.88 6.99667 156.88 6.43C156.88 5.85667 156.987 5.32333 157.2 4.83C157.413 4.33 157.707 3.89333 158.08 3.52C158.46 3.14 158.9 2.84333 159.4 2.63C159.9 2.41667 160.433 2.31 161 2.31C161.573 2.31 162.107 2.41667 162.6 2.63C163.1 2.84333 163.537 3.14 163.91 3.52C164.29 3.89333 164.587 4.33 164.8 4.83C165.013 5.32333 165.12 5.85667 165.12 6.43C165.12 6.99667 165.013 7.53 164.8 8.03C164.587 8.53 164.29 8.97 163.91 9.35C163.537 9.72333 163.1 10.0167 162.6 10.23C162.107 10.4433 161.573 10.55 161 10.55ZM161 9.99C161.493 9.99 161.953 9.9 162.38 9.72C162.813 9.53333 163.193 9.27667 163.52 8.95C163.847 8.62333 164.1 8.24667 164.28 7.82C164.467 7.38667 164.56 6.92333 164.56 6.43C164.56 5.93667 164.467 5.47667 164.28 5.05C164.1 4.61667 163.847 4.23667 163.52 3.91C163.193 3.58333 162.813 3.33 162.38 3.15C161.953 2.96333 161.493 2.87 161 2.87C160.507 2.87 160.043 2.96333 159.61 3.15C159.183 3.33 158.807 3.58333 158.48 3.91C158.153 4.23667 157.897 4.61667 157.71 5.05C157.53 5.47667 157.44 5.93667 157.44 6.43C157.44 6.92333 157.53 7.38667 157.71 7.82C157.897 8.24667 158.153 8.62333 158.48 8.95C158.807 9.27667 159.183 9.53333 159.61 9.72C160.043 9.9 160.507 9.99 161 9.99Z" fill="#000AFF"/>
<path d="M119.75 29.56V26.8C119.75 26.6933 119.75 26.59 119.75 26.49C119.757 26.39 119.763 26.2933 119.77 26.2C119.777 26.1 119.783 26.0033 119.79 25.91C119.763 25.9367 119.737 25.9633 119.71 25.99C119.683 26.01 119.653 26.0367 119.62 26.07C119.6 26.09 119.553 26.1267 119.48 26.18C119.413 26.2333 119.323 26.3033 119.21 26.39C119.097 26.47 118.96 26.57 118.8 26.69L118.46 26.2L119.73 25.28H120.45V29.56H119.75ZM120 31.55C119.433 31.55 118.9 31.4433 118.4 31.23C117.9 31.0167 117.46 30.7233 117.08 30.35C116.707 29.97 116.413 29.53 116.2 29.03C115.987 28.53 115.88 27.9967 115.88 27.43C115.88 26.8567 115.987 26.3233 116.2 25.83C116.413 25.33 116.707 24.8933 117.08 24.52C117.46 24.14 117.9 23.8433 118.4 23.63C118.9 23.4167 119.433 23.31 120 23.31C120.573 23.31 121.107 23.4167 121.6 23.63C122.1 23.8433 122.537 24.14 122.91 24.52C123.29 24.8933 123.587 25.33 123.8 25.83C124.013 26.3233 124.12 26.8567 124.12 27.43C124.12 27.9967 124.013 28.53 123.8 29.03C123.587 29.53 123.29 29.97 122.91 30.35C122.537 30.7233 122.1 31.0167 121.6 31.23C121.107 31.4433 120.573 31.55 120 31.55ZM120 30.99C120.493 30.99 120.953 30.9 121.38 30.72C121.813 30.5333 122.193 30.2767 122.52 29.95C122.847 29.6233 123.1 29.2467 123.28 28.82C123.467 28.3867 123.56 27.9233 123.56 27.43C123.56 26.9367 123.467 26.4767 123.28 26.05C123.1 25.6167 122.847 25.2367 122.52 24.91C122.193 24.5833 121.813 24.33 121.38 24.15C120.953 23.9633 120.493 23.87 120 23.87C119.507 23.87 119.043 23.9633 118.61 24.15C118.183 24.33 117.807 24.5833 117.48 24.91C117.153 25.2367 116.897 25.6167 116.71 26.05C116.53 26.4767 116.44 26.9367 116.44 27.43C116.44 27.9233 116.53 28.3867 116.71 28.82C116.897 29.2467 117.153 29.6233 117.48 29.95C117.807 30.2767 118.183 30.5333 118.61 30.72C119.043 30.9 119.507 30.99 120 30.99Z" fill="#2AD9F1"/>
<path d="M136.75 102.56V99.8C136.75 99.6933 136.75 99.59 136.75 99.49C136.757 99.39 136.763 99.2933 136.77 99.2C136.777 99.1 136.783 99.0033 136.79 98.91C136.763 98.9367 136.737 98.9633 136.71 98.99C136.683 99.01 136.653 99.0367 136.62 99.07C136.6 99.09 136.553 99.1267 136.48 99.18C136.413 99.2333 136.323 99.3033 136.21 99.39C136.097 99.47 135.96 99.57 135.8 99.69L135.46 99.2L136.73 98.28H137.45V102.56H136.75ZM137 104.55C136.433 104.55 135.9 104.443 135.4 104.23C134.9 104.017 134.46 103.723 134.08 103.35C133.707 102.97 133.413 102.53 133.2 102.03C132.987 101.53 132.88 100.997 132.88 100.43C132.88 99.8567 132.987 99.3233 133.2 98.83C133.413 98.33 133.707 97.8933 134.08 97.52C134.46 97.14 134.9 96.8433 135.4 96.63C135.9 96.4167 136.433 96.31 137 96.31C137.573 96.31 138.107 96.4167 138.6 96.63C139.1 96.8433 139.537 97.14 139.91 97.52C140.29 97.8933 140.587 98.33 140.8 98.83C141.013 99.3233 141.12 99.8567 141.12 100.43C141.12 100.997 141.013 101.53 140.8 102.03C140.587 102.53 140.29 102.97 139.91 103.35C139.537 103.723 139.1 104.017 138.6 104.23C138.107 104.443 137.573 104.55 137 104.55ZM137 103.99C137.493 103.99 137.953 103.9 138.38 103.72C138.813 103.533 139.193 103.277 139.52 102.95C139.847 102.623 140.1 102.247 140.28 101.82C140.467 101.387 140.56 100.923 140.56 100.43C140.56 99.9367 140.467 99.4767 140.28 99.05C140.1 98.6167 139.847 98.2367 139.52 97.91C139.193 97.5833 138.813 97.33 138.38 97.15C137.953 96.9633 137.493 96.87 137 96.87C136.507 96.87 136.043 96.9633 135.61 97.15C135.183 97.33 134.807 97.5833 134.48 97.91C134.153 98.2367 133.897 98.6167 133.71 99.05C133.53 99.4767 133.44 99.9367 133.44 100.43C133.44 100.923 133.53 101.387 133.71 101.82C133.897 102.247 134.153 102.623 134.48 102.95C134.807 103.277 135.183 103.533 135.61 103.72C136.043 103.9 136.507 103.99 137 103.99Z" fill="#25872F"/>
<path d="M150.75 91.56V88.8C150.75 88.6933 150.75 88.59 150.75 88.49C150.757 88.39 150.763 88.2933 150.77 88.2C150.777 88.1 150.783 88.0033 150.79 87.91C150.763 87.9367 150.737 87.9633 150.71 87.99C150.683 88.01 150.653 88.0367 150.62 88.07C150.6 88.09 150.553 88.1267 150.48 88.18C150.413 88.2333 150.323 88.3033 150.21 88.39C150.097 88.47 149.96 88.57 149.8 88.69L149.46 88.2L150.73 87.28H151.45V91.56H150.75ZM151 93.55C150.433 93.55 149.9 93.4433 149.4 93.23C148.9 93.0167 148.46 92.7233 148.08 92.35C147.707 91.97 147.413 91.53 147.2 91.03C146.987 90.53 146.88 89.9967 146.88 89.43C146.88 88.8567 146.987 88.3233 147.2 87.83C147.413 87.33 147.707 86.8933 148.08 86.52C148.46 86.14 148.9 85.8433 149.4 85.63C149.9 85.4167 150.433 85.31 151 85.31C151.573 85.31 152.107 85.4167 152.6 85.63C153.1 85.8433 153.537 86.14 153.91 86.52C154.29 86.8933 154.587 87.33 154.8 87.83C155.013 88.3233 155.12 88.8567 155.12 89.43C155.12 89.9967 155.013 90.53 154.8 91.03C154.587 91.53 154.29 91.97 153.91 92.35C153.537 92.7233 153.1 93.0167 152.6 93.23C152.107 93.4433 151.573 93.55 151 93.55ZM151 92.99C151.493 92.99 151.953 92.9 152.38 92.72C152.813 92.5333 153.193 92.2767 153.52 91.95C153.847 91.6233 154.1 91.2467 154.28 90.82C154.467 90.3867 154.56 89.9233 154.56 89.43C154.56 88.9367 154.467 88.4767 154.28 88.05C154.1 87.6167 153.847 87.2367 153.52 86.91C153.193 86.5833 152.813 86.33 152.38 86.15C151.953 85.9633 151.493 85.87 151 85.87C150.507 85.87 150.043 85.9633 149.61 86.15C149.183 86.33 148.807 86.5833 148.48 86.91C148.153 87.2367 147.897 87.6167 147.71 88.05C147.53 88.4767 147.44 88.9367 147.44 89.43C147.44 89.9233 147.53 90.3867 147.71 90.82C147.897 91.2467 148.153 91.6233 148.48 91.95C148.807 92.2767 149.183 92.5333 149.61 92.72C150.043 92.9 150.507 92.99 151 92.99Z" fill="#8F00FF"/>
<path d="M84.75 11.56V8.8C84.75 8.69333 84.75 8.59 84.75 8.49C84.7567 8.39 84.7633 8.29333 84.77 8.2C84.7767 8.1 84.7833 8.00333 84.79 7.91C84.7633 7.93667 84.7367 7.96333 84.71 7.99C84.6833 8.01 84.6533 8.03667 84.62 8.07C84.6 8.09 84.5533 8.12667 84.48 8.18C84.4133 8.23333 84.3233 8.30333 84.21 8.39C84.0967 8.47 83.96 8.57 83.8 8.69L83.46 8.2L84.73 7.28H85.45V11.56H84.75ZM85 13.55C84.4333 13.55 83.9 13.4433 83.4 13.23C82.9 13.0167 82.46 12.7233 82.08 12.35C81.7067 11.97 81.4133 11.53 81.2 11.03C80.9867 10.53 80.88 9.99667 80.88 9.43C80.88 8.85667 80.9867 8.32333 81.2 7.83C81.4133 7.33 81.7067 6.89333 82.08 6.52C82.46 6.14 82.9 5.84333 83.4 5.63C83.9 5.41667 84.4333 5.31 85 5.31C85.5733 5.31 86.1067 5.41667 86.6 5.63C87.1 5.84333 87.5367 6.14 87.91 6.52C88.29 6.89333 88.5867 7.33 88.8 7.83C89.0133 8.32333 89.12 8.85667 89.12 9.43C89.12 9.99667 89.0133 10.53 88.8 11.03C88.5867 11.53 88.29 11.97 87.91 12.35C87.5367 12.7233 87.1 13.0167 86.6 13.23C86.1067 13.4433 85.5733 13.55 85 13.55ZM85 12.99C85.4933 12.99 85.9533 12.9 86.38 12.72C86.8133 12.5333 87.1933 12.2767 87.52 11.95C87.8467 11.6233 88.1 11.2467 88.28 10.82C88.4667 10.3867 88.56 9.92333 88.56 9.43C88.56 8.93667 88.4667 8.47667 88.28 8.05C88.1 7.61667 87.8467 7.23667 87.52 6.91C87.1933 6.58333 86.8133 6.33 86.38 6.15C85.9533 5.96333 85.4933 5.87 85 5.87C84.5067 5.87 84.0433 5.96333 83.61 6.15C83.1833 6.33 82.8067 6.58333 82.48 6.91C82.1533 7.23667 81.8967 7.61667 81.71 8.05C81.53 8.47667 81.44 8.93667 81.44 9.43C81.44 9.92333 81.53 10.3867 81.71 10.82C81.8967 11.2467 82.1533 11.6233 82.48 11.95C82.8067 12.2767 83.1833 12.5333 83.61 12.72C84.0433 12.9 84.5067 12.99 85 12.99Z" fill="#F24E1E"/>
<path d="M189.69 55.57V55.03L190.82 53.91C191.067 53.6633 191.257 53.46 191.39 53.3C191.53 53.14 191.627 52.9933 191.68 52.86C191.74 52.7267 191.77 52.58 191.77 52.42C191.77 52.2067 191.707 52.0467 191.58 51.94C191.46 51.8333 191.303 51.78 191.11 51.78C190.95 51.78 190.783 51.8167 190.61 51.89C190.437 51.9567 190.26 52.0633 190.08 52.21L189.74 51.75C189.887 51.6233 190.033 51.52 190.18 51.44C190.333 51.36 190.487 51.3 190.64 51.26C190.8 51.22 190.96 51.2 191.12 51.2C191.54 51.2 191.867 51.3033 192.1 51.51C192.34 51.7167 192.46 52.0067 192.46 52.38C192.46 52.6067 192.413 52.8167 192.32 53.01C192.227 53.1967 192.093 53.3833 191.92 53.57C191.753 53.7567 191.557 53.96 191.33 54.18L190.36 55.12L190.29 54.97H192.45V55.57H189.69ZM191 57.55C190.433 57.55 189.9 57.4433 189.4 57.23C188.9 57.0167 188.46 56.7233 188.08 56.35C187.707 55.97 187.413 55.53 187.2 55.03C186.987 54.53 186.88 53.9967 186.88 53.43C186.88 52.8567 186.987 52.3233 187.2 51.83C187.413 51.33 187.707 50.8933 188.08 50.52C188.46 50.14 188.9 49.8433 189.4 49.63C189.9 49.4167 190.433 49.31 191 49.31C191.573 49.31 192.107 49.4167 192.6 49.63C193.1 49.8433 193.537 50.14 193.91 50.52C194.29 50.8933 194.587 51.33 194.8 51.83C195.013 52.3233 195.12 52.8567 195.12 53.43C195.12 53.9967 195.013 54.53 194.8 55.03C194.587 55.53 194.29 55.97 193.91 56.35C193.537 56.7233 193.1 57.0167 192.6 57.23C192.107 57.4433 191.573 57.55 191 57.55ZM191 56.99C191.493 56.99 191.953 56.9 192.38 56.72C192.813 56.5333 193.193 56.2767 193.52 55.95C193.847 55.6233 194.1 55.2467 194.28 54.82C194.467 54.3867 194.56 53.9233 194.56 53.43C194.56 52.9367 194.467 52.4767 194.28 52.05C194.1 51.6167 193.847 51.2367 193.52 50.91C193.193 50.5833 192.813 50.33 192.38 50.15C191.953 49.9633 191.493 49.87 191 49.87C190.507 49.87 190.043 49.9633 189.61 50.15C189.183 50.33 188.807 50.5833 188.48 50.91C188.153 51.2367 187.897 51.6167 187.71 52.05C187.53 52.4767 187.44 52.9367 187.44 53.43C187.44 53.9233 187.53 54.3867 187.71 54.82C187.897 55.2467 188.153 55.6233 188.48 55.95C188.807 56.2767 189.183 56.5333 189.61 56.72C190.043 56.9 190.507 56.99 191 56.99Z" fill="#C82285"/>
<path d="M167.69 8.57V8.03L168.82 6.91C169.067 6.66333 169.257 6.46 169.39 6.3C169.53 6.14 169.627 5.99333 169.68 5.86C169.74 5.72667 169.77 5.58 169.77 5.42C169.77 5.20667 169.707 5.04667 169.58 4.94C169.46 4.83333 169.303 4.78 169.11 4.78C168.95 4.78 168.783 4.81667 168.61 4.89C168.437 4.95667 168.26 5.06333 168.08 5.21L167.74 4.75C167.887 4.62333 168.033 4.52 168.18 4.44C168.333 4.36 168.487 4.3 168.64 4.26C168.8 4.22 168.96 4.2 169.12 4.2C169.54 4.2 169.867 4.30333 170.1 4.51C170.34 4.71667 170.46 5.00667 170.46 5.38C170.46 5.60667 170.413 5.81667 170.32 6.01C170.227 6.19667 170.093 6.38333 169.92 6.57C169.753 6.75667 169.557 6.96 169.33 7.18L168.36 8.12L168.29 7.97H170.45V8.57H167.69ZM169 10.55C168.433 10.55 167.9 10.4433 167.4 10.23C166.9 10.0167 166.46 9.72333 166.08 9.35C165.707 8.97 165.413 8.53 165.2 8.03C164.987 7.53 164.88 6.99667 164.88 6.43C164.88 5.85667 164.987 5.32333 165.2 4.83C165.413 4.33 165.707 3.89333 166.08 3.52C166.46 3.14 166.9 2.84333 167.4 2.63C167.9 2.41667 168.433 2.31 169 2.31C169.573 2.31 170.107 2.41667 170.6 2.63C171.1 2.84333 171.537 3.14 171.91 3.52C172.29 3.89333 172.587 4.33 172.8 4.83C173.013 5.32333 173.12 5.85667 173.12 6.43C173.12 6.99667 173.013 7.53 172.8 8.03C172.587 8.53 172.29 8.97 171.91 9.35C171.537 9.72333 171.1 10.0167 170.6 10.23C170.107 10.4433 169.573 10.55 169 10.55ZM169 9.99C169.493 9.99 169.953 9.9 170.38 9.72C170.813 9.53333 171.193 9.27667 171.52 8.95C171.847 8.62333 172.1 8.24667 172.28 7.82C172.467 7.38667 172.56 6.92333 172.56 6.43C172.56 5.93667 172.467 5.47667 172.28 5.05C172.1 4.61667 171.847 4.23667 171.52 3.91C171.193 3.58333 170.813 3.33 170.38 3.15C169.953 2.96333 169.493 2.87 169 2.87C168.507 2.87 168.043 2.96333 167.61 3.15C167.183 3.33 166.807 3.58333 166.48 3.91C166.153 4.23667 165.897 4.61667 165.71 5.05C165.53 5.47667 165.44 5.93667 165.44 6.43C165.44 6.92333 165.53 7.38667 165.71 7.82C165.897 8.24667 166.153 8.62333 166.48 8.95C166.807 9.27667 167.183 9.53333 167.61 9.72C168.043 9.9 168.507 9.99 169 9.99Z" fill="#000AFF"/>
<path d="M154.69 14.57V14.03L155.82 12.91C156.067 12.6633 156.257 12.46 156.39 12.3C156.53 12.14 156.627 11.9933 156.68 11.86C156.74 11.7267 156.77 11.58 156.77 11.42C156.77 11.2067 156.707 11.0467 156.58 10.94C156.46 10.8333 156.303 10.78 156.11 10.78C155.95 10.78 155.783 10.8167 155.61 10.89C155.437 10.9567 155.26 11.0633 155.08 11.21L154.74 10.75C154.887 10.6233 155.033 10.52 155.18 10.44C155.333 10.36 155.487 10.3 155.64 10.26C155.8 10.22 155.96 10.2 156.12 10.2C156.54 10.2 156.867 10.3033 157.1 10.51C157.34 10.7167 157.46 11.0067 157.46 11.38C157.46 11.6067 157.413 11.8167 157.32 12.01C157.227 12.1967 157.093 12.3833 156.92 12.57C156.753 12.7567 156.557 12.96 156.33 13.18L155.36 14.12L155.29 13.97H157.45V14.57H154.69ZM156 16.55C155.433 16.55 154.9 16.4433 154.4 16.23C153.9 16.0167 153.46 15.7233 153.08 15.35C152.707 14.97 152.413 14.53 152.2 14.03C151.987 13.53 151.88 12.9967 151.88 12.43C151.88 11.8567 151.987 11.3233 152.2 10.83C152.413 10.33 152.707 9.89333 153.08 9.52C153.46 9.14 153.9 8.84333 154.4 8.63C154.9 8.41667 155.433 8.31 156 8.31C156.573 8.31 157.107 8.41667 157.6 8.63C158.1 8.84333 158.537 9.14 158.91 9.52C159.29 9.89333 159.587 10.33 159.8 10.83C160.013 11.3233 160.12 11.8567 160.12 12.43C160.12 12.9967 160.013 13.53 159.8 14.03C159.587 14.53 159.29 14.97 158.91 15.35C158.537 15.7233 158.1 16.0167 157.6 16.23C157.107 16.4433 156.573 16.55 156 16.55ZM156 15.99C156.493 15.99 156.953 15.9 157.38 15.72C157.813 15.5333 158.193 15.2767 158.52 14.95C158.847 14.6233 159.1 14.2467 159.28 13.82C159.467 13.3867 159.56 12.9233 159.56 12.43C159.56 11.9367 159.467 11.4767 159.28 11.05C159.1 10.6167 158.847 10.2367 158.52 9.91C158.193 9.58333 157.813 9.33 157.38 9.15C156.953 8.96333 156.493 8.87 156 8.87C155.507 8.87 155.043 8.96333 154.61 9.15C154.183 9.33 153.807 9.58333 153.48 9.91C153.153 10.2367 152.897 10.6167 152.71 11.05C152.53 11.4767 152.44 11.9367 152.44 12.43C152.44 12.9233 152.53 13.3867 152.71 13.82C152.897 14.2467 153.153 14.6233 153.48 14.95C153.807 15.2767 154.183 15.5333 154.61 15.72C155.043 15.9 155.507 15.99 156 15.99Z" fill="#2AD9F1"/>
<path d="M56.69 98.57V98.03L57.82 96.91C58.0667 96.6633 58.2567 96.46 58.39 96.3C58.53 96.14 58.6267 95.9933 58.68 95.86C58.74 95.7267 58.77 95.58 58.77 95.42C58.77 95.2067 58.7067 95.0467 58.58 94.94C58.46 94.8333 58.3033 94.78 58.11 94.78C57.95 94.78 57.7833 94.8167 57.61 94.89C57.4367 94.9567 57.26 95.0633 57.08 95.21L56.74 94.75C56.8867 94.6233 57.0333 94.52 57.18 94.44C57.3333 94.36 57.4867 94.3 57.64 94.26C57.8 94.22 57.96 94.2 58.12 94.2C58.54 94.2 58.8667 94.3033 59.1 94.51C59.34 94.7167 59.46 95.0067 59.46 95.38C59.46 95.6067 59.4133 95.8167 59.32 96.01C59.2267 96.1967 59.0933 96.3833 58.92 96.57C58.7533 96.7567 58.5567 96.96 58.33 97.18L57.36 98.12L57.29 97.97H59.45V98.57H56.69ZM58 100.55C57.4333 100.55 56.9 100.443 56.4 100.23C55.9 100.017 55.46 99.7233 55.08 99.35C54.7067 98.97 54.4133 98.53 54.2 98.03C53.9867 97.53 53.88 96.9967 53.88 96.43C53.88 95.8567 53.9867 95.3233 54.2 94.83C54.4133 94.33 54.7067 93.8933 55.08 93.52C55.46 93.14 55.9 92.8433 56.4 92.63C56.9 92.4167 57.4333 92.31 58 92.31C58.5733 92.31 59.1067 92.4167 59.6 92.63C60.1 92.8433 60.5367 93.14 60.91 93.52C61.29 93.8933 61.5867 94.33 61.8 94.83C62.0133 95.3233 62.12 95.8567 62.12 96.43C62.12 96.9967 62.0133 97.53 61.8 98.03C61.5867 98.53 61.29 98.97 60.91 99.35C60.5367 99.7233 60.1 100.017 59.6 100.23C59.1067 100.443 58.5733 100.55 58 100.55ZM58 99.99C58.4933 99.99 58.9533 99.9 59.38 99.72C59.8133 99.5333 60.1933 99.2767 60.52 98.95C60.8467 98.6233 61.1 98.2467 61.28 97.82C61.4667 97.3867 61.56 96.9233 61.56 96.43C61.56 95.9367 61.4667 95.4767 61.28 95.05C61.1 94.6167 60.8467 94.2367 60.52 93.91C60.1933 93.5833 59.8133 93.33 59.38 93.15C58.9533 92.9633 58.4933 92.87 58 92.87C57.5067 92.87 57.0433 92.9633 56.61 93.15C56.1833 93.33 55.8067 93.5833 55.48 93.91C55.1533 94.2367 54.8967 94.6167 54.71 95.05C54.53 95.4767 54.44 95.9367 54.44 96.43C54.44 96.9233 54.53 97.3867 54.71 97.82C54.8967 98.2467 55.1533 98.6233 55.48 98.95C55.8067 99.2767 56.1833 99.5333 56.61 99.72C57.0433 99.9 57.5067 99.99 58 99.99Z" fill="#25872F"/>
<path d="M46.69 91.57V91.03L47.82 89.91C48.0667 89.6633 48.2567 89.46 48.39 89.3C48.53 89.14 48.6267 88.9933 48.68 88.86C48.74 88.7267 48.77 88.58 48.77 88.42C48.77 88.2067 48.7067 88.0467 48.58 87.94C48.46 87.8333 48.3033 87.78 48.11 87.78C47.95 87.78 47.7833 87.8167 47.61 87.89C47.4367 87.9567 47.26 88.0633 47.08 88.21L46.74 87.75C46.8867 87.6233 47.0333 87.52 47.18 87.44C47.3333 87.36 47.4867 87.3 47.64 87.26C47.8 87.22 47.96 87.2 48.12 87.2C48.54 87.2 48.8667 87.3033 49.1 87.51C49.34 87.7167 49.46 88.0067 49.46 88.38C49.46 88.6067 49.4133 88.8167 49.32 89.01C49.2267 89.1967 49.0933 89.3833 48.92 89.57C48.7533 89.7567 48.5567 89.96 48.33 90.18L47.36 91.12L47.29 90.97H49.45V91.57H46.69ZM48 93.55C47.4333 93.55 46.9 93.4433 46.4 93.23C45.9 93.0167 45.46 92.7233 45.08 92.35C44.7067 91.97 44.4133 91.53 44.2 91.03C43.9867 90.53 43.88 89.9967 43.88 89.43C43.88 88.8567 43.9867 88.3233 44.2 87.83C44.4133 87.33 44.7067 86.8933 45.08 86.52C45.46 86.14 45.9 85.8433 46.4 85.63C46.9 85.4167 47.4333 85.31 48 85.31C48.5733 85.31 49.1067 85.4167 49.6 85.63C50.1 85.8433 50.5367 86.14 50.91 86.52C51.29 86.8933 51.5867 87.33 51.8 87.83C52.0133 88.3233 52.12 88.8567 52.12 89.43C52.12 89.9967 52.0133 90.53 51.8 91.03C51.5867 91.53 51.29 91.97 50.91 92.35C50.5367 92.7233 50.1 93.0167 49.6 93.23C49.1067 93.4433 48.5733 93.55 48 93.55ZM48 92.99C48.4933 92.99 48.9533 92.9 49.38 92.72C49.8133 92.5333 50.1933 92.2767 50.52 91.95C50.8467 91.6233 51.1 91.2467 51.28 90.82C51.4667 90.3867 51.56 89.9233 51.56 89.43C51.56 88.9367 51.4667 88.4767 51.28 88.05C51.1 87.6167 50.8467 87.2367 50.52 86.91C50.1933 86.5833 49.8133 86.33 49.38 86.15C48.9533 85.9633 48.4933 85.87 48 85.87C47.5067 85.87 47.0433 85.9633 46.61 86.15C46.1833 86.33 45.8067 86.5833 45.48 86.91C45.1533 87.2367 44.8967 87.6167 44.71 88.05C44.53 88.4767 44.44 88.9367 44.44 89.43C44.44 89.9233 44.53 90.3867 44.71 90.82C44.8967 91.2467 45.1533 91.6233 45.48 91.95C45.8067 92.2767 46.1833 92.5333 46.61 92.72C47.0433 92.9 47.5067 92.99 48 92.99Z" fill="#8F00FF"/>
<path d="M73.69 15.57V15.03L74.82 13.91C75.0667 13.6633 75.2567 13.46 75.39 13.3C75.53 13.14 75.6267 12.9933 75.68 12.86C75.74 12.7267 75.77 12.58 75.77 12.42C75.77 12.2067 75.7067 12.0467 75.58 11.94C75.46 11.8333 75.3033 11.78 75.11 11.78C74.95 11.78 74.7833 11.8167 74.61 11.89C74.4367 11.9567 74.26 12.0633 74.08 12.21L73.74 11.75C73.8867 11.6233 74.0333 11.52 74.18 11.44C74.3333 11.36 74.4867 11.3 74.64 11.26C74.8 11.22 74.96 11.2 75.12 11.2C75.54 11.2 75.8667 11.3033 76.1 11.51C76.34 11.7167 76.46 12.0067 76.46 12.38C76.46 12.6067 76.4133 12.8167 76.32 13.01C76.2267 13.1967 76.0933 13.3833 75.92 13.57C75.7533 13.7567 75.5567 13.96 75.33 14.18L74.36 15.12L74.29 14.97H76.45V15.57H73.69ZM75 17.55C74.4333 17.55 73.9 17.4433 73.4 17.23C72.9 17.0167 72.46 16.7233 72.08 16.35C71.7067 15.97 71.4133 15.53 71.2 15.03C70.9867 14.53 70.88 13.9967 70.88 13.43C70.88 12.8567 70.9867 12.3233 71.2 11.83C71.4133 11.33 71.7067 10.8933 72.08 10.52C72.46 10.14 72.9 9.84333 73.4 9.63C73.9 9.41667 74.4333 9.31 75 9.31C75.5733 9.31 76.1067 9.41667 76.6 9.63C77.1 9.84333 77.5367 10.14 77.91 10.52C78.29 10.8933 78.5867 11.33 78.8 11.83C79.0133 12.3233 79.12 12.8567 79.12 13.43C79.12 13.9967 79.0133 14.53 78.8 15.03C78.5867 15.53 78.29 15.97 77.91 16.35C77.5367 16.7233 77.1 17.0167 76.6 17.23C76.1067 17.4433 75.5733 17.55 75 17.55ZM75 16.99C75.4933 16.99 75.9533 16.9 76.38 16.72C76.8133 16.5333 77.1933 16.2767 77.52 15.95C77.8467 15.6233 78.1 15.2467 78.28 14.82C78.4667 14.3867 78.56 13.9233 78.56 13.43C78.56 12.9367 78.4667 12.4767 78.28 12.05C78.1 11.6167 77.8467 11.2367 77.52 10.91C77.1933 10.5833 76.8133 10.33 76.38 10.15C75.9533 9.96333 75.4933 9.87 75 9.87C74.5067 9.87 74.0433 9.96333 73.61 10.15C73.1833 10.33 72.8067 10.5833 72.48 10.91C72.1533 11.2367 71.8967 11.6167 71.71 12.05C71.53 12.4767 71.44 12.9367 71.44 13.43C71.44 13.9233 71.53 14.3867 71.71 14.82C71.8967 15.2467 72.1533 15.6233 72.48 15.95C72.8067 16.2767 73.1833 16.5333 73.61 16.72C74.0433 16.9 74.5067 16.99 75 16.99Z" fill="#F24E1E"/>
</svg>
