<svg width="973" height="720" viewBox="0 0 973 720" fill="none" xmlns="http://www.w3.org/2000/svg">
<line x1="425.752" y1="359.566" x2="702.752" y2="201.566" stroke="black" stroke-dasharray="8 8"/>
<line x1="426.25" y1="358.567" x2="701.25" y2="517.567" stroke="black" stroke-dasharray="8 8"/>
<line x1="151.251" y1="199.568" x2="426.251" y2="359.568" stroke="black" stroke-dasharray="8 8"/>
<line x1="426.5" y1="41.0001" x2="426.462" y2="360" stroke="black" stroke-dasharray="8 8"/>
<line x1="426.5" y1="360" x2="426.5" y2="675" stroke="black" stroke-dasharray="8 8"/>
<line x1="426.249" y1="360.434" x2="151.249" y2="518.434" stroke="black" stroke-dasharray="8 8"/>
<path d="M149.372 200.289L426 40.5774L702.628 200.289V519.711L426 679.423L149.372 519.711V200.289Z" fill="#E9E9E9" fill-opacity="0.5" stroke="#B9B9B9"/>
<path d="M73.9894 184.545V202H70.2991V188.048H70.1968L66.1997 190.554V187.281L70.5207 184.545H73.9894ZM82.5079 202.222C81.9454 202.222 81.4624 202.023 81.059 201.625C80.6613 201.222 80.4624 200.739 80.4624 200.176C80.4624 199.619 80.6613 199.142 81.059 198.744C81.4624 198.347 81.9454 198.148 82.5079 198.148C83.0533 198.148 83.5306 198.347 83.9397 198.744C84.3488 199.142 84.5533 199.619 84.5533 200.176C84.5533 200.551 84.4568 200.895 84.2636 201.207C84.0761 201.514 83.8289 201.761 83.5221 201.949C83.2153 202.131 82.8772 202.222 82.5079 202.222ZM104.152 182.56V184.816H115.216V182.56H104.152ZM103.768 189.472V191.728H115.648V189.472H103.768ZM103.768 192.904V195.16H115.552V192.904H103.768ZM104.92 200.92V203.2H114.472V200.92H104.92ZM101.872 185.992V188.32H117.328V185.992H101.872ZM103.384 196.36V204.136H106.144V198.592H113.08V204.064H115.984V196.36H103.384ZM100.096 181.672C98.8 185.104 96.568 188.512 94.288 190.672C94.768 191.368 95.536 192.952 95.776 193.624C98.512 190.912 101.152 186.616 102.784 182.536L100.096 181.672ZM97.792 188.32V204.088H100.528V185.608L100.504 185.584L97.792 188.32ZM130.984 181.648C130.072 182.776 128.392 184.192 126.784 185.2C127.144 185.68 127.648 186.568 127.816 187.096C129.784 186.088 132.04 184.648 133.696 183.208L130.984 181.648ZM126.496 184.36V198.592H129.16V185.08L126.496 184.36ZM124.792 198.232L125.872 200.872C127.792 200.272 130.192 199.576 132.4 198.856L131.968 196.288C129.352 197.032 126.664 197.776 124.792 198.232ZM132.496 184.216V204.16H135.208V186.736H139.48V184.216H132.496ZM137.968 184.216V197.152C137.968 197.44 137.872 197.512 137.632 197.512C137.368 197.512 136.6 197.536 135.832 197.488C136.192 198.232 136.504 199.456 136.552 200.248C138.016 200.248 139.024 200.2 139.768 199.744C140.536 199.264 140.728 198.472 140.728 197.2V184.216H137.968ZM123.76 181.672C122.512 185.104 120.376 188.512 118.192 190.672C118.648 191.368 119.416 192.904 119.68 193.576C122.296 190.84 124.816 186.568 126.376 182.512L123.76 181.672ZM121.456 188.32V204.088H124.192V185.608L124.168 185.584L121.456 188.32Z" fill="black"/>
<path d="M717.866 536.239C716.594 536.239 715.46 536.02 714.466 535.582C713.477 535.139 712.696 534.531 712.122 533.759C711.554 532.98 711.261 532.082 711.244 531.065H714.96C714.983 531.491 715.122 531.866 715.378 532.19C715.639 532.509 715.986 532.756 716.418 532.932C716.849 533.108 717.335 533.196 717.875 533.196C718.438 533.196 718.935 533.097 719.366 532.898C719.798 532.699 720.136 532.423 720.381 532.071C720.625 531.719 720.747 531.312 720.747 530.852C720.747 530.386 720.616 529.974 720.355 529.616C720.099 529.253 719.73 528.969 719.247 528.764C718.77 528.56 718.202 528.457 717.543 528.457H715.915V525.747H717.543C718.099 525.747 718.591 525.651 719.017 525.457C719.449 525.264 719.784 524.997 720.023 524.656C720.261 524.31 720.381 523.906 720.381 523.446C720.381 523.009 720.276 522.625 720.065 522.295C719.861 521.96 719.571 521.699 719.196 521.511C718.827 521.324 718.395 521.23 717.901 521.23C717.401 521.23 716.943 521.321 716.528 521.503C716.114 521.679 715.781 521.932 715.531 522.261C715.281 522.591 715.148 522.977 715.131 523.42H711.594C711.611 522.415 711.898 521.528 712.455 520.761C713.011 519.994 713.761 519.395 714.705 518.963C715.653 518.526 716.724 518.307 717.918 518.307C719.122 518.307 720.176 518.526 721.08 518.963C721.983 519.401 722.685 519.991 723.185 520.736C723.69 521.474 723.94 522.304 723.935 523.224C723.94 524.202 723.636 525.017 723.023 525.67C722.415 526.324 721.622 526.739 720.645 526.915V527.051C721.929 527.216 722.906 527.662 723.577 528.389C724.253 529.111 724.588 530.014 724.582 531.099C724.588 532.094 724.301 532.977 723.722 533.75C723.148 534.523 722.355 535.131 721.344 535.574C720.332 536.017 719.173 536.239 717.866 536.239ZM728.899 536.222C728.337 536.222 727.854 536.023 727.45 535.625C727.053 535.222 726.854 534.739 726.854 534.176C726.854 533.619 727.053 533.142 727.45 532.744C727.854 532.347 728.337 532.148 728.899 532.148C729.445 532.148 729.922 532.347 730.331 532.744C730.74 533.142 730.945 533.619 730.945 534.176C730.945 534.551 730.848 534.895 730.655 535.207C730.467 535.514 730.22 535.761 729.913 535.949C729.607 536.131 729.268 536.222 728.899 536.222ZM742.917 515.624V535.424C742.917 535.832 742.773 535.976 742.317 536C741.909 536 740.493 536.024 739.341 535.976C739.701 536.552 740.157 537.56 740.301 538.232C742.341 538.232 743.637 538.184 744.573 537.824C745.485 537.416 745.845 536.84 745.845 535.424V515.624H742.917ZM733.917 517.184V519.464H755.037V517.184H733.917ZM739.125 522.248H749.733V523.4H739.125V522.248ZM736.389 520.424V525.224H752.685V520.424H736.389ZM735.789 526.28V528.248H750.165V535.664H753.093V526.28H735.789ZM733.365 529.256V531.44H755.589V529.256H733.365ZM735.597 532.568V534.656H751.725V532.568H735.597ZM766.965 515.648V519.488H769.917V515.648H766.965ZM758.181 517.736V522.896H761.037V520.256H775.773V522.896H778.749V517.736H758.181ZM760.317 522.152V524.48H776.805V522.152H760.317ZM757.989 529.76V532.256H779.085V529.76H757.989ZM760.701 525.92V528.248H776.325V525.92H760.701ZM769.893 530.264L767.301 530.792C769.149 535.064 772.221 537.344 777.717 538.232C778.077 537.464 778.821 536.312 779.421 535.712C774.429 535.184 771.309 533.432 769.893 530.264ZM766.893 520.784V527.432C766.893 530.648 765.837 533.936 757.533 535.832C758.157 536.432 758.997 537.536 759.309 538.16C768.045 535.808 769.797 531.68 769.797 527.456V520.784H766.893ZM796.389 526.88C796.389 532.016 798.525 535.856 801.117 538.424L803.397 537.392C800.973 534.824 799.101 531.488 799.101 526.88C799.101 522.296 800.973 518.96 803.397 516.392L801.117 515.36C798.525 517.928 796.389 521.768 796.389 526.88ZM816.861 515.624C816.141 519.176 814.797 522.608 812.877 524.72C813.477 525.08 814.605 525.896 815.061 526.328C817.005 523.928 818.589 520.112 819.453 516.128L816.861 515.624ZM824.925 519.368V519.992C824.541 530.192 824.085 533.912 823.413 534.752C823.125 535.088 822.909 535.208 822.549 535.208C822.093 535.208 821.277 535.184 820.389 535.088C820.821 535.88 821.109 537.104 821.181 537.92C822.237 537.968 823.245 537.968 823.917 537.824C824.709 537.68 825.237 537.392 825.789 536.576C826.701 535.376 827.133 531.44 827.589 520.664C827.613 520.304 827.637 519.368 827.637 519.368H824.925ZM817.581 519.368L816.261 522.032H826.149V519.368H817.581ZM819.261 520.232C818.349 524.264 816.237 528.776 813.453 530.96C814.197 531.368 815.109 532.04 815.661 532.592C818.277 530.144 820.389 525.392 821.349 521.264L819.261 520.232ZM822.597 520.496C821.493 526.664 819.021 532.928 814.821 535.928C815.613 536.312 816.621 537.032 817.173 537.608C821.133 534.296 823.677 527.768 824.829 521.528L822.597 520.496ZM805.101 528.704L805.797 531.464C808.341 530.72 811.629 529.736 814.653 528.8L814.269 526.256C810.957 527.192 807.453 528.176 805.101 528.704ZM809.421 515.624V538.16H812.061V515.624H809.421ZM806.253 516.992C806.037 519.848 805.629 522.848 804.861 524.768C805.437 525.056 806.469 525.728 806.901 526.064C807.765 523.928 808.341 520.568 808.653 517.4L806.253 516.992ZM806.901 520.256L806.373 523.016H814.053V520.256H806.901ZM840.789 523.352H848.061V525.416H840.789V523.352ZM840.789 519.08H848.061V521.096H840.789V519.08ZM838.197 516.632V527.84H850.797V516.632H838.197ZM838.029 529.904V532.496H851.061V529.904H838.029ZM836.349 534.8V537.392H851.853V534.8H836.349ZM829.317 516.992V519.68H837.285V516.992H829.317ZM829.557 523.904V526.568H836.877V523.904H829.557ZM829.053 533.024L829.701 535.952C832.005 535.208 834.885 534.272 837.573 533.36L837.069 530.6C834.189 531.536 831.117 532.496 829.053 533.024ZM831.981 518.048V533.24L834.717 532.808V518.048H831.981ZM843.261 517.664V526.712H842.997V536.024H845.949V526.712H845.685V517.664H843.261ZM864.477 523.832C862.773 523.832 861.405 525.2 861.405 526.88C861.405 528.584 862.773 529.952 864.477 529.952C866.157 529.952 867.525 528.584 867.525 526.88C867.525 525.2 866.157 523.832 864.477 523.832ZM880.893 517.856V538.136H883.701V517.856H880.893ZM877.245 522.368V525.056H886.869V522.368H877.245ZM881.061 523.448C880.293 526.112 878.613 529.592 876.933 531.512C877.389 532.232 878.013 533.432 878.277 534.272C880.125 531.896 881.829 527.624 882.741 524.192L881.061 523.448ZM885.189 515.84C883.197 516.656 880.173 517.4 877.437 517.808C877.725 518.432 878.085 519.392 878.205 520.04C881.013 519.704 884.301 519.104 886.797 518.192L885.189 515.84ZM883.629 525.176L882.381 526.328C883.101 527.36 884.589 529.784 885.141 531.008L886.821 528.752C886.341 528.152 884.229 525.752 883.629 525.176ZM894.189 515.6V538.136H897.021V515.6H894.189ZM886.461 531.08L886.893 533.84L899.853 531.56L899.421 528.848L886.461 531.08ZM888.021 518.696C889.341 519.752 890.925 521.288 891.597 522.32L893.613 520.52C892.869 519.488 891.213 518.048 889.893 517.064L888.021 518.696ZM887.133 525.008C888.525 526.064 890.205 527.648 890.973 528.704L892.941 526.856C892.125 525.8 890.349 524.336 888.957 523.352L887.133 525.008ZM906.069 523.832V526.304H917.133V523.832H906.069ZM901.773 529.208V531.872H923.253V529.208H901.773ZM911.013 527.672V534.992C911.013 535.328 910.869 535.448 910.389 535.448C909.909 535.448 908.109 535.448 906.573 535.4C907.029 536.144 907.557 537.368 907.749 538.184C909.789 538.184 911.325 538.136 912.453 537.752C913.605 537.32 913.965 536.576 913.965 535.088V527.672H911.013ZM916.197 523.832V524.36C915.309 525.536 913.269 527.24 911.421 528.2C911.853 528.584 912.621 529.376 912.957 529.856C915.309 528.728 917.685 526.856 919.341 525.08L917.517 523.688L916.917 523.832H916.197ZM902.061 519.44V525.32H904.773V521.984H920.133V525.32H922.989V519.44H902.061ZM918.693 515.792C918.117 517.136 917.037 518.936 916.125 520.112L918.477 520.976C919.461 519.92 920.709 518.288 921.813 516.704L918.693 515.792ZM903.669 516.968C904.485 517.976 905.373 519.344 905.709 520.232L908.325 519.032C907.941 518.096 906.981 516.8 906.117 515.864L903.669 516.968ZM909.717 516.44C910.437 517.544 911.181 519.056 911.421 520.016L914.157 518.96C913.845 518 913.029 516.536 912.261 515.48L909.717 516.44ZM927.909 519.512V522.032H932.661V533.144H927.909V535.688H935.277V519.512H927.909ZM926.229 519.512V537.464H928.845V519.512H926.229ZM927.789 525.92V528.416H933.933V525.92H927.789ZM929.637 515.6C929.517 516.92 929.181 518.768 928.845 520.016L931.149 520.52C931.629 519.392 932.229 517.688 932.781 516.056L929.637 515.6ZM938.445 519.344V521.96H945.453V519.344H938.445ZM944.469 519.344V519.896C944.205 529.904 943.893 534.032 943.125 534.848C942.813 535.184 942.549 535.28 942.069 535.28C941.469 535.28 940.029 535.256 938.469 535.136C938.997 535.904 939.381 537.128 939.429 537.92C940.821 537.992 942.285 538.016 943.197 537.872C944.181 537.728 944.853 537.464 945.525 536.528C946.509 535.256 946.797 531.44 947.109 520.64C947.133 520.28 947.133 519.344 947.133 519.344H944.469ZM938.517 515.624C937.749 518.816 936.381 522.08 934.773 524.096C935.445 524.48 936.621 525.296 937.149 525.776C938.781 523.472 940.341 519.824 941.277 516.272L938.517 515.624ZM937.341 526.256C938.493 528.032 940.005 530.384 940.653 531.848L943.101 530.36C942.357 528.944 940.773 526.64 939.597 524.984L937.341 526.256ZM956.541 526.88C956.541 521.768 954.405 517.928 951.813 515.36L949.533 516.392C951.957 518.96 953.829 522.296 953.829 526.88C953.829 531.488 951.957 534.824 949.533 537.392L951.813 538.424C954.405 535.856 956.541 532.016 956.541 526.88Z" fill="black"/>
<path d="M378.151 710.932V708.026L385.438 696.545H387.943V700.568H386.46L381.866 707.838V707.974H392.222V710.932H378.151ZM386.528 714V710.045L386.597 708.759V696.545H390.057V714H386.528ZM396.509 714.222C395.946 714.222 395.463 714.023 395.06 713.625C394.662 713.222 394.463 712.739 394.463 712.176C394.463 711.619 394.662 711.142 395.06 710.744C395.463 710.347 395.946 710.148 396.509 710.148C397.054 710.148 397.531 710.347 397.94 710.744C398.349 711.142 398.554 711.619 398.554 712.176C398.554 712.551 398.457 712.895 398.264 713.207C398.077 713.514 397.83 713.761 397.523 713.949C397.216 714.131 396.878 714.222 396.509 714.222ZM401.43 700.08V703.056H422.79V700.08H401.43ZM413.742 701.28L410.838 701.952C412.662 708.552 415.662 713.52 421.158 716.088C421.638 715.248 422.598 714 423.318 713.352C418.23 711.336 415.182 706.776 413.742 701.28ZM410.43 693.624C410.358 700.128 410.79 709.248 400.95 713.64C401.79 714.264 402.678 715.296 403.134 716.088C413.43 711.12 413.478 700.944 413.598 693.624H410.43ZM429.846 699.576C431.31 700.344 433.182 701.544 434.046 702.384L436.086 700.608C435.15 699.768 433.23 698.664 431.79 697.968L429.846 699.576ZM440.67 695.424V695.832C438.294 700.32 431.814 703.2 425.334 704.232C425.838 704.856 426.414 705.984 426.654 706.704C433.638 705.288 440.43 702.168 443.55 696.384L441.678 695.304L441.222 695.424H440.67ZM433.086 695.424V697.776H441.318V695.424H433.086ZM434.406 693.552C432.774 695.52 429.798 697.536 425.526 698.928C426.15 699.384 427.038 700.368 427.446 701.04C431.934 699.264 435.102 697.008 437.55 694.224L434.406 693.552ZM433.11 708.672C434.598 709.536 436.47 710.88 437.31 711.792L439.542 710.016C438.582 709.08 436.662 707.856 435.198 707.064L433.11 708.672ZM443.694 704.184V704.592C441.462 710.256 434.958 712.776 427.35 713.568C427.83 714.216 428.358 715.392 428.574 716.184C436.83 715.032 443.766 712.2 446.694 705.048L444.774 704.064L444.27 704.184H443.694ZM436.638 704.184V706.584H444.462V704.184H436.638ZM438.318 701.856C436.47 704.136 433.038 706.44 428.022 707.952C428.622 708.456 429.438 709.512 429.774 710.184C435.078 708.264 438.774 705.72 441.462 702.576L438.318 701.856ZM448.782 706.152V708.456H460.926V706.152H448.782ZM449.07 697.68V699.936H460.854V697.68H449.07ZM453.102 704.424C452.07 706.704 450.486 709.704 449.358 711.552L451.878 712.32C453.03 710.4 454.59 707.472 455.766 705L453.102 704.424ZM456.51 707.76C455.742 711.696 453.654 713.208 448.878 713.808C449.358 714.384 449.886 715.392 450.054 716.184C455.766 715.032 458.286 713.016 459.15 707.976L456.51 707.76ZM458.214 693.912C457.83 694.824 457.158 696.12 456.606 696.96L458.454 697.8C459.078 697.056 459.846 695.952 460.638 694.872L458.214 693.912ZM453.63 693.6V704.76H456.27V693.6H453.63ZM449.646 694.872C450.246 695.856 450.798 697.128 450.966 697.968L453.174 697.008C452.958 696.144 452.358 694.92 451.71 694.008L449.646 694.872ZM453.702 698.808C452.67 700.44 450.51 702.144 448.566 702.936C449.094 703.464 449.718 704.424 450.054 705.048C452.07 703.92 454.374 701.832 455.574 699.936L453.702 698.808ZM456.03 699.504L454.686 700.632C455.742 701.376 457.878 703.08 458.766 703.968L460.302 701.976C459.63 701.52 456.894 699.912 456.03 699.504ZM462.51 697.968V700.632H471.318V697.968H462.51ZM462.774 693.6C462.198 697.896 461.022 702.024 459.006 704.472C459.654 704.952 460.83 705.984 461.286 706.512C463.494 703.584 464.934 698.976 465.678 694.008L462.774 693.6ZM467.118 699.6C466.398 706.704 464.31 711.216 458.838 713.616C459.366 714.24 460.206 715.56 460.494 716.256C466.566 713.208 469.038 708.072 470.07 699.864L467.118 699.6ZM464.142 700.104L461.526 700.512C462.702 707.688 464.79 713.256 469.614 716.136C470.046 715.344 470.958 714.192 471.63 713.616C467.214 711.36 465.102 706.176 464.142 700.104ZM451.47 711.576C454.158 712.68 456.942 714.36 458.478 715.704L460.47 713.664C458.838 712.368 455.838 710.688 453.006 709.608L451.47 711.576Z" fill="black"/>
<path d="M7.78977 536.239C6.58523 536.239 5.51136 536.017 4.56818 535.574C3.63068 535.131 2.88636 534.52 2.33523 533.741C1.78409 532.963 1.49716 532.071 1.47443 531.065H5.05398C5.09375 531.741 5.37784 532.29 5.90625 532.71C6.43466 533.131 7.0625 533.341 7.78977 533.341C8.36932 533.341 8.88068 533.213 9.32386 532.957C9.77273 532.696 10.1222 532.335 10.3722 531.875C10.6278 531.409 10.7557 530.875 10.7557 530.273C10.7557 529.659 10.625 529.119 10.3636 528.653C10.108 528.187 9.75284 527.824 9.2983 527.562C8.84375 527.301 8.32386 527.168 7.73864 527.162C7.22727 527.162 6.73011 527.267 6.24716 527.477C5.76989 527.687 5.39773 527.974 5.13068 528.338L1.84943 527.75L2.67614 518.545H13.3466V521.562H5.71875L5.26705 525.935H5.36932C5.67614 525.503 6.1392 525.145 6.75852 524.861C7.37784 524.577 8.07102 524.435 8.83807 524.435C9.8892 524.435 10.8267 524.682 11.6506 525.176C12.4744 525.67 13.125 526.349 13.6023 527.213C14.0795 528.071 14.3153 529.06 14.3097 530.179C14.3153 531.355 14.0426 532.401 13.4915 533.315C12.946 534.224 12.1818 534.94 11.1989 535.463C10.2216 535.98 9.08523 536.239 7.78977 536.239ZM18.4773 536.222C17.9148 536.222 17.4318 536.023 17.0284 535.625C16.6307 535.222 16.4318 534.739 16.4318 534.176C16.4318 533.619 16.6307 533.142 17.0284 532.744C17.4318 532.347 17.9148 532.148 18.4773 532.148C19.0227 532.148 19.5 532.347 19.9091 532.744C20.3182 533.142 20.5227 533.619 20.5227 534.176C20.5227 534.551 20.4261 534.895 20.233 535.207C20.0455 535.514 19.7983 535.761 19.4915 535.949C19.1847 536.131 18.8466 536.222 18.4773 536.222ZM29.4707 525.248V527.984H45.0467V525.248H29.4707ZM30.6707 519.08V521.816H43.8947V519.08H30.6707ZM35.6627 515.624V527.24H38.6627V515.624H35.6627ZM29.4707 534.296L29.8547 537.2C33.2387 536.96 37.9907 536.6 42.4787 536.216V533.624C37.7507 533.888 32.6867 534.176 29.4707 534.296ZM38.6627 530.984C40.4147 533.192 42.2387 536.216 42.8867 538.184L45.6227 536.672C44.8787 534.632 42.9347 531.8 41.1587 529.664L38.6627 530.984ZM33.8147 527.168C33.1907 529.64 31.9907 532.928 30.9107 535.04L33.4787 535.856C34.5827 533.864 35.9507 530.792 37.0067 528.008L33.8147 527.168ZM24.0947 517.832C25.6787 518.504 27.6707 519.656 28.6067 520.52L30.2867 518.168C29.2787 517.328 27.2387 516.296 25.6787 515.72L24.0947 517.832ZM22.7267 524.384C24.3107 524.984 26.3267 526.064 27.2867 526.856L28.8947 524.456C27.8387 523.664 25.7747 522.728 24.2147 522.2L22.7267 524.384ZM23.3987 535.976L25.8947 537.848C27.2387 535.52 28.6547 532.784 29.8307 530.24L27.6467 528.416C26.3267 531.176 24.5987 534.176 23.3987 535.976ZM55.1747 517.928V520.256H65.1347V525.176H55.0787V527.504H67.8707V517.928H55.1747ZM59.8307 515.6V538.136H62.5907V515.6H59.8307ZM54.2147 521.48V523.928H69.3347V521.48H54.2147ZM53.7827 532.352V534.824H69.0707V532.352H53.7827ZM54.7427 528.704V531.056H68.1107V528.704H54.7427ZM52.1507 520.952C50.7827 523.28 48.5027 525.632 46.5107 527.144C46.9187 527.864 47.6387 529.424 47.8307 530.048C50.1827 528.056 52.8947 524.864 54.5987 521.984L52.1507 520.952ZM51.5987 515.672C50.6147 517.256 48.5747 519.224 46.7267 520.376C47.1827 520.952 47.8787 522.128 48.1667 522.8C50.3747 521.336 52.7747 518.96 54.3347 516.752L51.5987 515.672ZM49.8947 526.304V538.16H52.5827V523.808L52.4627 523.736L49.8947 526.304ZM82.0547 523.832C80.3507 523.832 78.9827 525.2 78.9827 526.88C78.9827 528.584 80.3507 529.952 82.0547 529.952C83.7347 529.952 85.1027 528.584 85.1027 526.88C85.1027 525.2 83.7347 523.832 82.0547 523.832ZM95.3747 519.32V521.84H104.183V519.32H95.3747ZM94.9667 524.888V527.48H104.567V524.888H94.9667ZM98.4707 515.864V524.528C98.4707 528.176 98.2307 533.168 94.6547 535.784C95.3027 536.288 96.2147 537.272 96.5987 537.872C100.631 534.56 101.183 529.016 101.183 524.528V515.864H98.4707ZM100.799 527.888L99.0227 529.232C100.055 530.432 102.071 533.072 102.959 534.536L104.903 532.448C104.303 531.728 101.615 528.632 100.799 527.888ZM107.975 522.704H113.231V524.096H107.975V522.704ZM107.975 526.376H113.231V527.792H107.975V526.376ZM107.975 519.008H113.231V520.4H107.975V519.008ZM105.311 516.464V530.336H115.991V516.464H105.311ZM110.759 529.448V534.512C110.759 536.864 111.215 537.68 113.351 537.68C113.759 537.68 114.551 537.68 114.959 537.68C116.663 537.68 117.311 536.816 117.551 533.384C116.855 533.192 115.703 532.76 115.199 532.328C115.127 534.872 115.055 535.208 114.671 535.208C114.503 535.208 113.975 535.208 113.831 535.208C113.471 535.208 113.447 535.136 113.447 534.464V529.448H110.759ZM106.871 529.928C106.583 532.688 105.959 534.8 102.239 536.024C102.791 536.528 103.511 537.536 103.799 538.184C108.215 536.528 109.199 533.672 109.583 529.928H106.871ZM131.807 518.552V532.136H134.591V518.552H131.807ZM137.471 516.104V534.656C137.471 535.112 137.279 535.256 136.823 535.256C136.319 535.28 134.759 535.28 133.175 535.208C133.607 536.024 134.063 537.368 134.183 538.184C136.391 538.184 137.999 538.088 139.007 537.632C139.967 537.152 140.327 536.36 140.327 534.68V516.104H137.471ZM121.679 532.352C121.031 533.888 119.855 535.472 118.583 536.504C119.279 536.888 120.455 537.728 121.007 538.232C122.279 537.008 123.695 535.04 124.511 533.12L121.679 532.352ZM125.615 533.408C126.647 534.728 127.727 536.576 128.183 537.776L130.823 536.528C130.295 535.328 129.191 533.624 128.111 532.376L125.615 533.408ZM122.855 523.328H127.103V525.32H122.855V523.328ZM122.855 527.6H127.103V529.592H122.855V527.6ZM122.855 519.104H127.103V521.072H122.855V519.104ZM120.143 516.56V532.136H129.959V516.56H120.143Z" fill="black"/>
<path d="M362.114 23.2386C361.216 23.233 360.349 23.0824 359.514 22.7869C358.685 22.4915 357.94 22.0114 357.281 21.3466C356.622 20.6818 356.099 19.8011 355.713 18.7045C355.332 17.608 355.142 16.2614 355.142 14.6648C355.148 13.1989 355.315 11.8892 355.645 10.7358C355.98 9.5767 356.457 8.59375 357.077 7.78693C357.702 6.98011 358.449 6.36648 359.318 5.94602C360.188 5.51989 361.162 5.30682 362.241 5.30682C363.406 5.30682 364.435 5.53409 365.327 5.98864C366.219 6.4375 366.935 7.0483 367.474 7.82102C368.02 8.59375 368.349 9.46023 368.463 10.4205H364.824C364.682 9.8125 364.384 9.33523 363.929 8.98864C363.474 8.64205 362.912 8.46875 362.241 8.46875C361.105 8.46875 360.241 8.96307 359.651 9.9517C359.065 10.9403 358.767 12.2841 358.756 13.983H358.875C359.136 13.4659 359.489 13.0256 359.932 12.6619C360.381 12.2926 360.889 12.0114 361.457 11.8182C362.031 11.6193 362.636 11.5199 363.273 11.5199C364.307 11.5199 365.227 11.7642 366.034 12.2528C366.841 12.7358 367.477 13.4006 367.943 14.2472C368.409 15.0937 368.642 16.0625 368.642 17.1534C368.642 18.3352 368.366 19.3864 367.815 20.3068C367.27 21.2273 366.506 21.9489 365.523 22.4716C364.545 22.9886 363.409 23.2443 362.114 23.2386ZM362.097 20.3409C362.665 20.3409 363.173 20.2045 363.622 19.9318C364.071 19.6591 364.423 19.2898 364.679 18.8239C364.935 18.358 365.062 17.8352 365.062 17.2557C365.062 16.6761 364.935 16.1562 364.679 15.696C364.429 15.2358 364.082 14.8693 363.639 14.5966C363.196 14.3239 362.69 14.1875 362.122 14.1875C361.696 14.1875 361.301 14.267 360.938 14.4261C360.58 14.5852 360.264 14.8068 359.991 15.0909C359.724 15.375 359.514 15.7045 359.361 16.0795C359.207 16.4489 359.131 16.8437 359.131 17.2642C359.131 17.8267 359.259 18.3409 359.514 18.8068C359.776 19.2727 360.128 19.6449 360.571 19.9233C361.02 20.2017 361.528 20.3409 362.097 20.3409ZM372.688 23.2216C372.126 23.2216 371.643 23.0227 371.239 22.625C370.842 22.2216 370.643 21.7386 370.643 21.1761C370.643 20.6193 370.842 20.142 371.239 19.7443C371.643 19.3466 372.126 19.1477 372.688 19.1477C373.234 19.1477 373.711 19.3466 374.12 19.7443C374.529 20.142 374.734 20.6193 374.734 21.1761C374.734 21.5511 374.637 21.8949 374.444 22.2074C374.256 22.5142 374.009 22.7614 373.702 22.9489C373.396 23.1307 373.058 23.2216 372.688 23.2216ZM392.85 7.976C390.354 15.8 385.194 20.24 376.89 22.424C377.466 23.12 378.378 24.512 378.714 25.232C387.306 22.544 392.898 17.504 395.922 8.864L392.85 7.976ZM383.586 8.168L380.706 9.032C383.706 17.336 388.65 22.832 397.65 25.184C398.106 24.344 399.042 22.976 399.738 22.304C391.194 20.384 386.01 15.272 383.586 8.168ZM377.322 6.416V9.248H399.306V6.416H377.322ZM386.754 2.624V8.144H389.73V2.624H386.754ZM411.714 3.248V20.504C411.714 23.912 412.602 24.872 415.626 24.872C416.274 24.872 419.058 24.872 419.754 24.872C422.586 24.872 423.354 23.336 423.714 19.184C422.898 19.016 421.722 18.488 421.026 17.984C420.858 21.368 420.666 22.208 419.49 22.208C418.914 22.208 416.514 22.208 415.986 22.208C414.81 22.208 414.642 21.968 414.642 20.528V3.248H411.714ZM420.714 7.256C418.578 9.08 415.386 11.24 412.41 12.656C412.818 13.28 413.37 14.288 413.562 14.96C416.682 13.496 420.114 11.696 422.826 9.776L420.714 7.256ZM407.082 2.936C405.594 6.56 403.074 10.112 400.482 12.344C401.01 13.064 401.85 14.648 402.138 15.392C405.162 12.608 408.114 8.168 409.914 3.896L407.082 2.936ZM404.538 9.704V25.112H407.418V6.92L407.37 6.872L404.538 9.704ZM436.266 10.832C434.562 10.832 433.194 12.2 433.194 13.88C433.194 15.584 434.562 16.952 436.266 16.952C437.946 16.952 439.314 15.584 439.314 13.88C439.314 12.2 437.946 10.832 436.266 10.832ZM452.346 15.056V25.208H455.202V17.24H465.498V25.208H468.498V15.056H452.346ZM453.786 18.608V20.768H466.266V18.608H453.786ZM453.93 22.184V24.344H466.386V22.184H453.93ZM458.73 12.872C458.514 13.784 458.034 15.056 457.602 15.992L459.954 16.496C460.506 15.728 461.202 14.528 461.826 13.304L458.73 12.872ZM449.73 3.704V5.912H457.482V3.704H449.73ZM456.834 3.704V11.648C456.834 11.888 456.738 11.984 456.45 11.984C456.186 11.984 455.274 11.984 454.434 11.96C454.722 12.536 455.058 13.376 455.154 14C456.618 14 457.674 14 458.442 13.664C459.186 13.328 459.426 12.776 459.426 11.648V3.704H456.834ZM460.698 3.704V5.912H468.978V3.704H460.698ZM467.634 3.704V11.552C467.634 11.84 467.538 11.888 467.226 11.912C466.938 11.936 465.858 11.936 464.97 11.888C465.282 12.488 465.594 13.4 465.714 14.048C467.298 14.072 468.45 14.048 469.266 13.712C470.082 13.328 470.322 12.752 470.322 11.576V3.704H467.634ZM460.002 10.76L460.962 12.896C462.762 12.272 464.994 11.432 467.058 10.64L466.626 8.576C464.202 9.44 461.706 10.256 460.002 10.76ZM461.13 7.328C462.21 7.928 463.626 8.84 464.274 9.512L465.714 7.64C465.018 6.992 463.578 6.152 462.498 5.648L461.13 7.328ZM449.082 11.168L450.114 13.52C451.794 12.848 453.834 11.984 455.778 11.144L455.37 9.08C453.042 9.896 450.69 10.712 449.082 11.168ZM450.354 7.352C451.434 7.952 452.778 8.888 453.402 9.536L454.842 7.712C454.194 7.064 452.802 6.224 451.746 5.696L450.354 7.352ZM484.338 15.92H490.986V16.856H484.338V15.92ZM484.338 18.584H490.986V19.52H484.338V18.584ZM484.338 13.28H490.986V14.216H484.338V13.28ZM481.65 11.456V21.344H493.818V11.456H481.65ZM488.706 22.376C490.338 23.24 492.234 24.44 493.29 25.184L495.546 23.576C494.322 22.832 492.258 21.704 490.458 20.816L488.706 22.376ZM484.698 5.24H491.034L490.818 8.864H484.362L484.698 5.24ZM482.394 3.392L481.722 10.712H493.266L493.746 3.392H482.394ZM486.594 4.352C486.522 6.056 486.378 8.144 486.162 9.536H488.538C488.706 8.192 488.922 6.104 489.042 4.352H486.594ZM484.314 21.056C483.21 21.944 481.218 22.76 479.346 23.24C479.922 23.72 480.858 24.752 481.29 25.28C483.258 24.536 485.514 23.312 486.882 21.944L484.314 21.056ZM480.018 5.792V8.24H483.57V7.88H491.826V8.24H495.546V5.792H491.826V6.152H483.57V5.792H480.018ZM475.674 2.624V25.16H478.266V2.624H475.674ZM473.754 7.376C473.73 9.512 473.442 12.152 472.722 13.664L474.426 14.408C475.218 12.656 475.53 9.848 475.482 7.616L473.754 7.376ZM477.978 7.208C478.53 8.816 478.962 10.928 479.01 12.2L480.738 11.624C480.666 10.352 480.186 8.336 479.586 6.728L477.978 7.208Z" fill="black"/>
<path d="M711.415 202V199.341L717.628 193.588C718.156 193.077 718.599 192.616 718.957 192.207C719.321 191.798 719.597 191.398 719.784 191.006C719.972 190.608 720.065 190.179 720.065 189.719C720.065 189.207 719.949 188.767 719.716 188.398C719.483 188.023 719.165 187.736 718.761 187.537C718.358 187.332 717.901 187.23 717.389 187.23C716.855 187.23 716.389 187.338 715.991 187.554C715.594 187.77 715.287 188.08 715.071 188.483C714.855 188.886 714.747 189.366 714.747 189.923H711.244C711.244 188.781 711.503 187.79 712.02 186.949C712.537 186.108 713.261 185.457 714.193 184.997C715.125 184.537 716.199 184.307 717.415 184.307C718.665 184.307 719.753 184.528 720.679 184.972C721.611 185.409 722.335 186.017 722.852 186.795C723.369 187.574 723.628 188.466 723.628 189.472C723.628 190.131 723.497 190.781 723.236 191.423C722.98 192.065 722.523 192.778 721.864 193.562C721.205 194.341 720.276 195.276 719.077 196.366L716.528 198.864V198.983H723.858V202H711.415ZM728.688 202.222C728.126 202.222 727.643 202.023 727.239 201.625C726.842 201.222 726.643 200.739 726.643 200.176C726.643 199.619 726.842 199.142 727.239 198.744C727.643 198.347 728.126 198.148 728.688 198.148C729.234 198.148 729.711 198.347 730.12 198.744C730.529 199.142 730.734 199.619 730.734 200.176C730.734 200.551 730.637 200.895 730.444 201.207C730.256 201.514 730.009 201.761 729.702 201.949C729.396 202.131 729.058 202.222 728.688 202.222ZM733.658 186.28V189.208H754.898V186.28H733.658ZM738.602 197.176V200.104H749.738V197.176H738.602ZM742.706 181.624V204.16H745.778V181.624H742.706ZM741.842 187.336C740.138 191.752 736.658 196.072 732.722 198.232C733.37 198.808 734.33 199.912 734.81 200.632C739.01 197.992 742.418 193.408 744.482 188.176L741.842 187.336ZM746.642 187.408L744.026 188.272C746.114 193.384 749.474 197.968 753.698 200.56C754.178 199.744 755.21 198.544 755.93 197.944C751.898 195.856 748.394 191.68 746.642 187.408ZM760.61 181.504C760.106 183.424 759.122 185.968 758.258 187.6L760.754 188.248C761.666 186.712 762.746 184.36 763.61 182.152L760.61 181.504ZM756.986 186.424L757.202 189.16C759.938 188.992 763.634 188.776 767.162 188.512L767.186 186.016C763.466 186.184 759.578 186.352 756.986 186.424ZM758.402 190.288V204.136H761.066V192.664H766.034V190.288H758.402ZM764.666 190.288V201.184C764.666 201.496 764.57 201.568 764.282 201.568C763.97 201.592 763.01 201.592 762.17 201.544C762.53 202.24 762.938 203.344 763.082 204.112C764.546 204.112 765.626 204.064 766.466 203.632C767.282 203.2 767.522 202.48 767.522 201.256V190.288H764.666ZM759.626 193.912V196.048H766.274V193.912H759.626ZM759.626 197.44V199.576H766.274V197.44H759.626ZM769.394 181.72V188.968C769.394 191.632 770.09 192.448 772.922 192.448C773.474 192.448 775.634 192.448 776.234 192.448C778.466 192.448 779.234 191.584 779.546 188.464C778.754 188.296 777.578 187.864 776.978 187.408C776.882 189.52 776.738 189.88 775.946 189.88C775.442 189.88 773.714 189.88 773.33 189.88C772.418 189.88 772.274 189.76 772.274 188.92V181.72H769.394ZM776.594 183.136C775.01 184.048 772.538 185.128 770.306 185.824C770.618 186.376 771.002 187.24 771.122 187.816C773.498 187.168 776.282 186.256 778.418 185.224L776.594 183.136ZM769.394 192.928V200.512C769.394 203.176 770.114 203.992 772.946 203.992C773.522 203.992 775.754 203.992 776.354 203.992C778.658 203.992 779.426 203.032 779.738 199.648C778.946 199.48 777.794 199.024 777.194 198.592C777.074 201.04 776.93 201.472 776.09 201.472C775.562 201.472 773.762 201.472 773.354 201.472C772.418 201.472 772.25 201.376 772.25 200.488V192.928H769.394ZM776.786 193.936C775.154 194.992 772.586 196.168 770.258 196.912C770.546 197.464 770.954 198.376 771.098 198.928C773.57 198.232 776.474 197.224 778.658 196.048L776.786 193.936ZM763.874 184.144C765.026 185.944 766.178 188.344 766.586 189.88L769.202 188.824C768.746 187.24 767.498 184.96 766.322 183.232L763.874 184.144Z" fill="black"/>
<path d="M425.259 368.384C423.793 368.378 422.531 368.017 421.474 367.301C420.423 366.585 419.614 365.548 419.045 364.19C418.483 362.832 418.205 361.199 418.21 359.29C418.21 357.386 418.491 355.764 419.054 354.423C419.622 353.082 420.432 352.062 421.483 351.364C422.54 350.659 423.798 350.307 425.259 350.307C426.719 350.307 427.974 350.659 429.026 351.364C430.082 352.068 430.895 353.091 431.463 354.432C432.031 355.767 432.313 357.386 432.307 359.29C432.307 361.205 432.023 362.841 431.455 364.199C430.892 365.557 430.085 366.594 429.034 367.31C427.983 368.026 426.724 368.384 425.259 368.384ZM425.259 365.324C426.259 365.324 427.057 364.821 427.653 363.815C428.25 362.81 428.545 361.301 428.54 359.29C428.54 357.966 428.403 356.864 428.131 355.983C427.864 355.102 427.483 354.44 426.989 353.997C426.5 353.554 425.923 353.332 425.259 353.332C424.264 353.332 423.469 353.83 422.872 354.824C422.276 355.818 421.974 357.307 421.969 359.29C421.969 360.631 422.102 361.75 422.369 362.648C422.642 363.54 423.026 364.21 423.52 364.659C424.014 365.102 424.594 365.324 425.259 365.324Z" fill="black"/>
<circle cx="283" cy="502" r="5" fill="#313131"/>
<path d="M265.825 508V506.449L269.45 503.093C269.758 502.795 270.016 502.526 270.225 502.288C270.437 502.049 270.598 501.815 270.707 501.587C270.817 501.355 270.871 501.104 270.871 500.836C270.871 500.538 270.804 500.281 270.668 500.065C270.532 499.847 270.346 499.679 270.111 499.563C269.875 499.444 269.609 499.384 269.31 499.384C268.999 499.384 268.727 499.447 268.495 499.573C268.263 499.699 268.084 499.88 267.958 500.115C267.832 500.35 267.769 500.63 267.769 500.955H265.726C265.726 500.289 265.877 499.711 266.178 499.22C266.48 498.73 266.902 498.35 267.446 498.082C267.99 497.813 268.616 497.679 269.325 497.679C270.054 497.679 270.689 497.808 271.229 498.067C271.773 498.322 272.196 498.677 272.497 499.131C272.799 499.585 272.95 500.105 272.95 500.692C272.95 501.076 272.873 501.456 272.721 501.83C272.572 502.205 272.305 502.621 271.92 503.078C271.536 503.532 270.994 504.077 270.295 504.714L268.808 506.17V506.24H273.084V508H265.825Z" fill="black"/>
<circle cx="544" cy="170" r="5" fill="#313131"/>
<path d="M530.589 176.139C529.846 176.139 529.185 176.012 528.605 175.756C528.028 175.498 527.573 175.143 527.238 174.692C526.906 174.238 526.736 173.715 526.726 173.121H528.893C528.907 173.37 528.988 173.589 529.137 173.778C529.29 173.963 529.492 174.107 529.744 174.21C529.996 174.313 530.279 174.364 530.594 174.364C530.922 174.364 531.212 174.306 531.464 174.19C531.716 174.074 531.913 173.914 532.055 173.708C532.198 173.503 532.269 173.266 532.269 172.997C532.269 172.725 532.193 172.485 532.04 172.276C531.891 172.064 531.676 171.898 531.394 171.779C531.116 171.66 530.784 171.6 530.4 171.6H529.45V170.019H530.4C530.725 170.019 531.011 169.963 531.26 169.85C531.512 169.737 531.707 169.582 531.847 169.383C531.986 169.181 532.055 168.945 532.055 168.677C532.055 168.422 531.994 168.198 531.871 168.006C531.752 167.81 531.583 167.658 531.364 167.548C531.149 167.439 530.897 167.384 530.609 167.384C530.317 167.384 530.05 167.437 529.808 167.543C529.566 167.646 529.372 167.794 529.227 167.986C529.081 168.178 529.003 168.403 528.993 168.662H526.93C526.94 168.075 527.107 167.558 527.432 167.111C527.757 166.663 528.194 166.314 528.744 166.062C529.298 165.807 529.923 165.679 530.619 165.679C531.321 165.679 531.936 165.807 532.463 166.062C532.99 166.317 533.399 166.662 533.691 167.096C533.986 167.527 534.132 168.011 534.129 168.548C534.132 169.118 533.955 169.593 533.597 169.974C533.242 170.356 532.78 170.598 532.21 170.7V170.78C532.959 170.876 533.529 171.136 533.92 171.56C534.314 171.981 534.51 172.508 534.506 173.141C534.51 173.721 534.342 174.237 534.004 174.688C533.67 175.138 533.207 175.493 532.617 175.751C532.027 176.01 531.351 176.139 530.589 176.139Z" fill="black"/>
<circle cx="625" cy="246" r="5" fill="#313131"/>
<path d="M607.671 250.21V248.515L611.922 241.818H613.384V244.165H612.518L609.839 248.406V248.485H615.879V250.21H607.671ZM612.558 252V249.693L612.598 248.942V241.818H614.616V252H612.558Z" fill="black"/>
<circle cx="681" cy="215" r="5" fill="#313131"/>
<path d="M667.544 221.139C666.841 221.139 666.215 221.01 665.665 220.751C665.118 220.493 664.684 220.137 664.362 219.683C664.041 219.228 663.873 218.708 663.86 218.121H665.948C665.971 218.516 666.137 218.836 666.445 219.081C666.754 219.326 667.12 219.449 667.544 219.449C667.882 219.449 668.18 219.374 668.439 219.225C668.701 219.073 668.905 218.862 669.05 218.594C669.2 218.322 669.274 218.01 669.274 217.659C669.274 217.301 669.198 216.986 669.045 216.714C668.896 216.443 668.689 216.231 668.424 216.078C668.159 215.926 667.856 215.848 667.514 215.844C667.216 215.844 666.926 215.906 666.644 216.028C666.366 216.151 666.149 216.318 665.993 216.531L664.079 216.188L664.561 210.818H670.786V212.578H666.336L666.072 215.129H666.132C666.311 214.877 666.581 214.668 666.942 214.502C667.304 214.336 667.708 214.254 668.156 214.254C668.769 214.254 669.316 214.398 669.796 214.686C670.277 214.974 670.656 215.371 670.935 215.874C671.213 216.375 671.351 216.951 671.347 217.604C671.351 218.29 671.192 218.9 670.87 219.434C670.552 219.964 670.106 220.382 669.533 220.687C668.963 220.988 668.3 221.139 667.544 221.139Z" fill="black"/>
<circle cx="333" cy="561" r="5" fill="#313131"/>
<path d="M319.544 567.139C318.841 567.139 318.215 567.01 317.665 566.751C317.118 566.493 316.684 566.137 316.362 565.683C316.041 565.228 315.873 564.708 315.86 564.121H317.948C317.971 564.516 318.137 564.836 318.445 565.081C318.754 565.326 319.12 565.449 319.544 565.449C319.882 565.449 320.18 565.374 320.439 565.225C320.701 565.073 320.905 564.862 321.05 564.594C321.2 564.322 321.274 564.01 321.274 563.659C321.274 563.301 321.198 562.986 321.045 562.714C320.896 562.443 320.689 562.231 320.424 562.078C320.159 561.926 319.856 561.848 319.514 561.844C319.216 561.844 318.926 561.906 318.644 562.028C318.366 562.151 318.149 562.318 317.993 562.531L316.079 562.188L316.561 556.818H322.786V558.578H318.336L318.072 561.129H318.132C318.311 560.877 318.581 560.668 318.942 560.502C319.304 560.336 319.708 560.254 320.156 560.254C320.769 560.254 321.316 560.398 321.796 560.686C322.277 560.974 322.656 561.371 322.935 561.874C323.213 562.375 323.351 562.951 323.347 563.604C323.351 564.29 323.192 564.9 322.87 565.434C322.552 565.964 322.106 566.382 321.533 566.687C320.963 566.988 320.3 567.139 319.544 567.139Z" fill="black"/>
<circle cx="333" cy="561" r="5" fill="#313131"/>
<path d="M319.544 567.139C318.841 567.139 318.215 567.01 317.665 566.751C317.118 566.493 316.684 566.137 316.362 565.683C316.041 565.228 315.873 564.708 315.86 564.121H317.948C317.971 564.516 318.137 564.836 318.445 565.081C318.754 565.326 319.12 565.449 319.544 565.449C319.882 565.449 320.18 565.374 320.439 565.225C320.701 565.073 320.905 564.862 321.05 564.594C321.2 564.322 321.274 564.01 321.274 563.659C321.274 563.301 321.198 562.986 321.045 562.714C320.896 562.443 320.689 562.231 320.424 562.078C320.159 561.926 319.856 561.848 319.514 561.844C319.216 561.844 318.926 561.906 318.644 562.028C318.366 562.151 318.149 562.318 317.993 562.531L316.079 562.188L316.561 556.818H322.786V558.578H318.336L318.072 561.129H318.132C318.311 560.877 318.581 560.668 318.942 560.502C319.304 560.336 319.708 560.254 320.156 560.254C320.769 560.254 321.316 560.398 321.796 560.686C322.277 560.974 322.656 561.371 322.935 561.874C323.213 562.375 323.351 562.951 323.347 563.604C323.351 564.29 323.192 564.9 322.87 565.434C322.552 565.964 322.106 566.382 321.533 566.687C320.963 566.988 320.3 567.139 319.544 567.139Z" fill="black"/>
<circle cx="333" cy="561" r="5" fill="#313131"/>
<path d="M319.624 567.139C318.858 567.139 318.177 567.015 317.58 566.766C316.987 566.514 316.521 566.171 316.183 565.737C315.845 565.303 315.676 564.811 315.676 564.261C315.676 563.836 315.772 563.447 315.964 563.092C316.16 562.734 316.425 562.438 316.76 562.202C317.095 561.964 317.469 561.811 317.884 561.745V561.675C317.34 561.566 316.899 561.303 316.561 560.885C316.223 560.464 316.054 559.975 316.054 559.418C316.054 558.891 316.208 558.422 316.516 558.011C316.825 557.597 317.247 557.272 317.784 557.037C318.324 556.798 318.938 556.679 319.624 556.679C320.31 556.679 320.921 556.798 321.458 557.037C321.998 557.276 322.423 557.602 322.731 558.016C323.039 558.427 323.195 558.895 323.198 559.418C323.195 559.978 323.022 560.467 322.681 560.885C322.34 561.303 321.902 561.566 321.369 561.675V561.745C321.776 561.811 322.146 561.964 322.477 562.202C322.812 562.438 323.077 562.734 323.273 563.092C323.472 563.447 323.573 563.836 323.576 564.261C323.573 564.811 323.402 565.303 323.064 565.737C322.726 566.171 322.259 566.514 321.662 566.766C321.069 567.015 320.389 567.139 319.624 567.139ZM319.624 565.558C319.965 565.558 320.263 565.497 320.518 565.374C320.774 565.248 320.973 565.076 321.115 564.857C321.261 564.635 321.334 564.38 321.334 564.092C321.334 563.797 321.259 563.536 321.11 563.311C320.961 563.082 320.759 562.903 320.504 562.774C320.248 562.642 319.955 562.575 319.624 562.575C319.295 562.575 319.002 562.642 318.744 562.774C318.485 562.903 318.281 563.082 318.132 563.311C317.986 563.536 317.913 563.797 317.913 564.092C317.913 564.38 317.985 564.635 318.127 564.857C318.27 565.076 318.47 565.248 318.729 565.374C318.987 565.497 319.286 565.558 319.624 565.558ZM319.624 561.009C319.909 561.009 320.162 560.951 320.384 560.835C320.606 560.719 320.78 560.558 320.906 560.353C321.032 560.147 321.095 559.911 321.095 559.642C321.095 559.377 321.032 559.145 320.906 558.946C320.78 558.744 320.608 558.586 320.389 558.474C320.17 558.358 319.915 558.3 319.624 558.3C319.335 558.3 319.08 558.358 318.858 558.474C318.636 558.586 318.462 558.744 318.336 558.946C318.213 559.145 318.152 559.377 318.152 559.642C318.152 559.911 318.215 560.147 318.341 560.353C318.467 560.558 318.641 560.719 318.863 560.835C319.085 560.951 319.339 561.009 319.624 561.009Z" fill="black"/>
<circle cx="673" cy="301" r="5" fill="#313131"/>
<path d="M659.509 296.679C660.033 296.679 660.537 296.767 661.021 296.942C661.508 297.118 661.942 297.398 662.323 297.783C662.708 298.167 663.011 298.678 663.233 299.314C663.458 299.947 663.573 300.724 663.576 301.646C663.576 302.511 663.478 303.283 663.283 303.962C663.09 304.638 662.814 305.214 662.452 305.688C662.091 306.161 661.655 306.523 661.145 306.771C660.634 307.017 660.064 307.139 659.435 307.139C658.755 307.139 658.155 307.008 657.635 306.746C657.115 306.481 656.695 306.122 656.377 305.668C656.062 305.21 655.872 304.696 655.805 304.126H657.928C658.011 304.498 658.185 304.786 658.45 304.991C658.715 305.194 659.044 305.295 659.435 305.295C660.098 305.295 660.601 305.006 660.946 304.43C661.291 303.85 661.465 303.056 661.468 302.048H661.398C661.246 302.347 661.04 302.603 660.782 302.819C660.523 303.031 660.227 303.195 659.892 303.311C659.561 303.427 659.208 303.485 658.833 303.485C658.233 303.485 657.698 303.344 657.227 303.062C656.757 302.781 656.385 302.393 656.114 301.899C655.842 301.405 655.706 300.842 655.706 300.209C655.703 299.526 655.86 298.918 656.178 298.384C656.496 297.851 656.941 297.433 657.511 297.131C658.084 296.826 658.75 296.676 659.509 296.679ZM659.524 298.369C659.189 298.369 658.891 298.449 658.629 298.608C658.371 298.767 658.165 298.981 658.013 299.249C657.864 299.518 657.791 299.818 657.794 300.149C657.794 300.484 657.867 300.786 658.013 301.054C658.162 301.319 658.364 301.531 658.619 301.69C658.878 301.846 659.173 301.924 659.504 301.924C659.753 301.924 659.983 301.878 660.195 301.785C660.407 301.692 660.591 301.564 660.747 301.402C660.906 301.236 661.031 301.046 661.12 300.83C661.21 300.615 661.254 300.386 661.254 300.144C661.251 299.823 661.175 299.528 661.026 299.259C660.876 298.991 660.671 298.775 660.409 298.613C660.147 298.451 659.852 298.369 659.524 298.369Z" fill="black"/>
<circle cx="639" cy="453" r="5" fill="#313131"/>
<path d="M621.255 448.818V459H619.102V450.862H619.043L616.711 452.323V450.414L619.232 448.818H621.255ZM627.667 459.224C626.812 459.22 626.076 459.01 625.46 458.592C624.847 458.175 624.374 457.57 624.043 456.778C623.715 455.986 623.552 455.033 623.556 453.919C623.556 452.809 623.72 451.862 624.048 451.08C624.379 450.298 624.852 449.703 625.465 449.295C626.081 448.884 626.815 448.679 627.667 448.679C628.519 448.679 629.251 448.884 629.865 449.295C630.481 449.706 630.955 450.303 631.286 451.085C631.618 451.864 631.782 452.809 631.779 453.919C631.779 455.036 631.613 455.991 631.281 456.783C630.953 457.575 630.483 458.18 629.869 458.597C629.256 459.015 628.522 459.224 627.667 459.224ZM627.667 457.439C628.25 457.439 628.716 457.146 629.064 456.559C629.412 455.972 629.584 455.092 629.581 453.919C629.581 453.147 629.502 452.504 629.343 451.99C629.187 451.476 628.965 451.09 628.676 450.832C628.391 450.573 628.055 450.444 627.667 450.444C627.087 450.444 626.623 450.734 626.275 451.314C625.927 451.894 625.751 452.762 625.748 453.919C625.748 454.701 625.826 455.354 625.982 455.878C626.141 456.398 626.365 456.789 626.653 457.051C626.941 457.31 627.279 457.439 627.667 457.439Z" fill="black"/>
<circle cx="670" cy="243" r="5" fill="#313131"/>
<path d="M652.255 238.818V249H650.102V240.862H650.043L647.711 242.323V240.414L650.232 238.818H652.255ZM654.675 249V247.449L658.299 244.093C658.607 243.795 658.866 243.526 659.075 243.288C659.287 243.049 659.448 242.815 659.557 242.587C659.666 242.355 659.721 242.104 659.721 241.836C659.721 241.538 659.653 241.281 659.517 241.065C659.381 240.847 659.196 240.679 658.96 240.563C658.725 240.444 658.458 240.384 658.16 240.384C657.848 240.384 657.577 240.447 657.345 240.573C657.113 240.699 656.934 240.88 656.808 241.115C656.682 241.35 656.619 241.63 656.619 241.955H654.575C654.575 241.289 654.726 240.711 655.028 240.22C655.329 239.73 655.752 239.35 656.296 239.082C656.839 238.813 657.466 238.679 658.175 238.679C658.904 238.679 659.539 238.808 660.079 239.067C660.623 239.322 661.045 239.677 661.347 240.131C661.648 240.585 661.799 241.105 661.799 241.692C661.799 242.076 661.723 242.456 661.57 242.83C661.421 243.205 661.155 243.621 660.77 244.078C660.386 244.532 659.844 245.077 659.144 245.714L657.658 247.17V247.24H661.933V249H654.675Z" fill="black"/>
<circle cx="675" cy="274" r="5" fill="#313131"/>
<path d="M657.255 269.818V280H655.102V271.862H655.043L652.711 273.323V271.414L655.232 269.818H657.255ZM663.438 280.139C662.696 280.139 662.035 280.012 661.455 279.756C660.878 279.498 660.422 279.143 660.088 278.692C659.756 278.238 659.585 277.715 659.575 277.121H661.743C661.756 277.37 661.838 277.589 661.987 277.778C662.139 277.963 662.341 278.107 662.593 278.21C662.845 278.313 663.128 278.364 663.443 278.364C663.771 278.364 664.061 278.306 664.313 278.19C664.565 278.074 664.762 277.914 664.905 277.708C665.048 277.503 665.119 277.266 665.119 276.997C665.119 276.725 665.043 276.485 664.89 276.276C664.741 276.064 664.526 275.898 664.244 275.779C663.965 275.66 663.634 275.6 663.249 275.6H662.3V274.019H663.249C663.574 274.019 663.861 273.963 664.11 273.85C664.361 273.737 664.557 273.582 664.696 273.383C664.835 273.181 664.905 272.945 664.905 272.677C664.905 272.422 664.844 272.198 664.721 272.006C664.602 271.81 664.433 271.658 664.214 271.548C663.999 271.439 663.747 271.384 663.458 271.384C663.167 271.384 662.9 271.437 662.658 271.543C662.416 271.646 662.222 271.794 662.076 271.986C661.93 272.178 661.852 272.403 661.843 272.662H659.779C659.789 272.075 659.957 271.558 660.281 271.111C660.606 270.663 661.044 270.314 661.594 270.062C662.147 269.807 662.772 269.679 663.468 269.679C664.171 269.679 664.786 269.807 665.313 270.062C665.84 270.317 666.249 270.662 666.541 271.096C666.836 271.527 666.981 272.011 666.978 272.548C666.981 273.118 666.804 273.593 666.446 273.974C666.092 274.356 665.629 274.598 665.059 274.7V274.78C665.808 274.876 666.378 275.136 666.769 275.56C667.164 275.981 667.359 276.508 667.356 277.141C667.359 277.721 667.192 278.237 666.854 278.688C666.519 279.138 666.057 279.493 665.467 279.751C664.877 280.01 664.201 280.139 663.438 280.139Z" fill="black"/>
<circle cx="536" cy="511" r="5" fill="#313131"/>
<path d="M518.255 506.818V517H516.102V508.862H516.043L513.711 510.323V508.414L516.232 506.818H518.255ZM525.105 506.818V517H522.952V508.862H522.892L520.561 510.323V508.414L523.081 506.818H525.105Z" fill="black"/>
<circle cx="665" cy="345" r="5" fill="#313131"/>
<path d="M648.228 351L652.449 342.648V342.578H647.532V340.818H654.676V342.603L650.45 351H648.228Z" fill="black"/>
<circle cx="700" cy="199" r="5" fill="#313131"/>
<path d="M686.733 205.139C686.209 205.136 685.704 205.048 685.217 204.876C684.733 204.703 684.299 204.423 683.914 204.036C683.53 203.648 683.225 203.134 682.999 202.494C682.777 201.855 682.666 201.069 682.666 200.138C682.67 199.283 682.767 198.519 682.96 197.846C683.155 197.17 683.433 196.596 683.795 196.126C684.159 195.655 684.595 195.297 685.102 195.052C685.609 194.803 686.178 194.679 686.808 194.679C687.487 194.679 688.087 194.812 688.607 195.077C689.128 195.339 689.545 195.695 689.86 196.146C690.178 196.596 690.371 197.102 690.437 197.662H688.314C688.231 197.307 688.057 197.029 687.792 196.827C687.527 196.625 687.199 196.523 686.808 196.523C686.145 196.523 685.641 196.812 685.296 197.388C684.955 197.965 684.781 198.749 684.774 199.74H684.844C684.996 199.438 685.202 199.182 685.46 198.969C685.722 198.754 686.019 198.59 686.35 198.477C686.685 198.361 687.038 198.303 687.409 198.303C688.012 198.303 688.549 198.446 689.02 198.731C689.491 199.013 689.862 199.4 690.134 199.894C690.405 200.388 690.541 200.953 690.541 201.589C690.541 202.279 690.38 202.892 690.059 203.429C689.741 203.966 689.295 204.387 688.722 204.692C688.152 204.993 687.489 205.143 686.733 205.139ZM686.723 203.449C687.054 203.449 687.351 203.369 687.613 203.21C687.875 203.051 688.08 202.836 688.229 202.564C688.379 202.292 688.453 201.987 688.453 201.649C688.453 201.311 688.379 201.008 688.229 200.739C688.084 200.471 687.881 200.257 687.623 200.098C687.364 199.939 687.069 199.859 686.738 199.859C686.489 199.859 686.259 199.906 686.047 199.999C685.838 200.091 685.654 200.221 685.495 200.386C685.339 200.552 685.217 200.744 685.127 200.963C685.038 201.179 684.993 201.409 684.993 201.654C684.993 201.982 685.067 202.282 685.217 202.554C685.369 202.826 685.575 203.043 685.833 203.205C686.095 203.368 686.392 203.449 686.723 203.449Z" fill="black"/>
<circle cx="645" cy="195" r="5" fill="#313131"/>
<path d="M632.255 190.818V201H630.102V192.862H630.043L627.711 194.323V192.414L630.232 190.818H632.255Z" fill="black"/>
</svg>
