<svg width="575" height="426" viewBox="0 0 575 426" fill="none" xmlns="http://www.w3.org/2000/svg">
<line x1="251.499" y1="212.31" x2="415.194" y2="118.939" stroke="black" stroke-dasharray="8 8"/>
<line x1="251.997" y1="211.72" x2="414.51" y2="305.682" stroke="black" stroke-dasharray="8 8"/>
<line x1="89.4858" y1="117.759" x2="251.999" y2="212.312" stroke="black" stroke-dasharray="8 8"/>
<line x1="252.247" y1="24.2292" x2="252.225" y2="212.744" stroke="black" stroke-dasharray="8 8"/>
<line x1="252.247" y1="212.744" x2="252.247" y2="398.895" stroke="black" stroke-dasharray="8 8"/>
<line x1="251.996" y1="213.178" x2="89.4834" y2="306.549" stroke="black" stroke-dasharray="8 8"/>
<path d="M89.0677 115.525L252.338 21.2608L415.609 115.525V304.054L252.338 398.318L89.0677 304.054V115.525Z" fill="#E9E9E9" fill-opacity="0.5" stroke="#B9B9B9"/>
<path d="M43.6026 109.599V119.781H41.4499V111.643H41.3903L39.0586 113.104V111.195L41.5792 109.599H43.6026ZM48.5717 119.91C48.2436 119.91 47.9619 119.794 47.7266 119.562C47.4945 119.327 47.3785 119.045 47.3785 118.717C47.3785 118.392 47.4945 118.114 47.7266 117.882C47.9619 117.65 48.2436 117.534 48.5717 117.534C48.8899 117.534 49.1683 117.65 49.4069 117.882C49.6456 118.114 49.7649 118.392 49.7649 118.717C49.7649 118.936 49.7086 119.136 49.5959 119.319C49.4865 119.498 49.3423 119.642 49.1633 119.751C48.9844 119.857 48.7872 119.91 48.5717 119.91ZM61.1975 108.441V109.757H67.6515V108.441H61.1975ZM60.9735 112.473V113.789H67.9035V112.473H60.9735ZM60.9735 114.475V115.791H67.8475V114.475H60.9735ZM61.6455 119.151V120.481H67.2175V119.151H61.6455ZM59.8675 110.443V111.801H68.8835V110.443H59.8675ZM60.7495 116.491V121.027H62.3595V117.793H66.4055V120.985H68.0995V116.491H60.7495ZM58.8315 107.923C58.0755 109.925 56.7735 111.913 55.4435 113.173C55.7235 113.579 56.1715 114.503 56.3115 114.895C57.9075 113.313 59.4475 110.807 60.3995 108.427L58.8315 107.923ZM57.4875 111.801V120.999H59.0835V110.219L59.0695 110.205L57.4875 111.801ZM76.8495 107.909C76.3175 108.567 75.3375 109.393 74.3995 109.981C74.6095 110.261 74.9035 110.779 75.0015 111.087C76.1495 110.499 77.4655 109.659 78.4315 108.819L76.8495 107.909ZM74.2315 109.491V117.793H75.7855V109.911L74.2315 109.491ZM73.2375 117.583L73.8675 119.123C74.9875 118.773 76.3875 118.367 77.6755 117.947L77.4235 116.449C75.8975 116.883 74.3295 117.317 73.2375 117.583ZM77.7315 109.407V121.041H79.3135V110.877H81.8055V109.407H77.7315ZM80.9235 109.407V116.953C80.9235 117.121 80.8675 117.163 80.7275 117.163C80.5735 117.163 80.1255 117.177 79.6775 117.149C79.8875 117.583 80.0695 118.297 80.0975 118.759C80.9515 118.759 81.5395 118.731 81.9735 118.465C82.4215 118.185 82.5335 117.723 82.5335 116.981V109.407H80.9235ZM72.6355 107.923C71.9075 109.925 70.6615 111.913 69.3875 113.173C69.6535 113.579 70.1015 114.475 70.2555 114.867C71.7815 113.271 73.2515 110.779 74.1615 108.413L72.6355 107.923ZM71.2915 111.801V120.999H72.8875V110.219L72.8735 110.205L71.2915 111.801Z" fill="black"/>
<path d="M424.167 317.3C423.425 317.3 422.764 317.172 422.184 316.917C421.607 316.658 421.151 316.304 420.817 315.853C420.485 315.399 420.314 314.875 420.304 314.282H422.472C422.485 314.53 422.567 314.749 422.716 314.938C422.868 315.124 423.07 315.268 423.322 315.371C423.574 315.473 423.857 315.525 424.172 315.525C424.5 315.525 424.79 315.467 425.042 315.351C425.294 315.235 425.491 315.074 425.634 314.868C425.777 314.663 425.848 314.426 425.848 314.158C425.848 313.886 425.772 313.645 425.619 313.437C425.47 313.225 425.255 313.059 424.973 312.94C424.694 312.82 424.363 312.761 423.978 312.761H423.029V311.18H423.978C424.303 311.18 424.59 311.123 424.839 311.011C425.09 310.898 425.286 310.742 425.425 310.543C425.564 310.341 425.634 310.106 425.634 309.837C425.634 309.582 425.573 309.358 425.45 309.166C425.331 308.971 425.162 308.818 424.943 308.709C424.728 308.599 424.476 308.545 424.187 308.545C423.896 308.545 423.629 308.598 423.387 308.704C423.145 308.806 422.951 308.954 422.805 309.146C422.659 309.338 422.581 309.564 422.572 309.822H420.508C420.518 309.236 420.686 308.719 421.01 308.271C421.335 307.824 421.773 307.474 422.323 307.222C422.876 306.967 423.501 306.839 424.197 306.839C424.9 306.839 425.515 306.967 426.042 307.222C426.569 307.477 426.978 307.822 427.27 308.256C427.565 308.687 427.71 309.171 427.707 309.708C427.71 310.278 427.533 310.754 427.175 311.135C426.821 311.516 426.358 311.758 425.788 311.861V311.94C426.537 312.036 427.107 312.297 427.498 312.721C427.893 313.142 428.088 313.669 428.085 314.302C428.088 314.882 427.921 315.397 427.583 315.848C427.248 316.299 426.786 316.653 426.196 316.912C425.606 317.17 424.93 317.3 424.167 317.3ZM430.603 317.29C430.275 317.29 429.993 317.174 429.758 316.942C429.526 316.706 429.41 316.425 429.41 316.096C429.41 315.772 429.526 315.493 429.758 315.261C429.993 315.029 430.275 314.913 430.603 314.913C430.921 314.913 431.2 315.029 431.438 315.261C431.677 315.493 431.796 315.772 431.796 316.096C431.796 316.315 431.74 316.516 431.627 316.698C431.518 316.877 431.374 317.021 431.195 317.131C431.016 317.237 430.819 317.29 430.603 317.29ZM438.78 305.274V316.824C438.78 317.062 438.696 317.146 438.43 317.16C438.192 317.16 437.366 317.174 436.694 317.146C436.904 317.482 437.17 318.07 437.254 318.462C438.444 318.462 439.2 318.434 439.746 318.224C440.278 317.986 440.488 317.65 440.488 316.824V305.274H438.78ZM433.53 306.184V307.514H445.85V306.184H433.53ZM436.568 309.138H442.756V309.81H436.568V309.138ZM434.972 308.074V310.874H444.478V308.074H434.972ZM434.622 311.49V312.638H443.008V316.964H444.716V311.49H434.622ZM433.208 313.226V314.5H446.172V313.226H433.208ZM434.51 315.158V316.376H443.918V315.158H434.51ZM452.808 305.288V307.528H454.53V305.288H452.808ZM447.684 306.506V309.516H449.35V307.976H457.946V309.516H459.682V306.506H447.684ZM448.93 309.082V310.44H458.548V309.082H448.93ZM447.572 313.52V314.976H459.878V313.52H447.572ZM449.154 311.28V312.638H458.268V311.28H449.154ZM454.516 313.814L453.004 314.122C454.082 316.614 455.874 317.944 459.08 318.462C459.29 318.014 459.724 317.342 460.074 316.992C457.162 316.684 455.342 315.662 454.516 313.814ZM452.766 308.284V312.162C452.766 314.038 452.15 315.956 447.306 317.062C447.67 317.412 448.16 318.056 448.342 318.42C453.438 317.048 454.46 314.64 454.46 312.176V308.284H452.766ZM469.972 311.84C469.972 314.836 471.218 317.076 472.73 318.574L474.06 317.972C472.646 316.474 471.554 314.528 471.554 311.84C471.554 309.166 472.646 307.22 474.06 305.722L472.73 305.12C471.218 306.618 469.972 308.858 469.972 311.84ZM481.914 305.274C481.494 307.346 480.71 309.348 479.59 310.58C479.94 310.79 480.598 311.266 480.864 311.518C481.998 310.118 482.922 307.892 483.426 305.568L481.914 305.274ZM486.618 307.458V307.822C486.394 313.772 486.128 315.942 485.736 316.432C485.568 316.628 485.442 316.698 485.232 316.698C484.966 316.698 484.49 316.684 483.972 316.628C484.224 317.09 484.392 317.804 484.434 318.28C485.05 318.308 485.638 318.308 486.03 318.224C486.492 318.14 486.8 317.972 487.122 317.496C487.654 316.796 487.906 314.5 488.172 308.214C488.186 308.004 488.2 307.458 488.2 307.458H486.618ZM482.334 307.458L481.564 309.012H487.332V307.458H482.334ZM483.314 307.962C482.782 310.314 481.55 312.946 479.926 314.22C480.36 314.458 480.892 314.85 481.214 315.172C482.74 313.744 483.972 310.972 484.532 308.564L483.314 307.962ZM485.26 308.116C484.616 311.714 483.174 315.368 480.724 317.118C481.186 317.342 481.774 317.762 482.096 318.098C484.406 316.166 485.89 312.358 486.562 308.718L485.26 308.116ZM475.054 312.904L475.46 314.514C476.944 314.08 478.862 313.506 480.626 312.96L480.402 311.476C478.47 312.022 476.426 312.596 475.054 312.904ZM477.574 305.274V318.42H479.114V305.274H477.574ZM475.726 306.072C475.6 307.738 475.362 309.488 474.914 310.608C475.25 310.776 475.852 311.168 476.104 311.364C476.608 310.118 476.944 308.158 477.126 306.31L475.726 306.072ZM476.104 307.976L475.796 309.586H480.276V307.976H476.104ZM495.872 309.782H500.114V310.986H495.872V309.782ZM495.872 307.29H500.114V308.466H495.872V307.29ZM494.36 305.862V312.4H501.71V305.862H494.36ZM494.262 313.604V315.116H501.864V313.604H494.262ZM493.282 316.46V317.972H502.326V316.46H493.282ZM489.18 306.072V307.64H493.828V306.072H489.18ZM489.32 310.104V311.658H493.59V310.104H489.32ZM489.026 315.424L489.404 317.132C490.748 316.698 492.428 316.152 493.996 315.62L493.702 314.01C492.022 314.556 490.23 315.116 489.026 315.424ZM490.734 306.688V315.55L492.33 315.298V306.688H490.734ZM497.314 306.464V311.742H497.16V317.174H498.882V311.742H498.728V306.464H497.314ZM509.69 310.062C508.696 310.062 507.898 310.86 507.898 311.84C507.898 312.834 508.696 313.632 509.69 313.632C510.67 313.632 511.468 312.834 511.468 311.84C511.468 310.86 510.67 310.062 509.69 310.062ZM519.266 306.576V318.406H520.904V306.576H519.266ZM517.138 309.208V310.776H522.752V309.208H517.138ZM519.364 309.838C518.916 311.392 517.936 313.422 516.956 314.542C517.222 314.962 517.586 315.662 517.74 316.152C518.818 314.766 519.812 312.274 520.344 310.272L519.364 309.838ZM521.772 305.4C520.61 305.876 518.846 306.31 517.25 306.548C517.418 306.912 517.628 307.472 517.698 307.85C519.336 307.654 521.254 307.304 522.71 306.772L521.772 305.4ZM520.862 310.846L520.134 311.518C520.554 312.12 521.422 313.534 521.744 314.248L522.724 312.932C522.444 312.582 521.212 311.182 520.862 310.846ZM527.022 305.26V318.406H528.674V305.26H527.022ZM522.514 314.29L522.766 315.9L530.326 314.57L530.074 312.988L522.514 314.29ZM523.424 307.066C524.194 307.682 525.118 308.578 525.51 309.18L526.686 308.13C526.252 307.528 525.286 306.688 524.516 306.114L523.424 307.066ZM522.906 310.748C523.718 311.364 524.698 312.288 525.146 312.904L526.294 311.826C525.818 311.21 524.782 310.356 523.97 309.782L522.906 310.748ZM533.952 310.062V311.504H540.406V310.062H533.952ZM531.446 313.198V314.752H543.976V313.198H531.446ZM536.836 312.302V316.572C536.836 316.768 536.752 316.838 536.472 316.838C536.192 316.838 535.142 316.838 534.246 316.81C534.512 317.244 534.82 317.958 534.932 318.434C536.122 318.434 537.018 318.406 537.676 318.182C538.348 317.93 538.558 317.496 538.558 316.628V312.302H536.836ZM539.86 310.062V310.37C539.342 311.056 538.152 312.05 537.074 312.61C537.326 312.834 537.774 313.296 537.97 313.576C539.342 312.918 540.728 311.826 541.694 310.79L540.63 309.978L540.28 310.062H539.86ZM531.614 307.5V310.93H533.196V308.984H542.156V310.93H543.822V307.5H531.614ZM541.316 305.372C540.98 306.156 540.35 307.206 539.818 307.892L541.19 308.396C541.764 307.78 542.492 306.828 543.136 305.904L541.316 305.372ZM532.552 306.058C533.028 306.646 533.546 307.444 533.742 307.962L535.268 307.262C535.044 306.716 534.484 305.96 533.98 305.414L532.552 306.058ZM536.08 305.75C536.5 306.394 536.934 307.276 537.074 307.836L538.67 307.22C538.488 306.66 538.012 305.806 537.564 305.19L536.08 305.75ZM546.692 307.542V309.012H549.464V315.494H546.692V316.978H550.99V307.542H546.692ZM545.712 307.542V318.014H547.238V307.542H545.712ZM546.622 311.28V312.736H550.206V311.28H546.622ZM547.7 305.26C547.63 306.03 547.434 307.108 547.238 307.836L548.582 308.13C548.862 307.472 549.212 306.478 549.534 305.526L547.7 305.26ZM552.838 307.444V308.97H556.926V307.444H552.838ZM556.352 307.444V307.766C556.198 313.604 556.016 316.012 555.568 316.488C555.386 316.684 555.232 316.74 554.952 316.74C554.602 316.74 553.762 316.726 552.852 316.656C553.16 317.104 553.384 317.818 553.412 318.28C554.224 318.322 555.078 318.336 555.61 318.252C556.184 318.168 556.576 318.014 556.968 317.468C557.542 316.726 557.71 314.5 557.892 308.2C557.906 307.99 557.906 307.444 557.906 307.444H556.352ZM552.88 305.274C552.432 307.136 551.634 309.04 550.696 310.216C551.088 310.44 551.774 310.916 552.082 311.196C553.034 309.852 553.944 307.724 554.49 305.652L552.88 305.274ZM552.194 311.476C552.866 312.512 553.748 313.884 554.126 314.738L555.554 313.87C555.12 313.044 554.196 311.7 553.51 310.734L552.194 311.476ZM563.394 311.84C563.394 308.858 562.148 306.618 560.636 305.12L559.306 305.722C560.72 307.22 561.812 309.166 561.812 311.84C561.812 314.528 560.72 316.474 559.306 317.972L560.636 318.574C562.148 317.076 563.394 314.836 563.394 311.84Z" fill="black"/>
<path d="M223.461 420.561V418.865L227.712 412.169H229.174V414.515H228.309L225.629 418.756V418.836H231.67V420.561H223.461ZM228.349 422.35V420.044L228.388 419.293V412.169H230.407V422.35H228.349ZM234.17 422.48C233.842 422.48 233.56 422.364 233.325 422.132C233.093 421.896 232.977 421.615 232.977 421.287C232.977 420.962 233.093 420.683 233.325 420.451C233.56 420.219 233.842 420.103 234.17 420.103C234.488 420.103 234.767 420.219 235.005 420.451C235.244 420.683 235.363 420.962 235.363 421.287C235.363 421.505 235.307 421.706 235.194 421.888C235.085 422.067 234.941 422.211 234.762 422.321C234.583 422.427 234.386 422.48 234.17 422.48ZM237.041 414.23V415.966H249.501V414.23H237.041ZM244.223 414.93L242.529 415.322C243.593 419.172 245.343 422.07 248.549 423.568C248.829 423.078 249.389 422.35 249.809 421.972C246.841 420.796 245.063 418.136 244.223 414.93ZM242.291 410.464C242.249 414.258 242.501 419.578 236.761 422.14C237.251 422.504 237.769 423.106 238.035 423.568C244.041 420.67 244.069 414.734 244.139 410.464H242.291ZM253.617 413.936C254.471 414.384 255.563 415.084 256.067 415.574L257.257 414.538C256.711 414.048 255.591 413.404 254.751 412.998L253.617 413.936ZM259.931 411.514V411.752C258.545 414.37 254.765 416.05 250.985 416.652C251.279 417.016 251.615 417.674 251.755 418.094C255.829 417.268 259.791 415.448 261.611 412.074L260.519 411.444L260.253 411.514H259.931ZM255.507 411.514V412.886H260.309V411.514H255.507ZM256.277 410.422C255.325 411.57 253.589 412.746 251.097 413.558C251.461 413.824 251.979 414.398 252.217 414.79C254.835 413.754 256.683 412.438 258.111 410.814L256.277 410.422ZM255.521 419.242C256.389 419.746 257.481 420.53 257.971 421.062L259.273 420.026C258.713 419.48 257.593 418.766 256.739 418.304L255.521 419.242ZM261.695 416.624V416.862C260.393 420.166 256.599 421.636 252.161 422.098C252.441 422.476 252.749 423.162 252.875 423.624C257.691 422.952 261.737 421.3 263.445 417.128L262.325 416.554L262.031 416.624H261.695ZM257.579 416.624V418.024H262.143V416.624H257.579ZM258.559 415.266C257.481 416.596 255.479 417.94 252.553 418.822C252.903 419.116 253.379 419.732 253.575 420.124C256.669 419.004 258.825 417.52 260.393 415.686L258.559 415.266ZM264.663 417.772V419.116H271.747V417.772H264.663ZM264.831 412.83V414.146H271.705V412.83H264.831ZM267.183 416.764C266.581 418.094 265.657 419.844 264.999 420.922L266.469 421.37C267.141 420.25 268.051 418.542 268.737 417.1L267.183 416.764ZM269.171 418.71C268.723 421.006 267.505 421.888 264.719 422.238C264.999 422.574 265.307 423.162 265.405 423.624C268.737 422.952 270.207 421.776 270.711 418.836L269.171 418.71ZM270.165 410.632C269.941 411.164 269.549 411.92 269.227 412.41L270.305 412.9C270.669 412.466 271.117 411.822 271.579 411.192L270.165 410.632ZM267.491 410.45V416.96H269.031V410.45H267.491ZM265.167 411.192C265.517 411.766 265.839 412.508 265.937 412.998L267.225 412.438C267.099 411.934 266.749 411.22 266.371 410.688L265.167 411.192ZM267.533 413.488C266.931 414.44 265.671 415.434 264.537 415.896C264.845 416.204 265.209 416.764 265.405 417.128C266.581 416.47 267.925 415.252 268.625 414.146L267.533 413.488ZM268.891 413.894L268.107 414.552C268.723 414.986 269.969 415.98 270.487 416.498L271.383 415.336C270.991 415.07 269.395 414.132 268.891 413.894ZM272.671 412.998V414.552H277.809V412.998H272.671ZM272.825 410.45C272.489 412.956 271.803 415.364 270.627 416.792C271.005 417.072 271.691 417.674 271.957 417.982C273.245 416.274 274.085 413.586 274.519 410.688L272.825 410.45ZM275.359 413.95C274.939 418.094 273.721 420.726 270.529 422.126C270.837 422.49 271.327 423.26 271.495 423.666C275.037 421.888 276.479 418.892 277.081 414.104L275.359 413.95ZM273.623 414.244L272.097 414.482C272.783 418.668 274.001 421.916 276.815 423.596C277.067 423.134 277.599 422.462 277.991 422.126C275.415 420.81 274.183 417.786 273.623 414.244ZM266.231 420.936C267.799 421.58 269.423 422.56 270.319 423.344L271.481 422.154C270.529 421.398 268.779 420.418 267.127 419.788L266.231 420.936Z" fill="black"/>
<path d="M4.54403 317.3C3.84138 317.3 3.21496 317.17 2.66477 316.912C2.1179 316.653 1.68371 316.297 1.36222 315.843C1.04072 315.389 0.873343 314.868 0.860085 314.282H2.94815C2.97135 314.676 3.13707 314.996 3.44531 315.241C3.75355 315.487 4.11979 315.609 4.54403 315.609C4.8821 315.609 5.1804 315.535 5.43892 315.386C5.70076 315.233 5.90459 315.023 6.05043 314.754C6.19957 314.482 6.27415 314.171 6.27415 313.819C6.27415 313.462 6.19792 313.147 6.04545 312.875C5.89631 312.603 5.68916 312.391 5.42401 312.239C5.15885 312.086 4.85559 312.008 4.5142 312.005C4.21591 312.005 3.9259 312.066 3.64418 312.189C3.36577 312.311 3.14867 312.479 2.9929 312.691L1.07884 312.348L1.56108 306.979H7.78551V308.739H3.33594L3.07244 311.289H3.1321C3.31108 311.037 3.5812 310.828 3.94247 310.663C4.30374 310.497 4.7081 310.414 5.15554 310.414C5.7687 310.414 6.31558 310.558 6.79616 310.846C7.27675 311.135 7.65625 311.531 7.93466 312.035C8.21307 312.535 8.35062 313.112 8.3473 313.765C8.35062 314.451 8.19152 315.061 7.87003 315.594C7.55185 316.125 7.10606 316.542 6.53267 316.847C5.96259 317.149 5.29972 317.3 4.54403 317.3ZM10.7784 317.29C10.4503 317.29 10.1686 317.174 9.93324 316.942C9.70123 316.706 9.58523 316.425 9.58523 316.096C9.58523 315.772 9.70123 315.493 9.93324 315.261C10.1686 315.029 10.4503 314.913 10.7784 314.913C11.0966 314.913 11.375 315.029 11.6136 315.261C11.8523 315.493 11.9716 315.772 11.9716 316.096C11.9716 316.315 11.9152 316.516 11.8026 316.698C11.6932 316.877 11.549 317.021 11.37 317.131C11.1911 317.237 10.9938 317.29 10.7784 317.29ZM17.1912 310.888V312.484H26.2772V310.888H17.1912ZM17.8912 307.29V308.886H25.6052V307.29H17.8912ZM20.8032 305.274V312.05H22.5532V305.274H20.8032ZM17.1912 316.166L17.4152 317.86C19.3892 317.72 22.1612 317.51 24.7792 317.286V315.774C22.0212 315.928 19.0672 316.096 17.1912 316.166ZM22.5532 314.234C23.5752 315.522 24.6392 317.286 25.0172 318.434L26.6132 317.552C26.1792 316.362 25.0452 314.71 24.0092 313.464L22.5532 314.234ZM19.7252 312.008C19.3612 313.45 18.6612 315.368 18.0312 316.6L19.5292 317.076C20.1732 315.914 20.9712 314.122 21.5872 312.498L19.7252 312.008ZM14.0552 306.562C14.9792 306.954 16.1412 307.626 16.6872 308.13L17.6672 306.758C17.0792 306.268 15.8892 305.666 14.9792 305.33L14.0552 306.562ZM13.2572 310.384C14.1812 310.734 15.3572 311.364 15.9172 311.826L16.8552 310.426C16.2392 309.964 15.0352 309.418 14.1252 309.11L13.2572 310.384ZM13.6492 317.146L15.1052 318.238C15.8892 316.88 16.7152 315.284 17.4012 313.8L16.1272 312.736C15.3572 314.346 14.3492 316.096 13.6492 317.146ZM32.1852 306.618V307.976H37.9952V310.846H32.1292V312.204H39.5912V306.618H32.1852ZM34.9012 305.26V318.406H36.5112V305.26H34.9012ZM31.6252 308.69V310.118H40.4452V308.69H31.6252ZM31.3732 315.032V316.474H40.2912V315.032H31.3732ZM31.9332 312.904V314.276H39.7312V312.904H31.9332ZM30.4212 308.382C29.6232 309.74 28.2932 311.112 27.1312 311.994C27.3692 312.414 27.7892 313.324 27.9012 313.688C29.2732 312.526 30.8552 310.664 31.8492 308.984L30.4212 308.382ZM30.0992 305.302C29.5252 306.226 28.3352 307.374 27.2572 308.046C27.5232 308.382 27.9292 309.068 28.0972 309.46C29.3852 308.606 30.7852 307.22 31.6952 305.932L30.0992 305.302ZM29.1052 311.504V318.42H30.6732V310.048L30.6032 310.006L29.1052 311.504ZM47.8652 310.062C46.8712 310.062 46.0732 310.86 46.0732 311.84C46.0732 312.834 46.8712 313.632 47.8652 313.632C48.8452 313.632 49.6432 312.834 49.6432 311.84C49.6432 310.86 48.8452 310.062 47.8652 310.062ZM55.6352 307.43V308.9H60.7732V307.43H55.6352ZM55.3972 310.678V312.19H60.9972V310.678H55.3972ZM57.4412 305.414V310.468C57.4412 312.596 57.3012 315.508 55.2152 317.034C55.5932 317.328 56.1252 317.902 56.3492 318.252C58.7012 316.32 59.0232 313.086 59.0232 310.468V305.414H57.4412ZM58.7992 312.428L57.7632 313.212C58.3652 313.912 59.5412 315.452 60.0592 316.306L61.1932 315.088C60.8432 314.668 59.2752 312.862 58.7992 312.428ZM62.9852 309.404H66.0512V310.216H62.9852V309.404ZM62.9852 311.546H66.0512V312.372H62.9852V311.546ZM62.9852 307.248H66.0512V308.06H62.9852V307.248ZM61.4312 305.764V313.856H67.6612V305.764H61.4312ZM64.6092 313.338V316.292C64.6092 317.664 64.8752 318.14 66.1212 318.14C66.3592 318.14 66.8212 318.14 67.0592 318.14C68.0532 318.14 68.4312 317.636 68.5712 315.634C68.1652 315.522 67.4932 315.27 67.1992 315.018C67.1572 316.502 67.1152 316.698 66.8912 316.698C66.7932 316.698 66.4852 316.698 66.4012 316.698C66.1912 316.698 66.1772 316.656 66.1772 316.264V313.338H64.6092ZM62.3412 313.618C62.1732 315.228 61.8092 316.46 59.6392 317.174C59.9612 317.468 60.3812 318.056 60.5492 318.434C63.1252 317.468 63.6992 315.802 63.9232 313.618H62.3412ZM76.8872 306.982V314.906H78.5112V306.982H76.8872ZM80.1912 305.554V316.376C80.1912 316.642 80.0792 316.726 79.8132 316.726C79.5192 316.74 78.6092 316.74 77.6852 316.698C77.9372 317.174 78.2032 317.958 78.2732 318.434C79.5612 318.434 80.4992 318.378 81.0872 318.112C81.6472 317.832 81.8572 317.37 81.8572 316.39V305.554H80.1912ZM70.9792 315.032C70.6012 315.928 69.9152 316.852 69.1732 317.454C69.5792 317.678 70.2652 318.168 70.5872 318.462C71.3292 317.748 72.1552 316.6 72.6312 315.48L70.9792 315.032ZM73.2752 315.648C73.8772 316.418 74.5072 317.496 74.7732 318.196L76.3132 317.468C76.0052 316.768 75.3612 315.774 74.7312 315.046L73.2752 315.648ZM71.6652 309.768H74.1432V310.93H71.6652V309.768ZM71.6652 312.26H74.1432V313.422H71.6652V312.26ZM71.6652 307.304H74.1432V308.452H71.6652V307.304ZM70.0832 305.82V314.906H75.8092V305.82H70.0832Z" fill="black"/>
<path d="M213.931 14.1392C213.408 14.1359 212.902 14.0481 212.415 13.8757C211.931 13.7034 211.497 13.4233 211.112 13.0355C210.728 12.6477 210.423 12.134 210.198 11.4943C209.976 10.8546 209.865 10.0691 209.865 9.13778C209.868 8.28267 209.966 7.5187 210.158 6.84588C210.353 6.16974 210.632 5.59635 210.993 5.12571C211.358 4.65507 211.794 4.29711 212.301 4.05185C212.808 3.80327 213.376 3.67898 214.006 3.67898C214.685 3.67898 215.285 3.81155 215.806 4.0767C216.326 4.33854 216.744 4.69484 217.058 5.1456C217.377 5.59635 217.569 6.1018 217.635 6.66193H215.512C215.429 6.30729 215.255 6.02888 214.99 5.8267C214.725 5.62453 214.397 5.52344 214.006 5.52344C213.343 5.52344 212.839 5.81179 212.495 6.38849C212.153 6.9652 211.979 7.74905 211.973 8.74006H212.042C212.195 8.43845 212.4 8.18158 212.659 7.96946C212.92 7.75402 213.217 7.58996 213.549 7.47727C213.883 7.36127 214.236 7.30327 214.607 7.30327C215.211 7.30327 215.748 7.44579 216.218 7.73082C216.689 8.01255 217.06 8.40033 217.332 8.89418C217.604 9.38802 217.74 9.95312 217.74 10.5895C217.74 11.2789 217.579 11.892 217.257 12.429C216.939 12.9659 216.493 13.3868 215.92 13.6918C215.35 13.9934 214.687 14.1425 213.931 14.1392ZM213.921 12.4489C214.253 12.4489 214.549 12.3693 214.811 12.2102C215.073 12.0511 215.279 11.8357 215.428 11.5639C215.577 11.2921 215.651 10.9872 215.651 10.6491C215.651 10.3111 215.577 10.0078 215.428 9.73935C215.282 9.47088 215.08 9.2571 214.821 9.09801C214.563 8.93892 214.268 8.85938 213.936 8.85938C213.688 8.85938 213.457 8.90578 213.245 8.99858C213.036 9.09138 212.852 9.22064 212.693 9.38636C212.538 9.55208 212.415 9.74432 212.325 9.96307C212.236 10.1785 212.191 10.4089 212.191 10.6541C212.191 10.9822 212.266 11.2822 212.415 11.554C212.567 11.8258 212.773 12.0429 213.031 12.2053C213.293 12.3677 213.59 12.4489 213.921 12.4489ZM220.1 14.1293C219.772 14.1293 219.49 14.0133 219.255 13.7812C219.023 13.5459 218.907 13.2642 218.907 12.9361C218.907 12.6113 219.023 12.3329 219.255 12.1009C219.49 11.8688 219.772 11.7528 220.1 11.7528C220.418 11.7528 220.696 11.8688 220.935 12.1009C221.174 12.3329 221.293 12.6113 221.293 12.9361C221.293 13.1548 221.237 13.3554 221.124 13.5376C221.015 13.7166 220.87 13.8608 220.691 13.9702C220.512 14.0762 220.315 14.1293 220.1 14.1293ZM231.861 5.236C230.405 9.8 227.395 12.39 222.551 13.664C222.887 14.07 223.419 14.882 223.615 15.302C228.627 13.734 231.889 10.794 233.653 5.754L231.861 5.236ZM226.457 5.348L224.777 5.852C226.527 10.696 229.411 13.902 234.661 15.274C234.927 14.784 235.473 13.986 235.879 13.594C230.895 12.474 227.871 9.492 226.457 5.348ZM222.803 4.326V5.978H235.627V4.326H222.803ZM228.305 2.114V5.334H230.041V2.114H228.305ZM242.865 2.478V12.544C242.865 14.532 243.383 15.092 245.147 15.092C245.525 15.092 247.149 15.092 247.555 15.092C249.207 15.092 249.655 14.196 249.865 11.774C249.389 11.676 248.703 11.368 248.297 11.074C248.199 13.048 248.087 13.538 247.401 13.538C247.065 13.538 245.665 13.538 245.357 13.538C244.671 13.538 244.573 13.398 244.573 12.558V2.478H242.865ZM248.115 4.816C246.869 5.88 245.007 7.14 243.271 7.966C243.509 8.33 243.831 8.918 243.943 9.31C245.763 8.456 247.765 7.406 249.347 6.286L248.115 4.816ZM240.163 2.296C239.295 4.41 237.825 6.482 236.313 7.784C236.621 8.204 237.111 9.128 237.279 9.562C239.043 7.938 240.765 5.348 241.815 2.856L240.163 2.296ZM238.679 6.244V15.232H240.359V4.62L240.331 4.592L238.679 6.244ZM257.187 6.902C256.193 6.902 255.395 7.7 255.395 8.68C255.395 9.674 256.193 10.472 257.187 10.472C258.167 10.472 258.965 9.674 258.965 8.68C258.965 7.7 258.167 6.902 257.187 6.902ZM266.567 9.366V15.288H268.233V10.64H274.239V15.288H275.989V9.366H266.567ZM267.407 11.438V12.698H274.687V11.438H267.407ZM267.491 13.524V14.784H274.757V13.524H267.491ZM270.291 8.092C270.165 8.624 269.885 9.366 269.633 9.912L271.005 10.206C271.327 9.758 271.733 9.058 272.097 8.344L270.291 8.092ZM265.041 2.744V4.032H269.563V2.744H265.041ZM269.185 2.744V7.378C269.185 7.518 269.129 7.574 268.961 7.574C268.807 7.574 268.275 7.574 267.785 7.56C267.953 7.896 268.149 8.386 268.205 8.75C269.059 8.75 269.675 8.75 270.123 8.554C270.557 8.358 270.697 8.036 270.697 7.378V2.744H269.185ZM271.439 2.744V4.032H276.269V2.744H271.439ZM275.485 2.744V7.322C275.485 7.49 275.429 7.518 275.247 7.532C275.079 7.546 274.449 7.546 273.931 7.518C274.113 7.868 274.295 8.4 274.365 8.778C275.289 8.792 275.961 8.778 276.437 8.582C276.913 8.358 277.053 8.022 277.053 7.336V2.744H275.485ZM271.033 6.86L271.593 8.106C272.643 7.742 273.945 7.252 275.149 6.79L274.897 5.586C273.483 6.09 272.027 6.566 271.033 6.86ZM271.691 4.858C272.321 5.208 273.147 5.74 273.525 6.132L274.365 5.04C273.959 4.662 273.119 4.172 272.489 3.878L271.691 4.858ZM264.663 7.098L265.265 8.47C266.245 8.078 267.435 7.574 268.569 7.084L268.331 5.88C266.973 6.356 265.601 6.832 264.663 7.098ZM265.405 4.872C266.035 5.222 266.819 5.768 267.183 6.146L268.023 5.082C267.645 4.704 266.833 4.214 266.217 3.906L265.405 4.872ZM285.229 9.87H289.107V10.416H285.229V9.87ZM285.229 11.424H289.107V11.97H285.229V11.424ZM285.229 8.33H289.107V8.876H285.229V8.33ZM283.661 7.266V13.034H290.759V7.266H283.661ZM287.777 13.636C288.729 14.14 289.835 14.84 290.451 15.274L291.767 14.336C291.053 13.902 289.849 13.244 288.799 12.726L287.777 13.636ZM285.439 3.64H289.135L289.009 5.754H285.243L285.439 3.64ZM284.095 2.562L283.703 6.832H290.437L290.717 2.562H284.095ZM286.545 3.122C286.503 4.116 286.419 5.334 286.293 6.146H287.679C287.777 5.362 287.903 4.144 287.973 3.122H286.545ZM285.215 12.866C284.571 13.384 283.409 13.86 282.317 14.14C282.653 14.42 283.199 15.022 283.451 15.33C284.599 14.896 285.915 14.182 286.713 13.384L285.215 12.866ZM282.709 3.962V5.39H284.781V5.18H289.597V5.39H291.767V3.962H289.597V4.172H284.781V3.962H282.709ZM280.175 2.114V15.26H281.687V2.114H280.175ZM279.055 4.886C279.041 6.132 278.873 7.672 278.453 8.554L279.447 8.988C279.909 7.966 280.091 6.328 280.063 5.026L279.055 4.886ZM281.519 4.788C281.841 5.726 282.093 6.958 282.121 7.7L283.129 7.364C283.087 6.622 282.807 5.446 282.457 4.508L281.519 4.788Z" fill="black"/>
<path d="M420.404 119.781V118.23L424.028 114.874C424.336 114.576 424.595 114.307 424.804 114.069C425.016 113.83 425.177 113.596 425.286 113.368C425.395 113.136 425.45 112.885 425.45 112.617C425.45 112.319 425.382 112.062 425.246 111.846C425.11 111.628 424.925 111.46 424.689 111.344C424.454 111.225 424.187 111.165 423.889 111.165C423.577 111.165 423.306 111.228 423.074 111.354C422.842 111.48 422.663 111.661 422.537 111.896C422.411 112.131 422.348 112.411 422.348 112.736H420.304C420.304 112.07 420.455 111.492 420.757 111.001C421.058 110.511 421.481 110.131 422.025 109.863C422.568 109.594 423.195 109.46 423.904 109.46C424.633 109.46 425.268 109.589 425.808 109.848C426.352 110.103 426.774 110.458 427.076 110.912C427.377 111.366 427.528 111.886 427.528 112.473C427.528 112.857 427.452 113.237 427.299 113.611C427.15 113.986 426.884 114.402 426.499 114.859C426.115 115.313 425.573 115.858 424.873 116.495L423.387 117.951V118.021H427.662V119.781H420.404ZM430.48 119.91C430.152 119.91 429.87 119.794 429.635 119.562C429.403 119.327 429.287 119.045 429.287 118.717C429.287 118.392 429.403 118.114 429.635 117.882C429.87 117.65 430.152 117.534 430.48 117.534C430.798 117.534 431.077 117.65 431.315 117.882C431.554 118.114 431.673 118.392 431.673 118.717C431.673 118.936 431.617 119.136 431.504 119.319C431.395 119.498 431.251 119.642 431.072 119.751C430.893 119.857 430.696 119.91 430.48 119.91ZM433.379 110.611V112.319H445.769V110.611H433.379ZM436.263 116.967V118.675H442.759V116.967H436.263ZM438.657 107.895V121.041H440.449V107.895H438.657ZM438.153 111.227C437.159 113.803 435.129 116.323 432.833 117.583C433.211 117.919 433.771 118.563 434.051 118.983C436.501 117.443 438.489 114.769 439.693 111.717L438.153 111.227ZM440.953 111.269L439.427 111.773C440.645 114.755 442.605 117.429 445.069 118.941C445.349 118.465 445.951 117.765 446.371 117.415C444.019 116.197 441.975 113.761 440.953 111.269ZM449.101 107.825C448.807 108.945 448.233 110.429 447.729 111.381L449.185 111.759C449.717 110.863 450.347 109.491 450.851 108.203L449.101 107.825ZM446.987 110.695L447.113 112.291C448.709 112.193 450.865 112.067 452.923 111.913L452.937 110.457C450.767 110.555 448.499 110.653 446.987 110.695ZM447.813 112.949V121.027H449.367V114.335H452.265V112.949H447.813ZM451.467 112.949V119.305C451.467 119.487 451.411 119.529 451.243 119.529C451.061 119.543 450.501 119.543 450.011 119.515C450.221 119.921 450.459 120.565 450.543 121.013C451.397 121.013 452.027 120.985 452.517 120.733C452.993 120.481 453.133 120.061 453.133 119.347V112.949H451.467ZM448.527 115.063V116.309H452.405V115.063H448.527ZM448.527 117.121V118.367H452.405V117.121H448.527ZM454.225 107.951V112.179C454.225 113.733 454.631 114.209 456.283 114.209C456.605 114.209 457.865 114.209 458.215 114.209C459.517 114.209 459.965 113.705 460.147 111.885C459.685 111.787 458.999 111.535 458.649 111.269C458.593 112.501 458.509 112.711 458.047 112.711C457.753 112.711 456.745 112.711 456.521 112.711C455.989 112.711 455.905 112.641 455.905 112.151V107.951H454.225ZM458.425 108.777C457.501 109.309 456.059 109.939 454.757 110.345C454.939 110.667 455.163 111.171 455.233 111.507C456.619 111.129 458.243 110.597 459.489 109.995L458.425 108.777ZM454.225 114.489V118.913C454.225 120.467 454.645 120.943 456.297 120.943C456.633 120.943 457.935 120.943 458.285 120.943C459.629 120.943 460.077 120.383 460.259 118.409C459.797 118.311 459.125 118.045 458.775 117.793C458.705 119.221 458.621 119.473 458.131 119.473C457.823 119.473 456.773 119.473 456.535 119.473C455.989 119.473 455.891 119.417 455.891 118.899V114.489H454.225ZM458.537 115.077C457.585 115.693 456.087 116.379 454.729 116.813C454.897 117.135 455.135 117.667 455.219 117.989C456.661 117.583 458.355 116.995 459.629 116.309L458.537 115.077ZM451.005 109.365C451.677 110.415 452.349 111.815 452.587 112.711L454.113 112.095C453.847 111.171 453.119 109.841 452.433 108.833L451.005 109.365Z" fill="black"/>
<path d="M251.837 218.103C250.982 218.1 250.246 217.89 249.63 217.472C249.016 217.054 248.544 216.45 248.213 215.657C247.885 214.865 247.722 213.912 247.725 212.799C247.725 211.688 247.89 210.742 248.218 209.96C248.549 209.178 249.021 208.583 249.635 208.175C250.251 207.764 250.985 207.559 251.837 207.559C252.689 207.559 253.421 207.764 254.034 208.175C254.651 208.586 255.125 209.183 255.456 209.965C255.788 210.744 255.952 211.688 255.949 212.799C255.949 213.916 255.783 214.87 255.451 215.662C255.123 216.455 254.653 217.059 254.039 217.477C253.426 217.895 252.692 218.103 251.837 218.103ZM251.837 216.319C252.42 216.319 252.886 216.025 253.234 215.439C253.582 214.852 253.754 213.972 253.751 212.799C253.751 212.027 253.672 211.384 253.512 210.87C253.357 210.356 253.135 209.97 252.846 209.711C252.561 209.453 252.225 209.324 251.837 209.324C251.257 209.324 250.793 209.614 250.445 210.194C250.097 210.774 249.921 211.642 249.918 212.799C249.918 213.581 249.996 214.234 250.152 214.758C250.311 215.278 250.534 215.669 250.823 215.931C251.111 216.189 251.449 216.319 251.837 216.319Z" fill="black"/>
<ellipse cx="397.122" cy="130.01" rx="2.95478" ry="2.95478" fill="#313131"/>
<path d="M386.957 133.283V132.396L389.028 130.479C389.204 130.308 389.352 130.155 389.471 130.019C389.592 129.882 389.684 129.749 389.746 129.618C389.809 129.485 389.84 129.342 389.84 129.189C389.84 129.019 389.801 128.872 389.724 128.749C389.646 128.624 389.54 128.528 389.406 128.462C389.271 128.394 389.119 128.359 388.948 128.359C388.77 128.359 388.615 128.395 388.482 128.467C388.35 128.539 388.247 128.643 388.175 128.777C388.103 128.912 388.067 129.072 388.067 129.257H386.9C386.9 128.876 386.986 128.546 387.158 128.266C387.331 127.985 387.572 127.769 387.883 127.615C388.193 127.462 388.551 127.385 388.957 127.385C389.373 127.385 389.736 127.459 390.045 127.607C390.355 127.752 390.597 127.955 390.769 128.215C390.942 128.474 391.028 128.771 391.028 129.107C391.028 129.326 390.984 129.543 390.897 129.757C390.812 129.971 390.659 130.209 390.44 130.47C390.22 130.73 389.91 131.041 389.511 131.405L388.661 132.237V132.277H391.104V133.283H386.957Z" fill="black"/>
<ellipse cx="383.53" cy="138.284" rx="2.95478" ry="2.95478" fill="#313131"/>
<path d="M375.515 141.635C375.091 141.635 374.713 141.563 374.382 141.417C374.052 141.269 373.792 141.066 373.6 140.809C373.411 140.549 373.314 140.25 373.308 139.911H374.546C374.554 140.053 374.6 140.178 374.686 140.286C374.773 140.392 374.888 140.474 375.032 140.533C375.176 140.592 375.338 140.621 375.518 140.621C375.706 140.621 375.871 140.588 376.015 140.522C376.159 140.456 376.272 140.364 376.353 140.246C376.435 140.129 376.475 139.993 376.475 139.84C376.475 139.685 376.432 139.547 376.345 139.428C376.26 139.307 376.136 139.212 375.975 139.144C375.816 139.076 375.627 139.042 375.407 139.042H374.865V138.138H375.407C375.593 138.138 375.757 138.106 375.899 138.042C376.043 137.977 376.154 137.888 376.234 137.775C376.314 137.659 376.353 137.525 376.353 137.371C376.353 137.225 376.318 137.098 376.248 136.988C376.18 136.876 376.083 136.789 375.958 136.726C375.835 136.664 375.691 136.633 375.527 136.633C375.36 136.633 375.207 136.663 375.069 136.724C374.931 136.782 374.82 136.867 374.737 136.976C374.653 137.086 374.609 137.215 374.603 137.363H373.424C373.43 137.027 373.526 136.732 373.711 136.476C373.897 136.221 374.147 136.021 374.461 135.877C374.778 135.731 375.135 135.658 375.532 135.658C375.934 135.658 376.285 135.731 376.586 135.877C376.887 136.023 377.121 136.22 377.288 136.468C377.457 136.714 377.54 136.991 377.538 137.297C377.54 137.623 377.439 137.895 377.234 138.113C377.031 138.331 376.767 138.469 376.441 138.527V138.573C376.869 138.628 377.195 138.777 377.419 139.019C377.644 139.26 377.756 139.561 377.754 139.922C377.756 140.254 377.66 140.548 377.467 140.806C377.276 141.063 377.011 141.266 376.674 141.414C376.337 141.562 375.951 141.635 375.515 141.635Z" fill="black"/>
<ellipse cx="369.938" cy="146.557" rx="2.95478" ry="2.95478" fill="#313131"/>
<path d="M359.685 148.807V147.838L362.114 144.011H362.949V145.352H362.455L360.923 147.775V147.821H364.375V148.807H359.685ZM362.477 149.829V148.511L362.5 148.082V144.011H363.653V149.829H362.477Z" fill="black"/>
<ellipse cx="250.565" cy="372.893" rx="2.95478" ry="2.95478" fill="#313131"/>
<path d="M242.525 376.245C242.123 376.245 241.765 376.171 241.451 376.023C241.138 375.876 240.89 375.672 240.707 375.413C240.523 375.153 240.427 374.856 240.42 374.521H241.613C241.626 374.746 241.721 374.929 241.897 375.069C242.073 375.209 242.282 375.279 242.525 375.279C242.718 375.279 242.888 375.236 243.036 375.151C243.186 375.064 243.302 374.944 243.385 374.79C243.471 374.635 243.513 374.457 243.513 374.256C243.513 374.052 243.47 373.872 243.383 373.717C243.297 373.561 243.179 373.44 243.028 373.353C242.876 373.266 242.703 373.221 242.508 373.219C242.337 373.219 242.171 373.254 242.01 373.324C241.851 373.395 241.727 373.49 241.638 373.611L240.545 373.415L240.82 370.347H244.377V371.353H241.834L241.684 372.81H241.718C241.82 372.666 241.975 372.547 242.181 372.452C242.387 372.358 242.618 372.31 242.874 372.31C243.225 372.31 243.537 372.393 243.812 372.557C244.086 372.722 244.303 372.949 244.462 373.236C244.621 373.522 244.7 373.852 244.698 374.225C244.7 374.617 244.609 374.966 244.425 375.271C244.243 375.574 243.989 375.812 243.661 375.986C243.335 376.159 242.957 376.245 242.525 376.245Z" fill="black"/>
<ellipse cx="388.849" cy="290.75" rx="2.95478" ry="2.95478" fill="#313131"/>
<path d="M380.854 294.102C380.416 294.102 380.027 294.031 379.686 293.889C379.347 293.745 379.081 293.549 378.888 293.301C378.695 293.053 378.598 292.772 378.598 292.457C378.598 292.215 378.653 291.992 378.763 291.79C378.875 291.585 379.026 291.416 379.217 291.281C379.409 291.145 379.623 291.058 379.859 291.02V290.98C379.549 290.917 379.297 290.767 379.104 290.528C378.911 290.288 378.814 290.008 378.814 289.69C378.814 289.389 378.902 289.121 379.078 288.886C379.254 288.649 379.496 288.464 379.803 288.329C380.111 288.193 380.462 288.125 380.854 288.125C381.246 288.125 381.595 288.193 381.902 288.329C382.211 288.466 382.453 288.652 382.629 288.889C382.805 289.124 382.894 289.391 382.896 289.69C382.894 290.01 382.796 290.29 382.601 290.528C382.406 290.767 382.156 290.917 381.851 290.98V291.02C382.084 291.058 382.295 291.145 382.484 291.281C382.676 291.416 382.827 291.585 382.939 291.79C383.053 291.992 383.11 292.215 383.112 292.457C383.11 292.772 383.013 293.053 382.82 293.301C382.627 293.549 382.359 293.745 382.019 293.889C381.68 294.031 381.291 294.102 380.854 294.102ZM380.854 293.199C381.049 293.199 381.219 293.164 381.365 293.094C381.511 293.022 381.625 292.923 381.706 292.798C381.789 292.671 381.831 292.525 381.831 292.361C381.831 292.192 381.788 292.043 381.703 291.915C381.618 291.784 381.502 291.682 381.357 291.608C381.211 291.532 381.043 291.494 380.854 291.494C380.666 291.494 380.499 291.532 380.351 291.608C380.203 291.682 380.087 291.784 380.002 291.915C379.918 292.043 379.877 292.192 379.877 292.361C379.877 292.525 379.917 292.671 379.999 292.798C380.08 292.923 380.195 293.022 380.342 293.094C380.49 293.164 380.661 293.199 380.854 293.199ZM380.854 290.599C381.017 290.599 381.162 290.566 381.288 290.5C381.415 290.434 381.515 290.342 381.587 290.224C381.659 290.107 381.695 289.971 381.695 289.818C381.695 289.667 381.659 289.534 381.587 289.42C381.515 289.305 381.416 289.215 381.291 289.15C381.166 289.084 381.02 289.051 380.854 289.051C380.689 289.051 380.543 289.084 380.416 289.15C380.289 289.215 380.19 289.305 380.118 289.42C380.048 289.534 380.013 289.667 380.013 289.818C380.013 289.971 380.049 290.107 380.121 290.224C380.193 290.342 380.292 290.434 380.419 290.5C380.546 290.566 380.691 290.599 380.854 290.599Z" fill="black"/>
<ellipse cx="356.346" cy="154.239" rx="2.95478" ry="2.95478" fill="#313131"/>
<path d="M348.286 151.614C348.585 151.614 348.873 151.664 349.149 151.765C349.428 151.865 349.676 152.025 349.894 152.245C350.113 152.464 350.287 152.756 350.414 153.12C350.542 153.482 350.608 153.926 350.61 154.452C350.61 154.946 350.554 155.388 350.442 155.776C350.332 156.162 350.174 156.491 349.968 156.762C349.761 157.033 349.512 157.239 349.22 157.381C348.929 157.521 348.603 157.591 348.243 157.591C347.855 157.591 347.512 157.517 347.215 157.367C346.917 157.215 346.678 157.01 346.496 156.75C346.316 156.489 346.207 156.196 346.169 155.87H347.382C347.43 156.082 347.529 156.247 347.681 156.364C347.832 156.48 348.02 156.537 348.243 156.537C348.622 156.537 348.91 156.373 349.107 156.043C349.304 155.712 349.403 155.258 349.405 154.682H349.365C349.278 154.853 349.161 155 349.013 155.123C348.865 155.244 348.696 155.338 348.505 155.404C348.315 155.47 348.113 155.503 347.899 155.503C347.557 155.503 347.251 155.423 346.982 155.262C346.713 155.101 346.501 154.879 346.345 154.597C346.19 154.315 346.113 153.993 346.113 153.631C346.111 153.241 346.201 152.893 346.382 152.589C346.564 152.284 346.818 152.045 347.144 151.873C347.471 151.698 347.852 151.612 348.286 151.614ZM348.294 152.58C348.103 152.58 347.933 152.625 347.783 152.716C347.635 152.807 347.518 152.929 347.431 153.083C347.345 153.236 347.304 153.408 347.306 153.597C347.306 153.788 347.347 153.961 347.431 154.114C347.516 154.266 347.631 154.387 347.777 154.478C347.925 154.567 348.094 154.611 348.283 154.611C348.425 154.611 348.557 154.585 348.678 154.532C348.799 154.479 348.904 154.406 348.993 154.313C349.084 154.218 349.155 154.109 349.206 153.986C349.257 153.863 349.283 153.732 349.283 153.594C349.281 153.411 349.238 153.242 349.152 153.089C349.067 152.935 348.95 152.812 348.8 152.719C348.65 152.626 348.482 152.58 348.294 152.58Z" fill="black"/>
<ellipse cx="251.747" cy="345.709" rx="2.95478" ry="2.95478" fill="#313131"/>
<path d="M241.812 348.981L244.224 344.209V344.169H241.414V343.163H245.496V344.183L243.082 348.981H241.812Z" fill="black"/>
<ellipse cx="251.156" cy="359.301" rx="2.95478" ry="2.95478" fill="#313131"/>
<path d="M243.224 362.653C242.924 362.651 242.636 362.601 242.357 362.502C242.081 362.404 241.832 362.244 241.613 362.022C241.393 361.801 241.219 361.507 241.09 361.142C240.963 360.776 240.9 360.327 240.9 359.795C240.902 359.306 240.957 358.87 241.067 358.485C241.179 358.099 241.338 357.771 241.545 357.502C241.753 357.234 242.002 357.029 242.292 356.889C242.582 356.747 242.906 356.676 243.266 356.676C243.654 356.676 243.997 356.752 244.295 356.903C244.592 357.053 244.831 357.256 245.011 357.514C245.192 357.771 245.302 358.06 245.34 358.38H244.127C244.08 358.178 243.98 358.019 243.829 357.903C243.677 357.788 243.49 357.73 243.266 357.73C242.887 357.73 242.6 357.895 242.403 358.224C242.207 358.554 242.108 359.002 242.104 359.568H242.144C242.231 359.395 242.349 359.249 242.496 359.127C242.646 359.004 242.815 358.911 243.005 358.846C243.196 358.78 243.398 358.747 243.61 358.747C243.955 358.747 244.261 358.828 244.53 358.991C244.799 359.152 245.011 359.374 245.167 359.656C245.322 359.938 245.4 360.261 245.4 360.625C245.4 361.019 245.308 361.369 245.124 361.676C244.942 361.983 244.688 362.223 244.36 362.397C244.034 362.57 243.655 362.655 243.224 362.653ZM243.218 361.687C243.407 361.687 243.577 361.642 243.726 361.551C243.876 361.46 243.993 361.337 244.079 361.181C244.164 361.026 244.207 360.852 244.207 360.659C244.207 360.466 244.164 360.292 244.079 360.139C243.995 359.985 243.88 359.863 243.732 359.772C243.584 359.681 243.416 359.636 243.226 359.636C243.084 359.636 242.953 359.663 242.832 359.716C242.712 359.769 242.607 359.842 242.516 359.937C242.427 360.032 242.357 360.142 242.306 360.267C242.255 360.39 242.229 360.521 242.229 360.662C242.229 360.849 242.272 361.02 242.357 361.176C242.444 361.331 242.562 361.455 242.709 361.548C242.859 361.641 243.029 361.687 243.218 361.687Z" fill="black"/>
<ellipse cx="405.627" cy="120.416" rx="1.54162" ry="1.39048" fill="#313131"/>
<path d="M403.08 120.373V126.191H401.85V121.541H401.816L400.483 122.376V121.285L401.924 120.373H403.08Z" fill="black"/>
</svg>
