<svg width="973" height="720" viewBox="0 0 973 720" fill="none" xmlns="http://www.w3.org/2000/svg">
<line x1="425.752" y1="359.566" x2="702.752" y2="201.566" stroke="black" stroke-dasharray="8 8"/>
<line x1="426.25" y1="358.567" x2="701.25" y2="517.567" stroke="black" stroke-dasharray="8 8"/>
<line x1="151.251" y1="199.568" x2="426.251" y2="359.568" stroke="black" stroke-dasharray="8 8"/>
<line x1="426.5" y1="41.0001" x2="426.462" y2="360" stroke="black" stroke-dasharray="8 8"/>
<line x1="426.5" y1="360" x2="426.5" y2="675" stroke="black" stroke-dasharray="8 8"/>
<line x1="426.249" y1="360.434" x2="151.249" y2="518.434" stroke="black" stroke-dasharray="8 8"/>
<path d="M149.372 200.289L426 40.5774L702.628 200.289V519.711L426 679.423L149.372 519.711V200.289Z" fill="#E9E9E9" fill-opacity="0.5" stroke="#B9B9B9"/>
<path d="M73.9894 184.545V202H70.2991V188.048H70.1968L66.1997 190.554V187.281L70.5207 184.545H73.9894ZM82.5079 202.222C81.9454 202.222 81.4624 202.023 81.059 201.625C80.6613 201.222 80.4624 200.739 80.4624 200.176C80.4624 199.619 80.6613 199.142 81.059 198.744C81.4624 198.347 81.9454 198.148 82.5079 198.148C83.0533 198.148 83.5306 198.347 83.9397 198.744C84.3488 199.142 84.5533 199.619 84.5533 200.176C84.5533 200.551 84.4568 200.895 84.2636 201.207C84.0761 201.514 83.8289 201.761 83.5221 201.949C83.2153 202.131 82.8772 202.222 82.5079 202.222ZM104.152 182.56V184.816H115.216V182.56H104.152ZM103.768 189.472V191.728H115.648V189.472H103.768ZM103.768 192.904V195.16H115.552V192.904H103.768ZM104.92 200.92V203.2H114.472V200.92H104.92ZM101.872 185.992V188.32H117.328V185.992H101.872ZM103.384 196.36V204.136H106.144V198.592H113.08V204.064H115.984V196.36H103.384ZM100.096 181.672C98.8 185.104 96.568 188.512 94.288 190.672C94.768 191.368 95.536 192.952 95.776 193.624C98.512 190.912 101.152 186.616 102.784 182.536L100.096 181.672ZM97.792 188.32V204.088H100.528V185.608L100.504 185.584L97.792 188.32ZM130.984 181.648C130.072 182.776 128.392 184.192 126.784 185.2C127.144 185.68 127.648 186.568 127.816 187.096C129.784 186.088 132.04 184.648 133.696 183.208L130.984 181.648ZM126.496 184.36V198.592H129.16V185.08L126.496 184.36ZM124.792 198.232L125.872 200.872C127.792 200.272 130.192 199.576 132.4 198.856L131.968 196.288C129.352 197.032 126.664 197.776 124.792 198.232ZM132.496 184.216V204.16H135.208V186.736H139.48V184.216H132.496ZM137.968 184.216V197.152C137.968 197.44 137.872 197.512 137.632 197.512C137.368 197.512 136.6 197.536 135.832 197.488C136.192 198.232 136.504 199.456 136.552 200.248C138.016 200.248 139.024 200.2 139.768 199.744C140.536 199.264 140.728 198.472 140.728 197.2V184.216H137.968ZM123.76 181.672C122.512 185.104 120.376 188.512 118.192 190.672C118.648 191.368 119.416 192.904 119.68 193.576C122.296 190.84 124.816 186.568 126.376 182.512L123.76 181.672ZM121.456 188.32V204.088H124.192V185.608L124.168 185.584L121.456 188.32Z" fill="black"/>
<path d="M717.866 536.239C716.594 536.239 715.46 536.02 714.466 535.582C713.477 535.139 712.696 534.531 712.122 533.759C711.554 532.98 711.261 532.082 711.244 531.065H714.96C714.983 531.491 715.122 531.866 715.378 532.19C715.639 532.509 715.986 532.756 716.418 532.932C716.849 533.108 717.335 533.196 717.875 533.196C718.438 533.196 718.935 533.097 719.366 532.898C719.798 532.699 720.136 532.423 720.381 532.071C720.625 531.719 720.747 531.312 720.747 530.852C720.747 530.386 720.616 529.974 720.355 529.616C720.099 529.253 719.73 528.969 719.247 528.764C718.77 528.56 718.202 528.457 717.543 528.457H715.915V525.747H717.543C718.099 525.747 718.591 525.651 719.017 525.457C719.449 525.264 719.784 524.997 720.023 524.656C720.261 524.31 720.381 523.906 720.381 523.446C720.381 523.009 720.276 522.625 720.065 522.295C719.861 521.96 719.571 521.699 719.196 521.511C718.827 521.324 718.395 521.23 717.901 521.23C717.401 521.23 716.943 521.321 716.528 521.503C716.114 521.679 715.781 521.932 715.531 522.261C715.281 522.591 715.148 522.977 715.131 523.42H711.594C711.611 522.415 711.898 521.528 712.455 520.761C713.011 519.994 713.761 519.395 714.705 518.963C715.653 518.526 716.724 518.307 717.918 518.307C719.122 518.307 720.176 518.526 721.08 518.963C721.983 519.401 722.685 519.991 723.185 520.736C723.69 521.474 723.94 522.304 723.935 523.224C723.94 524.202 723.636 525.017 723.023 525.67C722.415 526.324 721.622 526.739 720.645 526.915V527.051C721.929 527.216 722.906 527.662 723.577 528.389C724.253 529.111 724.588 530.014 724.582 531.099C724.588 532.094 724.301 532.977 723.722 533.75C723.148 534.523 722.355 535.131 721.344 535.574C720.332 536.017 719.173 536.239 717.866 536.239ZM728.899 536.222C728.337 536.222 727.854 536.023 727.45 535.625C727.053 535.222 726.854 534.739 726.854 534.176C726.854 533.619 727.053 533.142 727.45 532.744C727.854 532.347 728.337 532.148 728.899 532.148C729.445 532.148 729.922 532.347 730.331 532.744C730.74 533.142 730.945 533.619 730.945 534.176C730.945 534.551 730.848 534.895 730.655 535.207C730.467 535.514 730.22 535.761 729.913 535.949C729.607 536.131 729.268 536.222 728.899 536.222ZM742.917 515.624V535.424C742.917 535.832 742.773 535.976 742.317 536C741.909 536 740.493 536.024 739.341 535.976C739.701 536.552 740.157 537.56 740.301 538.232C742.341 538.232 743.637 538.184 744.573 537.824C745.485 537.416 745.845 536.84 745.845 535.424V515.624H742.917ZM733.917 517.184V519.464H755.037V517.184H733.917ZM739.125 522.248H749.733V523.4H739.125V522.248ZM736.389 520.424V525.224H752.685V520.424H736.389ZM735.789 526.28V528.248H750.165V535.664H753.093V526.28H735.789ZM733.365 529.256V531.44H755.589V529.256H733.365ZM735.597 532.568V534.656H751.725V532.568H735.597ZM766.965 515.648V519.488H769.917V515.648H766.965ZM758.181 517.736V522.896H761.037V520.256H775.773V522.896H778.749V517.736H758.181ZM760.317 522.152V524.48H776.805V522.152H760.317ZM757.989 529.76V532.256H779.085V529.76H757.989ZM760.701 525.92V528.248H776.325V525.92H760.701ZM769.893 530.264L767.301 530.792C769.149 535.064 772.221 537.344 777.717 538.232C778.077 537.464 778.821 536.312 779.421 535.712C774.429 535.184 771.309 533.432 769.893 530.264ZM766.893 520.784V527.432C766.893 530.648 765.837 533.936 757.533 535.832C758.157 536.432 758.997 537.536 759.309 538.16C768.045 535.808 769.797 531.68 769.797 527.456V520.784H766.893ZM796.389 526.88C796.389 532.016 798.525 535.856 801.117 538.424L803.397 537.392C800.973 534.824 799.101 531.488 799.101 526.88C799.101 522.296 800.973 518.96 803.397 516.392L801.117 515.36C798.525 517.928 796.389 521.768 796.389 526.88ZM816.861 515.624C816.141 519.176 814.797 522.608 812.877 524.72C813.477 525.08 814.605 525.896 815.061 526.328C817.005 523.928 818.589 520.112 819.453 516.128L816.861 515.624ZM824.925 519.368V519.992C824.541 530.192 824.085 533.912 823.413 534.752C823.125 535.088 822.909 535.208 822.549 535.208C822.093 535.208 821.277 535.184 820.389 535.088C820.821 535.88 821.109 537.104 821.181 537.92C822.237 537.968 823.245 537.968 823.917 537.824C824.709 537.68 825.237 537.392 825.789 536.576C826.701 535.376 827.133 531.44 827.589 520.664C827.613 520.304 827.637 519.368 827.637 519.368H824.925ZM817.581 519.368L816.261 522.032H826.149V519.368H817.581ZM819.261 520.232C818.349 524.264 816.237 528.776 813.453 530.96C814.197 531.368 815.109 532.04 815.661 532.592C818.277 530.144 820.389 525.392 821.349 521.264L819.261 520.232ZM822.597 520.496C821.493 526.664 819.021 532.928 814.821 535.928C815.613 536.312 816.621 537.032 817.173 537.608C821.133 534.296 823.677 527.768 824.829 521.528L822.597 520.496ZM805.101 528.704L805.797 531.464C808.341 530.72 811.629 529.736 814.653 528.8L814.269 526.256C810.957 527.192 807.453 528.176 805.101 528.704ZM809.421 515.624V538.16H812.061V515.624H809.421ZM806.253 516.992C806.037 519.848 805.629 522.848 804.861 524.768C805.437 525.056 806.469 525.728 806.901 526.064C807.765 523.928 808.341 520.568 808.653 517.4L806.253 516.992ZM806.901 520.256L806.373 523.016H814.053V520.256H806.901ZM840.789 523.352H848.061V525.416H840.789V523.352ZM840.789 519.08H848.061V521.096H840.789V519.08ZM838.197 516.632V527.84H850.797V516.632H838.197ZM838.029 529.904V532.496H851.061V529.904H838.029ZM836.349 534.8V537.392H851.853V534.8H836.349ZM829.317 516.992V519.68H837.285V516.992H829.317ZM829.557 523.904V526.568H836.877V523.904H829.557ZM829.053 533.024L829.701 535.952C832.005 535.208 834.885 534.272 837.573 533.36L837.069 530.6C834.189 531.536 831.117 532.496 829.053 533.024ZM831.981 518.048V533.24L834.717 532.808V518.048H831.981ZM843.261 517.664V526.712H842.997V536.024H845.949V526.712H845.685V517.664H843.261ZM864.477 523.832C862.773 523.832 861.405 525.2 861.405 526.88C861.405 528.584 862.773 529.952 864.477 529.952C866.157 529.952 867.525 528.584 867.525 526.88C867.525 525.2 866.157 523.832 864.477 523.832ZM880.893 517.856V538.136H883.701V517.856H880.893ZM877.245 522.368V525.056H886.869V522.368H877.245ZM881.061 523.448C880.293 526.112 878.613 529.592 876.933 531.512C877.389 532.232 878.013 533.432 878.277 534.272C880.125 531.896 881.829 527.624 882.741 524.192L881.061 523.448ZM885.189 515.84C883.197 516.656 880.173 517.4 877.437 517.808C877.725 518.432 878.085 519.392 878.205 520.04C881.013 519.704 884.301 519.104 886.797 518.192L885.189 515.84ZM883.629 525.176L882.381 526.328C883.101 527.36 884.589 529.784 885.141 531.008L886.821 528.752C886.341 528.152 884.229 525.752 883.629 525.176ZM894.189 515.6V538.136H897.021V515.6H894.189ZM886.461 531.08L886.893 533.84L899.853 531.56L899.421 528.848L886.461 531.08ZM888.021 518.696C889.341 519.752 890.925 521.288 891.597 522.32L893.613 520.52C892.869 519.488 891.213 518.048 889.893 517.064L888.021 518.696ZM887.133 525.008C888.525 526.064 890.205 527.648 890.973 528.704L892.941 526.856C892.125 525.8 890.349 524.336 888.957 523.352L887.133 525.008ZM906.069 523.832V526.304H917.133V523.832H906.069ZM901.773 529.208V531.872H923.253V529.208H901.773ZM911.013 527.672V534.992C911.013 535.328 910.869 535.448 910.389 535.448C909.909 535.448 908.109 535.448 906.573 535.4C907.029 536.144 907.557 537.368 907.749 538.184C909.789 538.184 911.325 538.136 912.453 537.752C913.605 537.32 913.965 536.576 913.965 535.088V527.672H911.013ZM916.197 523.832V524.36C915.309 525.536 913.269 527.24 911.421 528.2C911.853 528.584 912.621 529.376 912.957 529.856C915.309 528.728 917.685 526.856 919.341 525.08L917.517 523.688L916.917 523.832H916.197ZM902.061 519.44V525.32H904.773V521.984H920.133V525.32H922.989V519.44H902.061ZM918.693 515.792C918.117 517.136 917.037 518.936 916.125 520.112L918.477 520.976C919.461 519.92 920.709 518.288 921.813 516.704L918.693 515.792ZM903.669 516.968C904.485 517.976 905.373 519.344 905.709 520.232L908.325 519.032C907.941 518.096 906.981 516.8 906.117 515.864L903.669 516.968ZM909.717 516.44C910.437 517.544 911.181 519.056 911.421 520.016L914.157 518.96C913.845 518 913.029 516.536 912.261 515.48L909.717 516.44ZM927.909 519.512V522.032H932.661V533.144H927.909V535.688H935.277V519.512H927.909ZM926.229 519.512V537.464H928.845V519.512H926.229ZM927.789 525.92V528.416H933.933V525.92H927.789ZM929.637 515.6C929.517 516.92 929.181 518.768 928.845 520.016L931.149 520.52C931.629 519.392 932.229 517.688 932.781 516.056L929.637 515.6ZM938.445 519.344V521.96H945.453V519.344H938.445ZM944.469 519.344V519.896C944.205 529.904 943.893 534.032 943.125 534.848C942.813 535.184 942.549 535.28 942.069 535.28C941.469 535.28 940.029 535.256 938.469 535.136C938.997 535.904 939.381 537.128 939.429 537.92C940.821 537.992 942.285 538.016 943.197 537.872C944.181 537.728 944.853 537.464 945.525 536.528C946.509 535.256 946.797 531.44 947.109 520.64C947.133 520.28 947.133 519.344 947.133 519.344H944.469ZM938.517 515.624C937.749 518.816 936.381 522.08 934.773 524.096C935.445 524.48 936.621 525.296 937.149 525.776C938.781 523.472 940.341 519.824 941.277 516.272L938.517 515.624ZM937.341 526.256C938.493 528.032 940.005 530.384 940.653 531.848L943.101 530.36C942.357 528.944 940.773 526.64 939.597 524.984L937.341 526.256ZM956.541 526.88C956.541 521.768 954.405 517.928 951.813 515.36L949.533 516.392C951.957 518.96 953.829 522.296 953.829 526.88C953.829 531.488 951.957 534.824 949.533 537.392L951.813 538.424C954.405 535.856 956.541 532.016 956.541 526.88Z" fill="black"/>
<path d="M378.151 710.932V708.026L385.438 696.545H387.943V700.568H386.46L381.866 707.838V707.974H392.222V710.932H378.151ZM386.528 714V710.045L386.597 708.759V696.545H390.057V714H386.528ZM396.509 714.222C395.946 714.222 395.463 714.023 395.06 713.625C394.662 713.222 394.463 712.739 394.463 712.176C394.463 711.619 394.662 711.142 395.06 710.744C395.463 710.347 395.946 710.148 396.509 710.148C397.054 710.148 397.531 710.347 397.94 710.744C398.349 711.142 398.554 711.619 398.554 712.176C398.554 712.551 398.457 712.895 398.264 713.207C398.077 713.514 397.83 713.761 397.523 713.949C397.216 714.131 396.878 714.222 396.509 714.222ZM401.43 700.08V703.056H422.79V700.08H401.43ZM413.742 701.28L410.838 701.952C412.662 708.552 415.662 713.52 421.158 716.088C421.638 715.248 422.598 714 423.318 713.352C418.23 711.336 415.182 706.776 413.742 701.28ZM410.43 693.624C410.358 700.128 410.79 709.248 400.95 713.64C401.79 714.264 402.678 715.296 403.134 716.088C413.43 711.12 413.478 700.944 413.598 693.624H410.43ZM429.846 699.576C431.31 700.344 433.182 701.544 434.046 702.384L436.086 700.608C435.15 699.768 433.23 698.664 431.79 697.968L429.846 699.576ZM440.67 695.424V695.832C438.294 700.32 431.814 703.2 425.334 704.232C425.838 704.856 426.414 705.984 426.654 706.704C433.638 705.288 440.43 702.168 443.55 696.384L441.678 695.304L441.222 695.424H440.67ZM433.086 695.424V697.776H441.318V695.424H433.086ZM434.406 693.552C432.774 695.52 429.798 697.536 425.526 698.928C426.15 699.384 427.038 700.368 427.446 701.04C431.934 699.264 435.102 697.008 437.55 694.224L434.406 693.552ZM433.11 708.672C434.598 709.536 436.47 710.88 437.31 711.792L439.542 710.016C438.582 709.08 436.662 707.856 435.198 707.064L433.11 708.672ZM443.694 704.184V704.592C441.462 710.256 434.958 712.776 427.35 713.568C427.83 714.216 428.358 715.392 428.574 716.184C436.83 715.032 443.766 712.2 446.694 705.048L444.774 704.064L444.27 704.184H443.694ZM436.638 704.184V706.584H444.462V704.184H436.638ZM438.318 701.856C436.47 704.136 433.038 706.44 428.022 707.952C428.622 708.456 429.438 709.512 429.774 710.184C435.078 708.264 438.774 705.72 441.462 702.576L438.318 701.856ZM448.782 706.152V708.456H460.926V706.152H448.782ZM449.07 697.68V699.936H460.854V697.68H449.07ZM453.102 704.424C452.07 706.704 450.486 709.704 449.358 711.552L451.878 712.32C453.03 710.4 454.59 707.472 455.766 705L453.102 704.424ZM456.51 707.76C455.742 711.696 453.654 713.208 448.878 713.808C449.358 714.384 449.886 715.392 450.054 716.184C455.766 715.032 458.286 713.016 459.15 707.976L456.51 707.76ZM458.214 693.912C457.83 694.824 457.158 696.12 456.606 696.96L458.454 697.8C459.078 697.056 459.846 695.952 460.638 694.872L458.214 693.912ZM453.63 693.6V704.76H456.27V693.6H453.63ZM449.646 694.872C450.246 695.856 450.798 697.128 450.966 697.968L453.174 697.008C452.958 696.144 452.358 694.92 451.71 694.008L449.646 694.872ZM453.702 698.808C452.67 700.44 450.51 702.144 448.566 702.936C449.094 703.464 449.718 704.424 450.054 705.048C452.07 703.92 454.374 701.832 455.574 699.936L453.702 698.808ZM456.03 699.504L454.686 700.632C455.742 701.376 457.878 703.08 458.766 703.968L460.302 701.976C459.63 701.52 456.894 699.912 456.03 699.504ZM462.51 697.968V700.632H471.318V697.968H462.51ZM462.774 693.6C462.198 697.896 461.022 702.024 459.006 704.472C459.654 704.952 460.83 705.984 461.286 706.512C463.494 703.584 464.934 698.976 465.678 694.008L462.774 693.6ZM467.118 699.6C466.398 706.704 464.31 711.216 458.838 713.616C459.366 714.24 460.206 715.56 460.494 716.256C466.566 713.208 469.038 708.072 470.07 699.864L467.118 699.6ZM464.142 700.104L461.526 700.512C462.702 707.688 464.79 713.256 469.614 716.136C470.046 715.344 470.958 714.192 471.63 713.616C467.214 711.36 465.102 706.176 464.142 700.104ZM451.47 711.576C454.158 712.68 456.942 714.36 458.478 715.704L460.47 713.664C458.838 712.368 455.838 710.688 453.006 709.608L451.47 711.576Z" fill="black"/>
<path d="M7.78977 536.239C6.58523 536.239 5.51136 536.017 4.56818 535.574C3.63068 535.131 2.88636 534.52 2.33523 533.741C1.78409 532.963 1.49716 532.071 1.47443 531.065H5.05398C5.09375 531.741 5.37784 532.29 5.90625 532.71C6.43466 533.131 7.0625 533.341 7.78977 533.341C8.36932 533.341 8.88068 533.213 9.32386 532.957C9.77273 532.696 10.1222 532.335 10.3722 531.875C10.6278 531.409 10.7557 530.875 10.7557 530.273C10.7557 529.659 10.625 529.119 10.3636 528.653C10.108 528.187 9.75284 527.824 9.2983 527.562C8.84375 527.301 8.32386 527.168 7.73864 527.162C7.22727 527.162 6.73011 527.267 6.24716 527.477C5.76989 527.687 5.39773 527.974 5.13068 528.338L1.84943 527.75L2.67614 518.545H13.3466V521.562H5.71875L5.26705 525.935H5.36932C5.67614 525.503 6.1392 525.145 6.75852 524.861C7.37784 524.577 8.07102 524.435 8.83807 524.435C9.8892 524.435 10.8267 524.682 11.6506 525.176C12.4744 525.67 13.125 526.349 13.6023 527.213C14.0795 528.071 14.3153 529.06 14.3097 530.179C14.3153 531.355 14.0426 532.401 13.4915 533.315C12.946 534.224 12.1818 534.94 11.1989 535.463C10.2216 535.98 9.08523 536.239 7.78977 536.239ZM18.4773 536.222C17.9148 536.222 17.4318 536.023 17.0284 535.625C16.6307 535.222 16.4318 534.739 16.4318 534.176C16.4318 533.619 16.6307 533.142 17.0284 532.744C17.4318 532.347 17.9148 532.148 18.4773 532.148C19.0227 532.148 19.5 532.347 19.9091 532.744C20.3182 533.142 20.5227 533.619 20.5227 534.176C20.5227 534.551 20.4261 534.895 20.233 535.207C20.0455 535.514 19.7983 535.761 19.4915 535.949C19.1847 536.131 18.8466 536.222 18.4773 536.222ZM29.4707 525.248V527.984H45.0467V525.248H29.4707ZM30.6707 519.08V521.816H43.8947V519.08H30.6707ZM35.6627 515.624V527.24H38.6627V515.624H35.6627ZM29.4707 534.296L29.8547 537.2C33.2387 536.96 37.9907 536.6 42.4787 536.216V533.624C37.7507 533.888 32.6867 534.176 29.4707 534.296ZM38.6627 530.984C40.4147 533.192 42.2387 536.216 42.8867 538.184L45.6227 536.672C44.8787 534.632 42.9347 531.8 41.1587 529.664L38.6627 530.984ZM33.8147 527.168C33.1907 529.64 31.9907 532.928 30.9107 535.04L33.4787 535.856C34.5827 533.864 35.9507 530.792 37.0067 528.008L33.8147 527.168ZM24.0947 517.832C25.6787 518.504 27.6707 519.656 28.6067 520.52L30.2867 518.168C29.2787 517.328 27.2387 516.296 25.6787 515.72L24.0947 517.832ZM22.7267 524.384C24.3107 524.984 26.3267 526.064 27.2867 526.856L28.8947 524.456C27.8387 523.664 25.7747 522.728 24.2147 522.2L22.7267 524.384ZM23.3987 535.976L25.8947 537.848C27.2387 535.52 28.6547 532.784 29.8307 530.24L27.6467 528.416C26.3267 531.176 24.5987 534.176 23.3987 535.976ZM55.1747 517.928V520.256H65.1347V525.176H55.0787V527.504H67.8707V517.928H55.1747ZM59.8307 515.6V538.136H62.5907V515.6H59.8307ZM54.2147 521.48V523.928H69.3347V521.48H54.2147ZM53.7827 532.352V534.824H69.0707V532.352H53.7827ZM54.7427 528.704V531.056H68.1107V528.704H54.7427ZM52.1507 520.952C50.7827 523.28 48.5027 525.632 46.5107 527.144C46.9187 527.864 47.6387 529.424 47.8307 530.048C50.1827 528.056 52.8947 524.864 54.5987 521.984L52.1507 520.952ZM51.5987 515.672C50.6147 517.256 48.5747 519.224 46.7267 520.376C47.1827 520.952 47.8787 522.128 48.1667 522.8C50.3747 521.336 52.7747 518.96 54.3347 516.752L51.5987 515.672ZM49.8947 526.304V538.16H52.5827V523.808L52.4627 523.736L49.8947 526.304ZM82.0547 523.832C80.3507 523.832 78.9827 525.2 78.9827 526.88C78.9827 528.584 80.3507 529.952 82.0547 529.952C83.7347 529.952 85.1027 528.584 85.1027 526.88C85.1027 525.2 83.7347 523.832 82.0547 523.832ZM95.3747 519.32V521.84H104.183V519.32H95.3747ZM94.9667 524.888V527.48H104.567V524.888H94.9667ZM98.4707 515.864V524.528C98.4707 528.176 98.2307 533.168 94.6547 535.784C95.3027 536.288 96.2147 537.272 96.5987 537.872C100.631 534.56 101.183 529.016 101.183 524.528V515.864H98.4707ZM100.799 527.888L99.0227 529.232C100.055 530.432 102.071 533.072 102.959 534.536L104.903 532.448C104.303 531.728 101.615 528.632 100.799 527.888ZM107.975 522.704H113.231V524.096H107.975V522.704ZM107.975 526.376H113.231V527.792H107.975V526.376ZM107.975 519.008H113.231V520.4H107.975V519.008ZM105.311 516.464V530.336H115.991V516.464H105.311ZM110.759 529.448V534.512C110.759 536.864 111.215 537.68 113.351 537.68C113.759 537.68 114.551 537.68 114.959 537.68C116.663 537.68 117.311 536.816 117.551 533.384C116.855 533.192 115.703 532.76 115.199 532.328C115.127 534.872 115.055 535.208 114.671 535.208C114.503 535.208 113.975 535.208 113.831 535.208C113.471 535.208 113.447 535.136 113.447 534.464V529.448H110.759ZM106.871 529.928C106.583 532.688 105.959 534.8 102.239 536.024C102.791 536.528 103.511 537.536 103.799 538.184C108.215 536.528 109.199 533.672 109.583 529.928H106.871ZM131.807 518.552V532.136H134.591V518.552H131.807ZM137.471 516.104V534.656C137.471 535.112 137.279 535.256 136.823 535.256C136.319 535.28 134.759 535.28 133.175 535.208C133.607 536.024 134.063 537.368 134.183 538.184C136.391 538.184 137.999 538.088 139.007 537.632C139.967 537.152 140.327 536.36 140.327 534.68V516.104H137.471ZM121.679 532.352C121.031 533.888 119.855 535.472 118.583 536.504C119.279 536.888 120.455 537.728 121.007 538.232C122.279 537.008 123.695 535.04 124.511 533.12L121.679 532.352ZM125.615 533.408C126.647 534.728 127.727 536.576 128.183 537.776L130.823 536.528C130.295 535.328 129.191 533.624 128.111 532.376L125.615 533.408ZM122.855 523.328H127.103V525.32H122.855V523.328ZM122.855 527.6H127.103V529.592H122.855V527.6ZM122.855 519.104H127.103V521.072H122.855V519.104ZM120.143 516.56V532.136H129.959V516.56H120.143Z" fill="black"/>
<path d="M362.114 23.2386C361.216 23.233 360.349 23.0824 359.514 22.7869C358.685 22.4915 357.94 22.0114 357.281 21.3466C356.622 20.6818 356.099 19.8011 355.713 18.7045C355.332 17.608 355.142 16.2614 355.142 14.6648C355.148 13.1989 355.315 11.8892 355.645 10.7358C355.98 9.5767 356.457 8.59375 357.077 7.78693C357.702 6.98011 358.449 6.36648 359.318 5.94602C360.188 5.51989 361.162 5.30682 362.241 5.30682C363.406 5.30682 364.435 5.53409 365.327 5.98864C366.219 6.4375 366.935 7.0483 367.474 7.82102C368.02 8.59375 368.349 9.46023 368.463 10.4205H364.824C364.682 9.8125 364.384 9.33523 363.929 8.98864C363.474 8.64205 362.912 8.46875 362.241 8.46875C361.105 8.46875 360.241 8.96307 359.651 9.9517C359.065 10.9403 358.767 12.2841 358.756 13.983H358.875C359.136 13.4659 359.489 13.0256 359.932 12.6619C360.381 12.2926 360.889 12.0114 361.457 11.8182C362.031 11.6193 362.636 11.5199 363.273 11.5199C364.307 11.5199 365.227 11.7642 366.034 12.2528C366.841 12.7358 367.477 13.4006 367.943 14.2472C368.409 15.0937 368.642 16.0625 368.642 17.1534C368.642 18.3352 368.366 19.3864 367.815 20.3068C367.27 21.2273 366.506 21.9489 365.523 22.4716C364.545 22.9886 363.409 23.2443 362.114 23.2386ZM362.097 20.3409C362.665 20.3409 363.173 20.2045 363.622 19.9318C364.071 19.6591 364.423 19.2898 364.679 18.8239C364.935 18.358 365.062 17.8352 365.062 17.2557C365.062 16.6761 364.935 16.1562 364.679 15.696C364.429 15.2358 364.082 14.8693 363.639 14.5966C363.196 14.3239 362.69 14.1875 362.122 14.1875C361.696 14.1875 361.301 14.267 360.938 14.4261C360.58 14.5852 360.264 14.8068 359.991 15.0909C359.724 15.375 359.514 15.7045 359.361 16.0795C359.207 16.4489 359.131 16.8437 359.131 17.2642C359.131 17.8267 359.259 18.3409 359.514 18.8068C359.776 19.2727 360.128 19.6449 360.571 19.9233C361.02 20.2017 361.528 20.3409 362.097 20.3409ZM372.688 23.2216C372.126 23.2216 371.643 23.0227 371.239 22.625C370.842 22.2216 370.643 21.7386 370.643 21.1761C370.643 20.6193 370.842 20.142 371.239 19.7443C371.643 19.3466 372.126 19.1477 372.688 19.1477C373.234 19.1477 373.711 19.3466 374.12 19.7443C374.529 20.142 374.734 20.6193 374.734 21.1761C374.734 21.5511 374.637 21.8949 374.444 22.2074C374.256 22.5142 374.009 22.7614 373.702 22.9489C373.396 23.1307 373.058 23.2216 372.688 23.2216ZM392.85 7.976C390.354 15.8 385.194 20.24 376.89 22.424C377.466 23.12 378.378 24.512 378.714 25.232C387.306 22.544 392.898 17.504 395.922 8.864L392.85 7.976ZM383.586 8.168L380.706 9.032C383.706 17.336 388.65 22.832 397.65 25.184C398.106 24.344 399.042 22.976 399.738 22.304C391.194 20.384 386.01 15.272 383.586 8.168ZM377.322 6.416V9.248H399.306V6.416H377.322ZM386.754 2.624V8.144H389.73V2.624H386.754ZM411.714 3.248V20.504C411.714 23.912 412.602 24.872 415.626 24.872C416.274 24.872 419.058 24.872 419.754 24.872C422.586 24.872 423.354 23.336 423.714 19.184C422.898 19.016 421.722 18.488 421.026 17.984C420.858 21.368 420.666 22.208 419.49 22.208C418.914 22.208 416.514 22.208 415.986 22.208C414.81 22.208 414.642 21.968 414.642 20.528V3.248H411.714ZM420.714 7.256C418.578 9.08 415.386 11.24 412.41 12.656C412.818 13.28 413.37 14.288 413.562 14.96C416.682 13.496 420.114 11.696 422.826 9.776L420.714 7.256ZM407.082 2.936C405.594 6.56 403.074 10.112 400.482 12.344C401.01 13.064 401.85 14.648 402.138 15.392C405.162 12.608 408.114 8.168 409.914 3.896L407.082 2.936ZM404.538 9.704V25.112H407.418V6.92L407.37 6.872L404.538 9.704ZM436.266 10.832C434.562 10.832 433.194 12.2 433.194 13.88C433.194 15.584 434.562 16.952 436.266 16.952C437.946 16.952 439.314 15.584 439.314 13.88C439.314 12.2 437.946 10.832 436.266 10.832ZM452.346 15.056V25.208H455.202V17.24H465.498V25.208H468.498V15.056H452.346ZM453.786 18.608V20.768H466.266V18.608H453.786ZM453.93 22.184V24.344H466.386V22.184H453.93ZM458.73 12.872C458.514 13.784 458.034 15.056 457.602 15.992L459.954 16.496C460.506 15.728 461.202 14.528 461.826 13.304L458.73 12.872ZM449.73 3.704V5.912H457.482V3.704H449.73ZM456.834 3.704V11.648C456.834 11.888 456.738 11.984 456.45 11.984C456.186 11.984 455.274 11.984 454.434 11.96C454.722 12.536 455.058 13.376 455.154 14C456.618 14 457.674 14 458.442 13.664C459.186 13.328 459.426 12.776 459.426 11.648V3.704H456.834ZM460.698 3.704V5.912H468.978V3.704H460.698ZM467.634 3.704V11.552C467.634 11.84 467.538 11.888 467.226 11.912C466.938 11.936 465.858 11.936 464.97 11.888C465.282 12.488 465.594 13.4 465.714 14.048C467.298 14.072 468.45 14.048 469.266 13.712C470.082 13.328 470.322 12.752 470.322 11.576V3.704H467.634ZM460.002 10.76L460.962 12.896C462.762 12.272 464.994 11.432 467.058 10.64L466.626 8.576C464.202 9.44 461.706 10.256 460.002 10.76ZM461.13 7.328C462.21 7.928 463.626 8.84 464.274 9.512L465.714 7.64C465.018 6.992 463.578 6.152 462.498 5.648L461.13 7.328ZM449.082 11.168L450.114 13.52C451.794 12.848 453.834 11.984 455.778 11.144L455.37 9.08C453.042 9.896 450.69 10.712 449.082 11.168ZM450.354 7.352C451.434 7.952 452.778 8.888 453.402 9.536L454.842 7.712C454.194 7.064 452.802 6.224 451.746 5.696L450.354 7.352ZM484.338 15.92H490.986V16.856H484.338V15.92ZM484.338 18.584H490.986V19.52H484.338V18.584ZM484.338 13.28H490.986V14.216H484.338V13.28ZM481.65 11.456V21.344H493.818V11.456H481.65ZM488.706 22.376C490.338 23.24 492.234 24.44 493.29 25.184L495.546 23.576C494.322 22.832 492.258 21.704 490.458 20.816L488.706 22.376ZM484.698 5.24H491.034L490.818 8.864H484.362L484.698 5.24ZM482.394 3.392L481.722 10.712H493.266L493.746 3.392H482.394ZM486.594 4.352C486.522 6.056 486.378 8.144 486.162 9.536H488.538C488.706 8.192 488.922 6.104 489.042 4.352H486.594ZM484.314 21.056C483.21 21.944 481.218 22.76 479.346 23.24C479.922 23.72 480.858 24.752 481.29 25.28C483.258 24.536 485.514 23.312 486.882 21.944L484.314 21.056ZM480.018 5.792V8.24H483.57V7.88H491.826V8.24H495.546V5.792H491.826V6.152H483.57V5.792H480.018ZM475.674 2.624V25.16H478.266V2.624H475.674ZM473.754 7.376C473.73 9.512 473.442 12.152 472.722 13.664L474.426 14.408C475.218 12.656 475.53 9.848 475.482 7.616L473.754 7.376ZM477.978 7.208C478.53 8.816 478.962 10.928 479.01 12.2L480.738 11.624C480.666 10.352 480.186 8.336 479.586 6.728L477.978 7.208Z" fill="black"/>
<path d="M711.415 202V199.341L717.628 193.588C718.156 193.077 718.599 192.616 718.957 192.207C719.321 191.798 719.597 191.398 719.784 191.006C719.972 190.608 720.065 190.179 720.065 189.719C720.065 189.207 719.949 188.767 719.716 188.398C719.483 188.023 719.165 187.736 718.761 187.537C718.358 187.332 717.901 187.23 717.389 187.23C716.855 187.23 716.389 187.338 715.991 187.554C715.594 187.77 715.287 188.08 715.071 188.483C714.855 188.886 714.747 189.366 714.747 189.923H711.244C711.244 188.781 711.503 187.79 712.02 186.949C712.537 186.108 713.261 185.457 714.193 184.997C715.125 184.537 716.199 184.307 717.415 184.307C718.665 184.307 719.753 184.528 720.679 184.972C721.611 185.409 722.335 186.017 722.852 186.795C723.369 187.574 723.628 188.466 723.628 189.472C723.628 190.131 723.497 190.781 723.236 191.423C722.98 192.065 722.523 192.778 721.864 193.562C721.205 194.341 720.276 195.276 719.077 196.366L716.528 198.864V198.983H723.858V202H711.415ZM728.688 202.222C728.126 202.222 727.643 202.023 727.239 201.625C726.842 201.222 726.643 200.739 726.643 200.176C726.643 199.619 726.842 199.142 727.239 198.744C727.643 198.347 728.126 198.148 728.688 198.148C729.234 198.148 729.711 198.347 730.12 198.744C730.529 199.142 730.734 199.619 730.734 200.176C730.734 200.551 730.637 200.895 730.444 201.207C730.256 201.514 730.009 201.761 729.702 201.949C729.396 202.131 729.058 202.222 728.688 202.222ZM733.658 186.28V189.208H754.898V186.28H733.658ZM738.602 197.176V200.104H749.738V197.176H738.602ZM742.706 181.624V204.16H745.778V181.624H742.706ZM741.842 187.336C740.138 191.752 736.658 196.072 732.722 198.232C733.37 198.808 734.33 199.912 734.81 200.632C739.01 197.992 742.418 193.408 744.482 188.176L741.842 187.336ZM746.642 187.408L744.026 188.272C746.114 193.384 749.474 197.968 753.698 200.56C754.178 199.744 755.21 198.544 755.93 197.944C751.898 195.856 748.394 191.68 746.642 187.408ZM760.61 181.504C760.106 183.424 759.122 185.968 758.258 187.6L760.754 188.248C761.666 186.712 762.746 184.36 763.61 182.152L760.61 181.504ZM756.986 186.424L757.202 189.16C759.938 188.992 763.634 188.776 767.162 188.512L767.186 186.016C763.466 186.184 759.578 186.352 756.986 186.424ZM758.402 190.288V204.136H761.066V192.664H766.034V190.288H758.402ZM764.666 190.288V201.184C764.666 201.496 764.57 201.568 764.282 201.568C763.97 201.592 763.01 201.592 762.17 201.544C762.53 202.24 762.938 203.344 763.082 204.112C764.546 204.112 765.626 204.064 766.466 203.632C767.282 203.2 767.522 202.48 767.522 201.256V190.288H764.666ZM759.626 193.912V196.048H766.274V193.912H759.626ZM759.626 197.44V199.576H766.274V197.44H759.626ZM769.394 181.72V188.968C769.394 191.632 770.09 192.448 772.922 192.448C773.474 192.448 775.634 192.448 776.234 192.448C778.466 192.448 779.234 191.584 779.546 188.464C778.754 188.296 777.578 187.864 776.978 187.408C776.882 189.52 776.738 189.88 775.946 189.88C775.442 189.88 773.714 189.88 773.33 189.88C772.418 189.88 772.274 189.76 772.274 188.92V181.72H769.394ZM776.594 183.136C775.01 184.048 772.538 185.128 770.306 185.824C770.618 186.376 771.002 187.24 771.122 187.816C773.498 187.168 776.282 186.256 778.418 185.224L776.594 183.136ZM769.394 192.928V200.512C769.394 203.176 770.114 203.992 772.946 203.992C773.522 203.992 775.754 203.992 776.354 203.992C778.658 203.992 779.426 203.032 779.738 199.648C778.946 199.48 777.794 199.024 777.194 198.592C777.074 201.04 776.93 201.472 776.09 201.472C775.562 201.472 773.762 201.472 773.354 201.472C772.418 201.472 772.25 201.376 772.25 200.488V192.928H769.394ZM776.786 193.936C775.154 194.992 772.586 196.168 770.258 196.912C770.546 197.464 770.954 198.376 771.098 198.928C773.57 198.232 776.474 197.224 778.658 196.048L776.786 193.936ZM763.874 184.144C765.026 185.944 766.178 188.344 766.586 189.88L769.202 188.824C768.746 187.24 767.498 184.96 766.322 183.232L763.874 184.144Z" fill="black"/>
<path d="M426.259 368.384C424.793 368.378 423.531 368.017 422.474 367.301C421.423 366.585 420.614 365.548 420.045 364.19C419.483 362.832 419.205 361.199 419.21 359.29C419.21 357.386 419.491 355.764 420.054 354.423C420.622 353.082 421.432 352.062 422.483 351.364C423.54 350.659 424.798 350.307 426.259 350.307C427.719 350.307 428.974 350.659 430.026 351.364C431.082 352.068 431.895 353.091 432.463 354.432C433.031 355.767 433.313 357.386 433.307 359.29C433.307 361.205 433.023 362.841 432.455 364.199C431.892 365.557 431.085 366.594 430.034 367.31C428.983 368.026 427.724 368.384 426.259 368.384ZM426.259 365.324C427.259 365.324 428.057 364.821 428.653 363.815C429.25 362.81 429.545 361.301 429.54 359.29C429.54 357.966 429.403 356.864 429.131 355.983C428.864 355.102 428.483 354.44 427.989 353.997C427.5 353.554 426.923 353.332 426.259 353.332C425.264 353.332 424.469 353.83 423.872 354.824C423.276 355.818 422.974 357.307 422.969 359.29C422.969 360.631 423.102 361.75 423.369 362.648C423.642 363.54 424.026 364.21 424.52 364.659C425.014 365.102 425.594 365.324 426.259 365.324Z" fill="black"/>
<circle cx="702" cy="358" r="5" fill="#313131"/>
<path d="M684.825 364V362.449L688.45 359.093C688.758 358.795 689.016 358.526 689.225 358.288C689.437 358.049 689.598 357.815 689.707 357.587C689.817 357.355 689.871 357.104 689.871 356.836C689.871 356.538 689.804 356.281 689.668 356.065C689.532 355.847 689.346 355.679 689.111 355.563C688.875 355.444 688.609 355.384 688.31 355.384C687.999 355.384 687.727 355.447 687.495 355.573C687.263 355.699 687.084 355.88 686.958 356.115C686.832 356.35 686.769 356.63 686.769 356.955H684.726C684.726 356.289 684.877 355.711 685.178 355.22C685.48 354.73 685.902 354.35 686.446 354.082C686.99 353.813 687.616 353.679 688.325 353.679C689.054 353.679 689.689 353.808 690.229 354.067C690.773 354.322 691.196 354.677 691.497 355.131C691.799 355.585 691.95 356.105 691.95 356.692C691.95 357.076 691.873 357.456 691.721 357.83C691.572 358.205 691.305 358.621 690.92 359.078C690.536 359.532 689.994 360.077 689.295 360.714L687.808 362.17V362.24H692.084V364H684.825Z" fill="black"/>
<circle cx="433" cy="55" r="5" fill="#313131"/>
<path d="M419.589 61.1392C418.846 61.1392 418.185 61.0116 417.605 60.7564C417.028 60.4979 416.573 60.1432 416.238 59.6925C415.906 59.2384 415.736 58.7147 415.726 58.1214H417.893C417.907 58.37 417.988 58.5888 418.137 58.7777C418.29 58.9633 418.492 59.1075 418.744 59.2102C418.996 59.313 419.279 59.3643 419.594 59.3643C419.922 59.3643 420.212 59.3063 420.464 59.1903C420.716 59.0743 420.913 58.9136 421.055 58.7081C421.198 58.5026 421.269 58.2656 421.269 57.9972C421.269 57.7254 421.193 57.4851 421.04 57.2763C420.891 57.0642 420.676 56.8984 420.394 56.7791C420.116 56.6598 419.784 56.6001 419.4 56.6001H418.45V55.0192H419.4C419.725 55.0192 420.011 54.9628 420.26 54.8501C420.512 54.7375 420.707 54.5817 420.847 54.3828C420.986 54.1806 421.055 53.9453 421.055 53.6768C421.055 53.4216 420.994 53.1979 420.871 53.0057C420.752 52.8101 420.583 52.6577 420.364 52.5483C420.149 52.4389 419.897 52.3842 419.609 52.3842C419.317 52.3842 419.05 52.4373 418.808 52.5433C418.566 52.6461 418.372 52.7936 418.227 52.9858C418.081 53.178 418.003 53.4034 417.993 53.6619H415.93C415.94 53.0753 416.107 52.5582 416.432 52.1108C416.757 51.6634 417.194 51.3137 417.744 51.0618C418.298 50.8066 418.923 50.679 419.619 50.679C420.321 50.679 420.936 50.8066 421.463 51.0618C421.99 51.317 422.399 51.6617 422.691 52.0959C422.986 52.5268 423.132 53.0107 423.129 53.5476C423.132 54.1177 422.955 54.5933 422.597 54.9744C422.242 55.3556 421.78 55.5975 421.21 55.7003V55.7798C421.959 55.8759 422.529 56.1361 422.92 56.5604C423.314 56.9813 423.51 57.5083 423.506 58.1413C423.51 58.7214 423.342 59.2367 423.004 59.6875C422.67 60.1383 422.207 60.4929 421.617 60.7514C421.027 61.0099 420.351 61.1392 419.589 61.1392Z" fill="black"/>
<circle cx="433" cy="77" r="5" fill="#313131"/>
<path d="M415.671 81.2102V79.5149L419.922 72.8182H421.384V75.1648H420.518L417.839 79.4055V79.4851H423.879V81.2102H415.671ZM420.558 83V80.6932L420.598 79.9425V72.8182H422.616V83H420.558Z" fill="black"/>
<circle cx="410" cy="68" r="5" fill="#313131"/>
<path d="M396.544 74.1392C395.841 74.1392 395.215 74.0099 394.665 73.7514C394.118 73.4929 393.684 73.1366 393.362 72.6825C393.041 72.2285 392.873 71.7081 392.86 71.1214H394.948C394.971 71.5159 395.137 71.8357 395.445 72.081C395.754 72.3262 396.12 72.4489 396.544 72.4489C396.882 72.4489 397.18 72.3743 397.439 72.2251C397.701 72.0727 397.905 71.8622 398.05 71.5938C398.2 71.322 398.274 71.0104 398.274 70.6591C398.274 70.3011 398.198 69.9863 398.045 69.7145C397.896 69.4427 397.689 69.2306 397.424 69.0781C397.159 68.9257 396.856 68.8478 396.514 68.8445C396.216 68.8445 395.926 68.9058 395.644 69.0284C395.366 69.151 395.149 69.3184 394.993 69.5305L393.079 69.1875L393.561 63.8182H399.786V65.5781H395.336L395.072 68.1286H395.132C395.311 67.8767 395.581 67.6679 395.942 67.5021C396.304 67.3364 396.708 67.2536 397.156 67.2536C397.769 67.2536 398.316 67.3977 398.796 67.6861C399.277 67.9744 399.656 68.3705 399.935 68.8743C400.213 69.3748 400.351 69.9515 400.347 70.6044C400.351 71.2905 400.192 71.9003 399.87 72.4339C399.552 72.9643 399.106 73.3819 398.533 73.6868C397.963 73.9884 397.3 74.1392 396.544 74.1392Z" fill="black"/>
<circle cx="677" cy="521" r="5" fill="#313131"/>
<path d="M663.624 527.139C662.858 527.139 662.177 527.015 661.58 526.766C660.987 526.514 660.521 526.171 660.183 525.737C659.845 525.303 659.676 524.811 659.676 524.261C659.676 523.836 659.772 523.447 659.964 523.092C660.16 522.734 660.425 522.438 660.76 522.202C661.095 521.964 661.469 521.811 661.884 521.745V521.675C661.34 521.566 660.899 521.303 660.561 520.885C660.223 520.464 660.054 519.975 660.054 519.418C660.054 518.891 660.208 518.422 660.516 518.011C660.825 517.597 661.247 517.272 661.784 517.037C662.324 516.798 662.938 516.679 663.624 516.679C664.31 516.679 664.921 516.798 665.458 517.037C665.998 517.276 666.423 517.602 666.731 518.016C667.039 518.427 667.195 518.895 667.198 519.418C667.195 519.978 667.022 520.467 666.681 520.885C666.34 521.303 665.902 521.566 665.369 521.675V521.745C665.776 521.811 666.146 521.964 666.477 522.202C666.812 522.438 667.077 522.734 667.273 523.092C667.472 523.447 667.573 523.836 667.576 524.261C667.573 524.811 667.402 525.303 667.064 525.737C666.726 526.171 666.259 526.514 665.662 526.766C665.069 527.015 664.389 527.139 663.624 527.139ZM663.624 525.558C663.965 525.558 664.263 525.497 664.518 525.374C664.774 525.248 664.973 525.076 665.115 524.857C665.261 524.635 665.334 524.38 665.334 524.092C665.334 523.797 665.259 523.536 665.11 523.311C664.961 523.082 664.759 522.903 664.504 522.774C664.248 522.642 663.955 522.575 663.624 522.575C663.295 522.575 663.002 522.642 662.744 522.774C662.485 522.903 662.281 523.082 662.132 523.311C661.986 523.536 661.913 523.797 661.913 524.092C661.913 524.38 661.985 524.635 662.127 524.857C662.27 525.076 662.47 525.248 662.729 525.374C662.987 525.497 663.286 525.558 663.624 525.558ZM663.624 521.009C663.909 521.009 664.162 520.951 664.384 520.835C664.606 520.719 664.78 520.558 664.906 520.353C665.032 520.147 665.095 519.911 665.095 519.642C665.095 519.377 665.032 519.145 664.906 518.946C664.78 518.744 664.608 518.586 664.389 518.474C664.17 518.358 663.915 518.3 663.624 518.3C663.335 518.3 663.08 518.358 662.858 518.474C662.636 518.586 662.462 518.744 662.336 518.946C662.213 519.145 662.152 519.377 662.152 519.642C662.152 519.911 662.215 520.147 662.341 520.353C662.467 520.558 662.641 520.719 662.863 520.835C663.085 520.951 663.339 521.009 663.624 521.009Z" fill="black"/>
<circle cx="451" cy="67" r="5" fill="#313131"/>
<path d="M437.509 62.679C438.033 62.679 438.537 62.7668 439.021 62.9425C439.508 63.1181 439.942 63.3982 440.323 63.7827C440.708 64.1671 441.011 64.6776 441.233 65.3139C441.458 65.947 441.573 66.7242 441.576 67.6456C441.576 68.5107 441.478 69.2829 441.283 69.9624C441.09 70.6385 440.814 71.2135 440.452 71.6875C440.091 72.1615 439.655 72.5227 439.145 72.7713C438.634 73.0166 438.064 73.1392 437.435 73.1392C436.755 73.1392 436.155 73.0083 435.635 72.7464C435.115 72.4813 434.695 72.1217 434.377 71.6676C434.062 71.2102 433.872 70.6965 433.805 70.1264H435.928C436.011 70.4976 436.185 70.786 436.45 70.9915C436.715 71.1937 437.044 71.2947 437.435 71.2947C438.098 71.2947 438.601 71.0064 438.946 70.4297C439.291 69.8497 439.465 69.0559 439.468 68.0483H439.398C439.246 68.3466 439.04 68.6035 438.782 68.8189C438.523 69.031 438.227 69.1951 437.892 69.3111C437.561 69.4271 437.208 69.4851 436.833 69.4851C436.233 69.4851 435.698 69.3442 435.227 69.0625C434.757 68.7808 434.385 68.393 434.114 67.8991C433.842 67.4053 433.706 66.8419 433.706 66.2088C433.703 65.526 433.86 64.9179 434.178 64.3842C434.496 63.8506 434.941 63.433 435.511 63.1314C436.084 62.8265 436.75 62.6757 437.509 62.679ZM437.524 64.3693C437.189 64.3693 436.891 64.4489 436.629 64.608C436.371 64.767 436.165 64.9808 436.013 65.2493C435.864 65.5178 435.791 65.8177 435.794 66.1491C435.794 66.4839 435.867 66.7855 436.013 67.054C436.162 67.3191 436.364 67.5312 436.619 67.6903C436.878 67.8461 437.173 67.924 437.504 67.924C437.753 67.924 437.983 67.8776 438.195 67.7848C438.407 67.692 438.591 67.5644 438.747 67.402C438.906 67.2363 439.031 67.0457 439.12 66.8303C439.21 66.6148 439.254 66.3861 439.254 66.1442C439.251 65.8227 439.175 65.5277 439.026 65.2592C438.876 64.9908 438.671 64.7753 438.409 64.6129C438.147 64.4505 437.852 64.3693 437.524 64.3693Z" fill="black"/>
<circle cx="410" cy="90" r="5" fill="#313131"/>
<path d="M392.255 85.8182V96H390.102V87.8615H390.043L387.711 89.3232V87.4141L390.232 85.8182H392.255ZM398.667 96.2237C397.812 96.2204 397.076 96.0099 396.46 95.5923C395.847 95.1747 395.374 94.5698 395.043 93.7777C394.715 92.9856 394.552 92.0327 394.556 90.919C394.556 89.8087 394.72 88.8625 395.048 88.0803C395.379 87.2981 395.852 86.7031 396.465 86.2955C397.081 85.8845 397.815 85.679 398.667 85.679C399.519 85.679 400.251 85.8845 400.865 86.2955C401.481 86.7064 401.955 87.303 402.286 88.0852C402.618 88.8641 402.782 89.8087 402.779 90.919C402.779 92.036 402.613 92.9905 402.281 93.7827C401.953 94.5748 401.483 95.1797 400.869 95.5973C400.256 96.0149 399.522 96.2237 398.667 96.2237ZM398.667 94.4389C399.25 94.4389 399.716 94.1456 400.064 93.5589C400.412 92.9723 400.584 92.0923 400.581 90.919C400.581 90.1468 400.502 89.5038 400.343 88.9901C400.187 88.4763 399.965 88.0902 399.676 87.8317C399.391 87.5732 399.055 87.4439 398.667 87.4439C398.087 87.4439 397.623 87.7339 397.275 88.3139C396.927 88.8939 396.751 89.7623 396.748 90.919C396.748 91.7012 396.826 92.3542 396.982 92.8778C397.141 93.3982 397.365 93.7893 397.653 94.0511C397.941 94.3097 398.279 94.4389 398.667 94.4389Z" fill="black"/>
<circle cx="456" cy="95" r="5" fill="#313131"/>
<path d="M438.255 90.8182V101H436.102V92.8615H436.043L433.711 94.3232V92.4141L436.232 90.8182H438.255ZM440.675 101V99.4489L444.299 96.093C444.607 95.7947 444.866 95.5263 445.075 95.2876C445.287 95.049 445.448 94.8153 445.557 94.5866C445.666 94.3546 445.721 94.1044 445.721 93.8359C445.721 93.5376 445.653 93.2808 445.517 93.0653C445.381 92.8466 445.196 92.6792 444.96 92.5632C444.725 92.4439 444.458 92.3842 444.16 92.3842C443.848 92.3842 443.577 92.4472 443.345 92.5732C443.113 92.6991 442.934 92.8797 442.808 93.1151C442.682 93.3504 442.619 93.6304 442.619 93.9553H440.575C440.575 93.2891 440.726 92.7107 441.028 92.2202C441.329 91.7296 441.752 91.3501 442.296 91.0817C442.839 90.8132 443.466 90.679 444.175 90.679C444.904 90.679 445.539 90.8082 446.079 91.0668C446.623 91.322 447.045 91.6766 447.347 92.1307C447.648 92.5848 447.799 93.1051 447.799 93.6918C447.799 94.0762 447.723 94.4557 447.57 94.8303C447.421 95.2048 447.155 95.6207 446.77 96.0781C446.386 96.5322 445.844 97.0774 445.144 97.7138L443.658 99.1705V99.2401H447.933V101H440.675Z" fill="black"/>
<circle cx="284" cy="133" r="5" fill="#313131"/>
<path d="M266.255 128.818V139H264.102V130.862H264.043L261.711 132.323V130.414L264.232 128.818H266.255ZM273.105 128.818V139H270.952V130.862H270.892L268.561 132.323V130.414L271.081 128.818H273.105Z" fill="black"/>
<circle cx="662" cy="475" r="5" fill="#313131"/>
<path d="M645.228 481L649.449 472.648V472.578H644.532V470.818H651.676V472.603L647.45 481H645.228Z" fill="black"/>
<circle cx="691" cy="478" r="5" fill="#313131"/>
<path d="M677.733 484.139C677.209 484.136 676.704 484.048 676.217 483.876C675.733 483.703 675.299 483.423 674.914 483.036C674.53 482.648 674.225 482.134 673.999 481.494C673.777 480.855 673.666 480.069 673.666 479.138C673.67 478.283 673.767 477.519 673.96 476.846C674.155 476.17 674.433 475.596 674.795 475.126C675.159 474.655 675.595 474.297 676.102 474.052C676.609 473.803 677.178 473.679 677.808 473.679C678.487 473.679 679.087 473.812 679.607 474.077C680.128 474.339 680.545 474.695 680.86 475.146C681.178 475.596 681.371 476.102 681.437 476.662H679.314C679.231 476.307 679.057 476.029 678.792 475.827C678.527 475.625 678.199 475.523 677.808 475.523C677.145 475.523 676.641 475.812 676.296 476.388C675.955 476.965 675.781 477.749 675.774 478.74H675.844C675.996 478.438 676.202 478.182 676.46 477.969C676.722 477.754 677.019 477.59 677.35 477.477C677.685 477.361 678.038 477.303 678.409 477.303C679.012 477.303 679.549 477.446 680.02 477.731C680.491 478.013 680.862 478.4 681.134 478.894C681.405 479.388 681.541 479.953 681.541 480.589C681.541 481.279 681.38 481.892 681.059 482.429C680.741 482.966 680.295 483.387 679.722 483.692C679.152 483.993 678.489 484.143 677.733 484.139ZM677.723 482.449C678.054 482.449 678.351 482.369 678.613 482.21C678.875 482.051 679.08 481.836 679.229 481.564C679.379 481.292 679.453 480.987 679.453 480.649C679.453 480.311 679.379 480.008 679.229 479.739C679.084 479.471 678.881 479.257 678.623 479.098C678.364 478.939 678.069 478.859 677.738 478.859C677.489 478.859 677.259 478.906 677.047 478.999C676.838 479.091 676.654 479.221 676.495 479.386C676.339 479.552 676.217 479.744 676.127 479.963C676.038 480.179 675.993 480.409 675.993 480.654C675.993 480.982 676.067 481.282 676.217 481.554C676.369 481.826 676.575 482.043 676.833 482.205C677.095 482.368 677.392 482.449 677.723 482.449Z" fill="black"/>
<circle cx="655" cy="512" r="5" fill="#313131"/>
<path d="M637.255 507.818V518H635.102V509.862H635.043L632.711 511.323V509.414L635.232 507.818H637.255ZM643.438 518.139C642.696 518.139 642.035 518.012 641.455 517.756C640.878 517.498 640.422 517.143 640.088 516.692C639.756 516.238 639.585 515.715 639.575 515.121H641.743C641.756 515.37 641.838 515.589 641.987 515.778C642.139 515.963 642.341 516.107 642.593 516.21C642.845 516.313 643.128 516.364 643.443 516.364C643.771 516.364 644.061 516.306 644.313 516.19C644.565 516.074 644.762 515.914 644.905 515.708C645.048 515.503 645.119 515.266 645.119 514.997C645.119 514.725 645.043 514.485 644.89 514.276C644.741 514.064 644.526 513.898 644.244 513.779C643.965 513.66 643.634 513.6 643.249 513.6H642.3V512.019H643.249C643.574 512.019 643.861 511.963 644.11 511.85C644.361 511.737 644.557 511.582 644.696 511.383C644.835 511.181 644.905 510.945 644.905 510.677C644.905 510.422 644.844 510.198 644.721 510.006C644.602 509.81 644.433 509.658 644.214 509.548C643.999 509.439 643.747 509.384 643.458 509.384C643.167 509.384 642.9 509.437 642.658 509.543C642.416 509.646 642.222 509.794 642.076 509.986C641.93 510.178 641.852 510.403 641.843 510.662H639.779C639.789 510.075 639.957 509.558 640.281 509.111C640.606 508.663 641.044 508.314 641.594 508.062C642.147 507.807 642.772 507.679 643.468 507.679C644.171 507.679 644.786 507.807 645.313 508.062C645.84 508.317 646.249 508.662 646.541 509.096C646.836 509.527 646.981 510.011 646.978 510.548C646.981 511.118 646.804 511.593 646.446 511.974C646.092 512.356 645.629 512.598 645.059 512.7V512.78C645.808 512.876 646.378 513.136 646.769 513.56C647.164 513.981 647.359 514.508 647.356 515.141C647.359 515.721 647.192 516.237 646.854 516.688C646.519 517.138 646.057 517.493 645.467 517.751C644.877 518.01 644.201 518.139 643.438 518.139Z" fill="black"/>
<path d="M611.255 483.818V494H609.102V485.862H609.043L606.711 487.323V485.414L609.232 483.818H611.255ZM613.521 492.21V490.515L617.771 483.818H619.233V486.165H618.368L615.688 490.406V490.485H621.729V492.21H613.521ZM618.408 494V491.693L618.448 490.942V483.818H620.466V494H618.408Z" fill="black"/>
<circle cx="630" cy="489" r="5" fill="#313131"/>
<ellipse cx="690.217" cy="502" rx="4.78261" ry="5" fill="#313131"/>
<path d="M678.255 497.818V508H676.102V499.862H676.043L673.711 501.323V499.414L676.232 497.818H678.255Z" fill="black"/>
</svg>
